<?xml version="1.0" encoding="UTF-8" standalone="no"?>
<svg
   viewBox="0 0 448 448"
   version="1.1"
   id="svg1"
   sodipodi:docname="bluesky.svg"
   width="448"
   height="448"
   inkscape:version="1.4 (e7c3feb100, 2024-10-09)"
   xmlns:inkscape="http://www.inkscape.org/namespaces/inkscape"
   xmlns:sodipodi="http://sodipodi.sourceforge.net/DTD/sodipodi-0.dtd"
   xmlns="http://www.w3.org/2000/svg"
   xmlns:svg="http://www.w3.org/2000/svg">
  <defs
     id="defs1" />
  <sodipodi:namedview
     id="namedview1"
     pagecolor="#ffffff"
     bordercolor="#666666"
     borderopacity="1.0"
     inkscape:showpageshadow="2"
     inkscape:pageopacity="0.0"
     inkscape:pagecheckerboard="0"
     inkscape:deskcolor="#d1d1d1"
     inkscape:zoom="1.7324219"
     inkscape:cx="224.25254"
     inkscape:cy="224.25254"
     inkscape:window-width="1920"
     inkscape:window-height="1118"
     inkscape:window-x="0"
     inkscape:window-y="0"
     inkscape:window-maximized="1"
     inkscape:current-layer="svg1" />
  <!--!Font Awesome Free 6.7.2 by @fontawesome - https://fontawesome.com License - https://fontawesome.com/license/free Copyright 2025 Fonticons, Inc.-->
  <path
     d="M 64,0 C 28.7,0 0,28.7 0,64 v 320 c 0,35.3 28.7,64 64,64 h 320 c 35.3,0 64,-28.7 64,-64 V 64 C 448,28.7 419.3,0 384,0 Z m 160,215.4 c 14.5,-30 54,-85.8 90.7,-113.3 26.5,-19.9 69.3,-35.2 69.3,13.7 0,9.8 -5.6,82.1 -8.9,93.8 -11.4,40.8 -53,51.2 -90,44.9 64.7,11 81.2,47.5 45.6,84 -67.5,69.3 -97,-17.4 -104.6,-39.6 0,0 0,0 0,0 l -0.3,-0.9 c -0.9,-2.6 -1.4,-4.1 -1.8,-4.1 -0.4,0 -0.9,1.5 -1.8,4.1 -0.1,0.3 -0.2,0.6 -0.3,0.9 0,0 0,0 0,0 -7.6,22.2 -37.1,108.8 -104.6,39.6 -35.5,-36.5 -19.1,-73 45.6,-84 -37,6.3 -78.6,-4.1 -90,-44.9 -3.3,-11.7 -8.9,-84 -8.9,-93.8 0,-48.9 42.9,-33.5 69.3,-13.7 36.7,27.5 76.2,83.4 90.7,113.3 z"
     id="path1" />
</svg>
