<svg width="324" height="368" viewBox="0 0 324 368" fill="none" xmlns="http://www.w3.org/2000/svg">
<path d="M162.134 367L1.00001 275.5L1 92.5L162.134 1L323.267 92.5V275.5L162.134 367Z" fill="#DADADA" stroke="#444444" stroke-linejoin="round"/>
<path d="M162.134 350.091L15.8884 267.046L15.8884 100.954L162.134 17.9087L308.379 100.954V267.046L162.134 350.091Z" fill="white" stroke="#444444" stroke-linejoin="round"/>
<path d="M111.625 252H211.375C219.245 252 225.625 246.627 225.625 240V156C225.625 149.373 219.245 144 211.375 144H111.625C103.755 144 97.375 149.373 97.375 156V240C97.375 246.627 103.755 252 111.625 252ZM111.625 252L190 186L225.625 216M147.25 177C147.25 181.971 142.465 186 136.562 186C130.66 186 125.875 181.971 125.875 177C125.875 172.029 130.66 168 136.562 168C142.465 168 147.25 172.029 147.25 177Z" stroke="#444444" stroke-width="4" stroke-linecap="round" stroke-linejoin="round"/>
<path d="M101.728 76.4545H103.745L107.779 83.2443H107.95L111.984 76.4545H114.001L108.745 85.0057V91H106.984V85.0057L101.728 76.4545ZM118.941 91.2273C117.956 91.2273 117.092 90.9929 116.348 90.5241C115.61 90.0554 115.032 89.3996 114.615 88.5568C114.203 87.714 113.997 86.7292 113.997 85.6023C113.997 84.4659 114.203 83.474 114.615 82.6264C115.032 81.7789 115.61 81.1207 116.348 80.652C117.092 80.1832 117.956 79.9489 118.941 79.9489C119.925 79.9489 120.787 80.1832 121.526 80.652C122.269 81.1207 122.847 81.7789 123.259 82.6264C123.675 83.474 123.884 84.4659 123.884 85.6023C123.884 86.7292 123.675 87.714 123.259 88.5568C122.847 89.3996 122.269 90.0554 121.526 90.5241C120.787 90.9929 119.925 91.2273 118.941 91.2273ZM118.941 89.7216C119.689 89.7216 120.304 89.5298 120.787 89.1463C121.27 88.7628 121.628 88.2585 121.86 87.6335C122.092 87.0085 122.208 86.3314 122.208 85.6023C122.208 84.8731 122.092 84.1937 121.86 83.5639C121.628 82.9342 121.27 82.4252 120.787 82.0369C120.304 81.6487 119.689 81.4545 118.941 81.4545C118.192 81.4545 117.577 81.6487 117.094 82.0369C116.611 82.4252 116.253 82.9342 116.021 83.5639C115.789 84.1937 115.673 84.8731 115.673 85.6023C115.673 86.3314 115.789 87.0085 116.021 87.6335C116.253 88.2585 116.611 88.7628 117.094 89.1463C117.577 89.5298 118.192 89.7216 118.941 89.7216ZM133.317 86.5398V80.0909H134.993V91H133.317V89.1534H133.204C132.948 89.7074 132.55 90.1785 132.01 90.5668C131.471 90.9503 130.789 91.142 129.965 91.142C129.283 91.142 128.677 90.9929 128.147 90.6946C127.617 90.3916 127.2 89.937 126.897 89.331C126.594 88.7202 126.442 87.9508 126.442 87.0227V80.0909H128.118V86.9091C128.118 87.7045 128.341 88.339 128.786 88.8125C129.236 89.286 129.809 89.5227 130.505 89.5227C130.921 89.5227 131.345 89.4162 131.776 89.2031C132.212 88.9901 132.576 88.6634 132.87 88.223C133.168 87.7827 133.317 87.2216 133.317 86.5398ZM138.063 91V80.0909H139.683V81.7386H139.796C139.995 81.1989 140.355 80.7609 140.876 80.4247C141.397 80.0885 141.984 79.9205 142.637 79.9205C142.76 79.9205 142.914 79.9228 143.099 79.9276C143.284 79.9323 143.423 79.9394 143.518 79.9489V81.6534C143.461 81.6392 143.331 81.6179 143.127 81.5895C142.928 81.5563 142.718 81.5398 142.495 81.5398C141.965 81.5398 141.491 81.651 141.075 81.8736C140.663 82.0914 140.336 82.3944 140.095 82.7827C139.858 83.1662 139.74 83.6042 139.74 84.0966V91H138.063ZM151.357 91V76.4545H156.272C157.413 76.4545 158.346 76.6605 159.07 77.0724C159.799 77.4796 160.339 78.0312 160.689 78.7273C161.04 79.4233 161.215 80.1998 161.215 81.0568C161.215 81.9138 161.04 82.6927 160.689 83.3935C160.344 84.0942 159.809 84.6529 159.084 85.0696C158.36 85.4815 157.432 85.6875 156.3 85.6875H152.778V84.125H156.243C157.025 84.125 157.652 83.9901 158.126 83.7202C158.599 83.4503 158.942 83.0857 159.155 82.6264C159.373 82.1624 159.482 81.6392 159.482 81.0568C159.482 80.4744 159.373 79.9536 159.155 79.4943C158.942 79.035 158.597 78.6752 158.118 78.4148C157.64 78.1496 157.006 78.017 156.215 78.017H153.118V91H151.357ZM163.825 91V80.0909H165.444V81.7386H165.558C165.757 81.1989 166.117 80.7609 166.638 80.4247C167.158 80.0885 167.746 79.9205 168.399 79.9205C168.522 79.9205 168.676 79.9228 168.861 79.9276C169.045 79.9323 169.185 79.9394 169.28 79.9489V81.6534C169.223 81.6392 169.093 81.6179 168.889 81.5895C168.69 81.5563 168.479 81.5398 168.257 81.5398C167.727 81.5398 167.253 81.651 166.836 81.8736C166.425 82.0914 166.098 82.3944 165.856 82.7827C165.62 83.1662 165.501 83.6042 165.501 84.0966V91H163.825ZM175.366 91.2273C174.381 91.2273 173.517 90.9929 172.774 90.5241C172.035 90.0554 171.458 89.3996 171.041 88.5568C170.629 87.714 170.423 86.7292 170.423 85.6023C170.423 84.4659 170.629 83.474 171.041 82.6264C171.458 81.7789 172.035 81.1207 172.774 80.652C173.517 80.1832 174.381 79.9489 175.366 79.9489C176.351 79.9489 177.213 80.1832 177.952 80.652C178.695 81.1207 179.273 81.7789 179.684 82.6264C180.101 83.474 180.309 84.4659 180.309 85.6023C180.309 86.7292 180.101 87.714 179.684 88.5568C179.273 89.3996 178.695 90.0554 177.952 90.5241C177.213 90.9929 176.351 91.2273 175.366 91.2273ZM175.366 89.7216C176.114 89.7216 176.73 89.5298 177.213 89.1463C177.696 88.7628 178.053 88.2585 178.285 87.6335C178.517 87.0085 178.633 86.3314 178.633 85.6023C178.633 84.8731 178.517 84.1937 178.285 83.5639C178.053 82.9342 177.696 82.4252 177.213 82.0369C176.73 81.6487 176.114 81.4545 175.366 81.4545C174.618 81.4545 174.003 81.6487 173.52 82.0369C173.037 82.4252 172.679 82.9342 172.447 83.5639C172.215 84.1937 172.099 84.8731 172.099 85.6023C172.099 86.3314 172.215 87.0085 172.447 87.6335C172.679 88.2585 173.037 88.7628 173.52 89.1463C174.003 89.5298 174.618 89.7216 175.366 89.7216ZM182.868 80.0909H184.544V91.7955C184.544 92.4678 184.428 93.0502 184.196 93.5426C183.969 94.035 183.623 94.4162 183.159 94.6861C182.7 94.956 182.12 95.0909 181.419 95.0909C181.362 95.0909 181.306 95.0909 181.249 95.0909C181.192 95.0909 181.135 95.0909 181.078 95.0909V93.5284C181.135 93.5284 181.187 93.5284 181.235 93.5284C181.282 93.5284 181.334 93.5284 181.391 93.5284C181.902 93.5284 182.276 93.3769 182.513 93.0739C182.75 92.7756 182.868 92.3494 182.868 91.7955V80.0909ZM183.692 78.2727C183.365 78.2727 183.084 78.1615 182.847 77.9389C182.615 77.7164 182.499 77.4489 182.499 77.1364C182.499 76.8239 182.615 76.5563 182.847 76.3338C183.084 76.1113 183.365 76 183.692 76C184.019 76 184.298 76.1113 184.53 76.3338C184.767 76.5563 184.885 76.8239 184.885 77.1364C184.885 77.4489 184.767 77.7164 184.53 77.9389C184.298 78.1615 184.019 78.2727 183.692 78.2727ZM192.188 91.2273C191.137 91.2273 190.23 90.9953 189.468 90.5312C188.71 90.0625 188.126 89.4091 187.714 88.571C187.306 87.7282 187.103 86.7481 187.103 85.6307C187.103 84.5133 187.306 83.5284 187.714 82.6761C188.126 81.8191 188.698 81.1515 189.432 80.6733C190.171 80.1903 191.033 79.9489 192.018 79.9489C192.586 79.9489 193.147 80.0436 193.701 80.233C194.255 80.4223 194.759 80.7301 195.214 81.1562C195.668 81.5777 196.03 82.1364 196.3 82.8324C196.57 83.5284 196.705 84.3854 196.705 85.4034V86.1136H188.296V84.6648H195.001C195.001 84.0492 194.877 83.5 194.631 83.017C194.39 82.5341 194.044 82.1529 193.594 81.8736C193.149 81.5942 192.624 81.4545 192.018 81.4545C191.35 81.4545 190.772 81.6203 190.285 81.9517C189.802 82.2784 189.43 82.7045 189.17 83.2301C188.909 83.7557 188.779 84.3191 188.779 84.9205V85.8864C188.779 86.7102 188.921 87.4086 189.205 87.9815C189.494 88.5497 189.894 88.983 190.405 89.2812C190.917 89.5748 191.511 89.7216 192.188 89.7216C192.628 89.7216 193.026 89.66 193.381 89.5369C193.741 89.4091 194.051 89.2197 194.312 88.9688C194.572 88.7131 194.773 88.3958 194.915 88.017L196.535 88.4716C196.364 89.0208 196.078 89.5038 195.675 89.9205C195.273 90.3324 194.776 90.6544 194.184 90.8864C193.592 91.1136 192.927 91.2273 192.188 91.2273ZM203.687 91.2273C202.664 91.2273 201.783 90.9858 201.045 90.5028C200.306 90.0199 199.738 89.3546 199.34 88.5071C198.942 87.6596 198.743 86.6913 198.743 85.6023C198.743 84.4943 198.947 83.5166 199.354 82.669C199.766 81.8168 200.339 81.1515 201.073 80.6733C201.812 80.1903 202.673 79.9489 203.658 79.9489C204.425 79.9489 205.117 80.0909 205.732 80.375C206.348 80.6591 206.852 81.0568 207.245 81.5682C207.638 82.0795 207.882 82.6761 207.976 83.358H206.3C206.172 82.8608 205.888 82.4205 205.448 82.0369C205.012 81.6487 204.425 81.4545 203.687 81.4545C203.033 81.4545 202.46 81.625 201.968 81.9659C201.48 82.3021 201.099 82.7779 200.824 83.3935C200.555 84.0043 200.42 84.7216 200.42 85.5455C200.42 86.3883 200.552 87.1222 200.817 87.7472C201.087 88.3722 201.466 88.8575 201.954 89.2031C202.446 89.5488 203.024 89.7216 203.687 89.7216C204.122 89.7216 204.518 89.6458 204.873 89.4943C205.228 89.3428 205.528 89.125 205.775 88.8409C206.021 88.5568 206.196 88.2159 206.3 87.8182H207.976C207.882 88.4621 207.647 89.0421 207.273 89.5582C206.904 90.0696 206.414 90.4768 205.803 90.7798C205.197 91.0781 204.492 91.2273 203.687 91.2273ZM215.171 80.0909V81.5114H209.518V80.0909H215.171ZM211.165 77.4773H212.841V87.875C212.841 88.3485 212.91 88.7036 213.047 88.9403C213.189 89.1723 213.369 89.3286 213.587 89.4091C213.81 89.4848 214.044 89.5227 214.29 89.5227C214.475 89.5227 214.626 89.5133 214.745 89.4943C214.863 89.4706 214.958 89.4517 215.029 89.4375L215.37 90.9432C215.256 90.9858 215.098 91.0284 214.894 91.071C214.69 91.1184 214.432 91.142 214.12 91.142C213.646 91.142 213.182 91.0402 212.728 90.8366C212.278 90.633 211.904 90.3229 211.606 89.9062C211.312 89.4896 211.165 88.964 211.165 88.3295V77.4773ZM121.71 100.455V115H120.005L112.079 103.58H111.937V115H110.175V100.455H111.88L119.835 111.903H119.977V100.455H121.71ZM128.217 115.256C127.526 115.256 126.898 115.125 126.335 114.865C125.771 114.6 125.324 114.219 124.993 113.722C124.661 113.22 124.495 112.614 124.495 111.903C124.495 111.278 124.618 110.772 124.865 110.384C125.111 109.991 125.44 109.683 125.852 109.46C126.264 109.238 126.718 109.072 127.216 108.963C127.717 108.849 128.222 108.759 128.728 108.693C129.391 108.608 129.929 108.544 130.341 108.501C130.757 108.454 131.06 108.376 131.25 108.267C131.444 108.158 131.541 107.969 131.541 107.699V107.642C131.541 106.941 131.349 106.397 130.966 106.009C130.587 105.62 130.011 105.426 129.24 105.426C128.44 105.426 127.812 105.601 127.358 105.952C126.903 106.302 126.583 106.676 126.399 107.074L124.808 106.506C125.092 105.843 125.471 105.327 125.944 104.957C126.422 104.583 126.943 104.323 127.507 104.176C128.075 104.025 128.634 103.949 129.183 103.949C129.533 103.949 129.936 103.991 130.39 104.077C130.85 104.157 131.292 104.325 131.718 104.581C132.149 104.837 132.507 105.223 132.791 105.739C133.075 106.255 133.217 106.946 133.217 107.812V115H131.541V113.523H131.456C131.342 113.759 131.153 114.013 130.887 114.283C130.622 114.553 130.27 114.782 129.829 114.972C129.389 115.161 128.851 115.256 128.217 115.256ZM128.473 113.75C129.136 113.75 129.694 113.62 130.149 113.359C130.608 113.099 130.954 112.763 131.186 112.351C131.422 111.939 131.541 111.506 131.541 111.051V109.517C131.47 109.602 131.314 109.68 131.072 109.751C130.835 109.818 130.561 109.877 130.248 109.929C129.94 109.976 129.64 110.019 129.346 110.057C129.057 110.09 128.823 110.118 128.643 110.142C128.208 110.199 127.8 110.291 127.422 110.419C127.047 110.542 126.744 110.729 126.512 110.98C126.285 111.226 126.172 111.562 126.172 111.989C126.172 112.571 126.387 113.011 126.818 113.31C127.253 113.603 127.805 113.75 128.473 113.75ZM136.276 115V104.091H137.896V105.795H138.038C138.265 105.213 138.632 104.761 139.138 104.439C139.645 104.112 140.254 103.949 140.964 103.949C141.683 103.949 142.282 104.112 142.761 104.439C143.244 104.761 143.62 105.213 143.89 105.795H144.004C144.283 105.232 144.702 104.785 145.261 104.453C145.819 104.117 146.489 103.949 147.271 103.949C148.246 103.949 149.044 104.254 149.664 104.865C150.284 105.471 150.594 106.416 150.594 107.699V115H148.918V107.699C148.918 106.894 148.698 106.319 148.258 105.973C147.817 105.627 147.299 105.455 146.702 105.455C145.935 105.455 145.341 105.687 144.92 106.151C144.498 106.61 144.288 107.192 144.288 107.898V115H142.583V107.528C142.583 106.908 142.382 106.409 141.979 106.03C141.577 105.646 141.058 105.455 140.424 105.455C139.988 105.455 139.581 105.571 139.202 105.803C138.828 106.035 138.525 106.357 138.293 106.768C138.066 107.176 137.952 107.647 137.952 108.182V115H136.276ZM158.233 115.227C157.182 115.227 156.275 114.995 155.513 114.531C154.755 114.062 154.17 113.409 153.759 112.571C153.351 111.728 153.148 110.748 153.148 109.631C153.148 108.513 153.351 107.528 153.759 106.676C154.17 105.819 154.743 105.152 155.477 104.673C156.216 104.19 157.078 103.949 158.062 103.949C158.631 103.949 159.192 104.044 159.746 104.233C160.3 104.422 160.804 104.73 161.259 105.156C161.713 105.578 162.075 106.136 162.345 106.832C162.615 107.528 162.75 108.385 162.75 109.403V110.114H154.341V108.665H161.045C161.045 108.049 160.922 107.5 160.676 107.017C160.435 106.534 160.089 106.153 159.639 105.874C159.194 105.594 158.669 105.455 158.062 105.455C157.395 105.455 156.817 105.62 156.33 105.952C155.847 106.278 155.475 106.705 155.214 107.23C154.954 107.756 154.824 108.319 154.824 108.92V109.886C154.824 110.71 154.966 111.409 155.25 111.982C155.539 112.55 155.939 112.983 156.45 113.281C156.962 113.575 157.556 113.722 158.233 113.722C158.673 113.722 159.071 113.66 159.426 113.537C159.786 113.409 160.096 113.22 160.357 112.969C160.617 112.713 160.818 112.396 160.96 112.017L162.58 112.472C162.409 113.021 162.123 113.504 161.72 113.92C161.318 114.332 160.821 114.654 160.229 114.886C159.637 115.114 158.972 115.227 158.233 115.227ZM171.152 115V100.455H172.913V106.932H180.669V100.455H182.43V115H180.669V108.494H172.913V115H171.152ZM190.303 115.227C189.252 115.227 188.345 114.995 187.583 114.531C186.826 114.062 186.241 113.409 185.829 112.571C185.422 111.728 185.218 110.748 185.218 109.631C185.218 108.513 185.422 107.528 185.829 106.676C186.241 105.819 186.814 105.152 187.548 104.673C188.286 104.19 189.148 103.949 190.133 103.949C190.701 103.949 191.262 104.044 191.816 104.233C192.37 104.422 192.874 104.73 193.329 105.156C193.783 105.578 194.146 106.136 194.415 106.832C194.685 107.528 194.82 108.385 194.82 109.403V110.114H186.411V108.665H193.116C193.116 108.049 192.993 107.5 192.746 107.017C192.505 106.534 192.159 106.153 191.71 105.874C191.264 105.594 190.739 105.455 190.133 105.455C189.465 105.455 188.888 105.62 188.4 105.952C187.917 106.278 187.545 106.705 187.285 107.23C187.024 107.756 186.894 108.319 186.894 108.92V109.886C186.894 110.71 187.036 111.409 187.32 111.982C187.609 112.55 188.009 112.983 188.521 113.281C189.032 113.575 189.626 113.722 190.303 113.722C190.744 113.722 191.141 113.66 191.496 113.537C191.856 113.409 192.166 113.22 192.427 112.969C192.687 112.713 192.888 112.396 193.031 112.017L194.65 112.472C194.479 113.021 194.193 113.504 193.79 113.92C193.388 114.332 192.891 114.654 192.299 114.886C191.707 115.114 191.042 115.227 190.303 115.227ZM197.37 115V104.091H198.989V105.739H199.103C199.302 105.199 199.662 104.761 200.183 104.425C200.703 104.089 201.29 103.92 201.944 103.92C202.067 103.92 202.221 103.923 202.406 103.928C202.59 103.932 202.73 103.939 202.825 103.949V105.653C202.768 105.639 202.638 105.618 202.434 105.589C202.235 105.556 202.024 105.54 201.802 105.54C201.272 105.54 200.798 105.651 200.381 105.874C199.969 106.091 199.643 106.394 199.401 106.783C199.165 107.166 199.046 107.604 199.046 108.097V115H197.37ZM209.053 115.227C208.002 115.227 207.095 114.995 206.333 114.531C205.576 114.062 204.991 113.409 204.579 112.571C204.172 111.728 203.968 110.748 203.968 109.631C203.968 108.513 204.172 107.528 204.579 106.676C204.991 105.819 205.564 105.152 206.298 104.673C207.036 104.19 207.898 103.949 208.883 103.949C209.451 103.949 210.012 104.044 210.566 104.233C211.12 104.422 211.624 104.73 212.079 105.156C212.533 105.578 212.896 106.136 213.165 106.832C213.435 107.528 213.57 108.385 213.57 109.403V110.114H205.161V108.665H211.866C211.866 108.049 211.743 107.5 211.496 107.017C211.255 106.534 210.909 106.153 210.46 105.874C210.014 105.594 209.489 105.455 208.883 105.455C208.215 105.455 207.638 105.62 207.15 105.952C206.667 106.278 206.295 106.705 206.035 107.23C205.774 107.756 205.644 108.319 205.644 108.92V109.886C205.644 110.71 205.786 111.409 206.07 111.982C206.359 112.55 206.759 112.983 207.271 113.281C207.782 113.575 208.376 113.722 209.053 113.722C209.494 113.722 209.891 113.66 210.246 113.537C210.606 113.409 210.916 113.22 211.177 112.969C211.437 112.713 211.638 112.396 211.781 112.017L213.4 112.472C213.229 113.021 212.943 113.504 212.54 113.92C212.138 114.332 211.641 114.654 211.049 114.886C210.457 115.114 209.792 115.227 209.053 115.227Z" fill="#444444"/>
</svg>
