<?xml version="1.0" encoding="UTF-8" standalone="no"?>
<!-- Created with Inkscape (http://www.inkscape.org/) -->

<svg
   width="95mm"
   height="95mm"
   viewBox="0 0 95 95"
   version="1.1"
   id="svg5"
   inkscape:version="1.2.1 (9c6d41e410, 2022-07-14)"
   sodipodi:docname="logo_hexagon.svg"
   xmlns:inkscape="http://www.inkscape.org/namespaces/inkscape"
   xmlns:sodipodi="http://sodipodi.sourceforge.net/DTD/sodipodi-0.dtd"
   xmlns="http://www.w3.org/2000/svg"
   xmlns:svg="http://www.w3.org/2000/svg">
  <sodipodi:namedview
     id="namedview7"
     pagecolor="#ffffff"
     bordercolor="#666666"
     borderopacity="1.0"
     inkscape:showpageshadow="2"
     inkscape:pageopacity="0.0"
     inkscape:pagecheckerboard="true"
     inkscape:deskcolor="#d1d1d1"
     inkscape:document-units="mm"
     showgrid="false"
     inkscape:zoom="1.6819304"
     inkscape:cx="139.12585"
     inkscape:cy="213.14794"
     inkscape:window-width="1920"
     inkscape:window-height="1118"
     inkscape:window-x="0"
     inkscape:window-y="0"
     inkscape:window-maximized="1"
     inkscape:current-layer="layer1">
    <inkscape:grid
       type="xygrid"
       id="grid238"
       originx="-13.013963"
       originy="-37.455347" />
  </sodipodi:namedview>
  <defs
     id="defs2" />
  <g
     inkscape:label="Layer 1"
     inkscape:groupmode="layer"
     id="layer1"
     transform="translate(-13.013963,-37.455344)">
    <g
       id="g4487"
       transform="translate(6.444482,0.19550997)">
      <path
         sodipodi:type="star"
         style="fill:none;stroke:#000000;stroke-width:1.32292;stroke-linejoin:round;stroke-dasharray:none;stroke-opacity:1;stop-color:#000000"
         id="path240"
         inkscape:flatsided="true"
         sodipodi:sides="6"
         sodipodi:cx="47.625"
         sodipodi:cy="84.666664"
         sodipodi:r1="42.333332"
         sodipodi:r2="36.661739"
         sodipodi:arg1="1.5707963"
         sodipodi:arg2="2.0943951"
         inkscape:rounded="0"
         inkscape:randomized="0"
         d="m 47.625001,127 -36.661741,-21.16667 -2e-6,-42.333331 36.661741,-21.166667 36.661741,21.166665 2e-6,42.333333 z"
         inkscape:transform-center-y="-1.0666667e-06"
         transform="translate(6.444482,0.09317157)" />
      <path
         d="m 23.224687,90.801362 c 1.179848,2.788046 3.144288,5.152231 5.617882,6.823111 1.237105,0.836866 2.604627,1.499797 4.063686,1.95237 1.459983,0.454767 3.014346,0.698647 4.612622,0.698647 1.091227,0 2.153754,-0.12334 3.170672,-0.356177 1.909931,-0.43387 3.647488,-1.240991 5.218136,-2.256249 1.376419,-0.886975 2.633409,-1.935755 3.813219,-3.068368 1.177122,-1.135799 2.281076,-2.359111 3.340804,-3.616067 -0.889714,-1.089003 -1.752511,-2.190127 -2.59267,-3.265918 l -0.06714,-0.08715 c -0.421196,-0.538458 -0.845689,-1.083538 -1.274546,-1.624694 -0.08879,0.109529 -0.178488,0.219129 -0.267606,0.326477 -0.956876,1.16338 -1.909367,2.25231 -2.859054,3.217485 -0.713473,0.725093 -1.424763,1.379181 -2.132284,1.944623 -1.06366,0.851189 -2.112472,1.498634 -3.14924,1.928094 -0.519702,0.214163 -1.040001,0.374965 -1.566858,0.484509 -0.528015,0.109527 -1.066441,0.16684 -1.632956,0.16684 -1.293272,0 -2.508926,-0.260406 -3.621,-0.730066 -1.666527,-0.703604 -3.095256,-1.888365 -4.099473,-3.376005 -0.502092,-0.742694 -0.899054,-1.560819 -1.169913,-2.432996 -0.27146,-0.873182 -0.418488,-1.798749 -0.418488,-2.769274 0,-1.2944 0.260451,-2.510089 0.728955,-3.622685 0.705264,-1.665409 1.889498,-3.095291 3.37712,-4.098406 0.743822,-0.502121 1.561913,-0.897976 2.434112,-1.16997 0.872111,-0.272525 1.79871,-0.418409 2.768268,-0.418409 0.623789,0 1.212341,0.07005 1.79152,0.201444 0.758686,0.173387 1.505855,0.455878 2.259463,0.850604 0.250517,0.132096 0.503219,0.275303 0.756467,0.432211 0.758683,0.468538 1.524482,1.048845 2.293577,1.728846 0.289032,0.254367 0.578122,0.521898 0.867139,0.802166 0.868272,0.841827 1.738706,1.792702 2.610721,2.815659 0.727267,0.854481 1.457352,1.757464 2.193363,2.689527 0.440997,0.55718 0.88419,1.125914 1.332863,1.699075 1.212362,1.550948 2.44892,3.137704 3.753197,4.663839 0.978893,1.143516 1.994101,2.254552 3.074255,3.290204 0.809892,0.777372 1.656648,1.512313 2.553466,2.183485 0.167938,0.125356 0.337495,0.248859 0.50928,0.369998 1.202391,0.848421 2.497358,1.579534 3.903977,2.120221 1.3043,0.5021 2.706007,0.833557 4.174327,0.939247 0.339184,0.0247 0.68052,0.0373 1.026827,0.0363 2.132893,0 4.182076,-0.433277 6.04014,-1.219478 2.787964,-1.180949 5.151067,-3.143192 6.82303,-5.617893 0.83578,-1.237108 1.499826,-2.604644 1.952364,-4.064815 0.455355,-1.457343 0.699231,-3.010994 0.699231,-4.610439 0,-2.132922 -0.433842,-4.182115 -1.220603,-6.040185 -1.179846,-2.788029 -3.143199,-5.151073 -5.617879,-6.823095 -1.237092,-0.835775 -2.604612,-1.499822 -4.063675,-1.953365 -1.459057,-0.453657 -3.013216,-0.697551 -4.612677,-0.697551 -1.090096,0 -2.153736,0.124454 -3.17009,0.355097 -1.909917,0.434942 -3.647474,1.242097 -5.219259,2.256224 -1.376404,0.886977 -2.63226,1.936856 -3.812078,3.069365 -1.177117,1.134708 -2.281077,2.357964 -3.340827,3.616048 0.894129,1.093954 1.76013,2.199038 2.604664,3.279794 l 0.05602,0.07204 c 0.42007,0.538466 0.845656,1.083546 1.273441,1.624683 0.08988,-0.108441 0.178486,-0.219111 0.267572,-0.32757 0.957981,-1.162257 1.909939,-2.251335 2.860179,-3.217503 0.713531,-0.723993 1.424763,-1.378076 2.132301,-1.945757 1.062622,-0.850622 2.112473,-1.498646 3.14926,-1.926963 0.519718,-0.215257 1.038909,-0.376043 1.566877,-0.485591 0.527982,-0.108434 1.065331,-0.167018 1.631849,-0.167018 1.294341,0 2.510053,0.260449 3.621527,0.731156 1.666507,0.703609 3.095254,1.887403 4.098364,3.374938 0.502087,0.743806 0.899052,1.561948 1.171018,2.434113 0.270356,0.872089 0.417339,1.798722 0.417339,2.769287 0,1.294359 -0.260431,2.510088 -0.72895,3.622703 -0.705234,1.666489 -1.889485,3.095263 -3.377161,4.098351 -0.742677,0.503221 -1.560767,0.899055 -2.432937,1.169945 -0.872096,0.271434 -1.798727,0.41845 -2.769269,0.41845 -0.623798,0 -1.212361,-0.07 -1.7904,-0.201463 -1.011407,-0.23071 -2.002983,-0.656275 -3.015911,-1.282834 -0.759764,-0.469602 -1.525014,-1.049917 -2.293603,-1.729366 -1.155063,-1.017449 -2.315677,-2.253405 -3.479005,-3.618868 -1.164479,-1.365415 -2.331097,-2.860202 -3.524172,-4.386362 -1.212327,-1.550954 -2.448898,-3.138306 -3.753209,-4.665009 -0.978835,-1.144609 -1.994032,-2.254534 -3.074191,-3.291315 -0.202102,-0.194334 -0.40637,-0.385972 -0.61446,-0.575365 -0.622665,-0.564308 -1.265742,-1.10385 -1.938548,-1.608123 -1.343909,-1.006437 -2.805587,-1.871321 -4.4132,-2.490235 -0.100796,-0.03836 -0.201446,-0.07586 -0.302806,-0.112442 -1.522322,-0.54836 -3.171765,-0.86441 -4.900591,-0.863317 -2.132338,0 -4.180964,0.43331 -6.039132,1.219489 -2.788025,1.179866 -5.151106,3.144318 -6.823092,5.617875 -0.835775,1.237132 -1.500778,2.604665 -1.95338,4.06485 -0.455822,1.462355 -0.698625,3.014988 -0.698625,4.614286 0,2.134069 0.433297,4.183256 1.219474,6.04018 z"
         id="path2688-6-0"
         style="display:inline;fill:#c41e3a;fill-opacity:1;stroke:none;stroke-width:0.158971;stroke-opacity:1" />
      <path
         sodipodi:type="star"
         style="fill:none;stroke:#000000;stroke-width:1.20068;stroke-linejoin:round;stroke-dasharray:none;stroke-opacity:1;stop-color:#000000"
         id="path5851"
         inkscape:flatsided="true"
         sodipodi:sides="6"
         sodipodi:cx="47.625"
         sodipodi:cy="84.666664"
         sodipodi:r1="42.333332"
         sodipodi:r2="36.661739"
         sodipodi:arg1="1.5707963"
         sodipodi:arg2="2.0943951"
         inkscape:rounded="0"
         inkscape:randomized="0"
         d="m 47.625001,127 -36.661741,-21.16667 -2e-6,-42.333331 36.661741,-21.166667 36.661741,21.166665 2e-6,42.333333 z"
         inkscape:transform-center-y="-1.0666667e-06"
         transform="matrix(1.1018042,0,0,1.1018042,1.596056,-8.5262521)" />
    </g>
  </g>
</svg>
