<svg width="702" height="313" viewBox="0 0 702 313" fill="none" xmlns="http://www.w3.org/2000/svg">
<path d="M643.236 155.098C643.182 157.696 642.965 160.509 642.743 163.098C642.437 166.661 641.735 169.2 641.055 172.709C640.566 175.23 639.966 177.731 639.188 180.176C638.306 182.947 637.198 185.64 635.974 188.274C634.893 190.601 633.721 192.885 632.448 195.11C631.231 197.239 629.921 199.314 628.508 201.315C626.529 204.12 624.348 206.778 622.004 209.277C619.765 211.664 617.375 213.907 614.858 215.991C612.888 217.622 610.84 219.154 608.765 220.645C606.141 222.53 603.466 224.353 600.641 225.91C598.251 227.226 595.759 228.35 593.194 229.267C589.781 230.642 586.317 231.89 582.813 233.005C579.062 234.2 575.257 235.245 571.379 235.905C567.676 236.535 563.922 236.81 560.171 236.973C556.412 237.136 552.649 237.187 548.888 237.125C545.749 237.297 542.593 237.144 539.485 236.668C537.593 236.378 535.721 235.969 533.843 235.6C529.024 234.651 524.15 233.955 519.4 232.7C516.237 231.865 513.143 230.784 510.072 229.648C507.141 228.564 504.228 227.428 501.347 226.215C498.609 225.063 495.9 223.842 493.223 222.553L484.497 217.899L476.222 213.168C473.742 211.628 471.284 210.051 468.85 208.438C466.329 206.767 463.832 205.056 461.403 203.249C459.037 201.49 456.738 199.64 454.407 197.832C452.165 196.092 449.892 194.389 447.713 192.568C445.888 191.044 444.131 189.439 442.372 187.837C440.111 185.778 437.847 183.723 435.526 181.733C433.379 179.892 431.184 178.107 429.057 176.24C426.79 174.249 424.602 172.165 422.513 169.984C420.497 167.878 418.299 165.876 416.475 163.598L408.925 155.61C407.237 157.133 405.578 158.688 403.947 160.274C402.566 161.618 401.205 162.985 399.857 164.363C396.641 167.653 393.495 171.012 390.379 174.399C387.786 177.216 385.214 180.052 382.662 182.907L386.546 186.534C389.093 188.642 391.645 190.745 394.202 192.841C397.706 195.713 401.22 198.574 404.777 201.379C409.285 204.932 413.864 208.394 418.567 211.676C422.799 214.628 427.131 217.434 431.553 220.085C436.57 223.329 441.692 226.406 446.908 229.309C451.727 231.991 456.627 234.525 461.618 236.86C473.897 242.606 486.704 247.14 499.703 250.92C505.375 252.57 511.101 254.08 516.94 254.937C522.989 255.824 529.115 256.004 535.225 256.118C541.207 256.229 547.2 256.279 553.161 255.763C558.024 255.343 562.855 254.547 567.603 253.401C572.707 252.168 577.71 250.533 582.627 248.676C587.273 246.921 591.851 244.965 596.253 242.651C600.533 240.401 604.644 237.812 608.482 234.855C612.01 232.136 615.304 229.11 618.382 225.877C621.422 222.684 624.252 219.291 627 215.836C629.445 212.763 631.832 209.631 633.872 206.267C635.985 202.783 637.713 199.069 639.216 195.272C641.171 190.333 642.752 185.239 643.888 180.043C644.89 175.457 645.399 170.785 645.7 166.098C645.7 163.697 645.801 161.504 645.7 159.098C645.546 155.41 645.7 156.098 645.207 152.098C645.084 151.098 643.729 145.098 643.729 143.598L643.236 155.098ZM323.575 126.315L329.547 120.422L334.671 115.49L340.545 109.068L347.562 102.183L351.825 97.5632L342.722 89.0323L337.335 83.7384C335.11 81.7837 332.893 79.8197 330.684 77.8468C328.148 75.5818 325.623 73.3048 323.108 71.016C319.187 67.6082 315.201 64.2773 311.154 61.0259C308.94 59.248 306.708 57.4935 304.419 55.8174C302.197 54.1905 299.923 52.6385 297.684 51.0358C295.07 49.1642 292.503 47.2234 289.855 45.4004C287.517 43.7904 285.118 42.2736 282.7 40.7896C280.16 39.2304 277.598 37.7069 275.039 36.1788C272.427 34.6184 269.817 33.053 267.21 31.4826C264.77 30.143 262.329 28.8053 259.886 27.4694C257.058 25.9224 254.226 24.3765 251.3 23.0294C248.803 21.8802 246.244 20.8782 243.723 19.7848C241.274 18.7222 238.861 17.5734 236.399 16.5401C233.593 15.3624 230.726 14.3359 227.813 13.4663C224.037 12.2313 220.248 11.0358 216.448 9.88008C211.85 8.48179 207.233 7.141 202.558 6.03774C197.995 4.96099 193.382 4.11171 188.752 3.39079C185.394 2.86798 182.026 2.41247 178.65 2.02463C175.453 1.78807 172.254 1.58882 169.053 1.42694C165.127 1.2284 161.198 1.08606 157.268 1C153.362 1.12117 149.46 1.34897 145.566 1.68308C141.768 2.00903 137.978 2.43616 134.201 2.96387L121.827 5.09849C118.37 5.77369 114.943 6.6001 111.556 7.57467C107.097 8.85793 102.711 10.3982 98.4238 12.1855L85.7122 17.7355L74.2633 23.7979C71.1723 25.7232 68.1398 27.7453 65.1716 29.8602C61.5657 32.4296 58.0548 35.1359 54.6487 37.9718C51.6441 40.6677 48.6968 43.4294 45.8095 46.2542C43.0237 48.9799 40.292 51.7663 37.728 54.7074C33.7948 59.219 30.2663 64.0838 27.0368 69.1375C23.9517 73.9652 21.1367 78.968 18.5343 84.0799C15.8885 89.2772 13.4601 94.592 11.3788 100.047C9.81401 104.148 8.44592 108.327 7.31058 112.571C5.97807 117.552 4.96763 122.616 4.05769 127.694C2.9586 133.827 2.00403 139.992 1.451 146.201C0.981209 151.475 0.802319 156.792 1.28808 162.064C1.67793 166.296 2.49336 170.475 3.40602 174.623C4.41887 179.226 5.55321 183.802 6.8273 188.338C8.44169 194.086 10.2806 199.769 12.3665 205.359C14.1752 210.205 16.1724 214.987 18.5574 219.57C21.2812 224.804 24.4993 229.757 27.8437 234.607C31.1037 239.335 34.5012 243.988 38.4333 248.157C41.8363 251.765 45.6146 254.983 49.3488 258.237C52.9532 261.377 56.5326 264.564 60.4272 267.325C63.9632 269.832 67.7364 271.972 71.5056 274.1C76.3244 276.822 81.1545 279.536 86.1682 281.867C90.5621 283.91 95.0886 285.655 99.6904 287.155C105.663 289.102 111.765 290.638 117.937 291.782C121.55 292.451 125.19 292.987 128.853 293.269C133.187 293.603 137.539 293.58 141.886 293.599C147.318 293.622 152.753 293.711 158.178 293.434C163.699 293.152 169.201 292.492 174.632 291.451C181.69 290.099 188.612 288.11 195.486 285.998C201.769 284.068 208.032 282.029 214.059 279.388C218.853 277.287 223.48 274.812 228.069 272.283C231.787 270.234 235.484 268.148 239.148 266.003C243.901 263.222 248.6 260.342 253.159 257.245C259.471 252.958 265.511 248.257 271.243 243.2C276.433 238.62 281.367 233.752 286.394 228.989C291.055 224.572 295.798 220.244 300.405 215.769C306.786 209.571 312.901 203.094 318.815 196.435C324.819 189.674 330.615 182.726 336.41 175.78C345.644 164.711 354.881 153.643 364.106 142.566C374.412 130.189 384.712 117.792 395.712 106.046C405.316 95.7906 415.442 86.0456 425.851 76.6328C433.466 69.7476 441.251 63.025 449.637 57.1339C458.965 50.5816 468.979 45.098 479.126 39.9484C488.597 35.1414 498.233 30.6013 508.288 27.2246C519.022 23.6196 530.16 21.3667 541.36 19.7886C546.654 19.0427 551.982 18.4449 557.326 18.4666C564.827 18.4972 572.267 19.7464 579.646 21.1105C590.52 23.1207 601.403 25.404 611.741 29.3728C620.502 32.7366 628.79 37.2831 636.667 42.4271C645.65 48.2937 654.154 54.9742 661.593 62.7523C667.473 68.8998 672.665 75.709 677.233 82.9121C681.576 89.7582 685.36 96.9633 688.638 104.394C691.664 111.256 694.262 118.317 696.295 125.545C699.019 135.233 700.263 146.447 700.912 156.5V144.5L700.677 136.072L699.511 128.276L696.86 115.91C696.098 112.941 695.231 110 694.263 107.093C692.977 103.232 691.512 99.4346 689.916 95.6948C688.654 92.7363 687.311 89.8136 685.888 86.9313C684.895 84.6939 683.798 82.5042 682.601 80.372C680.877 77.2991 678.948 74.3499 677.036 71.3934C675.334 68.762 673.642 66.1205 671.788 63.5975C670.42 61.7371 668.966 59.944 667.494 58.1673C664.562 54.6278 661.558 51.15 658.483 47.737C656.18 45.5172 653.829 43.348 651.433 41.2315C648.296 38.4606 645.08 35.7789 641.733 33.2744C638.624 30.9484 635.403 28.7765 632.085 26.7689L622.703 21.0162C620.358 19.8058 617.989 18.6406 615.6 17.5214C613.323 16.4547 611.027 15.4298 608.709 14.4569C606.12 13.3698 603.504 12.3479 600.864 11.3923C598.485 10.5843 596.1 9.79572 593.708 9.02668C590.286 7.92619 586.85 6.8653 583.372 5.96211C579.648 4.99497 575.878 4.2094 572.081 3.59649C568.654 3.04322 565.205 2.63058 561.745 2.35991L549.924 1.44591C546.855 1.22587 543.777 1.13615 540.701 1.17708C537.923 1.21412 535.146 1.35755 532.379 1.60719C528.645 1.90388 524.917 2.26237 521.194 2.68248C517.955 3.04807 514.722 3.46032 511.494 3.91906C508.352 4.594 505.206 5.25709 502.059 5.90834C498.013 6.74538 493.961 7.56362 489.973 8.65032C487.414 9.34769 484.885 10.1551 482.393 11.0697L473.064 14.188L465.484 17.2526C461.994 18.7916 458.514 20.3508 455.042 21.9301C450.519 23.9871 446.009 26.0798 441.631 28.4356C438.741 29.9903 435.911 31.6587 433.15 33.4357L425.039 38.382C423.187 39.4175 421.366 40.5114 419.58 41.6617C417.776 42.8236 416.008 44.0431 414.279 45.3176C412.195 46.745 410.128 48.1968 408.077 49.6725C403.595 52.8979 399.194 56.2373 394.825 59.6189C393.154 60.913 391.487 62.2134 389.843 63.5437C386.842 65.9725 383.92 68.4998 380.991 71.017C378.312 73.319 375.626 75.613 372.933 77.8988C370.016 80.7149 367.047 83.4755 364.028 86.1785C361.683 88.2785 359.306 90.3444 357.031 92.5227C355.32 94.161 353.669 95.8612 352.014 97.5579C347.123 102.574 342.205 107.562 337.26 112.523C334.67 115.429 331.963 118.228 329.149 120.91C327.656 122.334 326.131 123.726 324.697 125.211C322.968 127.002 321.376 128.922 319.716 130.778C316.151 134.763 312.277 138.447 308.477 142.201C303.661 146.959 298.959 151.835 294.377 156.825L287.698 163.33C285.961 165.063 284.211 166.784 282.45 168.492C278.935 171.901 275.372 175.261 271.743 178.546C267.235 182.625 262.626 186.588 257.961 190.481C255.817 192.27 253.661 194.045 251.494 195.804L240.575 204.03L228.913 211.718C225.479 214.094 221.921 216.284 218.258 218.278C215.167 219.96 212.002 221.501 208.823 223.009C204.802 224.916 200.755 226.77 196.632 228.439C194.912 229.135 193.18 229.798 191.437 230.428C186.513 232.22 181.483 233.711 176.383 234.891C170.623 236.223 164.775 237.158 158.89 237.686L145.692 238.17C141.464 237.925 137.25 237.44 133.076 236.719C129.617 236.121 126.187 235.362 122.793 234.461C117.756 233.124 112.782 231.468 108.11 229.138C104.945 227.56 101.934 225.681 98.9924 223.708C95.601 221.433 92.2938 219.029 89.08 216.503L81.924 209.621C79.6708 207.397 77.5784 205.005 75.6692 202.471C72.9965 198.924 70.6834 195.098 68.7783 191.073C66.9546 187.702 65.3763 184.195 64.0606 180.589C62.9133 177.444 61.9658 174.226 61.1982 170.965C60.2114 166.772 59.522 162.51 59.0779 158.223C58.6198 153.8 58.4226 149.349 58.4875 144.902C59.3518 139.858 60.497 134.863 61.9157 129.95C63.4704 124.566 65.3566 119.272 67.7381 114.208C70.3458 108.663 73.5437 103.406 77.2384 98.5381C82.0262 92.2301 87.6495 86.5772 93.8984 81.7605C102.911 74.8134 113.179 69.6375 123.884 65.9036C135.029 62.0163 146.708 59.6615 158.483 59.145C172.96 58.5098 187.45 60.6475 201.539 64.084C219.588 68.486 237.145 75.0391 253.553 83.8447C264.668 89.8098 275.226 96.7874 285.545 104.077C291.162 108.044 296.715 112.109 302.089 116.409C307.989 121.13 313.669 126.133 319.105 131.396L323.575 126.315Z" fill="white" stroke="#444444" stroke-width="1.00157"/>
<path d="M356.283 209.855L352.465 214.505L356.325 209.812L361.65 203.944L371.377 194.418C372.993 192.656 374.642 190.926 376.324 189.229C378.338 187.199 380.399 185.216 382.504 183.283C384.155 184.563 385.781 185.878 387.38 187.225C390.022 189.452 392.59 191.769 395.258 193.964C397.764 196.027 400.356 197.979 402.946 199.933C406.175 202.369 409.402 204.808 412.627 207.249C417.038 210.213 421.436 213.198 425.82 216.203C429.703 218.864 433.577 221.543 437.589 224C442.475 226.993 447.552 229.648 452.585 232.376C457.554 235.068 462.494 237.838 467.677 240.077C471.316 241.649 475.06 242.953 478.781 244.313C483.573 246.065 488.335 247.914 493.208 249.415C496.836 250.533 500.52 251.457 504.218 252.303C509.061 253.412 513.933 254.391 518.835 255.191C524.269 256.079 529.751 256.749 535.255 256.828C539.372 256.887 543.485 256.614 547.594 256.347C551.27 256.107 554.951 255.87 558.604 255.384C562.156 254.911 565.678 254.203 569.139 253.266C572.823 252.34 576.466 251.248 580.054 249.993C583.438 248.809 586.774 247.48 590.02 245.95C593.578 244.272 597.023 242.353 600.365 240.27C603.141 238.54 605.848 236.696 608.433 234.686C611.106 232.608 613.644 230.357 616.121 228.044C618.805 225.537 621.424 222.95 623.809 220.149C626.292 217.234 628.512 214.097 630.643 210.908C632.376 208.314 634.053 205.682 635.673 203.014C636.846 200.43 637.985 197.83 639.09 195.216C640.33 192.283 641.529 189.325 642.412 186.263C643.364 182.962 643.943 179.562 644.405 176.155C644.839 172.959 645.172 169.748 645.354 166.528C645.536 163.323 645.567 160.109 645.449 156.901C645.327 151.986 644.615 147.087 643.332 142.346C642.328 138.635 640.979 135.029 639.535 131.471C638.402 128.679 637.206 125.906 635.713 123.294C634.368 120.943 632.791 118.738 631.334 116.456C630.188 114.662 629.114 112.817 627.859 111.099C625.632 108.05 622.871 105.45 620.145 102.851C617.792 100.609 615.453 98.3533 613.125 96.0841C610.468 93.9729 607.706 91.9959 604.855 90.1627C600.57 87.4082 596.083 84.979 591.442 82.9021C587.444 81.3477 583.358 80.0289 579.21 78.9545C574.933 77.8467 570.59 76.9988 566.213 76.4168L542.236 75.8528L525.209 79.166C520.005 80.3245 514.873 81.8086 509.849 83.607C504.862 85.3926 499.985 87.4865 495.185 89.7398C490.502 91.9382 485.889 94.2896 481.355 96.789C477.342 99.3292 473.357 101.914 469.401 104.543C465.95 106.836 462.521 109.162 459.115 111.522C455.578 114.117 452.102 116.796 448.69 119.558C445.205 122.379 441.788 125.284 438.404 128.229C435.688 130.592 432.993 132.98 430.342 135.419C426.737 138.735 423.214 142.144 419.778 145.64C417.595 147.677 415.44 149.745 413.315 151.843C410.075 155.042 406.902 158.31 403.724 161.571C398.875 166.546 394.01 171.504 389.129 176.445C384.536 180.902 380.018 185.438 375.576 190.05C372.326 193.426 369.116 196.844 365.777 200.131C362.767 203.094 359.653 205.95 356.742 209.013C353.626 212.29 350.752 215.795 347.696 219.13C344.376 222.752 340.843 226.173 337.121 229.368L319.992 244.482C316.653 247.232 313.288 249.951 309.898 252.637C307.32 254.68 304.727 256.704 302.12 258.709C297.469 262.299 292.687 265.715 287.787 268.947C283.425 271.825 278.97 274.557 274.46 277.191C270.387 279.57 266.268 281.869 262.094 284.06C257.412 286.518 252.661 288.838 247.848 291.019C245.089 292.283 242.306 293.495 239.502 294.653C235.438 296.332 231.328 297.899 227.18 299.351L215.731 303.517C210.543 305.019 205.311 306.364 200.044 307.551C195.004 308.686 189.933 309.677 184.837 310.52L171.117 312.116L155.779 312.204L145.685 311.805C141.812 311.557 137.948 311.158 134.105 310.609C129.821 309.996 125.563 309.197 121.346 308.215C118.047 307.535 114.791 306.647 111.601 305.556C108.722 304.571 105.901 303.423 103.081 302.276C99.6287 300.872 96.1767 299.469 92.7244 298.066L80.8825 292.26C76.3033 289.888 71.8647 287.237 67.5987 284.326C64.736 282.373 61.9509 280.302 59.2526 278.121L51.0812 271.384C48.8115 269.394 46.5964 267.339 44.4393 265.224C41.973 262.805 39.5827 260.306 37.273 257.733L30.1504 249.224C28.5871 246.957 27.0575 244.667 25.5623 242.354C24.195 240.239 22.8562 238.104 21.5858 235.927C20.1079 233.395 18.7229 230.808 17.4346 228.171L14.638 221.612L10.9238 213.457L8.73894 206.543L5.28689 193.601L3.67009 184.338C3.12485 180.97 2.68758 177.585 2.35919 174.188C2.10401 171.549 1.9146 168.903 1.79114 166.255L4.76252 179.773L7.73392 192.138C8.36234 194.284 9.04725 196.412 9.78767 198.52C10.9961 201.961 12.3524 205.349 13.8515 208.67C15.0099 211.757 16.3081 214.79 17.7405 217.756C19.7653 221.949 22.0585 226.008 24.6009 229.9L30.063 237.567L36.865 246.211C40.6963 250.353 44.6998 254.33 48.8613 258.13C52.1187 261.104 55.4747 263.971 58.9824 266.636C62.0577 268.972 65.2476 271.152 68.5253 273.186C72.0593 275.379 75.6958 277.402 79.4176 279.248C83.3762 281.211 87.4313 282.974 91.563 284.527C95.7061 286.151 99.9208 287.587 104.19 288.829C108.604 290.113 113.077 291.19 117.589 292.056L131.758 293.522L153.158 294.304C159.456 294.063 165.739 293.41 171.954 292.349C181.726 290.682 191.315 288.011 200.679 284.723C205.033 283.194 209.341 281.531 213.595 279.737C219.675 277.062 225.628 274.091 231.428 270.84C235.841 268.365 240.165 265.729 244.441 263.018C249.43 259.856 254.36 256.59 259.093 253.046C264.476 249.015 269.594 244.631 274.612 240.14C278.705 236.476 282.734 232.738 286.757 228.995C291.079 224.973 295.395 220.944 299.577 216.773C303.466 212.895 307.238 208.897 310.951 204.846C314.05 201.466 317.108 198.049 320.109 194.58C324.301 189.733 328.38 184.787 332.543 179.914C334.721 177.366 336.922 174.838 339.098 172.289C342.738 168.023 346.308 163.695 349.894 159.383C353.231 155.37 356.582 151.37 359.919 147.357C363.637 142.885 367.336 138.396 371.1 133.963C374.487 129.974 377.925 126.03 381.414 122.133C385.042 118.122 388.673 114.113 392.306 110.107C397.262 104.645 402.226 99.185 407.44 93.9755C412.057 89.3626 416.865 84.9511 421.706 80.5812C426.028 76.6799 430.378 72.8101 434.815 69.0444C438.292 66.0942 441.823 63.2062 445.515 60.5385C449.508 57.653 453.679 55.0313 457.853 52.4237C463.005 49.2052 468.171 46.0034 473.469 43.0378C478.616 40.1565 483.887 37.4994 489.277 35.1186C495.068 32.5605 500.996 30.3222 507.013 28.3725C512.19 26.695 517.434 25.2307 522.725 23.9729C528.174 22.6774 533.675 21.6008 539.208 20.7465C543.481 19.9843 547.795 19.4618 552.125 19.1822C555.205 18.9832 558.297 18.9071 561.378 19.0844C566.045 19.3527 570.658 20.1994 575.259 21.0397C580.587 22.0131 585.919 22.9805 591.199 24.1952C597.207 25.5772 603.146 27.2798 608.939 29.4065C613.433 31.0566 617.836 32.9613 622.121 35.1087C626.507 36.9434 630.755 39.1145 634.819 41.5975C638.754 44.002 642.516 46.6989 646.063 49.6594C650.125 53.028 654.101 56.5034 657.985 60.0808C661.456 63.2768 664.862 66.5633 667.872 70.2073C670.639 73.5554 673.054 77.1841 675.433 80.8253C677.831 84.495 680.2 88.1888 682.315 92.0333C684.35 95.7335 686.145 99.565 687.84 103.438C689.871 108.078 691.761 112.786 693.365 117.595C694.604 121.311 695.672 125.085 696.564 128.902L699.181 142.174L700.912 154.5C701.066 159.7 701.173 165.07 700.745 170.254C700.528 172.879 700.236 175.498 699.868 178.105C699.271 182.341 698.474 186.546 697.546 190.72C696.804 194.056 695.978 197.373 695.069 200.666C694.081 204.311 692.927 207.911 691.611 211.448C690.359 214.814 688.961 218.123 687.482 221.394C685.828 225.054 684.072 228.668 682.219 232.229C680.69 235.025 679.037 237.75 677.264 240.394C675.09 243.639 672.739 246.757 670.452 249.921C668.825 252.173 667.228 254.45 665.498 256.621C663.262 259.427 660.81 262.048 658.273 264.577C655.295 267.547 652.198 270.393 649.036 273.162C644.878 276.801 640.603 280.31 636.082 283.473C630.241 287.561 624.014 291.054 617.659 294.256C613.383 296.411 609.041 298.438 604.602 300.223C597.763 302.974 590.704 305.144 583.547 306.871C579.483 307.851 575.386 308.69 571.265 309.383L551.964 311.215L529.36 310.901C521.072 310.148 512.82 308.995 504.641 307.447C495.805 305.774 487.05 303.639 478.476 300.904C473.258 299.239 468.108 297.352 463.046 295.251C457.704 292.818 452.42 290.252 447.203 287.556C441.797 284.763 436.462 281.831 431.204 278.762C426.779 275.75 422.358 272.732 417.942 269.707C414.102 267.077 410.266 264.443 406.433 261.803C400.382 257.045 394.428 252.158 388.578 247.147C383.514 242.809 378.528 238.38 373.54 233.952C370.552 231.299 367.562 228.647 364.505 226.077C362.216 224.153 359.888 222.275 357.666 220.273C355.771 218.566 353.954 216.771 352.223 214.894M311.893 125.406L319.034 131.571L311.834 125.346C306.844 121.29 301.788 117.319 296.667 113.434C291.036 109.162 285.328 104.994 279.553 100.924C271.617 95.3308 263.534 89.9105 254.944 85.4206C250.116 82.8974 245.143 80.6755 240.19 78.4172C235.086 76.0903 229.998 73.7218 224.787 71.6532C220.226 69.8426 215.576 68.2637 210.859 66.9244C206.625 65.59 202.331 64.4511 197.994 63.5125C192.501 62.3235 186.94 61.4563 181.352 60.8788C174.865 60.2084 168.338 59.9284 161.818 60.0408C155.113 60.2306 148.421 60.9114 141.812 62.0759C136.393 63.0308 131.03 64.3108 125.76 65.9069C121.565 67.5029 117.43 69.2604 113.367 71.1744C109.292 73.0934 105.283 75.174 101.505 77.639C98.6146 79.5247 95.869 81.6295 93.1836 83.8044C90.3036 86.1368 87.489 88.5524 84.7445 91.0472L76.0103 101.223C73.0569 104.34 70.5619 107.903 68.6334 111.758C67.8605 113.303 67.1787 114.893 66.5088 116.487C65.582 118.692 64.677 120.907 63.7941 123.131L61.4335 130.853L59.7811 137.916C59.0441 140.688 59.0801 140.5 58.5872 145C58.2605 147.982 58.6453 155.01 59.0801 157.5C59.2958 155.043 59.3565 149.93 59.7811 147.5C60.1305 145.501 60.5631 142.469 61.0519 140.5C61.476 138.223 62.2698 135.688 63.0238 133.5C63.7272 131.459 65.5985 127.471 66.4745 125.5C67.3566 123.515 67.2931 124.015 68.2432 122.063C69.4046 120.084 70.6323 118.145 71.9234 116.251C73.4374 114.03 75.0385 111.869 76.7218 109.777C78.7816 107.431 80.9265 105.16 83.1506 102.973C85.1409 101.016 87.1957 99.1242 89.3466 97.3503C91.478 95.5925 93.7029 93.9512 96.0083 92.4362C98.4091 90.9273 100.865 89.5085 103.369 88.1836C105.975 86.8048 108.633 85.5278 111.335 84.3562C115.022 82.6896 118.823 81.2833 122.702 80.1508C126.34 79.0887 130.046 78.2674 133.789 77.6938C140.26 76.6884 146.81 76.2138 153.356 76.2762C157.339 76.3142 161.321 76.5509 165.281 76.985L175.111 78.3553L182.798 80.1036C187.032 81.1745 191.216 82.4522 195.329 83.931C199.217 85.3286 203.043 86.9059 206.789 88.6561L215.268 92.7197C219.395 95.0856 223.48 97.5275 227.52 100.044C230.721 102.037 233.895 104.078 237.024 106.186C241.902 109.474 246.673 112.925 251.326 116.534L265.534 128.489L276.808 138.884L294.749 156.858C296.73 154.775 298.711 152.69 300.691 150.605C302.838 148.342 304.985 146.078 307.13 143.813L313.628 136.881L317.655 133.245L319.128 131.602" fill="#C41E3A"/>
<path d="M356.283 209.855L352.465 214.505L356.325 209.812L361.65 203.944L371.377 194.418C372.993 192.656 374.642 190.926 376.324 189.229C378.338 187.199 380.399 185.216 382.504 183.283C384.155 184.563 385.781 185.878 387.38 187.225C390.022 189.452 392.59 191.769 395.258 193.964C397.764 196.027 400.356 197.979 402.946 199.933C406.175 202.369 409.402 204.808 412.627 207.249C417.038 210.213 421.436 213.198 425.82 216.203C429.703 218.864 433.577 221.543 437.589 224C442.475 226.993 447.552 229.648 452.585 232.376C457.554 235.068 462.494 237.838 467.677 240.077C471.316 241.649 475.06 242.953 478.781 244.313C483.573 246.065 488.335 247.914 493.208 249.415C496.836 250.533 500.52 251.457 504.218 252.303C509.061 253.412 513.933 254.391 518.835 255.191C524.269 256.079 529.751 256.749 535.255 256.828C539.372 256.887 543.485 256.614 547.594 256.347C551.27 256.107 554.951 255.87 558.604 255.384C562.156 254.911 565.678 254.203 569.139 253.266C572.823 252.34 576.466 251.248 580.054 249.993C583.438 248.809 586.774 247.48 590.02 245.95C593.578 244.272 597.023 242.353 600.365 240.27C603.141 238.54 605.848 236.696 608.433 234.686C611.106 232.608 613.644 230.357 616.121 228.044C618.805 225.537 621.424 222.95 623.809 220.149C626.292 217.234 628.512 214.097 630.643 210.908C632.376 208.314 634.053 205.682 635.673 203.014C636.846 200.43 637.985 197.83 639.09 195.216C640.33 192.283 641.529 189.325 642.412 186.263C643.364 182.962 643.943 179.562 644.405 176.155C644.839 172.959 645.172 169.748 645.354 166.528C645.536 163.323 645.567 160.109 645.449 156.901C645.327 151.986 644.615 147.087 643.332 142.346C642.328 138.635 640.979 135.029 639.535 131.471C638.402 128.679 637.206 125.906 635.713 123.294C634.368 120.943 632.791 118.738 631.334 116.456C630.188 114.662 629.114 112.817 627.859 111.099C625.632 108.05 622.871 105.45 620.145 102.851C617.792 100.609 615.453 98.3533 613.125 96.0841C610.468 93.9729 607.706 91.9959 604.855 90.1627C600.57 87.4082 596.083 84.979 591.442 82.9021C587.444 81.3477 583.358 80.0289 579.21 78.9545C574.933 77.8467 570.59 76.9988 566.213 76.4168L542.236 75.8528L525.209 79.166C520.005 80.3245 514.873 81.8086 509.849 83.607C504.862 85.3926 499.985 87.4865 495.185 89.7398C490.502 91.9382 485.889 94.2896 481.355 96.789C477.342 99.3292 473.357 101.914 469.401 104.543C465.95 106.836 462.521 109.162 459.115 111.522C455.578 114.117 452.102 116.796 448.69 119.558C445.205 122.379 441.788 125.284 438.404 128.229C435.688 130.592 432.993 132.98 430.342 135.419C426.737 138.735 423.214 142.144 419.778 145.64C417.595 147.677 415.44 149.745 413.315 151.843C410.075 155.042 406.902 158.31 403.724 161.571C398.875 166.546 394.01 171.504 389.129 176.445C384.536 180.902 380.018 185.438 375.576 190.05C372.326 193.426 369.116 196.844 365.777 200.131C362.767 203.094 359.653 205.95 356.742 209.013C353.626 212.29 350.752 215.795 347.696 219.13C344.376 222.752 340.843 226.173 337.121 229.368L319.992 244.482C316.653 247.232 313.288 249.951 309.898 252.637C307.32 254.68 304.727 256.704 302.12 258.709C297.469 262.299 292.687 265.715 287.787 268.947C283.425 271.825 278.97 274.557 274.46 277.191C270.387 279.57 266.268 281.869 262.094 284.06C257.412 286.518 252.661 288.838 247.848 291.019C245.089 292.283 242.306 293.495 239.502 294.653C235.438 296.332 231.328 297.899 227.18 299.351L215.731 303.517C210.543 305.019 205.311 306.364 200.044 307.551C195.004 308.686 189.933 309.677 184.837 310.52L171.117 312.116L155.779 312.204L145.685 311.805C141.812 311.557 137.948 311.158 134.105 310.609C129.821 309.996 125.563 309.197 121.346 308.215C118.047 307.535 114.791 306.647 111.601 305.556C108.722 304.571 105.901 303.423 103.081 302.276C99.6287 300.872 96.1767 299.469 92.7244 298.066L80.8825 292.26C76.3033 289.888 71.8647 287.237 67.5987 284.326C64.736 282.373 61.9509 280.302 59.2526 278.121L51.0812 271.384C48.8115 269.394 46.5964 267.339 44.4393 265.224C41.973 262.805 39.5827 260.306 37.273 257.733L30.1504 249.224C28.5871 246.957 27.0575 244.667 25.5623 242.354C24.195 240.239 22.8562 238.104 21.5858 235.927C20.1079 233.395 18.7229 230.808 17.4346 228.171L14.638 221.612L10.9238 213.457L8.73894 206.543L5.28689 193.601L3.67009 184.338C3.12485 180.97 2.68758 177.585 2.35919 174.188C2.10401 171.549 1.9146 168.903 1.79114 166.255L4.76252 179.773L7.73392 192.138C8.36234 194.284 9.04725 196.412 9.78767 198.52C10.9961 201.961 12.3524 205.349 13.8515 208.67C15.0099 211.757 16.3081 214.79 17.7405 217.756C19.7653 221.949 22.0585 226.008 24.6009 229.9L30.063 237.567L36.865 246.211C40.6963 250.353 44.6998 254.33 48.8613 258.13C52.1187 261.104 55.4747 263.971 58.9824 266.636C62.0577 268.972 65.2476 271.152 68.5253 273.186C72.0593 275.379 75.6958 277.402 79.4176 279.248C83.3762 281.211 87.4313 282.974 91.563 284.527C95.7061 286.151 99.9208 287.587 104.19 288.829C108.604 290.113 113.077 291.19 117.589 292.056L131.758 293.522L153.158 294.304C159.456 294.063 165.739 293.41 171.954 292.349C181.726 290.682 191.315 288.011 200.679 284.723C205.033 283.194 209.341 281.531 213.595 279.737C219.675 277.062 225.628 274.091 231.428 270.84C235.841 268.365 240.165 265.729 244.441 263.018C249.43 259.856 254.36 256.59 259.093 253.046C264.476 249.015 269.594 244.631 274.612 240.14C278.705 236.476 282.734 232.738 286.757 228.995C291.079 224.973 295.395 220.944 299.577 216.773C303.466 212.895 307.238 208.897 310.951 204.846C314.05 201.466 317.108 198.049 320.109 194.58C324.301 189.733 328.38 184.787 332.543 179.914C334.721 177.366 336.922 174.838 339.098 172.289C342.738 168.023 346.308 163.695 349.894 159.383C353.231 155.37 356.582 151.37 359.919 147.357C363.637 142.885 367.336 138.396 371.1 133.963C374.487 129.974 377.925 126.03 381.414 122.133C385.042 118.122 388.673 114.113 392.306 110.107C397.262 104.645 402.226 99.185 407.44 93.9755C412.057 89.3626 416.865 84.9511 421.706 80.5812C426.028 76.6799 430.378 72.8101 434.815 69.0444C438.292 66.0942 441.823 63.2062 445.515 60.5385C449.508 57.653 453.679 55.0313 457.853 52.4237C463.005 49.2052 468.171 46.0034 473.469 43.0378C478.616 40.1565 483.887 37.4994 489.277 35.1186C495.068 32.5605 500.996 30.3222 507.013 28.3725C512.19 26.695 517.434 25.2307 522.725 23.9729C528.174 22.6774 533.675 21.6008 539.208 20.7465C543.481 19.9843 547.795 19.4618 552.125 19.1822C555.205 18.9832 558.297 18.9071 561.378 19.0844C566.045 19.3527 570.658 20.1994 575.259 21.0397C580.587 22.0131 585.919 22.9805 591.199 24.1952C597.207 25.5772 603.146 27.2798 608.939 29.4065C613.433 31.0566 617.836 32.9613 622.121 35.1087C626.507 36.9434 630.755 39.1145 634.819 41.5975C638.754 44.002 642.516 46.6989 646.063 49.6594C650.125 53.028 654.101 56.5034 657.985 60.0808C661.456 63.2768 664.862 66.5633 667.872 70.2073C670.639 73.5554 673.054 77.1841 675.433 80.8253C677.831 84.495 680.2 88.1888 682.315 92.0333C684.35 95.7335 686.145 99.565 687.84 103.438C689.871 108.078 691.761 112.786 693.365 117.595C694.604 121.311 695.672 125.085 696.564 128.902L699.181 142.174L700.912 154.5C701.066 159.7 701.173 165.07 700.745 170.254C700.528 172.879 700.236 175.498 699.868 178.105C699.271 182.341 698.474 186.546 697.546 190.72C696.804 194.056 695.978 197.373 695.069 200.666C694.081 204.311 692.927 207.911 691.611 211.448C690.359 214.814 688.961 218.123 687.482 221.394C685.828 225.054 684.072 228.668 682.219 232.229C680.69 235.025 679.037 237.75 677.264 240.394C675.09 243.639 672.739 246.757 670.452 249.921C668.825 252.173 667.228 254.45 665.498 256.621C663.262 259.427 660.81 262.048 658.273 264.577C655.295 267.547 652.198 270.393 649.036 273.162C644.878 276.801 640.603 280.31 636.082 283.473C630.241 287.561 624.014 291.054 617.659 294.256C613.383 296.411 609.041 298.438 604.602 300.223C597.763 302.974 590.704 305.144 583.547 306.871C579.483 307.851 575.386 308.69 571.265 309.383L551.964 311.215L529.36 310.901C521.072 310.148 512.82 308.995 504.641 307.447C495.805 305.774 487.05 303.639 478.476 300.904C473.258 299.239 468.108 297.352 463.046 295.251C457.704 292.818 452.42 290.252 447.203 287.556C441.797 284.763 436.462 281.831 431.204 278.762C426.779 275.75 422.358 272.732 417.942 269.707C414.102 267.077 410.266 264.443 406.433 261.803C400.382 257.045 394.428 252.158 388.578 247.147C383.514 242.809 378.528 238.38 373.54 233.952C370.552 231.299 367.562 228.647 364.505 226.077C362.216 224.153 359.888 222.275 357.666 220.273C355.771 218.566 353.954 216.771 352.223 214.894M311.893 125.406L319.034 131.571L311.834 125.346C306.844 121.29 301.788 117.319 296.667 113.434C291.036 109.162 285.328 104.994 279.553 100.924C271.617 95.3308 263.534 89.9105 254.944 85.4206C250.116 82.8974 245.143 80.6755 240.19 78.4172C235.086 76.0903 229.998 73.7218 224.787 71.6532C220.226 69.8426 215.576 68.2637 210.859 66.9244C206.625 65.59 202.331 64.4511 197.994 63.5125C192.501 62.3235 186.94 61.4563 181.352 60.8788C174.865 60.2084 168.338 59.9284 161.818 60.0408C155.113 60.2306 148.421 60.9114 141.812 62.0759C136.393 63.0308 131.03 64.3108 125.76 65.9069C121.565 67.5029 117.43 69.2604 113.367 71.1744C109.292 73.0934 105.283 75.174 101.505 77.639C98.6146 79.5247 95.869 81.6295 93.1836 83.8044C90.3036 86.1368 87.489 88.5524 84.7445 91.0472L76.0103 101.223C73.0569 104.34 70.5619 107.903 68.6334 111.758C67.8605 113.303 67.1787 114.893 66.5088 116.487C65.582 118.692 64.677 120.907 63.7941 123.131L61.4335 130.853L59.7811 137.916C59.0441 140.688 59.0801 140.5 58.5872 145C58.2605 147.982 58.6453 155.01 59.0801 157.5C59.2958 155.043 59.3565 149.93 59.7811 147.5C60.1305 145.501 60.5631 142.469 61.0519 140.5C61.476 138.223 62.2698 135.688 63.0238 133.5C63.7272 131.459 65.5985 127.471 66.4745 125.5C67.3566 123.515 67.2931 124.015 68.2432 122.063C69.4046 120.084 70.6323 118.145 71.9234 116.251C73.4374 114.03 75.0385 111.869 76.7218 109.777C78.7816 107.431 80.9265 105.16 83.1506 102.973C85.1409 101.016 87.1957 99.1242 89.3466 97.3503C91.478 95.5925 93.7029 93.9512 96.0083 92.4362C98.4091 90.9273 100.865 89.5085 103.369 88.1836C105.975 86.8048 108.633 85.5278 111.335 84.3562C115.022 82.6896 118.823 81.2833 122.702 80.1508C126.34 79.0887 130.046 78.2674 133.789 77.6938C140.26 76.6884 146.81 76.2138 153.356 76.2762C157.339 76.3142 161.321 76.5509 165.281 76.985L175.111 78.3553L182.798 80.1036C187.032 81.1745 191.216 82.4522 195.329 83.931C199.217 85.3286 203.043 86.9059 206.789 88.6561L215.268 92.7197C219.395 95.0856 223.48 97.5275 227.52 100.044C230.721 102.037 233.895 104.078 237.024 106.186C241.902 109.474 246.673 112.925 251.326 116.534L265.534 128.489L276.808 138.884L294.749 156.858C296.73 154.775 298.711 152.69 300.691 150.605C302.838 148.342 304.985 146.078 307.13 143.813L313.628 136.881L317.655 133.245L319.128 131.602" stroke="#444444" stroke-width="1.00157"/>
<path d="M243.556 44.5752C243.815 44.0562 243.989 43.5503 244.078 43.0574C244.174 42.5631 244.174 42.0878 244.077 41.6316C243.984 41.1708 243.788 40.7321 243.49 40.3154C243.2 39.8974 242.797 39.5075 242.28 39.1458C241.433 38.5526 240.461 38.1978 239.363 38.0813C238.27 37.968 237.137 38.1352 235.964 38.5828C234.795 39.0337 233.674 39.8065 232.603 40.9011C231.531 41.9957 230.82 43.0553 230.471 44.0798C230.126 45.1075 230.105 46.0535 230.408 46.918C230.716 47.7857 231.312 48.5291 232.197 49.1483C233.016 49.7219 233.901 50.0818 234.853 50.2281C235.808 50.3697 236.75 50.2872 237.68 49.9806C238.612 49.6694 239.454 49.1251 240.207 48.3479L240.631 48.8115L236.331 45.8003L237.685 44.4599L243.131 48.2729L241.776 49.6132C240.762 50.6651 239.629 51.4013 238.378 51.8219C237.126 52.2425 235.854 52.3545 234.563 52.1579C233.272 51.9613 232.059 51.4654 230.923 50.6702C229.657 49.7838 228.804 48.7429 228.365 47.5475C227.926 46.3521 227.916 45.083 228.336 43.7401C228.756 42.3973 229.62 41.0599 230.927 39.7279C231.901 38.724 232.929 37.9286 234.013 37.3418C235.105 36.7536 236.204 36.3721 237.311 36.1972C238.423 36.0256 239.508 36.0567 240.565 36.2905C241.627 36.5276 242.614 36.9655 243.526 37.6043C244.28 38.1322 244.884 38.7253 245.339 39.3836C245.802 40.0404 246.111 40.7324 246.268 41.4595C246.428 42.1819 246.431 42.9157 246.277 43.6609C246.126 44.4015 245.815 45.1234 245.343 45.8267L243.556 44.5752ZM243.978 59.853C242.949 59.1327 242.259 58.3099 241.909 57.3845C241.561 56.4544 241.543 55.4846 241.855 54.4751C242.169 53.4608 242.802 52.4681 243.753 51.4968C244.703 50.5255 245.742 49.8099 246.868 49.3502C247.998 48.8858 249.13 48.7005 250.265 48.7942C251.402 48.8833 252.453 49.2651 253.416 49.9397C253.975 50.3308 254.447 50.8003 254.833 51.3482C255.22 51.8961 255.455 52.5115 255.538 53.1944C255.625 53.8726 255.504 54.6059 255.173 55.3944C254.843 56.1828 254.244 57.0187 253.376 57.9021L252.775 58.522L244.509 52.7341L245.73 51.4663L252.321 56.081C252.851 55.5509 253.201 54.9914 253.371 54.4026C253.545 53.8171 253.53 53.2485 253.327 52.6969C253.128 52.1486 252.729 51.6642 252.128 51.2438C251.509 50.8103 250.815 50.5738 250.045 50.5341C249.279 50.4898 248.538 50.5958 247.825 50.8522C247.114 51.1039 246.533 51.4594 246.079 51.9188L245.023 53.0107C244.261 53.8019 243.787 54.524 243.6 55.177C243.418 55.8333 243.476 56.4391 243.774 56.9945C244.075 57.5452 244.572 58.0633 245.265 58.5489C245.708 58.8585 246.157 59.0831 246.614 59.2228C247.075 59.3579 247.538 59.4047 248.004 59.3634C248.473 59.3174 248.938 59.1782 249.399 58.946L250.594 60.4488C249.96 60.8094 249.267 61.0316 248.515 61.1153C247.77 61.1975 247.009 61.136 246.23 60.9306C245.459 60.7238 244.709 60.3646 243.978 59.853ZM255.417 67.8627C254.43 67.1718 253.769 66.3583 253.432 65.4221C253.096 64.486 253.087 63.4983 253.405 62.4589C253.729 61.4228 254.375 60.4052 255.345 59.4059C256.291 58.4314 257.312 57.721 258.409 57.2747C259.513 56.8271 260.615 56.6553 261.714 56.7592C262.821 56.8618 263.85 57.2455 264.799 57.9103C265.786 58.6012 266.444 59.4154 266.772 60.3529C267.109 61.289 267.116 62.2791 266.794 63.3231C266.476 64.3624 265.828 65.3864 264.851 66.3949C263.912 67.3602 262.889 68.0627 261.784 68.5024C260.686 68.9407 259.586 69.1102 258.483 69.0109C257.388 68.9102 256.366 68.5275 255.417 67.8627ZM256.481 66.4022C257.235 66.9301 258.024 67.1948 258.849 67.1963C259.678 67.2011 260.486 67.0076 261.274 66.6158C262.066 66.2272 262.78 65.7076 263.416 65.057C264.016 64.437 264.466 63.7845 264.766 63.0994C265.068 62.4096 265.151 61.7424 265.013 61.0977C264.878 60.4483 264.452 59.8727 263.735 59.3708C262.981 58.8429 262.186 58.5772 261.349 58.5738C260.516 58.5737 259.705 58.7719 258.914 59.1683C258.123 59.5648 257.412 60.09 256.781 60.7439C256.18 61.3638 255.728 62.0147 255.424 62.6966C255.128 63.3771 255.049 64.0397 255.187 64.6844C255.333 65.3277 255.764 65.9003 256.481 66.4022ZM262.878 72.7538L272.173 63.2818L273.765 64.3963L272.313 65.8763L272.452 65.9741C273.174 65.6265 273.921 65.4867 274.692 65.5548C275.47 65.6215 276.209 65.8992 276.907 66.3881C277.605 66.8769 278.053 67.4302 278.252 68.0479C278.454 68.661 278.438 69.3124 278.205 70.0022L278.317 70.0804C279.071 69.7761 279.864 69.6729 280.698 69.7707C281.536 69.8718 282.338 70.1913 283.106 70.729C284.056 71.3938 284.576 72.2057 284.668 73.1646C284.764 74.1267 284.268 75.1628 283.178 76.2728L276.952 82.6089L275.304 81.4552L281.531 75.1191C282.214 74.4112 282.484 73.7577 282.341 73.1587C282.207 72.5582 281.847 72.0526 281.26 71.642C280.506 71.114 279.727 70.9047 278.922 71.014C278.117 71.1233 277.414 71.4879 276.814 72.1078L270.753 78.2679L269.077 77.0947L275.448 70.6106C275.976 70.0647 276.205 69.4899 276.136 68.8862C276.066 68.2824 275.717 67.7606 275.089 67.3206C274.66 67.0208 274.16 66.8438 273.588 66.7898C273.018 66.731 272.445 66.8015 271.868 67.0011C271.295 67.196 270.784 67.5248 270.335 67.9874L264.525 73.9075L262.878 72.7538ZM284.276 88.0702C283.248 87.35 282.558 86.5272 282.207 85.6018C281.86 84.6717 281.841 83.7019 282.153 82.6923C282.468 81.6781 283.101 80.6853 284.051 79.714C285.002 78.7427 286.04 78.0272 287.167 77.5675C288.297 77.1031 289.429 76.9178 290.563 77.0115C291.701 77.1005 292.751 77.4824 293.715 78.157C294.273 78.5481 294.746 79.0175 295.132 79.5655C295.518 80.1134 295.753 80.7288 295.837 81.4116C295.924 82.0898 295.802 82.8232 295.472 83.6116C295.142 84.4001 294.543 85.236 293.674 86.1193L293.074 86.7393L284.808 80.9514L286.029 79.6836L292.619 84.2983C293.15 83.7682 293.5 83.2087 293.669 82.6199C293.843 82.0344 293.829 81.4658 293.626 80.9142C293.427 80.3658 293.027 79.8815 292.427 79.4611C291.808 79.0276 291.113 78.7911 290.344 78.7514C289.577 78.7071 288.837 78.8131 288.123 79.0695C287.413 79.3212 286.831 79.6767 286.378 80.1361L285.322 81.2279C284.56 82.0191 284.085 82.7412 283.898 83.3943C283.716 84.0506 283.774 84.6564 284.072 85.2117C284.373 85.7624 284.87 86.2806 285.564 86.7662C286.006 87.0758 286.456 87.3004 286.913 87.4401C287.373 87.5752 287.836 87.622 288.302 87.5806C288.771 87.5346 289.236 87.3955 289.697 87.1633L290.892 88.666C290.258 89.0267 289.565 89.2488 288.813 89.3325C288.069 89.4148 287.307 89.3533 286.529 89.1479C285.758 88.9411 285.007 88.5819 284.276 88.0702ZM305.405 86.5507L304.204 87.7906L298.647 83.8994L299.848 82.6595L305.405 86.5507ZM303.685 81.5178L305.333 82.6715L296.473 91.6995C296.072 92.1128 295.84 92.47 295.774 92.7711C295.717 93.0709 295.763 93.332 295.913 93.5545C296.07 93.7757 296.269 93.971 296.511 94.1404C296.693 94.2675 296.848 94.3625 296.978 94.4254C297.111 94.4836 297.217 94.5301 297.296 94.565L296.372 96.1233C296.217 96.0772 296.017 96.0001 295.774 95.8921C295.532 95.792 295.257 95.6344 294.95 95.4193C294.485 95.0934 294.117 94.687 293.848 94.2001C293.578 93.7132 293.478 93.1883 293.546 92.6256C293.614 92.0628 293.917 91.5055 294.456 90.9535L303.685 81.5178ZM298.587 97.7581L307.883 88.2861L309.475 89.4007L308.062 90.8248L308.173 90.9031C308.824 90.568 309.552 90.4357 310.355 90.5061C311.159 90.5765 311.882 90.8365 312.525 91.2863C312.65 91.3743 312.8 91.4825 312.974 91.611C313.15 91.7348 313.283 91.838 313.371 91.9204L311.918 93.4004C311.872 93.3473 311.761 93.2384 311.585 93.0736C311.413 92.9041 311.215 92.7412 310.991 92.5847C310.47 92.2197 309.912 91.9918 309.316 91.901C308.724 91.8054 308.146 91.8442 307.581 92.0173C307.019 92.1857 306.526 92.4826 306.104 92.908L300.235 98.9118L298.587 97.7581ZM303.856 107.44C303.577 107.245 303.347 107.049 303.165 106.852C302.985 106.664 302.87 106.521 302.82 106.423L304.507 105.441C304.817 105.81 305.136 106.078 305.463 106.245C305.792 106.42 306.18 106.474 306.63 106.407C307.08 106.348 307.643 106.152 308.319 105.821L309.367 105.306L314.725 93.0768L316.443 94.2793L311.975 103.928L312.087 104.006L322.474 98.503L324.332 99.8033L309.161 107.472C308.453 107.829 307.788 108.061 307.166 108.166C306.544 108.272 305.959 108.261 305.41 108.133C304.858 108.01 304.34 107.779 303.856 107.44Z" fill="#444444"/>
<path d="M384.688 209.604L386.015 208.244L396.738 215.752L395.411 217.112L390.915 213.964L379.857 225.24L378.125 224.028L389.184 212.752L384.688 209.604ZM389.516 232.337C388.53 231.646 387.868 230.832 387.532 229.896C387.195 228.96 387.186 227.972 387.505 226.933C387.828 225.897 388.475 224.879 389.445 223.88C390.391 222.905 391.412 222.195 392.508 221.749C393.612 221.301 394.714 221.129 395.814 221.233C396.921 221.336 397.949 221.719 398.899 222.384C399.886 223.075 400.543 223.889 400.872 224.827C401.208 225.763 401.215 226.753 400.894 227.797C400.575 228.836 399.927 229.86 398.951 230.869C398.011 231.834 396.989 232.537 395.883 232.976C394.786 233.415 393.685 233.584 392.583 233.485C391.488 233.384 390.466 233.001 389.516 232.337ZM390.581 230.876C391.335 231.404 392.124 231.669 392.948 231.67C393.777 231.675 394.585 231.482 395.373 231.09C396.165 230.701 396.879 230.182 397.515 229.531C398.116 228.911 398.566 228.258 398.865 227.573C399.168 226.884 399.25 226.216 399.112 225.572C398.977 224.922 398.551 224.347 397.835 223.845C397.081 223.317 396.285 223.051 395.448 223.048C394.616 223.048 393.804 223.246 393.013 223.642C392.223 224.039 391.511 224.564 390.88 225.218C390.28 225.838 389.827 226.489 389.523 227.171C389.227 227.851 389.148 228.514 389.286 229.158C389.432 229.802 389.864 230.374 390.581 230.876ZM393.491 240.78L406.287 227.766L407.879 228.88L406.407 230.388L406.602 230.525C406.881 230.443 407.252 230.349 407.715 230.243C408.186 230.136 408.724 230.124 409.331 230.209C409.945 230.292 410.601 230.579 411.3 231.067C412.202 231.7 412.801 232.455 413.094 233.333C413.388 234.212 413.37 235.153 413.042 236.158C412.713 237.162 412.061 238.162 411.086 239.158C410.105 240.163 409.06 240.899 407.95 241.363C406.844 241.824 405.752 242.016 404.674 241.941C403.599 241.861 402.615 241.509 401.722 240.883C401.033 240.401 400.58 239.913 400.362 239.421C400.148 238.925 400.058 238.469 400.091 238.056C400.127 237.637 400.167 237.298 400.211 237.037L400.072 236.939L395.153 241.943L393.491 240.78ZM403.259 233.636C402.561 234.354 402.061 235.069 401.758 235.779C401.463 236.488 401.393 237.157 401.549 237.786C401.713 238.414 402.125 238.96 402.786 239.422C403.475 239.905 404.204 240.145 404.975 240.144C405.754 240.141 406.528 239.948 407.296 239.563C408.073 239.178 408.793 238.649 409.458 237.977C410.107 237.307 410.578 236.625 410.872 235.928C411.168 235.227 411.24 234.56 411.088 233.926C410.938 233.287 410.515 232.723 409.816 232.235C409.146 231.765 408.434 231.52 407.679 231.498C406.933 231.474 406.18 231.648 405.421 232.018C404.67 232.387 403.949 232.926 403.259 233.636ZM413.246 248.952C412.259 248.262 411.598 247.448 411.261 246.512C410.925 245.576 410.916 244.588 411.235 243.549C411.558 242.513 412.205 241.495 413.175 240.496C414.121 239.521 415.142 238.811 416.238 238.365C417.342 237.917 418.444 237.745 419.543 237.849C420.651 237.952 421.679 238.335 422.629 239C423.615 239.691 424.273 240.505 424.601 241.443C424.938 242.379 424.945 243.369 424.623 244.413C424.305 245.452 423.657 246.476 422.681 247.485C421.741 248.45 420.719 249.152 419.613 249.592C418.515 250.03 417.415 250.2 416.312 250.101C415.218 250 414.196 249.617 413.246 248.952ZM414.31 247.492C415.064 248.02 415.854 248.285 416.678 248.286C417.507 248.291 418.315 248.097 419.103 247.706C419.895 247.317 420.609 246.797 421.245 246.147C421.846 245.527 422.296 244.874 422.595 244.189C422.898 243.499 422.98 242.832 422.842 242.187C422.707 241.538 422.281 240.962 421.564 240.461C420.81 239.933 420.015 239.667 419.178 239.664C418.346 239.663 417.534 239.862 416.743 240.258C415.952 240.655 415.241 241.18 414.61 241.834C414.009 242.454 413.557 243.105 413.253 243.786C412.957 244.467 412.878 245.129 413.016 245.774C413.162 246.417 413.594 246.99 414.31 247.492ZM434.74 242.361L422.354 254.997L420.707 253.844L433.092 241.208L434.74 242.361ZM429.642 260.433C428.655 259.742 427.994 258.929 427.657 257.992C427.321 257.056 427.312 256.069 427.63 255.029C427.954 253.993 428.6 252.975 429.571 251.976C430.517 251.002 431.538 250.291 432.634 249.845C433.738 249.397 434.84 249.226 435.939 249.329C437.047 249.432 438.075 249.816 439.024 250.481C440.011 251.171 440.669 251.986 440.997 252.923C441.334 253.859 441.341 254.849 441.019 255.893C440.701 256.933 440.053 257.957 439.076 258.965C438.137 259.93 437.114 260.633 436.009 261.073C434.911 261.511 433.811 261.68 432.708 261.581C431.614 261.481 430.591 261.098 429.642 260.433ZM430.706 258.972C431.46 259.5 432.249 259.765 433.074 259.767C433.903 259.771 434.711 259.578 435.499 259.186C436.291 258.797 437.005 258.278 437.641 257.627C438.242 257.007 438.692 256.355 438.991 255.67C439.294 254.98 439.376 254.313 439.238 253.668C439.103 253.019 438.677 252.443 437.96 251.941C437.206 251.413 436.411 251.147 435.574 251.144C434.742 251.144 433.93 251.342 433.139 251.739C432.348 252.135 431.637 252.66 431.006 253.314C430.405 253.934 429.953 254.585 429.649 255.267C429.353 255.947 429.274 256.61 429.412 257.255C429.558 257.898 429.989 258.471 430.706 258.972ZM437.789 272.13C436.988 271.57 436.39 270.998 435.993 270.415C435.593 269.837 435.346 269.269 435.252 268.71C435.154 268.156 435.152 267.634 435.245 267.145L437.371 267.26C437.345 267.533 437.333 267.858 437.334 268.233C437.332 268.613 437.445 269.021 437.673 269.458C437.902 269.903 438.345 270.356 439.001 270.815C439.862 271.418 440.763 271.736 441.703 271.771C442.643 271.805 443.503 271.429 444.282 270.643L446.143 268.699L446.003 268.601C445.717 268.692 445.341 268.789 444.873 268.892C444.409 268.99 443.876 268.995 443.272 268.905C442.672 268.811 442.023 268.52 441.325 268.031C440.455 267.421 439.853 266.695 439.521 265.852C439.189 265.009 439.162 264.102 439.439 263.131C439.721 262.164 440.347 261.186 441.315 260.2C442.266 259.228 443.284 258.516 444.371 258.064C445.466 257.61 446.552 257.426 447.628 257.514C448.707 257.597 449.698 257.955 450.601 258.587C451.3 259.076 451.753 259.567 451.963 260.06C452.18 260.552 452.272 261.005 452.239 261.419C452.209 261.828 452.173 262.157 452.131 262.405L452.299 262.522L453.771 261.014L455.363 262.129L445.824 271.888C445.025 272.702 444.167 273.219 443.251 273.437C442.332 273.661 441.406 273.647 440.472 273.395C439.535 273.148 438.641 272.727 437.789 272.13ZM442.78 266.844C443.437 267.304 444.127 267.561 444.85 267.617C445.579 267.677 446.312 267.541 447.049 267.211C447.786 266.881 448.497 266.366 449.182 265.666C449.853 264.985 450.321 264.297 450.586 263.601C450.851 262.906 450.894 262.246 450.714 261.621C450.539 260.999 450.119 260.455 449.453 259.989C448.751 259.497 448.019 259.248 447.26 259.243C446.505 259.242 445.76 259.428 445.027 259.802C444.293 260.176 443.612 260.684 442.982 261.326C442.34 261.985 441.883 262.647 441.613 263.311C441.345 263.97 441.298 264.603 441.47 265.209C441.65 265.813 442.087 266.359 442.78 266.844ZM446.672 278.017C446.393 277.822 446.162 277.626 445.981 277.429C445.801 277.241 445.686 277.098 445.636 277.001L447.323 276.018C447.633 276.387 447.952 276.656 448.279 276.822C448.607 276.997 448.996 277.051 449.445 276.984C449.896 276.925 450.459 276.73 451.135 276.398L452.183 275.883L457.541 263.654L459.258 264.857L454.791 274.505L454.903 274.583L465.29 269.08L467.147 270.38L451.977 278.049C451.269 278.406 450.604 278.638 449.982 278.743C449.36 278.849 448.775 278.838 448.226 278.71C447.674 278.587 447.156 278.356 446.672 278.017Z" fill="white"/>
<path d="M314.748 155.119L316.428 153.237L329.596 160.244L329.732 160.091L324.466 144.236L326.147 142.354L337.235 156.142L335.918 157.617L327.503 147.131L327.39 147.258L332.172 161.812L330.9 163.236L318.852 156.819L318.738 156.946L327.153 167.432L325.836 168.907L314.748 155.119ZM342.649 150.541C342.096 151.16 341.495 151.598 340.846 151.856C340.192 152.11 339.543 152.151 338.897 151.978C338.247 151.802 337.65 151.379 337.105 150.709C336.633 150.112 336.348 149.519 336.25 148.929C336.148 148.335 336.175 147.75 336.332 147.174C336.488 146.589 336.724 146.023 337.039 145.474C337.353 144.917 337.689 144.383 338.047 143.872C338.508 143.202 338.886 142.659 339.18 142.244C339.475 141.829 339.658 141.483 339.731 141.205C339.804 140.927 339.741 140.661 339.541 140.407L339.49 140.362C338.958 139.704 338.399 139.353 337.813 139.309C337.223 139.262 336.621 139.582 336.008 140.269C335.372 140.981 334.997 141.716 334.883 142.475C334.769 143.234 334.788 143.887 334.94 144.433L333.25 145.302C332.967 144.424 332.876 143.596 332.977 142.818C333.074 142.036 333.293 141.321 333.635 140.674C333.972 140.023 334.36 139.452 334.799 138.961C335.08 138.647 335.434 138.327 335.862 138.001C336.286 137.671 336.766 137.437 337.301 137.298C337.84 137.155 338.418 137.203 339.035 137.442C339.656 137.676 340.298 138.203 340.96 139.023L346.439 145.836L345.099 147.336L343.982 145.927L343.913 146.003C344.004 146.328 344.046 146.738 344.037 147.233C344.033 147.724 343.926 148.258 343.717 148.833C343.512 149.404 343.156 149.973 342.649 150.541ZM341.687 148.905C342.217 148.312 342.564 147.689 342.728 147.036C342.896 146.378 342.917 145.749 342.791 145.149C342.668 144.544 342.434 144.026 342.087 143.595L340.919 142.14C340.927 142.284 340.862 142.497 340.725 142.779C340.584 143.056 340.41 143.358 340.203 143.683C339.996 144.001 339.79 144.308 339.585 144.606C339.38 144.895 339.216 145.129 339.094 145.309C338.789 145.753 338.533 146.206 338.325 146.669C338.118 147.123 338.016 147.573 338.022 148.02C338.026 148.458 338.193 148.877 338.521 149.277C338.963 149.832 339.469 150.059 340.038 149.958C340.604 149.854 341.154 149.503 341.687 148.905ZM352.608 139.338C351.786 140.258 350.897 140.819 349.938 141.022C348.984 141.221 348.025 141.096 347.062 140.648C346.099 140.199 345.202 139.459 344.371 138.427C343.523 137.381 342.94 136.273 342.62 135.104C342.296 133.931 342.248 132.787 342.474 131.672C342.697 130.552 343.202 129.552 343.989 128.671C344.602 127.984 345.263 127.5 345.971 127.218C346.68 126.937 347.386 126.863 348.089 126.996C348.793 127.129 349.443 127.477 350.038 128.039L348.698 129.539C348.215 129.184 347.651 129.023 347.005 129.055C346.358 129.08 345.742 129.421 345.155 130.077C344.633 130.662 344.305 131.337 344.171 132.101C344.033 132.861 344.09 133.655 344.341 134.481C344.589 135.304 345.029 136.105 345.66 136.882C346.301 137.683 346.967 138.259 347.659 138.61C348.351 138.961 349.026 139.08 349.683 138.966C350.341 138.853 350.935 138.499 351.464 137.906C351.813 137.516 352.07 137.091 352.237 136.631C352.405 136.171 352.478 135.696 352.459 135.206C352.439 134.716 352.319 134.236 352.1 133.765L353.439 132.265C353.849 132.966 354.102 133.729 354.196 134.552C354.287 135.372 354.207 136.196 353.956 137.023C353.7 137.846 353.251 138.618 352.608 139.338ZM354.143 125.387L359.154 131.598L357.814 133.099L346.726 119.311L348.065 117.811L352.142 122.868L352.255 122.741C352.019 121.982 351.98 121.215 352.138 120.442C352.299 119.664 352.726 118.887 353.418 118.112C354.009 117.451 354.64 117.013 355.312 116.798C355.983 116.575 356.676 116.614 357.389 116.916C358.102 117.209 358.817 117.799 359.535 118.684L364.808 125.267L363.469 126.767L358.274 120.3C357.612 119.48 356.92 119.049 356.197 119.005C355.474 118.953 354.8 119.277 354.176 119.976C353.737 120.468 353.432 121.018 353.261 121.628C353.094 122.233 353.079 122.859 353.216 123.507C353.357 124.151 353.666 124.778 354.143 125.387ZM367.259 122.522L358.949 112.175L360.288 110.675L368.599 121.022L367.259 122.522ZM358.374 109.491C358.113 109.784 357.788 109.947 357.4 109.981C357.015 110.011 356.683 109.901 356.404 109.651C356.124 109.401 355.977 109.084 355.963 108.698C355.953 108.308 356.079 107.967 356.34 107.675C356.601 107.382 356.924 107.221 357.309 107.192C357.697 107.157 358.031 107.265 358.311 107.515C358.591 107.765 358.736 108.085 358.745 108.474C358.759 108.86 358.636 109.199 358.374 109.491ZM367.382 110.562L372.393 116.774L371.053 118.274L362.742 107.927L364.036 106.478L365.335 108.095L365.449 107.968C365.225 107.22 365.196 106.451 365.361 105.661C365.521 104.867 365.93 104.101 366.589 103.364C367.172 102.711 367.799 102.281 368.472 102.074C369.144 101.859 369.836 101.903 370.549 102.205C371.262 102.498 371.973 103.084 372.683 103.961L377.956 110.544L376.616 112.045L371.422 105.578C370.773 104.769 370.086 104.335 369.363 104.276C368.643 104.212 367.971 104.529 367.346 105.229C366.915 105.712 366.619 106.252 366.46 106.848C366.304 107.44 366.299 108.056 366.443 108.696C366.592 109.331 366.905 109.954 367.382 110.562ZM384.241 103.916C383.405 104.853 382.506 105.441 381.546 105.68C380.581 105.916 379.616 105.819 378.65 105.391C377.68 104.959 376.769 104.214 375.916 103.155C375.064 102.097 374.476 100.981 374.152 99.8084C373.824 98.6318 373.773 97.4858 374 96.3704C374.222 95.2512 374.725 94.253 375.509 93.3758C375.963 92.8672 376.485 92.4534 377.074 92.1344C377.664 91.8154 378.303 91.6546 378.991 91.6519C379.674 91.6455 380.388 91.8526 381.132 92.2733C381.877 92.6941 382.636 93.3876 383.411 94.3538L383.956 95.0232L377.234 102.55L376.119 101.188L381.478 95.1873C381.014 94.5979 380.5 94.1843 379.935 93.9466C379.374 93.7046 378.808 93.6521 378.236 93.7891C377.668 93.9217 377.14 94.2614 376.652 94.8081C376.149 95.3718 375.832 96.0335 375.702 96.7934C375.567 97.5494 375.586 98.2969 375.756 99.0357C375.922 99.7708 376.207 100.39 376.61 100.895L377.569 102.072C378.265 102.922 378.927 103.478 379.553 103.741C380.183 103.999 380.792 104.013 381.378 103.782C381.961 103.548 382.534 103.115 383.098 102.484C383.457 102.081 383.733 101.661 383.926 101.224C384.114 100.783 384.215 100.328 384.229 99.8608C384.239 99.3894 384.155 98.9113 383.979 98.4263L385.612 97.4165C385.896 98.0886 386.034 98.8031 386.029 99.5599C386.023 100.309 385.872 101.058 385.576 101.807C385.28 102.548 384.835 103.251 384.241 103.916Z" fill="#444444"/>
<path d="M357.836 188.398L346.748 174.611L348.155 173.034L358.05 185.344L363.454 179.292L364.649 180.77L357.836 188.398ZM370.483 174.646C369.647 175.582 368.749 176.17 367.788 176.41C366.824 176.645 365.859 176.549 364.893 176.121C363.923 175.688 363.011 174.943 362.159 173.885C361.306 172.826 360.718 171.711 360.394 170.538C360.066 169.361 360.016 168.215 360.242 167.1C360.465 165.981 360.968 164.982 361.751 164.105C362.205 163.597 362.727 163.183 363.317 162.864C363.907 162.545 364.545 162.384 365.233 162.381C365.917 162.375 366.631 162.582 367.375 163.003C368.119 163.423 368.879 164.117 369.653 165.083L370.198 165.753L363.477 173.279L362.362 171.918L367.721 165.917C367.257 165.327 366.743 164.914 366.178 164.676C365.617 164.434 365.051 164.381 364.479 164.518C363.911 164.651 363.383 164.991 362.895 165.537C362.391 166.101 362.074 166.763 361.944 167.523C361.81 168.279 361.828 169.026 361.999 169.765C362.165 170.5 362.449 171.12 362.852 171.624L363.812 172.801C364.508 173.651 365.169 174.208 365.796 174.47C366.426 174.728 367.034 174.742 367.621 174.512C368.203 174.278 368.776 173.845 369.34 173.213C369.7 172.811 369.976 172.391 370.168 171.953C370.357 171.512 370.458 171.058 370.472 170.59C370.481 170.119 370.398 169.641 370.222 169.156L371.855 168.146C372.138 168.818 372.277 169.532 372.271 170.289C372.265 171.038 372.115 171.787 371.819 172.536C371.523 173.277 371.078 173.98 370.483 174.646ZM378.755 165.435C378.202 166.054 377.601 166.492 376.952 166.75C376.298 167.004 375.648 167.045 375.003 166.872C374.353 166.696 373.756 166.273 373.211 165.604C372.739 165.006 372.454 164.413 372.356 163.823C372.254 163.229 372.281 162.644 372.438 162.068C372.594 161.484 372.829 160.917 373.144 160.368C373.459 159.811 373.795 159.277 374.153 158.766C374.614 158.096 374.991 157.553 375.286 157.138C375.58 156.723 375.764 156.377 375.837 156.099C375.91 155.821 375.846 155.555 375.647 155.301L375.596 155.256C375.064 154.598 374.505 154.247 373.919 154.204C373.329 154.156 372.727 154.476 372.114 155.163C371.478 155.875 371.103 156.61 370.989 157.369C370.875 158.128 370.894 158.781 371.046 159.328L369.356 160.196C369.073 159.318 368.982 158.49 369.083 157.712C369.18 156.93 369.399 156.215 369.741 155.568C370.078 154.918 370.466 154.346 370.905 153.855C371.185 153.541 371.54 153.221 371.968 152.895C372.392 152.566 372.872 152.331 373.407 152.192C373.946 152.049 374.524 152.097 375.141 152.336C375.762 152.57 376.404 153.097 377.066 153.917L382.545 160.73L381.205 162.23L380.087 160.821L380.019 160.897C380.11 161.222 380.151 161.632 380.143 162.127C380.139 162.619 380.032 163.152 379.823 163.727C379.618 164.298 379.262 164.867 378.755 165.435ZM377.793 163.799C378.323 163.206 378.67 162.583 378.834 161.93C379.002 161.272 379.023 160.643 378.897 160.043C378.774 159.438 378.539 158.92 378.193 158.489L377.024 157.034C377.033 157.178 376.968 157.391 376.831 157.673C376.69 157.95 376.516 158.252 376.309 158.578C376.101 158.895 375.895 159.202 375.691 159.5C375.486 159.789 375.322 160.024 375.2 160.204C374.895 160.647 374.639 161.1 374.431 161.563C374.224 162.017 374.122 162.468 374.127 162.914C374.132 163.352 374.299 163.771 374.627 164.171C375.069 164.726 375.575 164.953 376.144 164.852C376.71 164.748 377.259 164.397 377.793 163.799ZM384.99 157.992L376.68 147.645L377.974 146.195L379.222 147.767L379.312 147.665C379.056 146.979 379.011 146.242 379.175 145.452C379.34 144.662 379.683 143.974 380.206 143.389C380.308 143.275 380.433 143.139 380.581 142.982C380.725 142.821 380.843 142.701 380.935 142.624L382.234 144.241C382.175 144.28 382.054 144.377 381.87 144.533C381.681 144.684 381.496 144.862 381.314 145.065C380.891 145.54 380.598 146.067 380.438 146.648C380.273 147.224 380.244 147.804 380.349 148.385C380.45 148.963 380.687 149.487 381.06 149.957L386.33 156.492L384.99 157.992ZM387.299 143.585L392.309 149.796L390.97 151.297L382.659 140.949L383.953 139.5L385.252 141.117L385.365 140.99C385.142 140.242 385.113 139.473 385.277 138.683C385.438 137.889 385.847 137.124 386.506 136.386C387.088 135.734 387.716 135.304 388.388 135.097C389.06 134.882 389.753 134.925 390.466 135.227C391.179 135.521 391.89 136.106 392.6 136.983L397.873 143.567L396.533 145.067L391.339 138.6C390.689 137.792 390.003 137.358 389.279 137.298C388.559 137.234 387.887 137.552 387.263 138.251C386.831 138.734 386.536 139.274 386.376 139.87C386.221 140.463 386.215 141.079 386.36 141.718C386.509 142.354 386.821 142.976 387.299 143.585ZM400.321 140.825L392.01 130.478L393.35 128.978L401.661 139.325L400.321 140.825ZM391.436 127.794C391.175 128.087 390.85 128.25 390.462 128.284C390.077 128.314 389.745 128.204 389.465 127.954C389.185 127.704 389.039 127.387 389.025 127.001C389.015 126.611 389.141 126.27 389.402 125.978C389.663 125.685 389.986 125.524 390.37 125.494C390.759 125.46 391.093 125.568 391.373 125.818C391.652 126.068 391.797 126.388 391.807 126.777C391.821 127.163 391.697 127.502 391.436 127.794ZM400.443 128.865L405.454 135.077L404.115 136.577L395.804 126.23L397.098 124.781L398.397 126.398L398.51 126.27C398.287 125.523 398.257 124.754 398.422 123.964C398.582 123.17 398.992 122.404 399.65 121.667C400.233 121.014 400.861 120.584 401.533 120.377C402.205 120.162 402.898 120.206 403.611 120.508C404.324 120.801 405.035 121.387 405.744 122.264L411.018 128.847L409.678 130.348L404.484 123.881C403.834 123.072 403.148 122.638 402.424 122.579C401.704 122.515 401.032 122.832 400.408 123.532C399.976 124.015 399.681 124.554 399.521 125.151C399.366 125.743 399.36 126.359 399.505 126.999C399.654 127.634 399.966 128.257 400.443 128.865ZM420.306 126.227C419.655 126.956 419.016 127.483 418.391 127.808C417.77 128.136 417.176 128.315 416.61 128.343C416.049 128.375 415.53 128.315 415.055 128.165L415.419 126.068C415.688 126.125 416.009 126.176 416.382 126.219C416.759 126.266 417.177 126.202 417.638 126.027C418.107 125.852 418.609 125.465 419.142 124.868C419.842 124.084 420.265 123.227 420.409 122.297C420.554 121.368 420.282 120.47 419.593 119.603L417.882 117.527L417.769 117.654C417.826 117.948 417.878 118.334 417.925 118.81C417.968 119.282 417.909 119.813 417.749 120.401C417.585 120.986 417.219 121.596 416.651 122.232C415.944 123.024 415.152 123.536 414.275 123.767C413.399 123.997 412.495 123.917 411.564 123.527C410.636 123.133 409.739 122.397 408.874 121.319C408.021 120.261 407.434 119.165 407.112 118.033C406.79 116.892 406.736 115.792 406.95 114.734C407.16 113.672 407.632 112.73 408.366 111.908C408.934 111.272 409.475 110.879 409.989 110.729C410.504 110.572 410.964 110.533 411.371 110.615C411.774 110.693 412.096 110.767 412.338 110.838L412.474 110.686L411.15 109.046L412.444 107.597L421.012 118.219C421.726 119.108 422.138 120.021 422.247 120.956C422.361 121.895 422.237 122.814 421.878 123.711C421.522 124.613 420.998 125.451 420.306 126.227ZM415.644 120.647C416.178 120.05 416.515 119.395 416.656 118.683C416.801 117.966 416.753 117.222 416.512 116.451C416.271 115.68 415.843 114.914 415.229 114.152C414.631 113.405 414.003 112.859 413.344 112.514C412.684 112.169 412.034 112.048 411.392 112.153C410.754 112.254 410.164 112.607 409.623 113.213C409.051 113.853 408.718 114.55 408.624 115.303C408.534 116.053 408.631 116.814 408.916 117.587C409.201 118.359 409.625 119.096 410.188 119.796C410.768 120.512 411.371 121.043 411.998 121.39C412.621 121.733 413.244 121.855 413.866 121.756C414.488 121.648 415.08 121.279 415.644 120.647Z" fill="white"/>
</svg>
