<?xml version="1.0" encoding="UTF-8" standalone="no"?>
<!-- Created with Inkscape (http://www.inkscape.org/) -->

<svg
   width="210mm"
   height="297mm"
   viewBox="0 0 210 297"
   version="1.1"
   id="svg592"
   inkscape:version="1.2.1 (9c6d41e410, 2022-07-14)"
   sodipodi:docname="logo_tetrahedron.svg"
   xmlns:inkscape="http://www.inkscape.org/namespaces/inkscape"
   xmlns:sodipodi="http://sodipodi.sourceforge.net/DTD/sodipodi-0.dtd"
   xmlns="http://www.w3.org/2000/svg"
   xmlns:svg="http://www.w3.org/2000/svg">
  <sodipodi:namedview
     id="namedview594"
     pagecolor="#ffffff"
     bordercolor="#666666"
     borderopacity="1.0"
     inkscape:showpageshadow="2"
     inkscape:pageopacity="0.0"
     inkscape:pagecheckerboard="0"
     inkscape:deskcolor="#d1d1d1"
     inkscape:document-units="mm"
     showgrid="false"
     showguides="true"
     inkscape:zoom="1.6196298"
     inkscape:cx="452.57256"
     inkscape:cy="219.80332"
     inkscape:window-width="1920"
     inkscape:window-height="1119"
     inkscape:window-x="0"
     inkscape:window-y="0"
     inkscape:window-maximized="1"
     inkscape:current-layer="layer1">
    <sodipodi:guide
       position="-6.2923727,216.77225"
       orientation="0,-1"
       id="guide2065"
       inkscape:locked="false" />
  </sodipodi:namedview>
  <defs
     id="defs589" />
  <g
     inkscape:label="Layer 1"
     inkscape:groupmode="layer"
     id="layer1">
    <path
       d="m 53.634766,163.12866 c 2.017591,4.76768 5.376869,8.81054 9.606823,11.66782 2.115503,1.43107 4.454023,2.56471 6.949078,3.33862 2.496636,0.77767 5.154663,1.19473 7.887786,1.19473 1.866045,0 3.683012,-0.21094 5.421987,-0.60909 3.266066,-0.74193 6.237363,-2.12214 8.923239,-3.85827 2.353736,-1.51677 4.503244,-3.31022 6.52077,-5.24704 2.012931,-1.94226 3.900741,-4.03419 5.712921,-6.18364 -1.52145,-1.86224 -2.99687,-3.74521 -4.43358,-5.58486 l -0.11481,-0.14903 c -0.720264,-0.92079 -1.446163,-1.8529 -2.179529,-2.7783 -0.151831,0.1873 -0.305221,0.37472 -0.457616,0.55829 -1.636301,1.98943 -3.265101,3.85155 -4.88911,5.50204 -1.220068,1.23994 -2.436404,2.35846 -3.646297,3.3254 -1.818906,1.45555 -3.612421,2.56272 -5.385337,3.29711 -0.888714,0.36623 -1.77845,0.64121 -2.679398,0.82853 -0.902927,0.18731 -1.823659,0.28532 -2.792425,0.28532 -2.21155,0 -4.290373,-0.44532 -6.192068,-1.24845 -2.849834,-1.2032 -5.293022,-3.22919 -7.010276,-5.77312 -0.858598,-1.27004 -1.537422,-2.66907 -2.000601,-4.16053 -0.464209,-1.49318 -0.715633,-3.07594 -0.715633,-4.73558 0,-2.21348 0.445382,-4.29236 1.246544,-6.19495 1.206032,-2.84792 3.231123,-5.29308 5.775021,-7.00845 1.27197,-0.85865 2.670939,-1.53558 4.162437,-2.0007 1.491348,-0.46603 3.075874,-0.7155 4.733861,-0.7155 1.066707,0 2.073153,0.11979 3.063575,0.34448 1.297389,0.2965 2.57508,0.77957 3.863782,1.45457 0.428394,0.22589 0.860527,0.47078 1.293591,0.7391 1.297381,0.80122 2.606932,1.79357 3.922117,2.9564 0.49426,0.43498 0.988614,0.89247 1.482846,1.37174 1.484784,1.43956 2.973264,3.0656 4.464448,4.8149 1.243656,1.4612 2.492131,3.00534 3.750745,4.59921 0.754123,0.9528 1.512003,1.92536 2.279253,2.90549 2.07319,2.65219 4.18776,5.36561 6.41813,7.97538 1.67395,1.95545 3.41,3.85537 5.25711,5.62639 1.38495,1.32934 2.83294,2.58612 4.36654,3.73385 0.28718,0.21437 0.57713,0.42556 0.87089,0.63271 2.05614,1.45082 4.27059,2.70108 6.67597,3.62567 2.23041,0.85863 4.62739,1.42542 7.13828,1.60616 0.58002,0.0423 1.16372,0.0638 1.75592,0.062 3.64734,0 7.15153,-0.74093 10.3289,-2.08538 4.76754,-2.01947 8.80855,-5.37498 11.66768,-9.60683 1.42922,-2.11551 2.56478,-4.45405 3.33863,-6.95101 0.77867,-2.49212 1.19571,-5.14893 1.19571,-7.88405 0,-3.64739 -0.74189,-7.1516 -2.08728,-10.32898 -2.01759,-4.76765 -5.37501,-8.80856 -9.60682,-11.66779 -2.11548,-1.42921 -4.454,-2.56476 -6.94906,-3.34034 -2.49505,-0.77577 -5.15273,-1.19284 -7.88788,-1.19284 -1.86411,0 -3.68298,0.21282 -5.42099,0.60723 -3.26604,0.74377 -6.23734,2.12404 -8.92516,3.85824 -2.35371,1.51677 -4.50128,3.31211 -6.51882,5.24875 -2.01292,1.9404 -3.90074,4.03222 -5.71296,6.1836 1.529,1.87071 3.0099,3.76045 4.45409,5.60859 l 0.0958,0.12319 c 0.71834,0.9208 1.44611,1.85291 2.17764,2.77828 0.1537,-0.18544 0.30522,-0.37469 0.45756,-0.56016 1.63819,-1.98751 3.26608,-3.84988 4.89103,-5.50207 1.22017,-1.23806 2.43641,-2.35657 3.64633,-3.32733 1.81713,-1.4546 3.61242,-2.56275 5.38537,-3.29519 0.88874,-0.3681 1.77658,-0.64305 2.67943,-0.83038 0.90287,-0.18543 1.82176,-0.28561 2.79053,-0.28561 2.21338,0 4.2923,0.44538 6.19297,1.25031 2.8498,1.2032 5.29302,3.22754 7.00838,5.77129 0.85859,1.27194 1.53742,2.671 2.00249,4.16244 0.46232,1.49131 0.71367,3.07589 0.71367,4.7356 0,2.21341 -0.44535,4.29236 -1.24654,6.19498 -1.20598,2.84977 -3.2311,5.29303 -5.77509,7.00835 -1.27001,0.86053 -2.66898,1.53743 -4.16043,2.00067 -1.49132,0.46417 -3.0759,0.71557 -4.73557,0.71557 -1.06672,0 -2.07319,-0.11979 -3.06166,-0.34452 -1.72954,-0.39448 -3.42518,-1.12223 -5.15733,-2.19366 -1.29923,-0.80305 -2.60784,-1.79541 -3.92216,-2.9573 -1.97521,-1.73988 -3.95991,-3.85342 -5.94925,-6.18842 -1.99131,-2.33492 -3.98628,-4.89107 -6.02649,-7.50087 -2.07313,-2.6522 -4.18772,-5.36664 -6.41815,-7.97737 -1.67385,-1.95733 -3.40988,-3.85535 -5.256999,-5.62829 -0.345604,-0.33232 -0.694913,-0.66003 -1.050755,-0.9839 -1.064784,-0.96499 -2.164474,-1.88763 -3.315001,-2.74996 -2.298143,-1.72105 -4.797675,-3.20004 -7.546764,-4.25841 -0.172365,-0.0656 -0.344481,-0.12974 -0.517812,-0.19228 -2.603237,-0.93772 -5.423855,-1.47818 -8.380224,-1.47631 -3.64639,0 -7.149629,0.74098 -10.327177,2.08538 -4.767645,2.01762 -8.808617,5.37692 -11.667785,9.60681 -1.429211,2.11555 -2.566395,4.45409 -3.340364,6.95107 -0.779476,2.50069 -1.19468,5.15576 -1.19468,7.89063 0,3.64935 0.740958,7.15355 2.085354,10.32896 z"
       id="path2688-6-0"
       style="display:inline;fill:#c41e3a;fill-opacity:1;stroke:none;stroke-width:0.158971;stroke-opacity:1" />
    <polygon
       points="300,0 600,520 0,520 "
       fill="#007843"
       id="polygon6969"
       transform="matrix(0.26458333,0,0,0.26458333,47.730933,-40.790606)"
       style="fill:none;fill-opacity:1;stroke:#000000;stroke-opacity:1;stroke-width:10.00000013;stroke-dasharray:none" />
    <path
       style="fill:none;stroke:#000000;stroke-width:0.264583px;stroke-linecap:butt;stroke-linejoin:miter;stroke-opacity:1"
       d="M 47.730933,96.792723 166.79343,28.00106"
       id="path480" />
    <path
       style="fill:none;stroke:#000000;stroke-width:0.264583px;stroke-linecap:butt;stroke-linejoin:miter;stroke-opacity:1"
       d="M 206.48093,96.792723 87.41843,28.00106"
       id="path478" />
    <path
       style="fill:none;stroke:#000000;stroke-width:0.264583px;stroke-linecap:butt;stroke-linejoin:miter;stroke-opacity:1"
       d="M 127.10593,96.792723 V -40.790606"
       id="path8242" />
    <circle
       style="fill:none;stroke:#000000;stroke-width:2.64583;stop-color:#000000"
       id="path599"
       cx="45.051403"
       cy="20.390259"
       r="7.3665123" />
  </g>
</svg>
