<?xml version="1.0" encoding="UTF-8" standalone="no"?>
<svg
   xmlns:dc="http://purl.org/dc/elements/1.1/"
   xmlns:cc="http://creativecommons.org/ns#"
   xmlns:rdf="http://www.w3.org/1999/02/22-rdf-syntax-ns#"
   xmlns:svg="http://www.w3.org/2000/svg"
   xmlns="http://www.w3.org/2000/svg"
   xmlns:sodipodi="http://sodipodi.sourceforge.net/DTD/sodipodi-0.dtd"
   xmlns:inkscape="http://www.inkscape.org/namespaces/inkscape"
   viewBox="0 0 295.87204 38.40604"
   height="38.40604"
   width="295.87204"
   xml:space="preserve"
   id="svg2"
   version="1.1"
   inkscape:version="1.0.2 (e86c8708, 2021-01-15)"
   sodipodi:docname="logo_helmholtz_centre_munich.svg"><sodipodi:namedview
     pagecolor="#ffffff"
     bordercolor="#666666"
     borderopacity="1"
     objecttolerance="10"
     gridtolerance="10"
     guidetolerance="10"
     inkscape:pageopacity="0"
     inkscape:pageshadow="2"
     inkscape:window-width="1440"
     inkscape:window-height="855"
     id="namedview4280"
     showgrid="false"
     fit-margin-top="0"
     fit-margin-left="0"
     fit-margin-right="0"
     fit-margin-bottom="0"
     inkscape:zoom="1.9160856"
     inkscape:cx="124.58311"
     inkscape:cy="22.293233"
     inkscape:window-x="0"
     inkscape:window-y="23"
     inkscape:window-maximized="1"
     inkscape:current-layer="svg2"
     borderlayer="true"
     inkscape:document-rotation="0" /><metadata
     id="metadata8"><rdf:RDF><cc:Work
         rdf:about=""><dc:format>image/svg+xml</dc:format><dc:type
           rdf:resource="http://purl.org/dc/dcmitype/StillImage" /><dc:title></dc:title></cc:Work></rdf:RDF></metadata><defs
     id="defs6" /><g
     id="g949"
     transform="translate(0,3.7436597)"><path
       id="path16"
       style="fill:#ed1443;fill-opacity:1;fill-rule:nonzero;stroke:none;stroke-width:0.133333"
       d="m 102.86854,12.85274 v -0.826533 c 0,-0.260534 -0.216,-0.472934 -0.47333,-0.472934 h -6.086668 c -0.472,0 -0.945067,0.09373 -1.227867,0.142134 0.2828,-0.212534 0.614533,-0.571867 0.875867,-1.044267 l 6.390668,-11.07706646 c 0.14133,-0.23693333 0.25866,-0.51826666 0.25866,-0.78119994 v -0.8510667 c 0,-0.2844 -0.21066,-0.4729333 -0.47466,-0.4729333 h -7.996935 c -0.283867,0 -0.521867,0.1885333 -0.521867,0.4729333 v 0.7822667 c 0,0.2603999 0.238,0.47293328 0.521867,0.47293328 h 5.440933 c 0.544002,0 1.021332,-0.0474667 1.374662,-0.1412 -0.284,0.2344 -0.64133,0.58853332 -0.87466,0.99119998 L 93.612408,11.221407 c -0.09427,0.1652 -0.212,0.401066 -0.212,0.662533 v 0.9688 c 0,0.262 0.212,0.473867 0.4704,0.473867 h 8.524402 c 0.25733,0 0.47333,-0.211867 0.47333,-0.473867"
       inkscape:connector-curvature="0" /><path
       id="path18"
       style="fill:#ed1443;fill-opacity:1;fill-rule:nonzero;stroke:none;stroke-width:0.133333"
       d="m 111.28854,6.5610067 h -4.56933 c 0.28,-2.7838666 1.584,-3.2265333 2.36666,-3.2265333 1.56267,0 2.156,1.6604 2.20267,3.2265333 m 1.94,1.0286666 c 0,-4.4453332 -2.01067,-5.7874665 -4.19067,-5.7874665 -2.53066,0 -4.28666,2.1901333 -4.28666,5.7379999 0,3.8464003 1.77466,5.9068003 5.044,5.9068003 1.352,0 2.108,-0.238534 2.744,-0.5224 0.288,-0.119867 0.404,-0.3552 0.312,-0.614667 l -0.216,-0.591067 c -0.096,-0.236 -0.284,-0.402666 -0.61734,-0.306266 -0.70266,0.209866 -1.34666,0.3792 -2.24666,0.3792 -2.13067,0 -2.956,-1.304667 -3.052,-3.6969337 h 6.03733 c 0.25867,0 0.472,-0.2406666 0.472,-0.5052"
       inkscape:connector-curvature="0" /><path
       id="path20"
       style="fill:#ed1443;fill-opacity:1;fill-rule:nonzero;stroke:none;stroke-width:0.133333"
       d="M 124.67654,12.85274 V 4.7590067 c 0,-1.7761333 -1.132,-2.9583999 -2.908,-2.9583999 -1.23067,0 -2.24933,0.4729333 -3.264,1.6536 l -0.26267,-1.1588 c -0.0707,-0.2838667 -0.21466,-0.3776 -0.54533,-0.3776 h -0.52 c -0.26133,0 -0.49467,0.1890667 -0.49467,0.474 V 12.85274 c 0,0.262 0.23334,0.473867 0.49467,0.473867 h 0.90133 c 0.25867,0 0.496,-0.211867 0.496,-0.473867 V 6.3448734 c 0,-1.6328 1.20667,-2.9385333 2.74267,-2.9385333 1.04533,0 1.468,0.5234667 1.468,1.776 V 12.85274 c 0,0.262 0.23867,0.473867 0.49867,0.473867 h 0.90133 c 0.25867,0 0.492,-0.211867 0.492,-0.473867"
       inkscape:connector-curvature="0" /><path
       id="path22"
       style="fill:#ed1443;fill-opacity:1;fill-rule:nonzero;stroke:none;stroke-width:0.133333"
       d="m 133.14987,12.664207 -0.0947,-0.4964 c -0.0453,-0.261467 -0.264,-0.425467 -0.496,-0.376 -0.23734,0.04427 -0.544,0.09213 -0.73734,0.09213 -0.58933,0 -0.848,-0.284933 -0.848,-0.922933 V 3.4516734 h 1.324 c 0.26134,0 0.47334,-0.2369333 0.47334,-0.5010666 v -0.5276 c 0,-0.2630667 -0.212,-0.5025333 -0.47334,-0.5025333 h -1.324 v -2.9609333 c 0,-0.3750666 -0.33333,-0.3526666 -0.62,-0.2562666 l -0.87333,0.30826662 c -0.21333,0.0718667 -0.35467,0.25679999 -0.35467,0.51986665 V 1.9204735 h -1.30266 c -0.28267,0 -0.47467,0.2394666 -0.47467,0.5025333 v 0.5276 c 0,0.2641333 0.192,0.5010666 0.47467,0.5010666 h 1.30266 v 7.7463996 c 0,1.512934 0.756,2.248934 2.36534,2.248934 0.49866,0 0.972,-0.07187 1.3,-0.168267 0.33333,-0.09373 0.408,-0.333333 0.35866,-0.614533"
       inkscape:connector-curvature="0" /><path
       id="path24"
       style="fill:#ed1443;fill-opacity:1;fill-rule:nonzero;stroke:none;stroke-width:0.133333"
       d="m 141.60187,2.6287401 c 0.11467,-0.4749333 -0.47466,-0.8281333 -1.232,-0.8281333 -1.09066,0 -1.992,0.6370667 -2.65333,1.7516 l -0.33467,-1.2786667 c -0.072,-0.2369333 -0.25466,-0.3557333 -0.49066,-0.3557333 h -0.54667 c -0.25867,0 -0.49867,0.1890667 -0.49867,0.474 V 12.85274 c 0,0.262 0.24,0.473867 0.49867,0.473867 h 0.896 c 0.26267,0 0.5,-0.211867 0.5,-0.473867 V 6.6746067 c 0,-2.0573333 0.92533,-2.9114666 1.61067,-2.9114666 0.44933,0 0.99333,0.1666667 1.324,0.264 0.404,0.1161333 0.61466,-0.097333 0.68533,-0.4270667 l 0.24133,-0.9713333"
       inkscape:connector-curvature="0" /><path
       id="path26"
       style="fill:#ed1443;fill-opacity:1;fill-rule:nonzero;stroke:none;stroke-width:0.133333"
       d="M 151.53787,12.85274 V 2.3918068 c 0,-0.2849333 -0.23866,-0.474 -0.49333,-0.474 h -0.90267 c -0.26133,0 -0.49733,0.1890667 -0.49733,0.474 V 8.14434 c 0,2.5068 -1.18267,3.719333 -2.86533,3.719333 -0.89867,0 -1.44,-0.498933 -1.44,-1.663066 V 2.3918068 c 0,-0.2849333 -0.23734,-0.474 -0.50134,-0.474 h -0.896 c -0.26133,0 -0.49466,0.1890667 -0.49466,0.474 v 8.0484002 c 0,1.988 1.08533,3.0068 2.81333,3.0068 2.084,0 2.864,-1.115067 3.45333,-1.7516 l 0.30934,1.2292 c 0.0693,0.2604 0.236,0.402 0.47733,0.402 h 0.544 c 0.25467,0 0.49333,-0.211867 0.49333,-0.473867"
       inkscape:connector-curvature="0" /><path
       id="path28"
       style="fill:#ed1443;fill-opacity:1;fill-rule:nonzero;stroke:none;stroke-width:0.133333"
       d="M 168.74721,12.85274 V 4.2371401 c 0,-2.0105333 -1.53734,-2.4365333 -2.584,-2.4365333 -1.228,0 -2.24534,0.5912 -3.216,1.7516 -0.21467,-1.0885333 -1.18267,-1.7516 -2.43867,-1.7516 -1.256,0 -2.344,0.8532 -3.00533,1.6302666 l -0.26267,-1.1354666 c -0.072,-0.2838667 -0.21333,-0.3776 -0.54267,-0.3776 h -0.52 c -0.26133,0 -0.49866,0.1890667 -0.49866,0.474 V 12.85274 c 0,0.262 0.23733,0.473867 0.49866,0.473867 h 0.89734 c 0.264,0 0.49733,-0.211867 0.49733,-0.473867 V 6.3230067 c 0,-1.6369333 1.18267,-2.8687999 2.58133,-2.8687999 0.73467,0 1.11067,0.3792 1.11067,1.1162666 V 12.85274 c 0,0.262 0.24,0.473867 0.5,0.473867 h 0.89733 c 0.26,0 0.496,-0.211867 0.496,-0.473867 V 6.3230067 c 0,-1.6369333 1.20934,-2.8687999 2.60534,-2.8687999 0.73333,0 1.08933,0.3792 1.08933,1.1162666 V 12.85274 c 0,0.262 0.23733,0.473867 0.5,0.473867 h 0.89867 c 0.26,0 0.496,-0.211867 0.496,-0.473867"
       inkscape:connector-curvature="0" /><path
       id="path30"
       style="fill:#ed1443;fill-opacity:1;fill-rule:nonzero;stroke:none;stroke-width:0.133333"
       d="M 10.121744,13.37354 H 9.2004105 c -0.2677333,0 -0.5068,-0.2172 -0.5068,-0.485467 V 5.65994 H 2.576544 v 7.228133 c 0,0.268267 -0.2412,0.485467 -0.5068,0.485467 H 1.1536107 c -0.2652,0 -0.512,-0.2172 -0.512,-0.485467 V -2.3400598 c 0,-0.2874666 0.2468,-0.4827999 0.512,-0.4827999 H 2.069744 c 0.2656,0 0.5068,0.1953333 0.5068,0.4827999 v 6.2594666 h 6.1170665 v -6.2594666 c 0,-0.2874666 0.2390667,-0.4827999 0.5068,-0.4827999 h 0.9213335 c 0.264133,0 0.507333,0.1953333 0.507333,0.4827999 V 12.888073 c 0,0.268267 -0.2432,0.485467 -0.507333,0.485467"
       inkscape:connector-curvature="0" /><path
       id="path32"
       style="fill:#ed1443;fill-opacity:1;fill-rule:nonzero;stroke:none;stroke-width:0.133333"
       d="m 18.508277,3.1470068 c -0.796933,0 -2.1276,0.4625333 -2.418267,3.3374666 h 4.6688 c -0.0516,-1.6208 -0.6552,-3.3374666 -2.250533,-3.3374666 m 3.7468,4.8853332 H 16.09001 c 0.1,2.440133 0.942267,3.770933 3.121334,3.770933 0.916133,0 1.571866,-0.171866 2.2932,-0.389066 0.338666,-0.0948 0.531866,0.07387 0.629733,0.316133 l 0.216133,0.603067 c 0.09533,0.2656 -0.0244,0.507866 -0.314,0.6276 -0.6516,0.290133 -1.426533,0.534933 -2.8016,0.534933 -3.338533,0 -5.1516,-2.1052 -5.1516,-6.0208 0,-3.6510666 1.789067,-5.8750665 4.3776,-5.8750665 2.222934,0 4.278667,1.3541333 4.278667,5.9207998 0,0.2682667 -0.217734,0.5114667 -0.4844,0.5114667"
       inkscape:connector-curvature="0" /><path
       id="path34"
       style="fill:#ed1443;fill-opacity:1;fill-rule:nonzero;stroke:none;stroke-width:0.133333"
       d="m 28.97281,13.226607 c -0.410933,0.146933 -0.868267,0.269333 -1.425467,0.269333 -1.5224,0 -2.200533,-0.7276 -2.200533,-2.054133 V -3.2592597 c 0,-0.2901334 0.2432,-0.4844 0.504667,-0.4844 h 0.875466 c 0.262,0 0.505334,0.1942666 0.505334,0.4844 V 10.954207 c 0,0.604266 0.06973,0.9444 0.603066,0.9444 0.219734,0 0.484934,-0.0704 0.773467,-0.143334 0.2916,-0.0744 0.460933,0 0.5328,0.31 l 0.142667,0.654667 c 0.05213,0.2672 -0.04787,0.4104 -0.311467,0.506667"
       inkscape:connector-curvature="0" /><path
       id="path36"
       style="fill:#ed1443;fill-opacity:1;fill-rule:nonzero;stroke:none;stroke-width:0.133333"
       d="m 44.300943,13.37354 h -0.9188 c -0.268133,0 -0.508267,-0.2172 -0.508267,-0.485467 V 4.4308734 c 0,-0.7526666 -0.361466,-1.1390666 -1.115066,-1.1390666 -1.425067,0 -2.654267,1.2587999 -2.654267,2.9254666 v 6.6707996 c 0,0.268267 -0.242667,0.485467 -0.5124,0.485467 h -0.9172 c -0.265067,0 -0.507867,-0.2172 -0.507867,-0.485467 V 4.4308734 c 0,-0.7526666 -0.388,-1.1390666 -1.136933,-1.1390666 -1.422933,0 -2.6312,1.2587999 -2.6312,2.9254666 v 6.6707996 c 0,0.268267 -0.245333,0.485467 -0.510533,0.485467 h -0.9172 c -0.2656,0 -0.5104,-0.2172 -0.5104,-0.485467 V 2.2068735 c 0,-0.2926667 0.2448,-0.4869334 0.5104,-0.4869334 h 0.531867 c 0.335866,0 0.4796,0.099467 0.5536,0.3885334 l 0.268266,1.1609333 C 34.00201,2.4724735 35.11241,1.6000735 36.39361,1.6000735 c 1.281333,0 2.270933,0.6770666 2.493866,1.7879999 0.9864,-1.1811999 2.0276,-1.7879999 3.282267,-1.7879999 1.062533,0 2.637467,0.4365333 2.637467,2.4911999 v 8.7967996 c 0,0.268267 -0.2416,0.485467 -0.506267,0.485467"
       inkscape:connector-curvature="0" /><path
       id="path38"
       style="fill:#ed1443;fill-opacity:1;fill-rule:nonzero;stroke:none;stroke-width:0.133333"
       d="m 56.241076,13.37354 h -0.8672 c -0.267733,0 -0.512,-0.2172 -0.512,-0.485467 V 5.0584734 c 0,-1.2833333 -0.482267,-1.8161333 -1.542667,-1.8161333 -1.572933,0 -2.854666,1.3333333 -2.854666,2.9999999 v 6.645733 c 0,0.268267 -0.245334,0.485467 -0.5084,0.485467 h -0.872934 c -0.264,0 -0.507733,-0.2172 -0.507733,-0.485467 V -3.2592597 c 0,-0.2901334 0.243733,-0.4844 0.507733,-0.4844 h 0.872934 c 0.263066,0 0.5084,0.1942666 0.5084,0.4844 v 6.5015998 c 1.04,-1.1589333 2.077066,-1.6422666 3.312,-1.6422666 1.811866,0 2.969733,1.2109333 2.969733,3.0223999 v 8.2655996 c 0,0.268267 -0.241733,0.485467 -0.5052,0.485467"
       inkscape:connector-curvature="0" /><path
       id="path40"
       style="fill:#ed1443;fill-opacity:1;fill-rule:nonzero;stroke:none;stroke-width:0.133333"
       d="m 64.242142,3.2188734 c -1.6656,0 -2.588533,1.4270667 -2.588533,4.3265333 0,2.9729333 0.922933,4.3532003 2.588533,4.3532003 1.6708,0 2.588,-1.380267 2.588,-4.3532003 0,-2.8994666 -0.9172,-4.3265333 -2.588,-4.3265333 m 0.04733,10.2770666 c -2.806267,0 -4.6396,-2.224933 -4.6396,-5.9505333 0,-3.6989333 1.833333,-5.9453332 4.6396,-5.9453332 2.804133,0 4.595333,2.2463999 4.595333,5.9453332 0,3.7256003 -1.7912,5.9505333 -4.595333,5.9505333"
       inkscape:connector-curvature="0" /><path
       id="path42"
       style="fill:#ed1443;fill-opacity:1;fill-rule:nonzero;stroke:none;stroke-width:0.133333"
       d="m 75.412942,13.226607 c -0.410933,0.146933 -0.875466,0.269333 -1.429733,0.269333 -1.5208,0 -2.197333,-0.7276 -2.197333,-2.054133 V -3.2592597 c 0,-0.2901334 0.240133,-0.4844 0.5052,-0.4844 h 0.873466 c 0.2624,0 0.5052,0.1942666 0.5052,0.4844 V 10.954207 c 0,0.604266 0.0724,0.9444 0.604134,0.9444 0.216133,0 0.484933,-0.0704 0.773466,-0.143334 0.290534,-0.0744 0.458267,0 0.533333,0.31 l 0.142667,0.654667 c 0.05053,0.2672 -0.04587,0.4104 -0.3104,0.506667"
       inkscape:connector-curvature="0" /><path
       id="path44"
       style="fill:#ed1443;fill-opacity:1;fill-rule:nonzero;stroke:none;stroke-width:0.133333"
       d="m 81.887475,13.325673 c -0.3376,0.09627 -0.819333,0.170267 -1.3256,0.170267 -1.645333,0 -2.420266,-0.752667 -2.420266,-2.297867 V 3.2694068 h -1.326534 c -0.2928,0 -0.4876,-0.2432 -0.4876,-0.5078667 v -0.5312 c 0,-0.2682666 0.1948,-0.5104 0.4876,-0.5104 h 1.326534 v -2.44119989 c 0,-0.26453333 0.142666,-0.45826661 0.362933,-0.53013331 l 0.893333,-0.3136 c 0.292134,-0.098933 0.627067,-0.1213333 0.627067,0.2656 v 3.0193332 h 1.355733 c 0.267734,0 0.4812,0.2421334 0.4812,0.5104 v 0.5312 c 0,0.2646667 -0.213466,0.5078667 -0.4812,0.5078667 h -1.355733 v 7.6848002 c 0,0.654266 0.2692,0.9444 0.870267,0.9444 0.195866,0 0.507866,-0.04853 0.7532,-0.09533 0.239066,-0.048 0.4604,0.121334 0.508266,0.384267 l 0.0948,0.509467 c 0.0464,0.290133 -0.02293,0.5296 -0.364,0.628666"
       inkscape:connector-curvature="0" /><path
       id="path46"
       style="fill:#ed1443;fill-opacity:1;fill-rule:nonzero;stroke:none;stroke-width:0.133333"
       d="m 90.471208,13.37354 h -6.381199 c -0.340134,0 -0.534934,-0.290133 -0.534934,-0.724933 V 12.09234 c 0,-0.216133 0.09747,-0.411467 0.1948,-0.5792 l 4.666667,-7.5171999 c 0.193333,-0.3177333 0.36,-0.586 0.531866,-0.7536 -0.218799,0.049467 -0.558399,0.049467 -0.701066,0.049467 h -3.866667 c -0.290666,0 -0.485466,-0.2422667 -0.485466,-0.5052 v -0.556267 c 0,-0.2682666 0.1948,-0.5104 0.485466,-0.5104 h 5.967733 c 0.266667,0 0.4828,0.2421334 0.4828,0.5104 v 0.7473334 c 0,0.2411999 -0.04533,0.3870666 -0.1704,0.5807999 L 86.216542,10.76314 c -0.2172,0.3604 -0.508267,0.795333 -0.703067,1.040133 0.244267,-0.02453 0.632267,-0.048 0.8964,-0.048 h 4.061333 c 0.266667,0 0.481334,0.169334 0.481334,0.432267 v 0.678133 c 0,0.264667 -0.214667,0.507867 -0.481334,0.507867"
       inkscape:connector-curvature="0" /><path
       id="path48"
       style="fill:#ed1443;fill-opacity:1;fill-rule:nonzero;stroke:none;stroke-width:0.133333"
       d="M 192.85254,12.85274 V 4.2371401 c 0,-2.0105333 -1.53867,-2.4365333 -2.58,-2.4365333 -1.23067,0 -2.248,0.5912 -3.21867,1.7516 -0.21333,-1.0885333 -1.18266,-1.7516 -2.43466,-1.7516 -1.26134,0 -2.34534,0.8532 -3.00934,1.6302666 l -0.26133,-1.1354666 c -0.0693,-0.2838667 -0.212,-0.3776 -0.544,-0.3776 h -0.51733 c -0.26534,0 -0.50267,0.1890667 -0.50267,0.474 V 12.85274 c 0,0.262 0.23733,0.473867 0.50267,0.473867 h 0.89733 c 0.25733,0 0.49733,-0.211867 0.49733,-0.473867 V 6.3230067 c 0,-1.6369333 1.17867,-2.8687999 2.57867,-2.8687999 0.73333,0 1.10933,0.3792 1.10933,1.1162666 V 12.85274 c 0,0.262 0.24134,0.473867 0.50134,0.473867 h 0.89733 c 0.26133,0 0.49867,-0.211867 0.49867,-0.473867 V 6.3230067 c 0,-1.6369333 1.204,-2.8687999 2.60133,-2.8687999 0.73333,0 1.08933,0.3792 1.08933,1.1162666 V 12.85274 c 0,0.262 0.23867,0.473867 0.496,0.473867 h 0.896 c 0.26667,0 0.50267,-0.211867 0.50267,-0.473867"
       inkscape:connector-curvature="0" /><path
       id="path50"
       style="fill:#ed1443;fill-opacity:1;fill-rule:nonzero;stroke:none;stroke-width:0.133333"
       d="M 217.04187,12.85274 V 4.7590067 c 0,-1.7761333 -1.13733,-2.9583999 -2.91333,-2.9583999 -1.22667,0 -2.24533,0.4729333 -3.264,1.6536 l -0.26667,-1.1588 c -0.064,-0.2838667 -0.20933,-0.3776 -0.53866,-0.3776 h -0.52134 c -0.25866,0 -0.49466,0.1890667 -0.49466,0.474 V 12.85274 c 0,0.262 0.236,0.473867 0.49466,0.473867 h 0.9 c 0.25867,0 0.5,-0.211867 0.5,-0.473867 V 6.3448734 c 0,-1.6328 1.204,-2.9385333 2.74134,-2.9385333 1.04533,0 1.468,0.5234667 1.468,1.776 V 12.85274 c 0,0.262 0.23866,0.473867 0.49733,0.473867 h 0.89867 c 0.26266,0 0.49866,-0.211867 0.49866,-0.473867"
       inkscape:connector-curvature="0" /><path
       id="path52"
       style="fill:#ed1443;fill-opacity:1;fill-rule:nonzero;stroke:none;stroke-width:0.133333"
       d="m 227.49787,12.569407 -0.16266,-0.733334 c -0.048,-0.238533 -0.26267,-0.449466 -0.592,-0.3532 -0.44934,0.114667 -1.02,0.212534 -1.65867,0.212534 -1.79867,0 -2.72,-1.374934 -2.72,-4.168267 0,-2.5546666 1.04133,-4.0962666 2.50533,-4.0962666 0.66534,0 1.23467,0.1916 1.61067,0.3322667 0.356,0.1406667 0.52133,-0.046933 0.592,-0.2828 l 0.23867,-0.6849333 c 0.0947,-0.2614667 -0.048,-0.4516 -0.356,-0.5910667 -0.42667,-0.1928 -1.208,-0.4037333 -2.01467,-0.4037333 -2.62533,0 -4.59067,2.3672 -4.59067,5.7265332 0,3.811467 1.848,5.919867 4.616,5.919867 0.80667,0 1.49067,-0.07187 2.15334,-0.2844 0.31066,-0.0948 0.428,-0.357867 0.37866,-0.5932"
       inkscape:connector-curvature="0" /><path
       id="path54"
       style="fill:#ed1443;fill-opacity:1;fill-rule:nonzero;stroke:none;stroke-width:0.133333"
       d="M 238.2192,12.85274 V 4.7590067 c 0,-1.7761333 -1.13733,-2.9583999 -2.91333,-2.9583999 -1.20933,0 -2.224,0.4729333 -3.244,1.6057333 v -6.3645332 c 0,-0.2854666 -0.23333,-0.474 -0.49467,-0.474 h -0.85333 c -0.264,0 -0.49733,0.1885334 -0.49733,0.474 V 12.85274 c 0,0.262 0.23333,0.473867 0.49733,0.473867 h 0.85333 c 0.26134,0 0.49467,-0.211867 0.49467,-0.473867 V 6.3448734 c 0,-1.6328 1.25867,-2.9385333 2.79467,-2.9385333 1.03866,0 1.51466,0.5234667 1.51466,1.776 V 12.85274 c 0,0.262 0.236,0.473867 0.5,0.473867 h 0.85067 c 0.26,0 0.49733,-0.211867 0.49733,-0.473867"
       inkscape:connector-curvature="0" /><path
       id="path56"
       style="fill:#ed1443;fill-opacity:1;fill-rule:nonzero;stroke:none;stroke-width:0.133333"
       d="m 248.0832,6.5610067 h -4.56666 c 0.28266,-2.7838666 1.588,-3.2265333 2.36666,-3.2265333 1.56534,0 2.15334,1.6604 2.2,3.2265333 m 1.94,1.0286666 c 0,-4.4453332 -2.00933,-5.7874665 -4.188,-5.7874665 -2.532,0 -4.28266,2.1901333 -4.28266,5.7379999 0,3.8464003 1.776,5.9068003 5.04133,5.9068003 1.34933,0 2.10667,-0.238534 2.74667,-0.5224 0.28533,-0.119867 0.40133,-0.3552 0.308,-0.614667 l -0.21467,-0.591067 c -0.0933,-0.236 -0.28267,-0.402666 -0.61467,-0.306266 -0.70933,0.209866 -1.34933,0.3792 -2.24933,0.3792 -2.13067,0 -2.95733,-1.304667 -3.05333,-3.6969337 h 6.036 c 0.26,0 0.47066,-0.2406666 0.47066,-0.5052"
       inkscape:connector-curvature="0" /><path
       id="path58"
       style="fill:#ed1443;fill-opacity:1;fill-rule:nonzero;stroke:none;stroke-width:0.133333"
       d="M 261.4792,12.85274 V 4.7590067 c 0,-1.7761333 -1.13733,-2.9583999 -2.91466,-2.9583999 -1.22934,0 -2.24534,0.4729333 -3.26534,1.6536 l -0.25866,-1.1588 c -0.0707,-0.2838667 -0.21734,-0.3776 -0.54534,-0.3776 h -0.52266 c -0.25867,0 -0.49734,0.1890667 -0.49734,0.474 V 12.85274 c 0,0.262 0.23867,0.473867 0.49734,0.473867 h 0.9 c 0.26266,0 0.49733,-0.211867 0.49733,-0.473867 V 6.3448734 c 0,-1.6328 1.208,-2.9385333 2.74667,-2.9385333 1.03866,0 1.468,0.5234667 1.468,1.776 V 12.85274 c 0,0.262 0.23733,0.473867 0.496,0.473867 h 0.90133 c 0.256,0 0.49733,-0.211867 0.49733,-0.473867"
       inkscape:connector-curvature="0" /><path
       id="path60"
       style="fill:#ed1443;fill-opacity:1;fill-rule:nonzero;stroke:none;stroke-width:0.133333"
       d="m 199.83254,-1.8904598 c 0,-0.2553333 -0.208,-0.4234666 -0.44267,-0.4234666 h -1.00666 c -0.23734,0 -0.44934,0.1681333 -0.44934,0.4234666 v 1.05826668 c 0,0.23173333 0.212,0.42186665 0.44934,0.42186665 h 1.00666 c 0.23467,0 0.44267,-0.19013332 0.44267,-0.42186665 V -1.8904598"
       inkscape:connector-curvature="0" /><path
       id="path62"
       style="fill:#ed1443;fill-opacity:1;fill-rule:nonzero;stroke:none;stroke-width:0.133333"
       d="m 203.88987,-1.8904598 c 0,-0.2553333 -0.212,-0.4234666 -0.444,-0.4234666 h -1.012 c -0.232,0 -0.44133,0.1681333 -0.44133,0.4234666 v 1.05826668 c 0,0.23173333 0.20933,0.42186665 0.44133,0.42186665 h 1.012 c 0.232,0 0.444,-0.19013332 0.444,-0.42186665 V -1.8904598"
       inkscape:connector-curvature="0" /><path
       id="path64"
       style="fill:#ed1443;fill-opacity:1;fill-rule:nonzero;stroke:none;stroke-width:0.133333"
       d="m 204.49921,1.9178068 h -0.90134 c -0.26,0 -0.496,0.1890667 -0.496,0.474 V 8.14434 c 0,2.5068 -1.18133,3.719333 -2.86133,3.719333 -0.90133,0 -1.44533,-0.498933 -1.44533,-1.663066 V 2.4308735 c 0,-0.2797334 -0.23867,-0.4636 -0.49067,-0.474 -0.007,0 -2.48933,0.1536 -2.48933,0.1536 -0.22667,0.038133 -0.4,0.236 -0.4,0.4756 v 0.3864 c 0,0.3255999 0.0933,0.4677333 0.37466,0.5406666 l 1.11334,0.2525333 v 6.6745336 c 0,1.988 1.08266,3.0068 2.81466,3.0068 2.08134,0 2.864,-1.115067 3.456,-1.7516 l 0.308,1.2292 c 0.068,0.2604 0.23467,0.402 0.47467,0.402 h 0.54267 c 0.26,0 0.49466,-0.211867 0.49466,-0.473867 V 2.3918068 c 0,-0.2849333 -0.23466,-0.474 -0.49466,-0.474"
       inkscape:connector-curvature="0" /><path
       id="path66"
       style="fill:#656263;fill-opacity:1;fill-rule:nonzero;stroke:none;stroke-width:0.133333"
       d="M 295.2112,29.697006 V 24.72514 c 0,-1.0896 -0.69866,-1.817734 -1.78666,-1.817734 -0.74267,0 -1.36667,0.2916 -1.992,0.9896 v -3.908933 c 0,-0.1744 -0.14667,-0.29 -0.30667,-0.29 h -0.52133 c -0.16,0 -0.30667,0.1156 -0.30667,0.29 v 9.708933 c 0,0.159867 0.14667,0.290133 0.30667,0.290133 h 0.52133 c 0.16,0 0.30667,-0.130266 0.30667,-0.290133 v -3.998 c 0,-1.002 0.77066,-1.802 1.71466,-1.802 0.63867,0 0.92934,0.3192 0.92934,1.090134 v 4.709866 c 0,0.159867 0.14666,0.290133 0.30666,0.290133 h 0.52134 c 0.16,0 0.30666,-0.130266 0.30666,-0.290133 m -6.68666,-0.116133 -0.0573,-0.305734 c -0.028,-0.1604 -0.15866,-0.2636 -0.304,-0.233333 -0.14666,0.02867 -0.33466,0.05827 -0.45066,0.05827 -0.364,0 -0.524,-0.1744 -0.524,-0.566134 v -4.621333 h 0.81333 c 0.16133,0 0.29067,-0.145866 0.29067,-0.305733 v -0.320267 c 0,-0.1604 -0.12934,-0.304666 -0.29067,-0.304666 h -0.81333 v -1.817734 c 0,-0.231866 -0.20267,-0.2172 -0.37734,-0.158933 l -0.53733,0.188533 c -0.13067,0.04333 -0.21867,0.158934 -0.21867,0.319334 v 1.4688 h -0.79866 c -0.176,0 -0.292,0.144266 -0.292,0.304666 v 0.320267 c 0,0.159867 0.116,0.305733 0.292,0.305733 h 0.79866 v 4.7656 c 0,0.930267 0.464,1.380267 1.452,1.380267 0.30667,0 0.59734,-0.0428 0.80134,-0.1016 0.204,-0.05827 0.24666,-0.203067 0.216,-0.376 m -4.35734,0.01293 -0.0893,-0.392133 c -0.0427,-0.190134 -0.144,-0.231734 -0.31867,-0.190134 -0.17333,0.04427 -0.33333,0.08853 -0.46533,0.08853 -0.31867,0 -0.36267,-0.204134 -0.36267,-0.566134 v -8.545866 c 0,-0.1744 -0.14533,-0.29 -0.30666,-0.29 h -0.52267 c -0.15867,0 -0.30533,0.1156 -0.30533,0.29 v 8.836 c 0,0.7984 0.408,1.2344 1.32266,1.2344 0.33334,0 0.612,-0.07133 0.85867,-0.159867 0.16,-0.05733 0.21733,-0.1448 0.18933,-0.3048 m -6.164,-1.918133 c 0,0.566666 -0.63866,1.453066 -1.62666,1.453066 -0.61067,0 -0.988,-0.3484 -0.988,-1.1036 0,-1.178666 0.69733,-1.410399 1.64266,-1.454666 l 0.972,-0.04173 z m 1.30934,2.021333 -0.088,-0.436533 c -0.0867,-0.4364 -0.0867,-0.8296 -0.0867,-1.2072 V 25.48194 c 0,-1.162534 -0.20267,-2.574534 -2.39867,-2.574534 -0.62533,0 -1.292,0.1604 -1.68666,0.263067 -0.172,0.0432 -0.23067,0.173333 -0.20267,0.347867 l 0.088,0.466133 c 0.028,0.174533 0.188,0.261467 0.36267,0.2188 0.39333,-0.1032 0.78533,-0.249067 1.38,-0.249067 1.092,0 1.32266,0.450534 1.32266,1.3672 v 0.3776 l -1.69866,0.1032 c -1.004,0.05733 -2.108,0.580667 -2.108,2.222933 0,1.292667 0.74133,2.033334 1.86,2.033334 0.76933,0 1.52666,-0.290134 1.99066,-1.059867 l 0.11734,0.726533 c 0.0293,0.189067 0.16,0.262 0.32,0.262 h 0.59466 c 0.16,0 0.26134,-0.116133 0.23334,-0.290133 m -7.81734,-3.8532 h -2.80666 c 0.176,-1.729066 0.97466,-2.0052 1.45466,-2.0052 0.95867,0 1.32134,1.0324 1.352,2.0052 m 1.18934,0.626134 c 0,-2.747467 -1.23467,-3.562534 -2.57067,-3.562534 -1.556,0 -2.63067,1.338534 -2.63067,3.5328 0,2.354133 1.08934,3.618267 3.09467,3.618267 0.828,0 1.29467,-0.144267 1.68667,-0.3204 0.17466,-0.07133 0.248,-0.2172 0.188,-0.376 l -0.12934,-0.363467 c -0.0587,-0.145867 -0.17466,-0.247467 -0.37733,-0.188667 -0.43733,0.130267 -0.83067,0.231867 -1.38133,0.231867 -1.308,0 -1.81734,-0.799467 -1.876,-2.266666 h 3.70666 c 0.16,0 0.28934,-0.1464 0.28934,-0.3052 m -7.716,3.227066 v -9.1568 c 0,-0.174533 -0.144,-0.290133 -0.304,-0.290133 h -0.552 c -0.16,0 -0.30534,0.1156 -0.30534,0.290133 v 3.764534 h -3.67866 v -3.764534 c 0,-0.174533 -0.144,-0.290133 -0.304,-0.290133 h -0.552 c -0.16,0 -0.30667,0.1156 -0.30667,0.290133 v 9.1568 c 0,0.159867 0.14667,0.290133 0.30667,0.290133 h 0.552 c 0.16,0 0.304,-0.130266 0.304,-0.290133 v -4.346933 h 3.67866 v 4.346933 c 0,0.159867 0.14534,0.290133 0.30534,0.290133 h 0.552 c 0.16,0 0.304,-0.130266 0.304,-0.290133 m -11.37867,-0.1032 -0.088,-0.392133 c -0.044,-0.190134 -0.14533,-0.231734 -0.32,-0.190134 -0.17467,0.04427 -0.33467,0.08853 -0.464,0.08853 -0.32,0 -0.364,-0.204134 -0.364,-0.566134 v -8.545866 c 0,-0.1744 -0.144,-0.29 -0.304,-0.29 h -0.52533 c -0.15867,0 -0.30534,0.1156 -0.30534,0.29 v 8.836 c 0,0.7984 0.408,1.2344 1.324,1.2344 0.33467,0 0.61067,-0.07133 0.85734,-0.159867 0.15866,-0.05733 0.21866,-0.1448 0.18933,-0.3048 m -6.16133,-1.918133 c 0,0.566666 -0.64134,1.453066 -1.62934,1.453066 -0.61066,0 -0.98666,-0.3484 -0.98666,-1.1036 0,-1.178666 0.696,-1.410399 1.64,-1.454666 l 0.976,-0.04173 z m 1.30666,2.021333 -0.0867,-0.436533 c -0.0867,-0.4364 -0.0867,-0.8296 -0.0867,-1.2072 V 25.48194 c 0,-1.162534 -0.20533,-2.574534 -2.39867,-2.574534 -0.624,0 -1.29333,0.1604 -1.68533,0.263067 -0.176,0.0432 -0.23333,0.173333 -0.204,0.347867 l 0.088,0.466133 c 0.0293,0.174533 0.188,0.261467 0.36267,0.2188 0.392,-0.1032 0.784,-0.249067 1.38133,-0.249067 1.08933,0 1.32267,0.450534 1.32267,1.3672 v 0.3776 l -1.70267,0.1032 c -1.00133,0.05733 -2.10667,0.580667 -2.10667,2.222933 0,1.292667 0.74267,2.033334 1.86134,2.033334 0.77066,0 1.52666,-0.290134 1.99066,-1.059867 l 0.11734,0.726533 c 0.0267,0.189067 0.15733,0.262 0.31733,0.262 h 0.596 c 0.16133,0 0.26267,-0.116133 0.23333,-0.290133 m -6.27733,-0.116133 -0.06,-0.305734 c -0.028,-0.1604 -0.15867,-0.2636 -0.304,-0.233333 -0.14667,0.02867 -0.33333,0.05827 -0.45067,0.05827 -0.36266,0 -0.524,-0.1744 -0.524,-0.566134 v -4.621333 h 0.816 c 0.15867,0 0.28934,-0.145866 0.28934,-0.305733 v -0.320267 c 0,-0.1604 -0.13067,-0.304666 -0.28934,-0.304666 h -0.816 v -1.817734 c 0,-0.231866 -0.20266,-0.2172 -0.37733,-0.158933 l -0.53867,0.188533 c -0.13066,0.04333 -0.216,0.158934 -0.216,0.319334 v 1.4688 h -0.8 c -0.17466,0 -0.292,0.144266 -0.292,0.304666 v 0.320267 c 0,0.159867 0.11734,0.305733 0.292,0.305733 h 0.8 v 4.7656 c 0,0.930267 0.46534,1.380267 1.45334,1.380267 0.304,0 0.596,-0.0428 0.79866,-0.1016 0.204,-0.05827 0.248,-0.203067 0.21867,-0.376 m -5.348,0.116133 V 24.72514 c 0,-1.0896 -0.69867,-1.817734 -1.788,-1.817734 -0.75733,0 -1.38,0.2916 -2.00667,1.018267 l -0.15866,-0.712 c -0.044,-0.173467 -0.13067,-0.231733 -0.33467,-0.231733 h -0.32 c -0.16,0 -0.304,0.1156 -0.304,0.29 v 6.425066 c 0,0.159867 0.144,0.290133 0.304,0.290133 h 0.55333 c 0.15867,0 0.304,-0.130266 0.304,-0.290133 v -3.998 c 0,-1.002 0.74267,-1.802 1.68667,-1.802 0.63867,0 0.90133,0.3192 0.90133,1.090134 v 4.709866 c 0,0.159867 0.144,0.290133 0.30534,0.290133 h 0.552 c 0.15866,0 0.30533,-0.130266 0.30533,-0.290133 m -8.37066,-3.8532 h -2.80534 c 0.17467,-1.729066 0.97334,-2.0052 1.45467,-2.0052 0.95733,0 1.32133,1.0324 1.35067,2.0052 m 1.19066,0.626134 c 0,-2.747467 -1.23466,-3.562534 -2.572,-3.562534 -1.55466,0 -2.63066,1.338534 -2.63066,3.5328 0,2.354133 1.09066,3.618267 3.09733,3.618267 0.828,0 1.29066,-0.144267 1.68266,-0.3204 0.17467,-0.07133 0.248,-0.2172 0.19067,-0.376 l -0.13067,-0.363467 c -0.06,-0.145867 -0.176,-0.247467 -0.37733,-0.188667 -0.43733,0.130267 -0.82933,0.231867 -1.38133,0.231867 -1.308,0 -1.816,-0.799467 -1.87467,-2.266666 h 3.704 c 0.16133,0 0.292,-0.1464 0.292,-0.3052 m -7.39733,3.227066 V 24.40474 c 0,-1.234267 -0.944,-1.497334 -1.584,-1.497334 -0.75467,0 -1.38,0.364534 -1.976,1.077067 -0.13067,-0.668267 -0.72667,-1.077067 -1.49733,-1.077067 -0.76934,0 -1.43867,0.524934 -1.84534,1.0052 l -0.16,-0.698933 c -0.044,-0.173467 -0.13066,-0.231733 -0.33466,-0.231733 h -0.31867 c -0.16,0 -0.30533,0.1156 -0.30533,0.29 v 6.425066 c 0,0.159867 0.14533,0.290133 0.30533,0.290133 h 0.552 c 0.16,0 0.30533,-0.130266 0.30533,-0.290133 v -4.0136 c 0,-1.002533 0.72667,-1.757733 1.584,-1.757733 0.45067,0 0.68267,0.233333 0.68267,0.683867 v 5.087466 c 0,0.159867 0.14533,0.290133 0.30533,0.290133 h 0.552 c 0.16,0 0.30534,-0.130266 0.30534,-0.290133 v -4.0136 c 0,-1.002533 0.74133,-1.757733 1.59866,-1.757733 0.45067,0 0.668,0.233333 0.668,0.683867 v 5.087466 c 0,0.159867 0.14534,0.290133 0.30534,0.290133 h 0.55333 c 0.15867,0 0.304,-0.130266 0.304,-0.290133 m -10.75333,0 V 24.72514 c 0,-1.0896 -0.69867,-1.817734 -1.788,-1.817734 -0.756,0 -1.38134,0.2916 -2.00534,1.018267 l -0.16,-0.712 c -0.044,-0.173467 -0.13066,-0.231733 -0.33466,-0.231733 h -0.32 c -0.16,0 -0.30534,0.1156 -0.30534,0.29 v 6.425066 c 0,0.159867 0.14534,0.290133 0.30534,0.290133 h 0.552 c 0.16,0 0.30533,-0.130266 0.30533,-0.290133 v -3.998 c 0,-1.002 0.74133,-1.802 1.68667,-1.802 0.63866,0 0.90133,0.3192 0.90133,1.090134 v 4.709866 c 0,0.159867 0.14533,0.290133 0.30533,0.290133 h 0.552 c 0.16,0 0.30534,-0.130266 0.30534,-0.290133 m -8.35734,-3.212533 c 0,1.787466 -0.552,2.6156 -1.55466,2.6156 -1.00267,0 -1.55467,-0.828134 -1.55467,-2.6156 0,-1.7448 0.552,-2.6016 1.55467,-2.6016 1.00266,0 1.55466,0.8568 1.55466,2.6016 m 1.236,0 c 0,-2.224 -1.076,-3.577067 -2.76133,-3.577067 -1.68667,0 -2.79067,1.353067 -2.79067,3.577067 0,2.236933 1.104,3.574 2.79067,3.574 1.68533,0 2.76133,-1.337067 2.76133,-3.574 m -6.46666,-3.066667 c 0.072,-0.2916 -0.292,-0.5104 -0.756,-0.5104 -0.66934,0 -1.22134,0.3948 -1.628,1.077067 l -0.204,-0.785467 c -0.0427,-0.145733 -0.16,-0.217066 -0.30534,-0.217066 h -0.33333 c -0.16,0 -0.30533,0.1156 -0.30533,0.29 v 6.425066 c 0,0.159867 0.14533,0.290133 0.30533,0.290133 h 0.552 c 0.16,0 0.30533,-0.130266 0.30533,-0.290133 V 25.90274 c 0,-1.2636 0.56667,-1.788 0.988,-1.788 0.276,0 0.61067,0.101466 0.81334,0.1604 0.248,0.0724 0.37866,-0.05893 0.42133,-0.262 z m -6.352,6.2792 V 23.27194 c 0,-0.159867 -0.14534,-0.29 -0.30534,-0.29 h -0.52266 c -0.16,0 -0.30534,0.130133 -0.30534,0.29 v 6.425066 c 0,0.159867 0.14534,0.290133 0.30534,0.290133 h 0.52266 c 0.16,0 0.30534,-0.130266 0.30534,-0.290133 m 0.276,-9.229733 c 0,-0.466133 -0.37734,-0.843733 -0.84267,-0.843733 -0.46533,0 -0.84267,0.3776 -0.84267,0.843733 0,0.465067 0.37734,0.842667 0.84267,0.842667 0.46533,0 0.84267,-0.3776 0.84267,-0.842667 m -3.47334,2.848933 c 0.0587,-0.218666 -0.072,-0.334266 -0.232,-0.334266 h -0.65466 c -0.17334,0 -0.304,0.08587 -0.348,0.276 l -1.192,4.868266 c -0.0867,0.333333 -0.16,0.9156 -0.204,1.264533 -0.028,-0.3636 -0.10134,-0.9312 -0.188,-1.264533 l -1.25067,-4.854266 c -0.0427,-0.188534 -0.188,-0.29 -0.36267,-0.29 h -0.65466 c -0.16,0 -0.29067,0.130133 -0.21734,0.3776 l 1.86,6.365599 c 0.0587,0.203067 0.13067,0.262 0.30534,0.262 h 0.916 c 0.188,0 0.29066,-0.1032 0.33333,-0.262 z m -7.29466,6.3808 V 24.72514 c 0,-1.0896 -0.69734,-1.817734 -1.788,-1.817734 -0.756,0 -1.38,0.2916 -2.00534,1.018267 l -0.16,-0.712 c -0.044,-0.173467 -0.13066,-0.231733 -0.33466,-0.231733 h -0.32 c -0.15867,0 -0.304,0.1156 -0.304,0.29 v 6.425066 c 0,0.159867 0.14533,0.290133 0.304,0.290133 h 0.55333 c 0.16,0 0.30533,-0.130266 0.30533,-0.290133 v -3.998 c 0,-1.002 0.74,-1.802 1.68534,-1.802 0.64,0 0.90133,0.3192 0.90133,1.090134 v 4.709866 c 0,0.159867 0.14533,0.290133 0.30533,0.290133 h 0.552 c 0.16,0 0.30534,-0.130266 0.30534,-0.290133 m -7.31067,0 v -0.525067 c 0,-0.173333 -0.14533,-0.304666 -0.32,-0.304666 h -3.648 v -3.5016 h 3.19733 c 0.17467,0 0.30534,-0.1328 0.30534,-0.320267 v -0.450533 c 0,-0.159867 -0.13067,-0.290133 -0.30534,-0.290133 h -3.19733 v -2.966134 h 3.54667 c 0.18933,0 0.30533,-0.1448 0.30533,-0.320266 v -0.478134 c 0,-0.174533 -0.14533,-0.290133 -0.30533,-0.290133 h -4.41867 c -0.15867,0 -0.304,0.1156 -0.304,0.290133 v 9.1568 c 0,0.159867 0.14533,0.290133 0.304,0.290133 h 4.53467 c 0.16,0 0.30533,-0.130266 0.30533,-0.290133 m -10.39067,-6.2792 c 0.072,-0.2916 -0.29066,-0.5104 -0.756,-0.5104 -0.668,0 -1.22133,0.3948 -1.628,1.077067 l -0.20266,-0.785467 c -0.044,-0.145733 -0.16,-0.217066 -0.30534,-0.217066 h -0.33466 c -0.16,0 -0.30534,0.1156 -0.30534,0.29 v 6.425066 c 0,0.159867 0.14534,0.290133 0.30534,0.290133 h 0.552 c 0.16,0 0.30533,-0.130266 0.30533,-0.290133 V 25.90274 c 0,-1.2636 0.56667,-1.788 0.988,-1.788 0.276,0 0.61067,0.101466 0.81467,0.1604 0.24666,0.0724 0.37733,-0.05893 0.42133,-0.262 z m -6.976,3.066667 c 0,1.787466 -0.552,2.6156 -1.55466,2.6156 -1.00267,0 -1.556,-0.828134 -1.556,-2.6156 0,-1.7448 0.55333,-2.6016 1.556,-2.6016 1.00266,0 1.55466,0.8568 1.55466,2.6016 m 1.236,0 c 0,-2.224 -1.076,-3.577067 -2.76133,-3.577067 -1.68667,0 -2.79067,1.353067 -2.79067,3.577067 0,2.236933 1.104,3.574 2.79067,3.574 1.68533,0 2.76133,-1.337067 2.76133,-3.574 m -6.45333,-6.2344 c 0.044,-0.1604 0,-0.320267 -0.16,-0.3932 -0.232,-0.1016 -0.74133,-0.233333 -0.97333,-0.233333 -0.916,0 -1.584,0.450533 -1.584,1.657866 v 1.700534 h -0.8 c -0.17334,0 -0.29067,0.144266 -0.29067,0.304666 v 0.320267 c 0,0.159867 0.11733,0.305733 0.29067,0.305733 h 0.8 v 5.7844 c 0,0.159867 0.16,0.290133 0.30533,0.290133 h 0.52267 c 0.16,0 0.30533,-0.130266 0.30533,-0.290133 v -5.7844 h 1.11867 c 0.16,0 0.29066,-0.145866 0.29066,-0.305733 v -0.320267 c 0,-0.1604 -0.13066,-0.304666 -0.29066,-0.304666 h -1.11867 v -1.657867 c 0,-0.521867 0.204,-0.682267 0.50933,-0.682267 0.188,0 0.47867,0.116134 0.624,0.1604 0.16,0.04267 0.29067,-0.0156 0.33467,-0.1604 z m -7.81867,3.167733 c 0.0733,-0.2916 -0.29066,-0.5104 -0.756,-0.5104 -0.668,0 -1.22,0.3948 -1.628,1.077067 l -0.20266,-0.785467 c -0.044,-0.145733 -0.16,-0.217066 -0.30534,-0.217066 h -0.33466 c -0.16,0 -0.30534,0.1156 -0.30534,0.29 v 6.425066 c 0,0.159867 0.14534,0.290133 0.30534,0.290133 h 0.552 c 0.16,0 0.30533,-0.130266 0.30533,-0.290133 V 25.90274 c 0,-1.2636 0.56667,-1.788 0.98933,-1.788 0.276,0 0.60934,0.101466 0.81334,0.1604 0.24666,0.0724 0.37733,-0.05893 0.42133,-0.262 z m -6.99066,2.426 h -2.804 c 0.17333,-1.729066 0.97333,-2.0052 1.45333,-2.0052 0.95867,0 1.32133,1.0324 1.35067,2.0052 m 1.192,0.626134 c 0,-2.747467 -1.23467,-3.562534 -2.572,-3.562534 -1.55467,0 -2.63067,1.338534 -2.63067,3.5328 0,2.354133 1.08933,3.618267 3.096,3.618267 0.828,0 1.29333,-0.144267 1.68533,-0.3204 0.17467,-0.07133 0.24667,-0.2172 0.18934,-0.376 l -0.13067,-0.363467 c -0.0587,-0.145867 -0.17467,-0.247467 -0.37867,-0.188667 -0.436,0.130267 -0.828,0.231867 -1.38,0.231867 -1.308,0 -1.81733,-0.799467 -1.87466,-2.266666 h 3.70533 c 0.16,0 0.29067,-0.1464 0.29067,-0.3052 m -6.32134,3.110933 -0.0587,-0.305734 c -0.0293,-0.1604 -0.16,-0.2636 -0.30534,-0.233333 -0.14533,0.02867 -0.33333,0.05827 -0.45066,0.05827 -0.36267,0 -0.52267,-0.1744 -0.52267,-0.566134 v -4.621333 h 0.81333 c 0.16,0 0.29067,-0.145866 0.29067,-0.305733 v -0.320267 c 0,-0.1604 -0.13067,-0.304666 -0.29067,-0.304666 h -0.81333 v -1.817734 c 0,-0.231866 -0.204,-0.2172 -0.37733,-0.158933 l -0.53867,0.188533 c -0.13067,0.04333 -0.21733,0.158934 -0.21733,0.319334 v 1.4688 h -0.8 c -0.17334,0 -0.29067,0.144266 -0.29067,0.304666 v 0.320267 c 0,0.159867 0.11733,0.305733 0.29067,0.305733 h 0.8 v 4.7656 c 0,0.930267 0.46533,1.380267 1.45333,1.380267 0.30533,0 0.596,-0.0428 0.79867,-0.1016 0.204,-0.05827 0.248,-0.203067 0.21866,-0.376 m -5.348,0.116133 V 24.72514 c 0,-1.0896 -0.69733,-1.817734 -1.788,-1.817734 -0.756,0 -1.38,0.2916 -2.00533,1.018267 l -0.16,-0.712 c -0.044,-0.173467 -0.13067,-0.231733 -0.33467,-0.231733 h -0.31866 c -0.16,0 -0.30534,0.1156 -0.30534,0.29 v 6.425066 c 0,0.159867 0.14534,0.290133 0.30534,0.290133 h 0.552 c 0.16,0 0.30533,-0.130266 0.30533,-0.290133 v -3.998 c 0,-1.002 0.74133,-1.802 1.68533,-1.802 0.64,0 0.90134,0.3192 0.90134,1.090134 v 4.709866 c 0,0.159867 0.14533,0.290133 0.30533,0.290133 h 0.552 c 0.16,0 0.30533,-0.130266 0.30533,-0.290133 m -8.37066,-3.8532 h -2.80534 c 0.17467,-1.729066 0.97334,-2.0052 1.45334,-2.0052 0.95866,0 1.32266,1.0324 1.352,2.0052 m 1.19066,0.626134 c 0,-2.747467 -1.23466,-3.562534 -2.572,-3.562534 -1.55466,0 -2.63066,1.338534 -2.63066,3.5328 0,2.354133 1.09066,3.618267 3.096,3.618267 0.828,0 1.29333,-0.144267 1.68533,-0.3204 0.17467,-0.07133 0.248,-0.2172 0.18933,-0.376 l -0.13066,-0.363467 c -0.0587,-0.145867 -0.17467,-0.247467 -0.37867,-0.188667 -0.436,0.130267 -0.828,0.231867 -1.38,0.231867 -1.308,0 -1.81733,-0.799467 -1.87467,-2.266666 h 3.70534 c 0.16,0 0.29066,-0.1464 0.29066,-0.3052 m -6.552,2.847866 -0.26133,-0.552133 c -0.0587,-0.116134 -0.18933,-0.19 -0.364,-0.101467 -0.24667,0.116133 -0.79867,0.276 -1.192,0.276 -1.43867,0 -2.49867,-1.1484 -2.49867,-3.880266 0,-2.6604 0.9,-3.7932 2.528,-3.7932 0.45067,0 0.78534,0.116133 1.11867,0.276133 0.17467,0.08587 0.32,0.02853 0.39333,-0.115733 l 0.232,-0.450534 c 0.088,-0.1604 0.0293,-0.3348 -0.116,-0.421866 -0.50933,-0.304667 -1.104,-0.379067 -1.672,-0.379067 -2.22266,0 -3.764,1.8036 -3.764,4.869733 0,3.196933 1.352,5.013067 3.67734,5.013067 0.88666,0 1.40933,-0.2016 1.788,-0.391734 0.116,-0.05827 0.20266,-0.189066 0.13066,-0.348933 m -11.30666,0.3792 V 24.72514 c 0,-1.0896 -0.69734,-1.817734 -1.788002,-1.817734 -0.741333,0 -1.365333,0.2916 -1.990666,0.9896 v -3.908933 c 0,-0.1744 -0.145334,-0.29 -0.305334,-0.29 h -0.522666 c -0.16,0 -0.305334,0.1156 -0.305334,0.29 v 9.708933 c 0,0.159867 0.145334,0.290133 0.305334,0.290133 h 0.522666 c 0.16,0 0.305334,-0.130266 0.305334,-0.290133 v -3.998 c 0,-1.002 0.770666,-1.802 1.714666,-1.802 0.64,0 0.930667,0.3192 0.930667,1.090134 v 4.709866 c 0,0.159867 0.145335,0.290133 0.305335,0.290133 h 0.52266 c 0.16,0 0.30534,-0.130266 0.30534,-0.290133 m -6.729335,-0.176133 -0.101067,-0.4504 c -0.0292,-0.1448 -0.1604,-0.276134 -0.362533,-0.217734 -0.276,0.07293 -0.626,0.131734 -1.017733,0.131734 -1.1052,0 -1.671867,-0.843734 -1.671867,-2.5588 0,-1.5688 0.640133,-2.513067 1.5412,-2.513067 0.4068,0 0.7552,0.116134 0.988,0.202134 0.217733,0.08853 0.319733,-0.02867 0.362533,-0.174534 l 0.145334,-0.421866 c 0.0588,-0.1588 -0.0292,-0.276 -0.2172,-0.362 -0.261467,-0.116134 -0.7412,-0.248934 -1.236,-0.248934 -1.613067,0 -2.818667,1.454667 -2.818667,3.518267 0,2.34 1.133333,3.6328 2.833333,3.6328 0.494667,0 0.9156,-0.0428 1.3228,-0.174534 0.1896,-0.05733 0.260934,-0.2172 0.231867,-0.363066 m -5.449467,-6.103067 c 0.07387,-0.2916 -0.290133,-0.5104 -0.755733,-0.5104 -0.667733,0 -1.219866,0.3948 -1.628133,1.077067 l -0.202667,-0.785467 c -0.04427,-0.145733 -0.159866,-0.217066 -0.3052,-0.217066 h -0.334933 c -0.159867,0 -0.3052,0.1156 -0.3052,0.29 v 6.425066 c 0,0.159867 0.145333,0.290133 0.3052,0.290133 h 0.552133 c 0.1604,0 0.305734,-0.130266 0.305734,-0.290133 V 25.90274 c 0,-1.2636 0.566133,-1.788 0.9896,-1.788 0.274933,0 0.608266,0.101466 0.812933,0.1604 0.246933,0.0724 0.376667,-0.05893 0.420933,-0.262 z m -7.353199,4.257867 c 0,0.566666 -0.640134,1.453066 -1.6276,1.453066 -0.610934,0 -0.988534,-0.3484 -0.988534,-1.1036 0,-1.178666 0.697467,-1.410399 1.6412,-1.454666 l 0.974934,-0.04173 z m 1.3084,2.021333 -0.08853,-0.436533 c -0.08653,-0.4364 -0.08653,-0.8296 -0.08653,-1.2072 V 25.48194 c 0,-1.162534 -0.2036,-2.574534 -2.3984,-2.574534 -0.624533,0 -1.293733,0.1604 -1.685467,0.263067 -0.174933,0.0432 -0.231733,0.173333 -0.204133,0.347867 l 0.088,0.466133 c 0.0292,0.174533 0.1896,0.261467 0.362533,0.2188 0.3932,-0.1032 0.785467,-0.249067 1.381734,-0.249067 1.089066,0 1.3224,0.450534 1.3224,1.3672 v 0.3776 l -1.7,0.1032 c -1.004134,0.05733 -2.108267,0.580667 -2.108267,2.222933 0,1.292667 0.7416,2.033334 1.8604,2.033334 0.7708,0 1.526533,-0.290134 1.990533,-1.059867 l 0.1172,0.726533 c 0.02813,0.189067 0.16,0.262 0.319334,0.262 h 0.595333 c 0.1604,0 0.262933,-0.116133 0.233867,-0.290133 m -7.8188,-3.8532 h -2.804133 c 0.172933,-1.729066 0.972933,-2.0052 1.453066,-2.0052 0.958934,0 1.322934,1.0324 1.351067,2.0052 m 1.191733,0.626134 c 0,-2.747467 -1.2344,-3.562534 -2.5724,-3.562534 -1.554266,0 -2.629733,1.338534 -2.629733,3.5328 0,2.354133 1.089067,3.618267 3.095333,3.618267 0.828134,0 1.293734,-0.144267 1.685867,-0.3204 0.174533,-0.07133 0.2464,-0.2172 0.189066,-0.376 l -0.130666,-0.363467 c -0.0584,-0.145867 -0.174534,-0.247467 -0.378667,-0.188667 -0.436,0.130267 -0.8276,0.231867 -1.379733,0.231867 -1.308267,0 -1.817733,-0.799467 -1.874933,-2.266666 h 3.705733 c 0.159333,0 0.290133,-0.1464 0.290133,-0.3052 m -6.958933,1.627599 c 0,-2.122399 -3.009333,-2.165199 -3.009333,-3.386533 0,-0.523466 0.3792,-0.858266 1.032266,-0.858266 0.436,0 0.8864,0.145866 1.1776,0.262 0.159334,0.05827 0.3052,0.0296 0.364,-0.1448 l 0.130267,-0.363067 c 0.05787,-0.174533 0.01453,-0.320267 -0.130267,-0.3932 -0.379066,-0.173467 -0.815066,-0.306267 -1.497333,-0.306267 -1.366667,0 -2.224,0.7708 -2.224,1.8896 0,1.948934 2.979733,1.963467 2.979733,3.2864 0,0.5948 -0.3344,0.943733 -1.060933,0.943733 -0.581733,0 -1.147867,-0.159866 -1.6136,-0.3916 -0.159867,-0.07293 -0.320267,-0.0156 -0.3776,0.188534 l -0.130133,0.4364 c -0.05933,0.174533 -0.01507,0.3048 0.159333,0.392266 0.522933,0.261467 1.307867,0.405734 1.932267,0.405734 1.395866,0 2.267733,-0.812534 2.267733,-1.960934 m -7.075467,-2.253733 h -2.804266 c 0.173467,-1.729066 0.973467,-2.0052 1.4532,-2.0052 0.959333,0 1.321866,1.0324 1.351066,2.0052 m 1.192134,0.626134 c 0,-2.747467 -1.235334,-3.562534 -2.5724,-3.562534 -1.555733,0 -2.630667,1.338534 -2.630667,3.5328 0,2.354133 1.0896,3.618267 3.096267,3.618267 0.828133,0 1.2928,-0.144267 1.684933,-0.3204 0.175067,-0.07133 0.2464,-0.2172 0.1896,-0.376 l -0.1308,-0.363467 c -0.0588,-0.145867 -0.174933,-0.247467 -0.378533,-0.188667 -0.436,0.130267 -0.828133,0.231867 -1.380267,0.231867 -1.307866,0 -1.8172,-0.799467 -1.874533,-2.266666 h 3.705333 c 0.159867,0 0.291067,-0.1464 0.291067,-0.3052 m -8.297867,-3.678134 c 0,1.076534 -0.712,1.701467 -1.859866,1.701467 H 51.865609 V 21.30994 h 1.571334 c 1.118133,0 1.699466,0.625066 1.699466,1.481866 m 1.803067,6.846267 c -0.5812,-1.629067 -1.017733,-2.733333 -1.15,-3.009333 -0.318267,-0.681734 -0.899467,-1.436934 -1.771333,-1.583334 l 0.130266,-0.014 c 1.583867,-0.174533 2.1948,-1.3532 2.1948,-2.414133 0,-0.914 -0.509466,-2.3672 -2.892266,-2.3672 h -2.4568 c -0.1588,0 -0.304134,0.1156 -0.304134,0.290133 v 9.1568 c 0,0.159867 0.145334,0.290133 0.304134,0.290133 h 0.567733 c 0.158933,0 0.303733,-0.130266 0.303733,-0.290133 V 25.53914 h 0.7708 c 1.076534,0 1.527067,0.639066 1.8604,1.236 0.421334,0.740533 0.6984,1.772933 1.1052,3.037466 0.04267,0.130267 0.145334,0.174533 0.261467,0.174533 h 0.8724 c 0.216667,0 0.274933,-0.145866 0.2036,-0.349066 m -12.614533,0.05893 V 24.72514 c 0,-1.0896 -0.698933,-1.817734 -1.788533,-1.817734 -0.755734,0 -1.3808,0.2916 -2.0052,1.018267 l -0.1604,-0.712 C 40.32748,23.040206 40.241076,22.98194 40.03641,22.98194 h -0.319867 c -0.159867,0 -0.3052,0.1156 -0.3052,0.29 v 6.425066 c 0,0.159867 0.145333,0.290133 0.3052,0.290133 h 0.552133 c 0.159867,0 0.305734,-0.130266 0.305734,-0.290133 v -3.998 c 0,-1.002 0.740666,-1.802 1.685866,-1.802 0.638667,0 0.9016,0.3192 0.9016,1.090134 v 4.709866 c 0,0.159867 0.145334,0.290133 0.304134,0.290133 h 0.5532 c 0.159866,0 0.305733,-0.130266 0.305733,-0.290133 M 35.59001,27.675673 c 0,0.566666 -0.640133,1.453066 -1.6276,1.453066 -0.610933,0 -0.988533,-0.3484 -0.988533,-1.1036 0,-1.178666 0.697333,-1.410399 1.6412,-1.454666 l 0.974933,-0.04173 z m 1.307866,2.021333 -0.088,-0.436533 c -0.08653,-0.4364 -0.08653,-0.8296 -0.08653,-1.2072 V 25.48194 c 0,-1.162534 -0.204133,-2.574534 -2.3984,-2.574534 -0.624533,0 -1.293733,0.1604 -1.685466,0.263067 -0.174934,0.0432 -0.231734,0.173333 -0.204134,0.347867 l 0.088,0.466133 c 0.0292,0.174533 0.1896,0.261467 0.362534,0.2188 0.3932,-0.1032 0.785333,-0.249067 1.381733,-0.249067 1.089067,0 1.3224,0.450534 1.3224,1.3672 v 0.3776 l -1.7016,0.1032 c -1.002533,0.05733 -2.106667,0.580667 -2.106667,2.222933 0,1.292667 0.7416,2.033334 1.859867,2.033334 0.771333,0 1.527067,-0.290134 1.991066,-1.059867 l 0.1172,0.726533 c 0.02813,0.189067 0.16,0.262 0.319334,0.262 h 0.595333 c 0.1604,0 0.2624,-0.116133 0.233333,-0.290133 m -7.209466,0 V 24.40474 c 0,-1.234267 -0.943733,-1.497334 -1.583867,-1.497334 -0.754133,0 -1.380133,0.364534 -1.975466,1.077067 -0.1312,-0.668267 -0.726534,-1.077067 -1.497867,-1.077067 -0.769333,0 -1.438533,0.524934 -1.845333,1.0052 l -0.15987,-0.698933 c -0.04427,-0.173467 -0.1308,-0.231733 -0.3344,-0.231733 h -0.3188 c -0.1604,0 -0.305733,0.1156 -0.305733,0.29 v 6.425066 c 0,0.159867 0.145333,0.290133 0.305733,0.290133 h 0.552133 c 0.159867,0 0.3052,-0.130266 0.3052,-0.290133 v -4.0136 c 0,-1.002533 0.726534,-1.757733 1.583867,-1.757733 0.450533,0 0.6828,0.233333 0.6828,0.683867 v 5.087466 c 0,0.159867 0.145333,0.290133 0.305733,0.290133 h 0.551067 c 0.1604,0 0.3052,-0.130266 0.3052,-0.290133 v -4.0136 c 0,-1.002533 0.7416,-1.757733 1.599467,-1.757733 0.45,0 0.667733,0.233333 0.667733,0.683867 v 5.087466 c 0,0.159867 0.1452,0.290133 0.3052,0.290133 h 0.5536 c 0.1588,0 0.3036,-0.130266 0.3036,-0.290133 m -9.634266,-6.2792 c 0.07187,-0.2916 -0.290667,-0.5104 -0.756267,-0.5104 -0.667733,0 -1.221333,0.3948 -1.628133,1.077067 L 17.46761,23.199006 C 17.42334,23.053273 17.30721,22.98194 17.161877,22.98194 h -0.3344 c -0.1604,0 -0.305733,0.1156 -0.305733,0.29 v 6.425066 c 0,0.159867 0.145333,0.290133 0.305733,0.290133 h 0.552133 c 0.159334,0 0.3052,-0.130266 0.3052,-0.290133 V 25.90274 c 0,-1.2636 0.566667,-1.788 0.987467,-1.788 0.276133,0 0.610933,0.101466 0.8152,0.1604 0.246267,0.0724 0.377067,-0.05893 0.421333,-0.262 z m -6.9912,2.426 h -2.8052 c 0.174933,-1.729066 0.974533,-2.0052 1.4536,-2.0052 0.959866,0 1.3224,1.0324 1.3516,2.0052 m 1.192133,0.626134 c 0,-2.747467 -1.235867,-3.562534 -2.571333,-3.562534 -1.556267,0 -2.6312002,1.338534 -2.6312002,3.5328 0,2.354133 1.0890662,3.618267 3.0948002,3.618267 0.8292,0 1.2948,-0.144267 1.6864,-0.3204 0.174533,-0.07133 0.246933,-0.2172 0.1896,-0.376 l -0.132267,-0.363467 c -0.05733,-0.145867 -0.172933,-0.247467 -0.377067,-0.188667 -0.436,0.130267 -0.828133,0.231867 -1.379733,0.231867 -1.309333,0 -1.818267,-0.799467 -1.876533,-2.266666 h 3.7068 c 0.1604,0 0.290533,-0.1464 0.290533,-0.3052 m -7.4410665,2.746266 v -4.5192 c 0,-0.176133 -0.1453333,-0.292266 -0.3057333,-0.292266 H 4.111344 c -0.1744,0 -0.2905334,0.145866 -0.2905334,0.306266 v 0.521867 c 0,0.1604 0.1161334,0.306267 0.2905334,0.306267 h 1.5546666 v 3.270799 c -0.3776,0.115734 -0.7838667,0.174534 -1.1921333,0.174534 -1.7150666,0 -2.7469333,-1.077067 -2.7469333,-3.822933 0,-2.630134 0.8152,-3.866134 2.6313333,-3.866134 0.6828,0 1.2505333,0.189067 1.7437333,0.450534 0.1453333,0.07347 0.2906666,-0.02867 0.3349333,-0.1312 l 0.2468,-0.538134 c 0.0584,-0.144266 0.0292,-0.304666 -0.1462667,-0.3916 -0.5953333,-0.304666 -1.3791999,-0.509333 -2.1209333,-0.509333 -2.5582666,0 -3.95306652,1.8036 -3.95306652,4.8984 0,3.343733 1.33746662,4.9844 3.76346652,4.9844 0.7854667,0 1.6578667,-0.130267 2.1948,-0.333334 0.262,-0.102666 0.3922666,-0.2188 0.3922666,-0.508933"
       inkscape:connector-curvature="0" /><rect
       style="fill:#0000ff;fill-opacity:0;stroke:#000000;stroke-opacity:0"
       id="rect4282"
       width="294.87204"
       height="33.66238"
       x="0.5"
       y="0.5" /></g></svg>
