<?xml version="1.0" encoding="UTF-8" standalone="no"?>
<svg
   xmlns:dc="http://purl.org/dc/elements/1.1/"
   xmlns:cc="http://creativecommons.org/ns#"
   xmlns:rdf="http://www.w3.org/1999/02/22-rdf-syntax-ns#"
   xmlns:svg="http://www.w3.org/2000/svg"
   xmlns="http://www.w3.org/2000/svg"
   xmlns:sodipodi="http://sodipodi.sourceforge.net/DTD/sodipodi-0.dtd"
   xmlns:inkscape="http://www.inkscape.org/namespaces/inkscape"
   width="346.9982pt"
   height="41.539932pt"
   viewBox="0 0 122.41326 14.654366"
   version="1.1"
   id="svg8"
   inkscape:version="1.0.2 (e86c8708, 2021-01-15)"
   sodipodi:docname="logo_aih.svg">
  <defs
     id="defs2" />
  <sodipodi:namedview
     id="base"
     pagecolor="#ffffff"
     bordercolor="#666666"
     borderopacity="1.0"
     inkscape:pageopacity="0.0"
     inkscape:pageshadow="2"
     inkscape:zoom="0.98994949"
     inkscape:cx="127.35717"
     inkscape:cy="-99.866945"
     inkscape:document-units="mm"
     inkscape:current-layer="layer1"
     inkscape:document-rotation="0"
     showgrid="false"
     fit-margin-top="10"
     fit-margin-left="10"
     fit-margin-right="10"
     fit-margin-bottom="10"
     units="pt"
     inkscape:window-width="1252"
     inkscape:window-height="855"
     inkscape:window-x="0"
     inkscape:window-y="23"
     inkscape:window-maximized="0" />
  <metadata
     id="metadata5">
    <rdf:RDF>
      <cc:Work
         rdf:about="">
        <dc:format>image/svg+xml</dc:format>
        <dc:type
           rdf:resource="http://purl.org/dc/dcmitype/StillImage" />
        <dc:title />
      </cc:Work>
    </rdf:RDF>
  </metadata>
  <g
     inkscape:label="Layer 1"
     inkscape:groupmode="layer"
     id="layer1"
     transform="translate(1.9375565,-43.360457)">
    <g
       aria-label="AIH Institute of AI for Health"
       id="text835"
       style="font-size:10.5833px;line-height:1.25;font-family:Qnhghayitogyxycufvbldxjfani;-inkscape-font-specification:Qnhghayitogyxycufvbldxjfani;stroke-width:0.264583">
      <path
         d="m 7.3856361,54.063712 q 0.042333,0.148167 -0.021167,0.264583 -0.0635,0.105833 -0.2222493,0.105833 H 6.1897233 q -0.1375829,0 -0.2434159,-0.0635 -0.09525,-0.07408 -0.1269996,-0.201083 L 5.4806422,52.846633 H 3.4168988 l -0.317499,1.322912 q -0.074083,0.264583 -0.3704155,0.264583 H 1.8505704 q -0.1587495,0 -0.2222493,-0.105833 -0.0635,-0.116416 -0.021167,-0.264583 L 3.3322324,47.6079 q 0.03175,-0.116417 0.1375829,-0.1905 0.1164163,-0.07408 0.2328326,-0.07408 h 1.449912 q 0.1164163,0 0.2222493,0.07408 0.1164163,0.07408 0.1481662,0.1905 z M 4.591645,49.100145 q -0.052916,-0.211666 -0.105833,-0.476249 -0.042333,-0.232832 -0.0635,-0.433915 -0.03175,0.201083 -0.074083,0.444499 -0.042333,0.253999 -0.09525,0.465665 l -0.5397482,2.476492 h 1.449912 z"
         style="fill:#ed1443;fill-opacity:1"
         id="path1484" />
      <path
         d="m 9.5705912,54.137795 q 0,0.116417 -0.09525,0.211666 -0.084666,0.08467 -0.2010827,0.08467 H 8.3958449 q -0.1164163,0 -0.2116659,-0.08467 -0.084666,-0.09525 -0.084666,-0.211666 v -6.498146 q 0,-0.116416 0.084666,-0.201082 0.09525,-0.09525 0.2116659,-0.09525 h 0.8784139 q 0.1164163,0 0.2010827,0.09525 0.09525,0.08467 0.09525,0.201082 z"
         style="fill:#ed1443;fill-opacity:1"
         id="path1486" />
      <path
         d="m 15.495751,54.137795 q 0,0.116417 -0.09525,0.211666 -0.08467,0.08467 -0.201082,0.08467 h -0.836081 q -0.116416,0 -0.211666,-0.08467 -0.08467,-0.09525 -0.08467,-0.211666 v -2.868074 h -1.83091 v 2.868074 q 0,0.116417 -0.09525,0.211666 -0.08467,0.08467 -0.201083,0.08467 h -0.83608 q -0.116417,0 -0.211666,-0.08467 -0.08467,-0.09525 -0.08467,-0.211666 v -6.498146 q 0,-0.116416 0.08467,-0.201082 0.09525,-0.09525 0.211666,-0.09525 h 0.83608 q 0.116417,0 0.201083,0.09525 0.09525,0.08467 0.09525,0.201082 v 2.423576 h 1.83091 v -2.423576 q 0,-0.116416 0.08467,-0.201082 0.09525,-0.09525 0.211666,-0.09525 h 0.836081 q 0.116416,0 0.201082,0.09525 0.09525,0.08467 0.09525,0.201082 z"
         style="fill:#ed1443;fill-opacity:1"
         id="path1488" />
      <path
         d="m 20.498343,54.222462 q 0,0.08467 -0.07408,0.148166 -0.0635,0.0635 -0.148166,0.0635 h -0.444499 q -0.08467,0 -0.158749,-0.0635 -0.0635,-0.0635 -0.0635,-0.148166 v -6.667479 q 0,-0.09525 0.0635,-0.148166 0.07408,-0.0635 0.158749,-0.0635 h 0.444499 q 0.08467,0 0.148166,0.0635 0.07408,0.05292 0.07408,0.148166 z"
         style="font-style:normal;font-variant:normal;font-weight:normal;font-stretch:normal;font-family:Lxfvytrreyhcgjhvttcyxtnorod;-inkscape-font-specification:Lxfvytrreyhcgjhvttcyxtnorod"
         id="path1490" />
      <path
         d="m 25.873668,54.222462 q 0,0.08467 -0.07408,0.148166 -0.0635,0.0635 -0.148166,0.0635 h -0.402165 q -0.08467,0 -0.15875,-0.0635 -0.0635,-0.0635 -0.0635,-0.148166 v -3.428989 q 0,-0.423332 -0.15875,-0.603248 -0.148166,-0.1905 -0.497415,-0.1905 -0.253999,0 -0.486832,0.105833 -0.222249,0.09525 -0.391582,0.275166 -0.158749,0.179916 -0.253999,0.423332 -0.09525,0.232833 -0.09525,0.507998 v 2.910408 q 0,0.08467 -0.07408,0.148166 -0.0635,0.0635 -0.148166,0.0635 h -0.402165 q -0.08467,0 -0.15875,-0.0635 -0.0635,-0.0635 -0.0635,-0.148166 v -4.677819 q 0,-0.09525 0.0635,-0.148166 0.07408,-0.0635 0.15875,-0.0635 h 0.232832 q 0.201083,0 0.243416,0.169333 l 0.116416,0.518582 q 0.338666,-0.402166 0.687915,-0.571498 0.359832,-0.169333 0.772581,-0.169333 0.603248,0 0.952497,0.359832 0.349249,0.359832 0.349249,0.96308 z"
         style="font-style:normal;font-variant:normal;font-weight:normal;font-stretch:normal;font-family:Lxfvytrreyhcgjhvttcyxtnorod;-inkscape-font-specification:Lxfvytrreyhcgjhvttcyxtnorod"
         id="path1492" />
      <path
         d="m 30.422503,53.026549 q 0,0.645581 -0.444499,1.05833 -0.444499,0.402165 -1.206496,0.402165 -0.338666,0 -0.730248,-0.07408 -0.391582,-0.07408 -0.677331,-0.222249 -0.179916,-0.09525 -0.116416,-0.285749 l 0.09525,-0.317499 q 0.03175,-0.116416 0.105833,-0.148166 0.08467,-0.03175 0.169333,0.01058 0.253999,0.127 0.550332,0.211666 0.306915,0.07408 0.624414,0.07408 0.772581,0 0.772581,-0.666748 0,-0.349249 -0.264582,-0.529165 -0.253999,-0.190499 -0.645581,-0.391582 -0.22225,-0.116416 -0.455082,-0.243416 -0.22225,-0.126999 -0.402166,-0.285749 -0.179916,-0.169333 -0.296332,-0.391582 -0.105833,-0.232833 -0.105833,-0.539748 0,-0.645582 0.433915,-1.02658 0.433915,-0.380999 1.18533,-0.380999 0.370415,0 0.624414,0.0635 0.254,0.0635 0.465666,0.158749 0.158749,0.08467 0.09525,0.285749 l -0.09525,0.264583 q -0.0635,0.179916 -0.264583,0.105833 -0.158749,-0.0635 -0.391582,-0.127 -0.222249,-0.0635 -0.465665,-0.0635 -0.359832,0 -0.560915,0.169333 -0.190499,0.169333 -0.190499,0.433915 0,0.317499 0.253999,0.497416 0.264582,0.179916 0.613831,0.359832 0.253999,0.137583 0.486832,0.275166 0.243416,0.137582 0.423332,0.317498 0.190499,0.179917 0.296332,0.423332 0.116417,0.232833 0.116417,0.582082 z"
         style="font-style:normal;font-variant:normal;font-weight:normal;font-stretch:normal;font-family:Lxfvytrreyhcgjhvttcyxtnorod;-inkscape-font-specification:Lxfvytrreyhcgjhvttcyxtnorod"
         id="path1494" />
      <path
         d="m 33.604107,54.137795 q 0.02117,0.09525 -0.01058,0.169333 -0.03175,0.07408 -0.148166,0.105833 -0.116416,0.03175 -0.264583,0.05292 -0.148166,0.02117 -0.317499,0.02117 -1.058329,0 -1.058329,-1.005413 v -3.471322 h -0.529165 q -0.09525,0 -0.15875,-0.0635 -0.05292,-0.07408 -0.05292,-0.15875 v -0.232832 q 0,-0.08467 0.05292,-0.148167 0.0635,-0.07408 0.15875,-0.07408 h 0.529165 v -1.068913 q 0,-0.179916 0.158749,-0.232832 l 0.391582,-0.137583 q 0.09525,-0.03175 0.179916,-0.02117 0.09525,0.01058 0.09525,0.137583 v 1.322912 h 0.634998 q 0.08467,0 0.148166,0.07408 0.0635,0.0635 0.0635,0.148167 v 0.232832 q 0,0.08467 -0.0635,0.15875 -0.0635,0.0635 -0.148166,0.0635 h -0.634998 v 3.365489 q 0,0.412749 0.380999,0.412749 0.0635,0 0.148166,-0.01058 0.09525,-0.01058 0.179916,-0.03175 0.179916,-0.03175 0.222249,0.169333 z"
         style="font-style:normal;font-variant:normal;font-weight:normal;font-stretch:normal;font-family:Lxfvytrreyhcgjhvttcyxtnorod;-inkscape-font-specification:Lxfvytrreyhcgjhvttcyxtnorod"
         id="path1496" />
      <path
         d="m 35.482973,54.222462 q 0,0.08467 -0.07408,0.148166 -0.0635,0.0635 -0.148166,0.0635 h -0.380999 q -0.08467,0 -0.158749,-0.0635 -0.0635,-0.0635 -0.0635,-0.148166 v -4.677819 q 0,-0.08467 0.0635,-0.148166 0.07408,-0.0635 0.158749,-0.0635 h 0.380999 q 0.08467,0 0.148166,0.0635 0.07408,0.0635 0.07408,0.148166 z m 0.201083,-6.720395 q 0,0.253999 -0.179916,0.433915 -0.179916,0.179916 -0.433915,0.179916 -0.253999,0 -0.433916,-0.179916 -0.179916,-0.179916 -0.179916,-0.433915 0,-0.254 0.179916,-0.433916 0.179917,-0.179916 0.433916,-0.179916 0.253999,0 0.433915,0.179916 0.179916,0.179916 0.179916,0.433916 z"
         style="font-style:normal;font-variant:normal;font-weight:normal;font-stretch:normal;font-family:Lxfvytrreyhcgjhvttcyxtnorod;-inkscape-font-specification:Lxfvytrreyhcgjhvttcyxtnorod"
         id="path1498" />
      <path
         d="m 39.081793,54.137795 q 0.02117,0.09525 -0.01058,0.169333 -0.03175,0.07408 -0.148166,0.105833 -0.116416,0.03175 -0.264583,0.05292 -0.148166,0.02117 -0.317499,0.02117 -1.05833,0 -1.05833,-1.005413 v -3.471322 h -0.529165 q -0.09525,0 -0.158749,-0.0635 -0.05292,-0.07408 -0.05292,-0.15875 v -0.232832 q 0,-0.08467 0.05292,-0.148167 0.0635,-0.07408 0.158749,-0.07408 h 0.529165 v -1.068913 q 0,-0.179916 0.15875,-0.232832 l 0.391582,-0.137583 q 0.09525,-0.03175 0.179916,-0.02117 0.09525,0.01058 0.09525,0.137583 v 1.322912 h 0.634998 q 0.08467,0 0.148166,0.07408 0.0635,0.0635 0.0635,0.148167 v 0.232832 q 0,0.08467 -0.0635,0.15875 -0.0635,0.0635 -0.148166,0.0635 H 38.10813 v 3.365489 q 0,0.412749 0.380999,0.412749 0.0635,0 0.148166,-0.01058 0.09525,-0.01058 0.179916,-0.03175 0.179916,-0.03175 0.222249,0.169333 z"
         style="font-style:normal;font-variant:normal;font-weight:normal;font-stretch:normal;font-family:Lxfvytrreyhcgjhvttcyxtnorod;-inkscape-font-specification:Lxfvytrreyhcgjhvttcyxtnorod"
         id="path1500" />
      <path
         d="m 43.754649,54.222462 q 0,0.08467 -0.07408,0.148166 -0.0635,0.0635 -0.148166,0.0635 h -0.243416 q -0.158749,0 -0.211666,-0.179916 L 42.939734,53.70388 q -0.09525,0.105833 -0.222249,0.243416 -0.126999,0.137583 -0.306915,0.253999 -0.169333,0.116417 -0.423332,0.201083 -0.243416,0.08467 -0.592665,0.08467 -0.582082,0 -0.920747,-0.338665 -0.338666,-0.338666 -0.338666,-1.005414 v -3.598322 q 0,-0.09525 0.0635,-0.148166 0.07408,-0.0635 0.158749,-0.0635 h 0.402166 q 0.08467,0 0.148166,0.0635 0.07408,0.05292 0.07408,0.148166 v 3.492489 q 0,0.391582 0.169333,0.571498 0.169333,0.169333 0.476248,0.169333 0.571499,0 0.920747,-0.402165 0.359833,-0.412749 0.359833,-1.259413 v -2.571742 q 0,-0.09525 0.0635,-0.148166 0.07408,-0.0635 0.15875,-0.0635 h 0.402165 q 0.08467,0 0.148166,0.0635 0.07408,0.05292 0.07408,0.148166 z"
         style="font-style:normal;font-variant:normal;font-weight:normal;font-stretch:normal;font-family:Lxfvytrreyhcgjhvttcyxtnorod;-inkscape-font-specification:Lxfvytrreyhcgjhvttcyxtnorod"
         id="path1502" />
      <path
         d="m 47.349993,54.137795 q 0.02117,0.09525 -0.01058,0.169333 -0.03175,0.07408 -0.148166,0.105833 -0.116416,0.03175 -0.264583,0.05292 -0.148166,0.02117 -0.317499,0.02117 -1.05833,0 -1.05833,-1.005413 v -3.471322 h -0.529165 q -0.09525,0 -0.158749,-0.0635 -0.05292,-0.07408 -0.05292,-0.15875 v -0.232832 q 0,-0.08467 0.05292,-0.148167 0.0635,-0.07408 0.158749,-0.07408 h 0.529165 v -1.068913 q 0,-0.179916 0.15875,-0.232832 l 0.391582,-0.137583 q 0.09525,-0.03175 0.179916,-0.02117 0.09525,0.01058 0.09525,0.137583 v 1.322912 h 0.634998 q 0.08467,0 0.148166,0.07408 0.0635,0.0635 0.0635,0.148167 v 0.232832 q 0,0.08467 -0.0635,0.15875 -0.0635,0.0635 -0.148166,0.0635 H 46.37633 v 3.365489 q 0,0.412749 0.380999,0.412749 0.0635,0 0.148166,-0.01058 0.09525,-0.01058 0.179916,-0.03175 0.179916,-0.03175 0.222249,0.169333 z"
         style="font-style:normal;font-variant:normal;font-weight:normal;font-stretch:normal;font-family:Lxfvytrreyhcgjhvttcyxtnorod;-inkscape-font-specification:Lxfvytrreyhcgjhvttcyxtnorod"
         id="path1504" />
      <path
         d="m 51.874686,51.872969 q 0,0.08467 -0.0635,0.15875 -0.0635,0.0635 -0.148166,0.0635 h -2.698741 q 0.03175,0.80433 0.338665,1.227662 0.306916,0.423332 1.02658,0.423332 0.306916,0 0.529165,-0.04233 0.232833,-0.05292 0.476249,-0.126999 0.116416,-0.03175 0.179916,0.01058 0.0635,0.04233 0.09525,0.126999 l 0.09525,0.264583 q 0.0635,0.190499 -0.137583,0.275166 -0.211666,0.09525 -0.497415,0.169333 -0.275165,0.0635 -0.730247,0.0635 -1.100664,0 -1.682745,-0.666748 -0.571498,-0.677331 -0.571498,-1.968493 0,-0.603248 0.137583,-1.079497 0.137583,-0.476248 0.391582,-0.804331 0.253999,-0.338665 0.603248,-0.507998 0.359832,-0.179916 0.783164,-0.179916 0.359832,0 0.698498,0.126999 0.338665,0.116417 0.603248,0.423332 0.264582,0.296333 0.412749,0.793748 0.158749,0.497415 0.158749,1.248829 z m -0.86783,-0.455082 q -0.01058,-0.264582 -0.0635,-0.529165 -0.05292,-0.264582 -0.179916,-0.465665 -0.116417,-0.211666 -0.296333,-0.338665 -0.179916,-0.127 -0.444498,-0.127 -0.127,0 -0.296333,0.05292 -0.158749,0.05292 -0.317499,0.211666 -0.148166,0.148166 -0.275166,0.433915 -0.126999,0.285749 -0.169332,0.761997 z"
         style="font-style:normal;font-variant:normal;font-weight:normal;font-stretch:normal;font-family:Lxfvytrreyhcgjhvttcyxtnorod;-inkscape-font-specification:Lxfvytrreyhcgjhvttcyxtnorod"
         id="path1506" />
      <path
         d="m 59.620998,51.883553 q 0,0.613831 -0.148166,1.100663 -0.137583,0.476248 -0.412748,0.814914 -0.264583,0.328082 -0.645582,0.507998 -0.370415,0.179916 -0.825497,0.179916 -0.465665,0 -0.836081,-0.179916 -0.370415,-0.179916 -0.645581,-0.507998 -0.264582,-0.338666 -0.412749,-0.814914 -0.137583,-0.486832 -0.137583,-1.100663 0,-0.603248 0.137583,-1.09008 0.148167,-0.486832 0.412749,-0.814914 0.275166,-0.338666 0.645581,-0.518582 0.370416,-0.179916 0.836081,-0.179916 0.455082,0 0.825497,0.179916 0.380999,0.179916 0.645582,0.518582 0.275165,0.328082 0.412748,0.814914 0.148166,0.486832 0.148166,1.09008 z m -0.878413,0 q 0,-0.963081 -0.306916,-1.428746 -0.296332,-0.465665 -0.846664,-0.465665 -0.550332,0 -0.857247,0.465665 -0.296333,0.465665 -0.296333,1.428746 0,0.984246 0.296333,1.449912 0.306915,0.455082 0.857247,0.455082 0.550332,0 0.846664,-0.455082 0.306916,-0.465666 0.306916,-1.449912 z"
         style="font-style:normal;font-variant:normal;font-weight:normal;font-stretch:normal;font-family:Lxfvytrreyhcgjhvttcyxtnorod;-inkscape-font-specification:Lxfvytrreyhcgjhvttcyxtnorod"
         id="path1508" />
      <path
         d="m 63.053956,47.629066 q -0.05292,0.169333 -0.243416,0.116416 -0.08467,-0.02117 -0.211666,-0.0635 -0.116416,-0.05292 -0.243416,-0.05292 -0.243416,0 -0.359832,0.15875 -0.116416,0.158749 -0.116416,0.444498 v 1.100663 h 0.634998 q 0.08467,0 0.148166,0.07408 0.0635,0.0635 0.0635,0.148167 v 0.232832 q 0,0.08467 -0.0635,0.15875 -0.0635,0.0635 -0.148166,0.0635 H 61.87921 v 4.212153 q 0,0.08467 -0.07408,0.148166 -0.0635,0.0635 -0.148166,0.0635 h -0.380999 q -0.08467,0 -0.15875,-0.0635 -0.0635,-0.0635 -0.0635,-0.148166 v -4.212153 h -0.529165 q -0.09525,0 -0.158749,-0.0635 -0.05292,-0.07408 -0.05292,-0.15875 v -0.232832 q 0,-0.08467 0.05292,-0.148167 0.0635,-0.07408 0.158749,-0.07408 h 0.529165 v -1.132413 q 0,-0.359832 0.09525,-0.613831 0.105833,-0.253999 0.275166,-0.402165 0.179916,-0.15875 0.402165,-0.22225 0.232833,-0.07408 0.486832,-0.07408 0.211666,0 0.391582,0.0635 0.1905,0.05292 0.317499,0.105833 0.08467,0.04233 0.105833,0.127 0.03175,0.07408 0.01058,0.158749 z"
         style="font-style:normal;font-variant:normal;font-weight:normal;font-stretch:normal;font-family:Lxfvytrreyhcgjhvttcyxtnorod;-inkscape-font-specification:Lxfvytrreyhcgjhvttcyxtnorod"
         id="path1510" />
      <path
         d="m 71.085195,54.201295 q 0.03175,0.09525 -0.02117,0.169333 -0.04233,0.0635 -0.127,0.0635 h -0.550331 q -0.08467,0 -0.179917,-0.0635 -0.08467,-0.0635 -0.105833,-0.148166 L 69.59295,52.455051 h -2.370659 l -0.476249,1.767411 q -0.02117,0.08467 -0.09525,0.148166 -0.07408,0.0635 -0.15875,0.0635 h -0.518581 q -0.08467,0 -0.137583,-0.0635 -0.04233,-0.07408 -0.01058,-0.169333 l 1.947328,-6.646312 q 0.03175,-0.116416 0.116416,-0.158749 0.08467,-0.05292 0.169333,-0.05292 h 0.666747 q 0.08467,0 0.169333,0.05292 0.08467,0.04233 0.116417,0.158749 z M 68.545203,48.66623 q -0.05292,-0.201083 -0.09525,-0.423332 -0.03175,-0.232833 -0.0635,-0.444499 -0.05292,0.465665 -0.15875,0.867831 l -0.814914,3.069156 h 1.979077 z"
         style="font-style:normal;font-variant:normal;font-weight:normal;font-stretch:normal;font-family:Lxfvytrreyhcgjhvttcyxtnorod;-inkscape-font-specification:Lxfvytrreyhcgjhvttcyxtnorod"
         id="path1512" />
      <path
         d="m 73.187468,54.222462 q 0,0.08467 -0.07408,0.148166 -0.0635,0.0635 -0.148166,0.0635 H 72.52072 q -0.08467,0 -0.158749,-0.0635 -0.0635,-0.0635 -0.0635,-0.148166 v -6.667479 q 0,-0.09525 0.0635,-0.148166 0.07408,-0.0635 0.158749,-0.0635 h 0.444499 q 0.08467,0 0.148166,0.0635 0.07408,0.05292 0.07408,0.148166 z"
         style="font-style:normal;font-variant:normal;font-weight:normal;font-stretch:normal;font-family:Lxfvytrreyhcgjhvttcyxtnorod;-inkscape-font-specification:Lxfvytrreyhcgjhvttcyxtnorod"
         id="path1514" />
      <path
         d="m 79.611032,47.629066 q -0.05292,0.169333 -0.243416,0.116416 -0.08467,-0.02117 -0.211666,-0.0635 -0.116417,-0.05292 -0.243416,-0.05292 -0.243416,0 -0.359832,0.15875 -0.116417,0.158749 -0.116417,0.444498 v 1.100663 h 0.634998 q 0.08467,0 0.148167,0.07408 0.0635,0.0635 0.0635,0.148167 v 0.232832 q 0,0.08467 -0.0635,0.15875 -0.0635,0.0635 -0.148167,0.0635 h -0.634998 v 4.212153 q 0,0.08467 -0.07408,0.148166 -0.0635,0.0635 -0.148166,0.0635 h -0.380999 q -0.08467,0 -0.158749,-0.0635 -0.0635,-0.0635 -0.0635,-0.148166 v -4.212153 h -0.529165 q -0.09525,0 -0.158749,-0.0635 -0.05292,-0.07408 -0.05292,-0.15875 v -0.232832 q 0,-0.08467 0.05292,-0.148167 0.0635,-0.07408 0.158749,-0.07408 h 0.529165 v -1.132413 q 0,-0.359832 0.09525,-0.613831 0.105833,-0.253999 0.275165,-0.402165 0.179917,-0.15875 0.402166,-0.22225 0.232832,-0.07408 0.486832,-0.07408 0.211666,0 0.391582,0.0635 0.190499,0.05292 0.317499,0.105833 0.08467,0.04233 0.105833,0.127 0.03175,0.07408 0.01058,0.158749 z"
         style="font-style:normal;font-variant:normal;font-weight:normal;font-stretch:normal;font-family:Lxfvytrreyhcgjhvttcyxtnorod;-inkscape-font-specification:Lxfvytrreyhcgjhvttcyxtnorod"
         id="path1516" />
      <path
         d="m 84.032868,51.883553 q 0,0.613831 -0.148167,1.100663 -0.137583,0.476248 -0.412748,0.814914 -0.264583,0.328082 -0.645582,0.507998 -0.370415,0.179916 -0.825497,0.179916 -0.465665,0 -0.836081,-0.179916 -0.370415,-0.179916 -0.645581,-0.507998 -0.264582,-0.338666 -0.412749,-0.814914 -0.137583,-0.486832 -0.137583,-1.100663 0,-0.603248 0.137583,-1.09008 0.148167,-0.486832 0.412749,-0.814914 0.275166,-0.338666 0.645581,-0.518582 0.370416,-0.179916 0.836081,-0.179916 0.455082,0 0.825497,0.179916 0.380999,0.179916 0.645582,0.518582 0.275165,0.328082 0.412748,0.814914 0.148167,0.486832 0.148167,1.09008 z m -0.878414,0 q 0,-0.963081 -0.306916,-1.428746 -0.296332,-0.465665 -0.846664,-0.465665 -0.550332,0 -0.857247,0.465665 -0.296333,0.465665 -0.296333,1.428746 0,0.984246 0.296333,1.449912 0.306915,0.455082 0.857247,0.455082 0.550332,0 0.846664,-0.455082 0.306916,-0.465666 0.306916,-1.449912 z"
         style="font-style:normal;font-variant:normal;font-weight:normal;font-stretch:normal;font-family:Lxfvytrreyhcgjhvttcyxtnorod;-inkscape-font-specification:Lxfvytrreyhcgjhvttcyxtnorod"
         id="path1518" />
      <path
         d="m 87.931494,50.084392 q -0.02117,0.116416 -0.09525,0.179916 -0.07408,0.05292 -0.211666,0.01058 -0.116416,-0.03175 -0.285749,-0.07408 -0.158749,-0.04233 -0.306915,-0.04233 -0.116417,0 -0.243416,0.07408 -0.127,0.07408 -0.232833,0.232832 -0.105833,0.15875 -0.179916,0.402166 -0.0635,0.243416 -0.0635,0.592665 v 2.762241 q 0,0.08467 -0.07408,0.148166 -0.0635,0.0635 -0.148166,0.0635 h -0.402165 q -0.08467,0 -0.15875,-0.0635 -0.0635,-0.0635 -0.0635,-0.148166 v -4.677819 q 0,-0.09525 0.0635,-0.148166 0.07408,-0.0635 0.15875,-0.0635 h 0.243416 q 0.169332,0 0.222249,0.15875 l 0.148166,0.571498 q 0.222249,-0.370415 0.518582,-0.571498 0.296332,-0.211666 0.666748,-0.211666 0.253999,0 0.423332,0.105833 0.169332,0.105833 0.126999,0.264582 z"
         style="font-style:normal;font-variant:normal;font-weight:normal;font-stretch:normal;font-family:Lxfvytrreyhcgjhvttcyxtnorod;-inkscape-font-specification:Lxfvytrreyhcgjhvttcyxtnorod"
         id="path1520" />
      <path
         d="m 96.161661,54.222462 q 0,0.08467 -0.07408,0.148166 -0.0635,0.0635 -0.148166,0.0635 h -0.402165 q -0.08467,0 -0.15875,-0.0635 -0.0635,-0.0635 -0.0635,-0.148166 v -3.164407 h -2.677575 v 3.164407 q 0,0.08467 -0.07408,0.148166 -0.0635,0.0635 -0.148167,0.0635 h -0.402165 q -0.08467,0 -0.158749,-0.0635 -0.0635,-0.0635 -0.0635,-0.148166 v -6.667479 q 0,-0.09525 0.0635,-0.148166 0.07408,-0.0635 0.158749,-0.0635 h 0.402165 q 0.08467,0 0.148167,0.0635 0.07408,0.05292 0.07408,0.148166 v 2.741075 h 2.677575 v -2.741075 q 0,-0.09525 0.0635,-0.148166 0.07408,-0.0635 0.15875,-0.0635 h 0.402165 q 0.08467,0 0.148166,0.0635 0.07408,0.05292 0.07408,0.148166 z"
         style="font-style:normal;font-variant:normal;font-weight:normal;font-stretch:normal;font-family:Lxfvytrreyhcgjhvttcyxtnorod;-inkscape-font-specification:Lxfvytrreyhcgjhvttcyxtnorod"
         id="path1522" />
      <path
         d="m 101.44256,51.872969 q 0,0.08467 -0.0635,0.15875 -0.0635,0.0635 -0.14816,0.0635 h -2.698746 q 0.03175,0.80433 0.338665,1.227662 0.306916,0.423332 1.02658,0.423332 0.306911,0 0.529161,-0.04233 0.23284,-0.05292 0.47625,-0.126999 0.11642,-0.03175 0.17992,0.01058 0.0635,0.04233 0.0953,0.126999 l 0.0952,0.264583 q 0.0635,0.190499 -0.13758,0.275166 -0.21167,0.09525 -0.49742,0.169333 -0.27517,0.0635 -0.730247,0.0635 -1.100664,0 -1.682745,-0.666748 -0.571498,-0.677331 -0.571498,-1.968493 0,-0.603248 0.137583,-1.079497 0.137583,-0.476248 0.391582,-0.804331 0.253999,-0.338665 0.603248,-0.507998 0.359832,-0.179916 0.783164,-0.179916 0.359832,0 0.698493,0.126999 0.33867,0.116417 0.60325,0.423332 0.26459,0.296333 0.41275,0.793748 0.15875,0.497415 0.15875,1.248829 z m -0.86783,-0.455082 q -0.0106,-0.264582 -0.0635,-0.529165 -0.0529,-0.264582 -0.17992,-0.465665 -0.11641,-0.211666 -0.29633,-0.338665 -0.179914,-0.127 -0.444496,-0.127 -0.127,0 -0.296333,0.05292 -0.158749,0.05292 -0.317499,0.211666 -0.148166,0.148166 -0.275166,0.433915 -0.126999,0.285749 -0.169332,0.761997 z"
         style="font-style:normal;font-variant:normal;font-weight:normal;font-stretch:normal;font-family:Lxfvytrreyhcgjhvttcyxtnorod;-inkscape-font-specification:Lxfvytrreyhcgjhvttcyxtnorod"
         id="path1524" />
      <path
         d="m 106.22506,54.222462 q 0.0318,0.211666 -0.16934,0.211666 h -0.43391 q -0.20109,0 -0.23284,-0.1905 l -0.0847,-0.529165 q -0.254,0.423332 -0.64558,0.603249 -0.381,0.169332 -0.80433,0.169332 -0.61384,0 -0.98425,-0.380998 -0.37042,-0.391583 -0.37042,-1.100664 0,-0.444498 0.13759,-0.751414 0.13758,-0.306916 0.34925,-0.486832 0.22224,-0.190499 0.49741,-0.275165 0.27517,-0.08467 0.55033,-0.105833 l 1.23825,-0.07408 v -0.275165 q 0,-0.254 -0.0423,-0.433916 -0.0318,-0.190499 -0.13759,-0.306915 -0.10583,-0.127 -0.29633,-0.1905 -0.1905,-0.0635 -0.48683,-0.0635 -0.32808,0 -0.56092,0.0635 -0.23283,0.0635 -0.4445,0.116417 -0.0953,0.02117 -0.16933,-0.02117 -0.0741,-0.04233 -0.0953,-0.137583 l -0.0635,-0.338666 q -0.0318,-0.211666 0.14817,-0.253999 0.21166,-0.05292 0.55033,-0.116416 0.33867,-0.07408 0.67733,-0.07408 0.60325,0 0.94191,0.179916 0.34925,0.169333 0.52917,0.444499 0.17992,0.264582 0.22225,0.603248 0.0529,0.328082 0.0529,0.645581 v 1.873244 q 0,0.211666 0,0.423332 0.0106,0.211666 0.0635,0.455082 z m -0.9525,-2.30716 -0.70908,0.03175 q -0.254,0.01058 -0.47625,0.0635 -0.22225,0.04233 -0.381,0.15875 -0.15875,0.116416 -0.254,0.317499 -0.0847,0.201082 -0.0847,0.518581 0,0.412749 0.1905,0.613832 0.1905,0.190499 0.52917,0.190499 0.26458,0 0.48683,-0.105833 0.22225,-0.105833 0.37042,-0.264582 0.15875,-0.15875 0.24341,-0.338666 0.0847,-0.190499 0.0847,-0.349249 z"
         style="font-style:normal;font-variant:normal;font-weight:normal;font-stretch:normal;font-family:Lxfvytrreyhcgjhvttcyxtnorod;-inkscape-font-specification:Lxfvytrreyhcgjhvttcyxtnorod"
         id="path1526" />
      <path
         d="m 108.71858,54.222462 q 0,0.08467 -0.0741,0.148166 -0.0635,0.0635 -0.14817,0.0635 h -0.381 q -0.0847,0 -0.15875,-0.0635 -0.0635,-0.0635 -0.0635,-0.148166 v -7.069644 q 0,-0.08467 0.0635,-0.148167 0.0741,-0.0635 0.15875,-0.0635 h 0.381 q 0.0847,0 0.14817,0.0635 0.0741,0.0635 0.0741,0.148167 z"
         style="font-style:normal;font-variant:normal;font-weight:normal;font-stretch:normal;font-family:Lxfvytrreyhcgjhvttcyxtnorod;-inkscape-font-specification:Lxfvytrreyhcgjhvttcyxtnorod"
         id="path1528" />
      <path
         d="m 112.3174,54.137795 q 0.0212,0.09525 -0.0106,0.169333 -0.0318,0.07408 -0.14816,0.105833 -0.11642,0.03175 -0.26459,0.05292 -0.14816,0.02117 -0.31749,0.02117 -1.05833,0 -1.05833,-1.005413 v -3.471322 h -0.52917 q -0.0952,0 -0.15875,-0.0635 -0.0529,-0.07408 -0.0529,-0.15875 v -0.232832 q 0,-0.08467 0.0529,-0.148167 0.0635,-0.07408 0.15875,-0.07408 h 0.52917 v -1.068913 q 0,-0.179916 0.15875,-0.232832 l 0.39158,-0.137583 q 0.0953,-0.03175 0.17991,-0.02117 0.0952,0.01058 0.0952,0.137583 v 1.322912 h 0.635 q 0.0847,0 0.14817,0.07408 0.0635,0.0635 0.0635,0.148167 v 0.232832 q 0,0.08467 -0.0635,0.15875 -0.0635,0.0635 -0.14817,0.0635 h -0.635 v 3.365489 q 0,0.412749 0.381,0.412749 0.0635,0 0.14817,-0.01058 0.0952,-0.01058 0.17991,-0.03175 0.17992,-0.03175 0.22225,0.169333 z"
         style="font-style:normal;font-variant:normal;font-weight:normal;font-stretch:normal;font-family:Lxfvytrreyhcgjhvttcyxtnorod;-inkscape-font-specification:Lxfvytrreyhcgjhvttcyxtnorod"
         id="path1530" />
      <path
         d="m 116.94792,54.222462 q 0,0.08467 -0.0741,0.148166 -0.0635,0.0635 -0.14817,0.0635 h -0.381 q -0.0847,0 -0.15875,-0.0635 -0.0635,-0.0635 -0.0635,-0.148166 v -3.428989 q 0,-0.423332 -0.16934,-0.603248 -0.15875,-0.1905 -0.508,-0.1905 -0.254,0 -0.48683,0.105833 -0.22225,0.09525 -0.39158,0.275166 -0.16933,0.179916 -0.27517,0.423332 -0.0953,0.232833 -0.0953,0.507998 v 2.910408 q 0,0.08467 -0.0741,0.148166 -0.0635,0.0635 -0.14816,0.0635 h -0.381 q -0.0847,0 -0.15875,-0.0635 -0.0635,-0.0635 -0.0635,-0.148166 v -7.069644 q 0,-0.09525 0.0635,-0.148167 0.0741,-0.0635 0.15875,-0.0635 h 0.381 q 0.0847,0 0.14816,0.0635 0.0741,0.05292 0.0741,0.148167 v 2.846907 q 0.33867,-0.380999 0.68792,-0.550331 0.35983,-0.169333 0.762,-0.169333 0.60324,0 0.95249,0.359832 0.34925,0.359832 0.34925,0.96308 z"
         style="font-style:normal;font-variant:normal;font-weight:normal;font-stretch:normal;font-family:Lxfvytrreyhcgjhvttcyxtnorod;-inkscape-font-specification:Lxfvytrreyhcgjhvttcyxtnorod"
         id="path1532" />
    </g>
  </g>
</svg>
