<?xml version="1.0" encoding="UTF-8" standalone="no"?>
<svg
   xmlns:dc="http://purl.org/dc/elements/1.1/"
   xmlns:cc="http://creativecommons.org/ns#"
   xmlns:rdf="http://www.w3.org/1999/02/22-rdf-syntax-ns#"
   xmlns:svg="http://www.w3.org/2000/svg"
   xmlns="http://www.w3.org/2000/svg"
   xmlns:sodipodi="http://sodipodi.sourceforge.net/DTD/sodipodi-0.dtd"
   xmlns:inkscape="http://www.inkscape.org/namespaces/inkscape"
   version="1.1"
   x="0px"
   y="0px"
   viewBox="0 0 267.04002 48.400002"
   xml:space="preserve"
   id="svg2"
   inkscape:version="1.0.2 (e86c8708, 2021-01-15)"
   sodipodi:docname="logo_helmholtz_ai.svg"
   width="267.04001"
   height="48.400002"><metadata
     id="metadata100"><rdf:RDF><cc:Work
         rdf:about=""><dc:format>image/svg+xml</dc:format><dc:type
           rdf:resource="http://purl.org/dc/dcmitype/StillImage" /><dc:title></dc:title></cc:Work></rdf:RDF></metadata><defs
     id="defs98" /><sodipodi:namedview
     pagecolor="#ffffff"
     bordercolor="#666666"
     borderopacity="1"
     objecttolerance="10"
     gridtolerance="10"
     guidetolerance="10"
     inkscape:pageopacity="0"
     inkscape:pageshadow="2"
     inkscape:window-width="1440"
     inkscape:window-height="855"
     id="namedview96"
     showgrid="false"
     inkscape:zoom="0.70684528"
     inkscape:cx="218.05648"
     inkscape:cy="170.59743"
     inkscape:window-x="0"
     inkscape:window-y="23"
     inkscape:window-maximized="1"
     inkscape:current-layer="svg2"
     inkscape:document-rotation="0"
     fit-margin-top="10"
     fit-margin-left="10"
     fit-margin-right="10"
     fit-margin-bottom="10" /><style
     type="text/css"
     id="style4">
	.st0{fill:#95C230;}
	.st1{fill:#005A9A;}
	.st2{display:none;}
	.st3{display:inline;fill:#BAC3C7;}
</style><g
     id="Ebene_2"
     class="st2"
     style="display:none"
     transform="translate(-4.4044394,-5.6541421)"><path
       class="st3"
       d="m 1058.88,189.44 v -34.42 h 16.32 v 85.04 h -16.32 v -34.3 h -29.14 v 34.3 h -16.31 v -85.04 h 16.31 v 34.42 z"
       id="path82"
       inkscape:connector-curvature="0"
       style="display:inline;fill:#bac3c7" /><path
       class="st3"
       d="m 997.1,189.44 v -34.42 h 16.32 v 85.04 H 997.1 v -34.3 h -29.14 v 34.3 h -16.31 v -85.04 h 16.31 v 34.42 z"
       id="path84"
       inkscape:connector-curvature="0"
       style="display:inline;fill:#bac3c7" /><path
       class="st3"
       d="M 107.23,119.46 V 85.04 h 16.32 v 85.04 h -16.32 v -34.3 H 78.09 v 34.3 H 61.77 V 85.04 h 16.31 v 34.42 z"
       id="path86"
       inkscape:connector-curvature="0"
       style="display:inline;fill:#bac3c7" /><path
       class="st3"
       d="M 45.45,119.46 V 85.04 h 16.32 v 85.04 H 45.45 v -34.3 H 16.31 v 34.3 H 0 V 85.04 h 16.31 v 34.42 z"
       id="path88"
       inkscape:connector-curvature="0"
       style="display:inline;fill:#bac3c7" /><path
       class="st3"
       d="M 169,34.42 V 0 h 16.32 V 85.04 H 169 v -34.3 h -29.14 v 34.3 H 123.55 V 0 h 16.31 v 34.42 z"
       id="path90"
       inkscape:connector-curvature="0"
       style="display:inline;fill:#bac3c7" /><path
       class="st3"
       d="m 169,274.48 v -34.42 h 16.32 V 325.1 H 169 v -34.3 h -29.14 v 34.3 h -16.31 v -85.04 h 16.31 v 34.42 z"
       id="path92"
       inkscape:connector-curvature="0"
       style="display:inline;fill:#bac3c7" /><path
       class="st3"
       d="m 128.96,184.61 h 14.05 v 4.67 h -14.05 v 11.12 h 15.77 v 4.67 h -21.17 v -34.99 h 20.71 v 4.64 h -15.3 v 9.89 z"
       id="path94"
       inkscape:connector-curvature="0"
       style="display:inline;fill:#bac3c7" /></g><text
     xml:space="preserve"
     style="font-size:40px;line-height:1.25;font-family:Hermann;-inkscape-font-specification:Hermann;fill:#005a9a;fill-opacity:1"
     x="7.5999999"
     y="38.400002"
     id="text904"><tspan
       sodipodi:role="line"
       id="tspan902"
       x="7.5999999"
       y="38.400002">HELMHOLTZ<tspan
   style="fill:#95c230;fill-opacity:1"
   id="tspan2068">AI</tspan></tspan></text></svg>
