<?xml version="1.0" encoding="utf-8"?>
<!-- Generator: Adobe Illustrator 22.1.0, SVG Export Plug-In . SVG Version: 6.00 Build 0)  -->
<svg version="1.1" id="Ebene_1" xmlns="http://www.w3.org/2000/svg" xmlns:xlink="http://www.w3.org/1999/xlink" x="0px" y="0px"
	 viewBox="0 0 487.6 170.9" style="enable-background:new 0 0 487.6 170.9;" xml:space="preserve">
<style type="text/css">
	.st0{fill:#3C3C3B;}
	.st1{fill:none;stroke:#CF0E5C;stroke-width:3.5;}
	.st2{fill:#9D1160;}
	.st3{fill:#CF0E5C;}
	.st4{fill:#E94E24;}
</style>
<g>
	<path class="st0" d="M481.5,148.3c-2,0-3.7,0.5-5.1,1.6c-1.3,1.1-2,2.5-2,4.4c0,0.9,0.2,1.7,0.5,2.4s0.8,1.3,1.5,1.8
		s1.2,0.9,1.7,1.2s1.2,0.6,2.2,1c0.3,0.1,0.5,0.2,0.6,0.3c0.7,0.3,1.2,0.6,1.6,0.8s0.8,0.5,1.2,0.8c0.4,0.3,0.7,0.7,0.9,1.1
		c0.2,0.4,0.3,0.8,0.3,1.3c0,1.2-0.4,2-1.2,2.7c-0.8,0.6-1.9,0.9-3.3,0.9c-2.3,0-4.2-0.6-5.8-1.8v2.9c1.6,0.9,3.6,1.4,5.9,1.4
		c2.1,0,3.8-0.5,5.2-1.6c1.3-1.1,2-2.6,2-4.5c0-0.7-0.1-1.4-0.4-2s-0.5-1.1-0.9-1.5c-0.3-0.4-0.8-0.8-1.4-1.2s-1.1-0.7-1.5-0.9
		s-1-0.4-1.7-0.8c-0.8-0.3-1.4-0.6-1.7-0.8c-0.4-0.2-0.8-0.5-1.3-0.8c-0.5-0.4-0.9-0.8-1.1-1.2s-0.3-0.9-0.3-1.4
		c0-1,0.4-1.8,1.2-2.4c0.8-0.6,1.8-0.9,3.2-0.9c1.9,0,3.5,0.4,4.8,1.3v-2.8C485,148.7,483.4,148.3,481.5,148.3 M459.3,168.4
		c-1.6,0-3-0.5-3.9-1.4c-1-1-1.5-2.5-1.5-4.5v-14h-2.7v14c0,2.7,0.7,4.8,2.1,6.3c1.4,1.4,3.4,2.2,5.9,2.2c2.6,0,4.6-0.7,6-2.2
		s2.2-3.6,2.2-6.5v-13.7h-2.7v13.8C464.8,166.4,463,168.4,459.3,168.4 M431.1,170.7h2.7v-8.1h3.4c2.4,0,4.3-0.7,5.8-2
		s2.2-2.9,2.2-4.9c0-2.1-0.7-3.8-2.2-5.1s-3.5-2-6.1-2h-5.8V170.7z M433.8,150.8h3.2c1.8,0,3.1,0.4,4.1,1.3c1,0.9,1.4,2.1,1.4,3.5
		c0,1.3-0.5,2.4-1.4,3.3c-0.9,0.9-2.2,1.3-3.9,1.3h-3.4L433.8,150.8L433.8,150.8z M403.1,170.7l0.6-8.7c0.4-5.6,0.6-8.8,0.6-9.6
		l3.3,9.6l2.9,8.2h2.5l3.1-8.2c1.2-3.3,2.4-6.6,3.6-9.8l0.8,9.8l0.8,8.7h2.7l-1.9-22.1h-3.4l-3.1,8.1c-1.2,3.3-2.5,6.7-3.7,10.3
		l-3.5-10.3l-2.9-8.1H402l-1.6,22.1H403.1z M394.7,170.7l-7.6-22.1h-3.7l-7.7,22.1h2.9l2-5.8h9.4l1.9,5.8H394.7z M381.7,161.3
		c2.1-6.2,3.3-9.7,3.5-10.7l3.4,10.6l0.4,1.3h-7.8L381.7,161.3z M365.2,148.2c-3.2,0-5.9,1-8,3.1s-3.2,4.8-3.2,8.1
		c0,3.5,1,6.3,3.1,8.4c2.1,2,4.8,3.1,8.1,3.1c2.4,0,4.2-0.5,5.6-1.4v-2.8c-1.5,1.1-3.3,1.7-5.4,1.7c-2.6,0-4.7-0.8-6.3-2.4
		c-1.6-1.6-2.4-3.8-2.4-6.5c0-2.6,0.8-4.7,2.4-6.3s3.6-2.4,6-2.4c1.2,0,2.3,0.1,3,0.3c0.8,0.2,1.6,0.6,2.6,1.1v-2.7
		C369.4,148.6,367.5,148.2,365.2,148.2 M333.3,161.5c1.4-0.4,2.5-1.2,3.3-2.3s1.2-2.4,1.2-3.9c0-2.1-0.7-3.8-2-5s-3.3-1.8-5.8-1.8
		h-5.5v22.1h2.7v-8.7h3.2h0.3l5.4,8.7h3.2L333.3,161.5z M330.1,150.8c3.3,0,5,1.5,5,4.4c0,1.3-0.4,2.3-1.2,3.2
		c-0.8,0.8-2,1.2-3.5,1.2h-3.3v-8.8L330.1,150.8L330.1,150.8z M308.3,160.8h8.4v-2.3h-8.4v-7.6h9.5v-2.3h-12.2v22.1H318v-2.3h-9.7
		V160.8z M289.6,160.8h8.4v-2.3h-8.4v-7.6h9.5v-2.3h-12.2v22.1h12.3v-2.3h-9.7v-7.6H289.6z M265.2,170.7v-9.3c0-4.1-0.1-7.3-0.2-9.6
		l0.6,1c0.4,0.7,1.1,1.9,2,3.5s2,3.3,3.1,5.2l5.5,9.3h3.3v-22.1h-2.7v9.4c0,4.2,0,7.4,0.1,9.6l-5.6-9.6l-5.5-9.3h-3.3v22.1h2.7
		V170.7z M241,153c1.3-1.6,3-2.4,5.2-2.4c2.3,0,4,0.8,5.3,2.4c1.2,1.6,1.9,3.8,1.9,6.5c0,2.8-0.6,5-1.9,6.5c-1.2,1.6-3,2.4-5.2,2.4
		s-3.9-0.8-5.2-2.4c-1.3-1.6-2-3.8-2-6.5C239.1,156.7,239.7,154.6,241,153 M239,167.8c1.8,2.1,4.2,3.1,7.2,3.1s5.5-1,7.2-3.1
		c1.8-2.1,2.7-4.8,2.7-8.3s-0.9-6.3-2.6-8.3c-1.8-2-4.2-3.1-7.3-3.1c-3,0-5.5,1-7.2,3.1c-1.8,2.1-2.7,4.8-2.7,8.3
		S237.2,165.7,239,167.8 M229.7,148.5H227v22.1h2.7V148.5z M206.6,170.7h2.7v-8.1h3.4c2.4,0,4.3-0.7,5.8-2s2.2-2.9,2.2-4.9
		c0-2.1-0.7-3.8-2.2-5.1s-3.5-2-6.1-2h-5.8L206.6,170.7L206.6,170.7z M209.3,150.8h3.2c1.8,0,3.1,0.4,4.1,1.3c1,0.9,1.4,2.1,1.4,3.5
		c0,1.3-0.5,2.4-1.4,3.3c-0.9,0.9-2.2,1.3-3.9,1.3h-3.4L209.3,150.8L209.3,150.8z M174.7,148.5v2.3h11.5l-11.7,17.7v2.2h15.3v-2.3
		h-12.2l11.7-17.7v-2.2H174.7z M155.3,148.5v2.3h6v19.8h2.7v-19.8h6v-2.3H155.3z M141.9,148.5h-2.7v22.1h12.1v-2.4h-9.4L141.9,148.5
		L141.9,148.5z M117.7,153c1.3-1.6,3-2.4,5.2-2.4c2.3,0,4,0.8,5.3,2.4c1.2,1.6,1.9,3.8,1.9,6.5c0,2.8-0.6,5-1.9,6.5
		c-1.2,1.6-3,2.4-5.2,2.4s-3.9-0.8-5.2-2.4c-1.3-1.6-2-3.8-2-6.5C115.8,156.7,116.4,154.6,117.7,153 M115.7,167.8
		c1.8,2.1,4.2,3.1,7.2,3.1s5.5-1,7.2-3.1c1.8-2.1,2.7-4.8,2.7-8.3s-0.9-6.3-2.6-8.3c-1.8-2-4.2-3.1-7.3-3.1c-3,0-5.5,1-7.2,3.1
		c-1.8,2.1-2.7,4.8-2.7,8.3C113,163,113.9,165.7,115.7,167.8 M104,158.2H93.2v-9.7h-2.7v22.1h2.7v-10H104v10h2.7v-22.1H104V158.2z
		 M62.6,170.7l0.6-8.7c0.4-5.6,0.6-8.8,0.6-9.6l3.3,9.6l2.9,8.2h2.5l3.1-8.2c1.2-3.3,2.4-6.6,3.6-9.8L80,162l0.8,8.7h2.7l-1.9-22.1
		h-3.4l-3.1,8.1c-1.2,3.3-2.5,6.7-3.7,10.3l-3.5-10.3l-2.9-8.1h-3.4L60,170.7H62.6z M44.8,148.5h-2.7v22.1h12.1v-2.4h-9.4
		C44.8,168.2,44.8,148.5,44.8,148.5z M26.1,160.8h8.4v-2.3h-8.4v-7.6h9.5v-2.3H23.4v22.1h12.3v-2.3H26v-7.6H26.1z M13.4,158.2H2.7
		v-9.7H0v22.1h2.7v-10h10.7v10h2.7v-22.1h-2.7C13.4,148.5,13.4,158.2,13.4,158.2z"/>
</g>
<g>
	<path class="st1" d="M271.9,91.9"/>
</g>
<g>
	<g>
		<rect x="190.9" class="st2" width="6" height="37.9"/>
	</g>
</g>
<g>
	<polygon class="st3" points="294.6,101.3 249,101.3 249,53.9 294.6,53.9 294.6,59.9 255,59.9 255,95.3 294.6,95.3 	"/>
</g>
<g>
	<g>
		<polygon class="st4" points="254.7,47.8 248.7,47.8 248.7,0 294.7,0 294.7,37.8 265.2,37.8 265.2,31.8 288.7,31.8 288.7,6 
			254.7,6 		"/>
	</g>
	<g>
		<rect x="233" class="st2" width="6" height="101.4"/>
	</g>
</g>
<g>
	<polygon class="st2" points="196.8,101.4 190.8,101.4 190.8,47.8 223.1,47.8 223.1,53.8 196.8,53.8 	"/>
</g>
</svg>
