<?xml version="1.0" encoding="UTF-8" standalone="no"?>
<svg
   xmlns:dc="http://purl.org/dc/elements/1.1/"
   xmlns:cc="http://creativecommons.org/ns#"
   xmlns:rdf="http://www.w3.org/1999/02/22-rdf-syntax-ns#"
   xmlns:svg="http://www.w3.org/2000/svg"
   xmlns="http://www.w3.org/2000/svg"
   xmlns:sodipodi="http://sodipodi.sourceforge.net/DTD/sodipodi-0.dtd"
   xmlns:inkscape="http://www.inkscape.org/namespaces/inkscape"
   version="1.1"
   x="0px"
   y="0px"
   viewBox="0 0 829.11003 155.67"
   xml:space="preserve"
   id="svg2"
   inkscape:version="1.0.2 (e86c8708, 2021-01-15)"
   sodipodi:docname="logo_helmholtz_research.svg"
   width="829.10999"
   height="155.67"><metadata
     id="metadata100"><rdf:RDF><cc:Work
         rdf:about=""><dc:format>image/svg+xml</dc:format><dc:type
           rdf:resource="http://purl.org/dc/dcmitype/StillImage" /><dc:title></dc:title></cc:Work></rdf:RDF></metadata><defs
     id="defs98" /><sodipodi:namedview
     pagecolor="#ffffff"
     bordercolor="#666666"
     borderopacity="1"
     objecttolerance="10"
     gridtolerance="10"
     guidetolerance="10"
     inkscape:pageopacity="0"
     inkscape:pageshadow="2"
     inkscape:window-width="1440"
     inkscape:window-height="855"
     id="namedview96"
     showgrid="false"
     inkscape:zoom="3.9985207"
     inkscape:cx="13.473972"
     inkscape:cy="9.4659921"
     inkscape:window-x="0"
     inkscape:window-y="24"
     inkscape:window-maximized="0"
     inkscape:current-layer="svg2"
     inkscape:document-rotation="0"
     fit-margin-top="0"
     fit-margin-left="0"
     fit-margin-right="0"
     fit-margin-bottom="0" /><style
     type="text/css"
     id="style4">
	.st0{fill:#95C230;}
	.st1{fill:#005A9A;}
	.st2{display:none;}
	.st3{display:inline;fill:#BAC3C7;}
</style><g
     id="Ebene_1"
     transform="translate(-123.55,-85.04)"><g
       id="g7"><path
         class="st0"
         d="m 123.55,205.07 h 7.54 c 2.87,0 5.08,0.1 6.64,0.31 2.92,0.41 5.18,1.55 6.77,3.41 1.5,1.79 2.26,4.01 2.26,6.64 0,4.61 -2.22,7.82 -6.66,9.61 l 8.61,15.02 h -6.38 l -7.97,-14.1 h -5.38 v 14.1 h -5.41 v -34.99 z m 5.41,16.23 h 2.44 c 3.06,0 5.18,-0.21 6.36,-0.64 1.16,-0.41 2.04,-1.13 2.64,-2.15 0.51,-0.89 0.77,-1.93 0.77,-3.13 0,-2.31 -0.91,-3.9 -2.74,-4.79 -0.91,-0.46 -2.17,-0.73 -3.79,-0.82 -0.63,-0.03 -1.8,-0.05 -3.51,-0.05 h -2.15 v 11.58 z"
         id="path9"
         inkscape:connector-curvature="0"
         style="fill:#95c230" /><path
         class="st0"
         d="m 159.23,219.6 h 14.05 v 4.67 h -14.05 v 11.12 H 175 v 4.67 h -21.17 v -34.99 h 20.71 v 4.64 h -15.3 v 9.89 z"
         id="path11"
         inkscape:connector-curvature="0"
         style="fill:#95c230" /><path
         class="st0"
         d="m 202.68,214.76 h -5.23 c -0.12,-1.49 -0.56,-2.69 -1.33,-3.61 -1.13,-1.33 -2.76,-2 -4.9,-2 -1.52,0 -2.8,0.37 -3.84,1.1 -1.23,0.89 -1.85,2.03 -1.85,3.41 0,1.28 0.65,2.33 1.95,3.13 0.8,0.5 2.79,1.41 5.95,2.74 2.72,1.14 4.57,2.01 5.56,2.59 3.13,1.86 4.69,4.59 4.69,8.18 0,3.43 -1.3,6.13 -3.9,8.08 -2.07,1.55 -4.77,2.33 -8.1,2.33 -4.89,0 -8.44,-1.59 -10.66,-4.77 -1.25,-1.78 -1.94,-4.18 -2.08,-7.2 h 5.25 c 0.19,2.19 0.79,3.84 1.79,4.97 1.35,1.52 3.28,2.28 5.79,2.28 1.85,0 3.38,-0.45 4.59,-1.36 1.16,-0.87 1.74,-2.02 1.74,-3.43 0,-1.5 -0.76,-2.78 -2.28,-3.82 -0.82,-0.56 -2.74,-1.49 -5.74,-2.77 -3.57,-1.54 -5.97,-2.87 -7.2,-4 -1.86,-1.74 -2.79,-3.9 -2.79,-6.46 0,-3.25 1.29,-5.76 3.87,-7.54 2.09,-1.45 4.56,-2.18 7.43,-2.18 4.24,0 7.39,1.45 9.46,4.33 1.09,1.49 1.7,3.49 1.83,6 z"
         id="path13"
         inkscape:connector-curvature="0"
         style="fill:#95c230" /><path
         class="st0"
         d="m 215.78,219.6 h 14.05 v 4.67 h -14.05 v 11.12 h 15.77 v 4.67 h -21.17 v -34.99 h 20.71 v 4.64 h -15.3 v 9.89 z"
         id="path15"
         inkscape:connector-curvature="0"
         style="fill:#95c230" /><path
         class="st0"
         d="m 246.06,204.97 h 5.25 l 11.97,35.09 h -5.61 l -2.59,-8.2 h -12.74 l -2.64,8.2 h -5.56 z m 7.59,22.22 -4.95,-15.74 -4.95,15.74 z"
         id="path17"
         inkscape:connector-curvature="0"
         style="fill:#95c230" /><path
         class="st0"
         d="m 268.41,205.07 h 7.54 c 2.87,0 5.08,0.1 6.64,0.31 2.92,0.41 5.18,1.55 6.77,3.41 1.5,1.79 2.26,4.01 2.26,6.64 0,4.61 -2.22,7.82 -6.66,9.61 l 8.61,15.02 h -6.38 l -7.97,-14.1 h -5.38 v 14.1 h -5.41 v -34.99 z m 5.41,16.23 h 2.44 c 3.06,0 5.18,-0.21 6.36,-0.64 1.16,-0.41 2.04,-1.13 2.64,-2.15 0.51,-0.89 0.77,-1.93 0.77,-3.13 0,-2.31 -0.91,-3.9 -2.74,-4.79 -0.91,-0.46 -2.17,-0.73 -3.79,-0.82 -0.63,-0.03 -1.8,-0.05 -3.51,-0.05 h -2.15 v 11.58 z"
         id="path19"
         inkscape:connector-curvature="0"
         style="fill:#95c230" /><path
         class="st0"
         d="m 323.55,215.66 h -4.79 c -0.84,-4.34 -3.24,-6.51 -7.2,-6.51 -2.79,0 -4.99,1.14 -6.61,3.41 -1.76,2.51 -2.64,5.86 -2.64,10.05 0,4.2 0.91,7.57 2.74,10.1 1.59,2.19 3.78,3.28 6.56,3.28 4.5,0 7.01,-2.8 7.54,-8.41 h 4.92 c -0.19,3.14 -0.86,5.71 -2.03,7.69 -2.12,3.62 -5.53,5.43 -10.23,5.43 -4.22,0 -7.69,-1.4 -10.41,-4.2 -3.2,-3.28 -4.79,-7.9 -4.79,-13.84 0,-6.44 1.79,-11.3 5.36,-14.59 2.65,-2.43 5.85,-3.64 9.61,-3.64 2.38,0 4.49,0.51 6.36,1.54 3.31,1.79 5.18,5.02 5.61,9.69 z"
         id="path21"
         inkscape:connector-curvature="0"
         style="fill:#95c230" /><path
         class="st0"
         d="m 335.63,219.55 h 15.1 v -14.48 h 5.41 v 34.99 h -5.41 v -16.02 h -15.1 v 16.02 h -5.41 v -34.99 h 5.41 z"
         id="path23"
         inkscape:connector-curvature="0"
         style="fill:#95c230" /><path
         class="st0"
         d="m 383.36,219.6 h 14.05 v 4.67 h -14.05 v 15.79 h -5.41 v -34.99 h 20.71 v 4.64 h -15.3 z"
         id="path25"
         inkscape:connector-curvature="0"
         style="fill:#95c230" /><path
         class="st0"
         d="m 417.4,204.43 c 4.15,0 7.61,1.47 10.38,4.41 3.13,3.3 4.69,7.87 4.69,13.71 0,5.84 -1.56,10.42 -4.69,13.74 -2.77,2.94 -6.22,4.41 -10.36,4.41 -4.21,0 -7.68,-1.47 -10.43,-4.41 -3.13,-3.32 -4.69,-7.98 -4.69,-14 0,-2.58 0.42,-5.15 1.26,-7.72 1.16,-3.5 3.25,-6.19 6.25,-8.05 2.26,-1.39 4.79,-2.09 7.59,-2.09 z m 0,4.66 c -2.87,0 -5.1,1.13 -6.69,3.38 -1.81,2.56 -2.72,5.86 -2.72,9.9 0,4.27 0.91,7.7 2.72,10.28 1.57,2.26 3.8,3.38 6.69,3.38 2.87,0 5.09,-1.13 6.67,-3.38 1.81,-2.58 2.72,-5.95 2.72,-10.1 0,-4.2 -0.91,-7.56 -2.72,-10.07 -1.63,-2.26 -3.85,-3.39 -6.67,-3.39 z"
         id="path27"
         inkscape:connector-curvature="0"
         style="fill:#95c230" /><path
         class="st0"
         d="m 439.06,205.07 h 7.54 c 2.87,0 5.08,0.1 6.64,0.31 2.92,0.41 5.18,1.55 6.77,3.41 1.5,1.79 2.26,4.01 2.26,6.64 0,4.61 -2.22,7.82 -6.66,9.61 l 8.61,15.02 h -6.38 l -7.97,-14.1 h -5.38 v 14.1 h -5.41 v -34.99 z m 5.41,16.23 h 2.44 c 3.06,0 5.18,-0.21 6.36,-0.64 1.16,-0.41 2.04,-1.13 2.64,-2.15 0.51,-0.89 0.77,-1.93 0.77,-3.13 0,-2.31 -0.91,-3.9 -2.74,-4.79 -0.91,-0.46 -2.17,-0.73 -3.79,-0.82 -0.63,-0.03 -1.8,-0.05 -3.51,-0.05 h -2.15 v 11.58 z"
         id="path29"
         inkscape:connector-curvature="0"
         style="fill:#95c230" /><path
         class="st0"
         d="m 496.61,222.32 h 11.69 v 14.48 c -3.69,2.6 -7.78,3.9 -12.28,3.9 -4.55,0 -8.19,-1.44 -10.95,-4.31 -1.57,-1.62 -2.73,-3.58 -3.46,-5.87 -0.82,-2.53 -1.23,-5.19 -1.23,-7.97 0,-5.98 1.57,-10.6 4.72,-13.87 2.73,-2.84 6.21,-4.26 10.43,-4.26 2.46,0 4.67,0.53 6.64,1.59 3.35,1.79 5.23,4.98 5.64,9.56 h -4.79 c -0.79,-4.29 -3.26,-6.43 -7.41,-6.43 -2.84,0 -5.03,1 -6.59,3 -1.96,2.5 -2.95,5.96 -2.95,10.41 0,4.46 1.01,7.94 3.02,10.43 1.61,2 3.92,3 6.95,3 2.68,0 5.23,-0.76 7.64,-2.28 v -7.13 h -7.08 v -4.25 z"
         id="path31"
         inkscape:connector-curvature="0"
         style="fill:#95c230" /><path
         class="st0"
         d="m 515.66,205.07 h 7.54 c 2.87,0 5.08,0.1 6.64,0.31 2.92,0.41 5.18,1.55 6.77,3.41 1.5,1.79 2.26,4.01 2.26,6.64 0,4.61 -2.22,7.82 -6.66,9.61 l 8.61,15.02 h -6.38 l -7.97,-14.1 h -5.38 v 14.1 h -5.41 v -34.99 z m 5.41,16.23 h 2.44 c 3.06,0 5.18,-0.21 6.36,-0.64 1.16,-0.41 2.04,-1.13 2.64,-2.15 0.51,-0.89 0.77,-1.93 0.77,-3.13 0,-2.31 -0.91,-3.9 -2.74,-4.79 -0.91,-0.46 -2.17,-0.73 -3.79,-0.82 -0.63,-0.03 -1.8,-0.05 -3.51,-0.05 h -2.15 v 11.58 z"
         id="path33"
         inkscape:connector-curvature="0"
         style="fill:#95c230" /><path
         class="st0"
         d="m 554.29,204.97 h 5.25 l 11.97,35.09 h -5.61 l -2.59,-8.2 h -12.74 l -2.64,8.2 h -5.56 z m 7.59,22.22 -4.95,-15.74 -4.95,15.74 z"
         id="path35"
         inkscape:connector-curvature="0"
         style="fill:#95c230" /><path
         class="st0"
         d="m 576.64,205.07 h 5.82 l 15.43,26.74 v -26.74 h 5.13 v 34.99 h -5.59 l -15.64,-26.69 v 26.69 h -5.15 z"
         id="path37"
         inkscape:connector-curvature="0"
         style="fill:#95c230" /><path
         class="st0"
         d="m 611.71,205.07 h 7.1 c 2.84,0 5.16,0.14 6.97,0.41 3.74,0.58 6.74,2.33 9,5.25 2.5,3.23 3.74,7.17 3.74,11.82 0,4.77 -1.27,8.78 -3.82,12.02 -2.31,2.97 -5.45,4.7 -9.43,5.18 -1.62,0.21 -4.02,0.31 -7.2,0.31 h -6.36 z m 5.41,30.32 h 2.82 c 2.1,0 3.73,-0.09 4.9,-0.28 2.65,-0.46 4.64,-1.79 5.97,-3.97 1.42,-2.34 2.13,-5.22 2.13,-8.64 0,-3.5 -0.79,-6.41 -2.36,-8.72 -1.42,-2.1 -3.43,-3.36 -6.05,-3.77 -1.18,-0.21 -3.14,-0.31 -5.9,-0.31 h -1.51 z"
         id="path39"
         inkscape:connector-curvature="0"
         style="fill:#95c230" /><path
         class="st0"
         d="m 683.13,215.66 h -4.79 c -0.84,-4.34 -3.24,-6.51 -7.2,-6.51 -2.79,0 -4.99,1.14 -6.61,3.41 -1.76,2.51 -2.64,5.86 -2.64,10.05 0,4.2 0.91,7.57 2.74,10.1 1.59,2.19 3.78,3.28 6.56,3.28 4.5,0 7.01,-2.8 7.54,-8.41 h 4.92 c -0.19,3.14 -0.86,5.71 -2.03,7.69 -2.12,3.62 -5.53,5.43 -10.23,5.43 -4.22,0 -7.69,-1.4 -10.41,-4.2 -3.2,-3.28 -4.79,-7.9 -4.79,-13.84 0,-6.44 1.79,-11.3 5.36,-14.59 2.65,-2.43 5.85,-3.64 9.61,-3.64 2.38,0 4.49,0.51 6.36,1.54 3.31,1.79 5.18,5.02 5.61,9.69 z"
         id="path41"
         inkscape:connector-curvature="0"
         style="fill:#95c230" /><path
         class="st0"
         d="m 695.21,219.55 h 15.1 v -14.48 h 5.41 v 34.99 h -5.41 v -16.02 h -15.1 v 16.02 h -5.41 v -34.99 h 5.41 z"
         id="path43"
         inkscape:connector-curvature="0"
         style="fill:#95c230" /><path
         class="st0"
         d="m 732.76,204.97 h 5.25 l 11.97,35.09 h -5.61 l -2.59,-8.2 h -12.74 l -2.64,8.2 h -5.56 z m 7.59,22.22 -4.95,-15.74 -4.95,15.74 z"
         id="path45"
         inkscape:connector-curvature="0"
         style="fill:#95c230" /><path
         class="st0"
         d="m 755.11,205.07 h 5.56 v 30.33 h 15.1 v 4.67 h -20.66 z"
         id="path47"
         inkscape:connector-curvature="0"
         style="fill:#95c230" /><path
         class="st0"
         d="m 781.16,205.07 h 5.56 v 30.33 h 15.1 v 4.67 h -20.66 z"
         id="path49"
         inkscape:connector-curvature="0"
         style="fill:#95c230" /><path
         class="st0"
         d="m 812.61,219.6 h 14.05 v 4.67 h -14.05 v 11.12 h 15.77 v 4.67 H 807.2 v -34.99 h 20.71 v 4.64 h -15.3 z"
         id="path51"
         inkscape:connector-curvature="0"
         style="fill:#95c230" /><path
         class="st0"
         d="m 834.53,205.07 h 5.82 l 15.43,26.74 v -26.74 h 5.13 v 34.99 h -5.59 l -15.64,-26.69 v 26.69 h -5.15 z"
         id="path53"
         inkscape:connector-curvature="0"
         style="fill:#95c230" /><path
         class="st0"
         d="m 883.75,222.32 h 11.69 v 14.48 c -3.69,2.6 -7.78,3.9 -12.28,3.9 -4.55,0 -8.19,-1.44 -10.95,-4.31 -1.57,-1.62 -2.73,-3.58 -3.46,-5.87 -0.82,-2.53 -1.23,-5.19 -1.23,-7.97 0,-5.98 1.57,-10.6 4.72,-13.87 2.73,-2.84 6.21,-4.26 10.43,-4.26 2.46,0 4.67,0.53 6.64,1.59 3.35,1.79 5.23,4.98 5.64,9.56 h -4.79 c -0.79,-4.29 -3.26,-6.43 -7.41,-6.43 -2.84,0 -5.03,1 -6.59,3 -1.96,2.5 -2.95,5.96 -2.95,10.41 0,4.46 1.01,7.94 3.02,10.43 1.61,2 3.92,3 6.95,3 2.68,0 5.23,-0.76 7.64,-2.28 v -7.13 h -7.08 v -4.25 z"
         id="path55"
         inkscape:connector-curvature="0"
         style="fill:#95c230" /><path
         class="st0"
         d="m 908.21,219.6 h 14.05 v 4.67 h -14.05 v 11.12 h 15.77 v 4.67 H 902.8 v -34.99 h 20.71 v 4.64 h -15.3 z"
         id="path57"
         inkscape:connector-curvature="0"
         style="fill:#95c230" /><path
         class="st0"
         d="m 951.66,214.76 h -5.23 c -0.12,-1.49 -0.56,-2.69 -1.33,-3.61 -1.13,-1.33 -2.76,-2 -4.9,-2 -1.52,0 -2.8,0.37 -3.84,1.1 -1.23,0.89 -1.85,2.03 -1.85,3.41 0,1.28 0.65,2.33 1.95,3.13 0.8,0.5 2.79,1.41 5.95,2.74 2.72,1.14 4.57,2.01 5.56,2.59 3.13,1.86 4.69,4.59 4.69,8.18 0,3.43 -1.3,6.13 -3.9,8.08 -2.07,1.55 -4.77,2.33 -8.1,2.33 -4.89,0 -8.44,-1.59 -10.66,-4.77 -1.25,-1.78 -1.94,-4.18 -2.08,-7.2 h 5.25 c 0.19,2.19 0.79,3.84 1.79,4.97 1.35,1.52 3.28,2.28 5.79,2.28 1.85,0 3.38,-0.45 4.59,-1.36 1.16,-0.87 1.74,-2.02 1.74,-3.43 0,-1.5 -0.76,-2.78 -2.28,-3.82 -0.82,-0.56 -2.74,-1.49 -5.74,-2.77 -3.57,-1.54 -5.97,-2.87 -7.2,-4 -1.86,-1.74 -2.79,-3.9 -2.79,-6.46 0,-3.25 1.29,-5.76 3.87,-7.54 2.09,-1.45 4.56,-2.18 7.43,-2.18 4.24,0 7.39,1.45 9.46,4.33 1.08,1.49 1.69,3.49 1.83,6 z"
         id="path59"
         inkscape:connector-curvature="0"
         style="fill:#95c230" /></g><g
       id="g61"><path
         class="st1"
         d="M 169,119.46 V 85.04 h 16.32 v 85.04 H 169 v -34.3 h -29.14 v 34.3 H 123.55 V 85.04 h 16.31 v 34.42 z"
         id="path63"
         inkscape:connector-curvature="0"
         style="fill:#005a9a" /><path
         class="st1"
         d="m 257.22,85.04 v 16.31 h -37.31 v 18.11 h 32.39 v 16.32 h -32.39 v 17.99 h 37.31 v 16.31 h -45.58 c -0.72,0 -1.45,-0.24 -1.92,-0.84 l -5.27,-5.27 c -0.6,-0.48 -0.84,-1.2 -0.84,-1.92 V 93.07 c 0,-0.71 0.24,-1.44 0.84,-1.91 l 5.27,-5.27 c 0.48,-0.49 1.2,-0.84 1.92,-0.84 h 45.58 z"
         id="path65"
         inkscape:connector-curvature="0"
         style="fill:#005a9a" /><path
         class="st1"
         d="m 282.45,170.08 c -0.72,0 -1.45,-0.24 -1.92,-0.84 l -5.27,-5.27 c -0.61,-0.48 -0.84,-1.2 -0.84,-1.92 v -77 h 16.31 v 68.73 h 35.5 v 16.31 h -43.78 z"
         id="path67"
         inkscape:connector-curvature="0"
         style="fill:#005a9a" /><path
         class="st1"
         d="m 413.81,85.04 v 85.04 H 397.5 v -47.02 l -13.31,27.83 c -0.48,0.96 -1.44,1.56 -2.4,1.56 h -9.59 c -1.08,0 -2.04,-0.61 -2.52,-1.56 l -13.31,-27.83 v 47.02 H 340.06 V 85.04 h 16.31 L 377,128.22 397.51,85.04 Z"
         id="path69"
         inkscape:connector-curvature="0"
         style="fill:#005a9a" /><path
         class="st1"
         d="M 476.47,119.46 V 85.04 h 16.32 v 85.04 h -16.32 v -34.3 h -29.14 v 34.3 H 431.02 V 85.04 h 16.31 v 34.42 z"
         id="path71"
         inkscape:connector-curvature="0"
         style="fill:#005a9a" /><path
         class="st1"
         d="m 558.33,89.11 8.52,8.4 c 2.52,2.52 3.96,6 3.96,9.59 V 148 c 0,3.6 -1.44,7.08 -3.96,9.6 l -8.52,8.52 c -2.52,2.52 -6,3.96 -9.6,3.96 h -19.06 c -3.6,0 -7.2,-1.32 -9.72,-3.96 l -8.4,-8.52 c -2.52,-2.52 -3.96,-6 -3.96,-9.6 v -40.9 c 0,-3.59 1.44,-7.07 3.96,-9.59 l 8.4,-8.4 c 2.64,-2.64 6.11,-4.07 9.72,-4.07 h 19.06 c 3.6,0 6.96,1.55 9.6,4.07 z m -3.84,56.74 v -36.46 c 0,-0.72 -0.36,-1.45 -0.84,-1.92 l -5.16,-5.27 c -0.61,-0.48 -1.32,-0.84 -2.04,-0.84 h -14.63 c -0.72,0 -1.32,0.36 -1.92,0.84 l -5.16,5.27 c -0.6,0.48 -0.84,1.2 -0.84,1.92 v 36.46 c 0,0.72 0.24,1.32 0.84,1.92 l 5.16,5.16 c 0.61,0.6 1.2,0.84 1.92,0.84 h 14.63 c 0.72,0 1.44,-0.24 2.04,-0.84 l 5.16,-5.16 c 0.48,-0.6 0.84,-1.2 0.84,-1.92 z"
         id="path73"
         inkscape:connector-curvature="0"
         style="fill:#005a9a" /><path
         class="st1"
         d="m 593.27,170.08 c -0.72,0 -1.45,-0.24 -1.92,-0.84 l -5.27,-5.27 c -0.61,-0.48 -0.84,-1.2 -0.84,-1.92 v -77 h 16.31 v 68.73 h 35.5 v 16.31 h -43.78 z"
         id="path75"
         inkscape:connector-curvature="0"
         style="fill:#005a9a" /><path
         class="st1"
         d="M 635.88,101.35 V 85.04 h 61.41 v 16.31 h -22.55 v 68.73 h -16.31 v -68.73 z"
         id="path77"
         inkscape:connector-curvature="0"
         style="fill:#005a9a" /><path
         class="st1"
         d="m 760.43,85.88 5.27,5.27 c 0.48,0.48 0.84,1.2 0.84,1.91 v 4.2 l -35.75,56.5 h 35.27 v 16.31 h -48.7 c -0.72,0 -1.45,-0.24 -1.92,-0.84 l -5.27,-5.27 c -0.48,-0.48 -0.84,-1.2 -0.84,-1.92 v -4.91 L 744.6,101.35 H 708.85 V 85.04 h 49.65 c 0.73,0 1.45,0.35 1.93,0.84 z"
         id="path79"
         inkscape:connector-curvature="0"
         style="fill:#005a9a" /></g></g><g
     id="Ebene_2"
     class="st2"
     style="display:none"
     transform="translate(-0.15972,-169.2865)"><path
       class="st3"
       d="m 1058.88,189.44 v -34.42 h 16.32 v 85.04 h -16.32 v -34.3 h -29.14 v 34.3 h -16.31 v -85.04 h 16.31 v 34.42 z"
       id="path82"
       inkscape:connector-curvature="0"
       style="display:inline;fill:#bac3c7" /><path
       class="st3"
       d="m 997.1,189.44 v -34.42 h 16.32 v 85.04 H 997.1 v -34.3 h -29.14 v 34.3 h -16.31 v -85.04 h 16.31 v 34.42 z"
       id="path84"
       inkscape:connector-curvature="0"
       style="display:inline;fill:#bac3c7" /><path
       class="st3"
       d="M 107.23,119.46 V 85.04 h 16.32 v 85.04 h -16.32 v -34.3 H 78.09 v 34.3 H 61.77 V 85.04 h 16.31 v 34.42 z"
       id="path86"
       inkscape:connector-curvature="0"
       style="display:inline;fill:#bac3c7" /><path
       class="st3"
       d="M 45.45,119.46 V 85.04 h 16.32 v 85.04 H 45.45 v -34.3 H 16.31 v 34.3 H 0 V 85.04 h 16.31 v 34.42 z"
       id="path88"
       inkscape:connector-curvature="0"
       style="display:inline;fill:#bac3c7" /><path
       class="st3"
       d="M 169,34.42 V 0 h 16.32 V 85.04 H 169 v -34.3 h -29.14 v 34.3 H 123.55 V 0 h 16.31 v 34.42 z"
       id="path90"
       inkscape:connector-curvature="0"
       style="display:inline;fill:#bac3c7" /><path
       class="st3"
       d="m 169,274.48 v -34.42 h 16.32 V 325.1 H 169 v -34.3 h -29.14 v 34.3 h -16.31 v -85.04 h 16.31 v 34.42 z"
       id="path92"
       inkscape:connector-curvature="0"
       style="display:inline;fill:#bac3c7" /><path
       class="st3"
       d="m 128.96,184.61 h 14.05 v 4.67 h -14.05 v 11.12 h 15.77 v 4.67 h -21.17 v -34.99 h 20.71 v 4.64 h -15.3 v 9.89 z"
       id="path94"
       inkscape:connector-curvature="0"
       style="display:inline;fill:#bac3c7" /></g></svg>
