<?xml version="1.0" encoding="UTF-8" standalone="no"?>
<svg
   xmlns:dc="http://purl.org/dc/elements/1.1/"
   xmlns:cc="http://creativecommons.org/ns#"
   xmlns:rdf="http://www.w3.org/1999/02/22-rdf-syntax-ns#"
   xmlns:svg="http://www.w3.org/2000/svg"
   xmlns="http://www.w3.org/2000/svg"
   xmlns:sodipodi="http://sodipodi.sourceforge.net/DTD/sodipodi-0.dtd"
   xmlns:inkscape="http://www.inkscape.org/namespaces/inkscape"
   version="1.1"
   x="0px"
   y="0px"
   viewBox="0 0 267.04002 48.400002"
   xml:space="preserve"
   id="svg2"
   inkscape:version="1.0.2 (e86c8708, 2021-01-15)"
   sodipodi:docname="logo_helmholtz_ai.svg"
   width="267.04001"
   height="48.400002"><metadata
     id="metadata100"><rdf:RDF><cc:Work
         rdf:about=""><dc:format>image/svg+xml</dc:format><dc:type
           rdf:resource="http://purl.org/dc/dcmitype/StillImage" /><dc:title /></cc:Work></rdf:RDF></metadata><defs
     id="defs98" /><sodipodi:namedview
     pagecolor="#ffffff"
     bordercolor="#666666"
     borderopacity="1"
     objecttolerance="10"
     gridtolerance="10"
     guidetolerance="10"
     inkscape:pageopacity="0"
     inkscape:pageshadow="2"
     inkscape:window-width="1440"
     inkscape:window-height="855"
     id="namedview96"
     showgrid="false"
     inkscape:zoom="0.70684528"
     inkscape:cx="218.05648"
     inkscape:cy="170.59743"
     inkscape:window-x="0"
     inkscape:window-y="23"
     inkscape:window-maximized="1"
     inkscape:current-layer="svg2"
     inkscape:document-rotation="0"
     fit-margin-top="10"
     fit-margin-left="10"
     fit-margin-right="10"
     fit-margin-bottom="10" /><style
     type="text/css"
     id="style4">
	.st0{fill:#95C230;}
	.st1{fill:#005A9A;}
	.st2{display:none;}
	.st3{display:inline;fill:#BAC3C7;}
</style><g
     id="Ebene_2"
     class="st2"
     style="display:none"
     transform="translate(-4.4044394,-5.6541421)"><path
       class="st3"
       d="m 1058.88,189.44 v -34.42 h 16.32 v 85.04 h -16.32 v -34.3 h -29.14 v 34.3 h -16.31 v -85.04 h 16.31 v 34.42 z"
       id="path82"
       inkscape:connector-curvature="0"
       style="display:inline;fill:#bac3c7" /><path
       class="st3"
       d="m 997.1,189.44 v -34.42 h 16.32 v 85.04 H 997.1 v -34.3 h -29.14 v 34.3 h -16.31 v -85.04 h 16.31 v 34.42 z"
       id="path84"
       inkscape:connector-curvature="0"
       style="display:inline;fill:#bac3c7" /><path
       class="st3"
       d="M 107.23,119.46 V 85.04 h 16.32 v 85.04 h -16.32 v -34.3 H 78.09 v 34.3 H 61.77 V 85.04 h 16.31 v 34.42 z"
       id="path86"
       inkscape:connector-curvature="0"
       style="display:inline;fill:#bac3c7" /><path
       class="st3"
       d="M 45.45,119.46 V 85.04 h 16.32 v 85.04 H 45.45 v -34.3 H 16.31 v 34.3 H 0 V 85.04 h 16.31 v 34.42 z"
       id="path88"
       inkscape:connector-curvature="0"
       style="display:inline;fill:#bac3c7" /><path
       class="st3"
       d="M 169,34.42 V 0 h 16.32 V 85.04 H 169 v -34.3 h -29.14 v 34.3 H 123.55 V 0 h 16.31 v 34.42 z"
       id="path90"
       inkscape:connector-curvature="0"
       style="display:inline;fill:#bac3c7" /><path
       class="st3"
       d="m 169,274.48 v -34.42 h 16.32 V 325.1 H 169 v -34.3 h -29.14 v 34.3 h -16.31 v -85.04 h 16.31 v 34.42 z"
       id="path92"
       inkscape:connector-curvature="0"
       style="display:inline;fill:#bac3c7" /><path
       class="st3"
       d="m 128.96,184.61 h 14.05 v 4.67 h -14.05 v 11.12 h 15.77 v 4.67 h -21.17 v -34.99 h 20.71 v 4.64 h -15.3 v 9.89 z"
       id="path94"
       inkscape:connector-curvature="0"
       style="display:inline;fill:#bac3c7" /></g><g
     aria-label="HELMHOLTZAI"
     id="text904"
     style="font-size:40px;line-height:1.25;font-family:Hermann;-inkscape-font-specification:Hermann;fill:#005a9a;fill-opacity:1"><path
       d="m 15.44,21.520002 v -11.48 H 9.9999999 v 28.36 H 15.44 v -11.44 h 9.72 v 11.44 h 5.44 v -28.36 h -5.44 v 11.48 z"
       id="path849" /><path
       d="m 53.426875,15.480002 v -5.44 h -15.2 q -0.36,0 -0.64,0.28 l -1.76,1.76 q -0.28,0.24 -0.28,0.64 v 23 q 0,0.4 0.28,0.64 l 1.76,1.76 q 0.24,0.28 0.64,0.28 h 15.2 v -5.44 h -12.44 v -6 h 10.4 v -5.44 h -10.4 v -6.04 z"
       id="path851" /><path
       d="m 74.603125,32.960002 v 5.44 h -13.72 q -0.4,0 -0.64,-0.28 l -1.76,-1.76 q -0.28,-0.24 -0.28,-0.64 v -25.68 h 5.44 v 22.92 z"
       id="path853" /><path
       d="m 102.43937,10.040002 v 28.36 h -5.439995 v -15.68 l -3.84,8 q -0.12,0.4 -0.6,0.4 h -4.32 q -0.44,0 -0.6,-0.4 l -3.84,-8 v 15.68 h -5.44 v -28.36 h 5.44 l 6.6,13.88 6.6,-13.88 z"
       id="path855" /><path
       d="m 113.64312,21.520002 v -11.48 h -5.44 v 28.36 h 5.44 v -11.44 h 9.72 v 11.44 h 5.44 v -28.36 h -5.44 v 11.48 z"
       id="path857" /><path
       d="m 147.87,10.000002 q 1.76,0 3.2,1.36 l 2.84,2.8 q 0.64,0.64 0.96,1.48 0.36,0.84 0.36,1.72 v 13.68 q 0,0.88 -0.36,1.72 -0.32,0.84 -0.96,1.48 l -2.84,2.84 q -0.64,0.64 -1.48,1 -0.84,0.32 -1.72,0.32 h -6.36 q -0.92,0 -1.8,-0.32 -0.84,-0.36 -1.44,-1 l -2.8,-2.84 q -0.64,-0.64 -1,-1.48 -0.32,-0.84 -0.32,-1.72 v -13.68 q 0,-0.88 0.32,-1.72 0.36,-0.84 1,-1.48 l 2.8,-2.8 q 1.36,-1.36 3.24,-1.36 z m 1.64,20.96 q 0.28,-0.36 0.28,-0.64 v -12.2 q 0,-0.36 -0.28,-0.64 l -1.72,-1.76 q -0.36,-0.28 -0.68,-0.28 h -4.88 q -0.28,0 -0.64,0.28 l -1.72,1.76 q -0.28,0.24 -0.28,0.64 v 12.2 q 0,0.36 0.28,0.64 l 1.72,1.72 q 0.28,0.28 0.64,0.28 h 4.88 q 0.4,0 0.68,-0.28 z"
       id="path859" /><path
       d="m 176.86875,32.960002 v 5.44 h -13.72 q -0.4,0 -0.64,-0.28 l -1.76,-1.76 q -0.28,-0.24 -0.28,-0.64 v -25.68 h 5.44 v 22.92 z"
       id="path861" /><path
       d="m 182.52625,15.480002 v 22.92 h 5.44 v -22.92 h 7.12 v -5.44 h -19.68 v 5.44 z"
       id="path863" /><path
       d="m 215.46625,10.040002 q 0.28,0 0.64,0.28 l 1.76,1.76 q 0.24,0.24 0.24,0.64 v 1.4 l -11.92,18.84 h 11.92 v 5.44 h -16.4 q -0.36,0 -0.64,-0.28 l -1.76,-1.76 q -0.24,-0.24 -0.24,-0.64 v -1.64 l 11.72,-18.6 h -11.6 v -5.44 z"
       id="path865" /><path
       d="m 229.3325,32.880002 -1.96,5.52 h -5.76 l 9.76,-27.72 q 0.2,-0.64 0.84,-0.64 h 4.76 q 0.28,0 0.52,0.16 0.24,0.16 0.32,0.44 l 9.76,27.76 h -5.76 l -1.96,-5.52 z m 1.92,-5.44 h 6.68 l -3.36,-9.56 z"
       style="fill:#95c230;fill-opacity:1"
       id="path867" /><path
       d="m 257.04,38.400002 h -5.44 v -28.36 h 5.44 z"
       style="fill:#95c230;fill-opacity:1"
       id="path869" /></g></svg>
