<?xml version="1.0" encoding="UTF-8" standalone="no"?>
<svg
   xmlns:dc="http://purl.org/dc/elements/1.1/"
   xmlns:cc="http://creativecommons.org/ns#"
   xmlns:rdf="http://www.w3.org/1999/02/22-rdf-syntax-ns#"
   xmlns:svg="http://www.w3.org/2000/svg"
   xmlns="http://www.w3.org/2000/svg"
   xmlns:sodipodi="http://sodipodi.sourceforge.net/DTD/sodipodi-0.dtd"
   xmlns:inkscape="http://www.inkscape.org/namespaces/inkscape"
   version="1.1"
   id="Layer_1"
   x="0px"
   y="0px"
   viewBox="0 0 708.03553 334.40659"
   xml:space="preserve"
   sodipodi:docname="logo_text_round.svg"
   width="708.03552"
   height="334.40659"
   inkscape:version="1.0.2 (e86c8708, 2021-01-15)"><metadata
   id="metadata906"><rdf:RDF><cc:Work
       rdf:about=""><dc:format>image/svg+xml</dc:format><dc:type
         rdf:resource="http://purl.org/dc/dcmitype/StillImage" /><dc:title /></cc:Work></rdf:RDF></metadata><defs
   id="defs904">
	
	
	
	
	
	
	
	
	
	
	
	
	
	
	
	
	
	
	
	
	
	
	
	
	
	
	
	
	
	
	
	
</defs><sodipodi:namedview
   pagecolor="#ffffff"
   bordercolor="#666666"
   borderopacity="1"
   objecttolerance="10"
   gridtolerance="10"
   guidetolerance="10"
   inkscape:pageopacity="0"
   inkscape:pageshadow="2"
   inkscape:window-width="1440"
   inkscape:window-height="855"
   id="namedview902"
   showgrid="false"
   fit-margin-top="10"
   fit-margin-left="10"
   fit-margin-right="10"
   fit-margin-bottom="10"
   inkscape:zoom="0.94610887"
   inkscape:cx="478.92202"
   inkscape:cy="126.8636"
   inkscape:window-x="0"
   inkscape:window-y="23"
   inkscape:window-maximized="0"
   inkscape:current-layer="Layer_1"
   inkscape:document-rotation="0"
   inkscape:snap-global="true"
   showguides="true"
   inkscape:guide-bbox="true"
   inkscape:snap-bbox="true"
   inkscape:bbox-paths="true"
   inkscape:bbox-nodes="true"
   inkscape:snap-bbox-edge-midpoints="true"
   inkscape:snap-bbox-midpoints="true"><inkscape:grid
     type="xygrid"
     id="grid849"
     originx="-27.466698"
     originy="-58.919843" /><sodipodi:guide
     position="167.20329,393.32645"
     orientation="1,0"
     id="guide851" /></sodipodi:namedview>
<style
   type="text/css"
   id="style833">
	.st0{fill:#A77E6D;}
</style>

<g
   id="g859"
   transform="translate(-15.596698,-58.919841)"><path
     class="st0"
     d="m 283.51,321.94 c 0,0.22 0.04,0.46 0.08,0.69 0.24,-0.02 0.46,-0.02 0.69,-0.04 l 0.81,0.16 c -0.04,-0.24 -0.08,-0.5 -0.1,-0.73 -0.48,-0.02 -0.97,-0.04 -1.48,-0.08 z"
     id="path883"
     style="fill:#000000;fill-opacity:1;stroke:none;stroke-opacity:1" /><path
     class="st0"
     d="m 206.4,220.37 c 0,10.58 -1.54,21.19 -8.32,28.67 -5.94,6.53 -18.8,13.49 -35.41,13.5 -16.87,0 -37.55,-7.25 -58.49,-29.47 l 1.07,-1.02 c 20.74,21.98 40.99,29 57.42,29 16.18,0.01 28.72,-6.84 34.31,-13 6.38,-7 7.94,-17.22 7.94,-27.68 0,-7.99 -0.9,-16.08 -1.16,-22.92 -0.03,-0.68 -0.04,-1.39 -0.04,-2.13 0,-2.19 0.1,-4.72 0.23,-7.5 0.07,-1.47 0.15,-3.02 0.23,-4.64 v -0.01 c 0.3,-5.67 0.63,-12.13 0.63,-18.83 0.01,-8.73 -0.56,-17.88 -2.45,-26.29 -0.01,-0.04 -0.03,-0.1 -0.04,-0.18 -0.03,-0.14 -0.07,-0.27 -0.1,-0.41 h 1.52 c 1.97,8.66 2.54,18 2.54,26.88 0,5.89 -0.24,11.58 -0.52,16.71 -0.04,0.82 -0.08,1.6 -0.11,2.39 -0.24,4.59 -0.46,8.65 -0.46,11.88 0,0.73 0.01,1.43 0.04,2.08 0.26,6.76 1.17,14.87 1.17,22.97 z"
     id="path885"
     style="fill:#000000;fill-opacity:1;stroke:none;stroke-opacity:1" /><path
     class="st0"
     d="m 156.81,189.75 c 0.21,0.34 0.39,0.81 0.61,1.51 0.65,2.09 1.48,6.03 1.48,10.66 0,3.65 -0.52,7.72 -2.08,11.6 -1.56,3.88 -4.19,7.56 -8.35,10.37 -9.5,6.39 -22.96,7.53 -31.79,7.54 -5.36,0 -9.01,-0.44 -9.03,-0.44 l 0.18,-1.47 c 0,0 0.22,0.03 0.63,0.07 1.25,0.12 4.27,0.36 8.22,0.36 8.7,0.01 21.96,-1.2 30.96,-7.29 3.9,-2.63 6.33,-6.04 7.8,-9.69 1.47,-3.65 1.98,-7.54 1.98,-11.05 0,-2.96 -0.36,-5.65 -0.78,-7.69 -0.21,-1.02 -0.44,-1.88 -0.64,-2.52 -0.19,-0.63 -0.39,-1.08 -0.45,-1.15 z"
     id="path887"
     style="fill:#000000;fill-opacity:1;stroke:none;stroke-opacity:1" /><path
     class="st0"
     d="m 288.24,302.19 c -1.76,4.65 -3.46,9.38 -3.46,15.77 0,1.29 0.06,2.63 0.22,4.06 -0.48,-0.02 -0.97,-0.04 -1.48,-0.08 -0.16,-1.41 -0.22,-2.71 -0.22,-3.98 0,-6.67 1.8,-11.64 3.56,-16.31 1.76,-4.67 3.46,-9.04 3.46,-14.69 0,-1.27 -0.08,-2.61 -0.28,-4.04 -0.65,-4.75 -1.52,-7.3 -2.55,-8.79 -0.75,-1.11 -1.58,-1.7 -2.65,-2.28 -1.56,-0.87 -3.64,-1.64 -5.96,-3.9 -1.72,-1.7 -3.58,-4.2 -5.6,-8.17 -0.22,-0.46 -0.44,-0.93 -0.67,-1.43 -0.46,-0.97 -0.91,-2.02 -1.39,-3.15 -3.05,-7.34 -7.22,-13.42 -11.68,-19.16 v -0.02 c -0.46,-0.57 -0.91,-1.15 -1.37,-1.72 -2.26,-2.83 -4.53,-5.58 -6.75,-8.39 -7.14,-9.03 -13.64,-18.63 -15.7,-32.46 -2.04,-13.64 -5.36,-33.81 -10.23,-52.33 -1.88,-7.22 -4,-14.19 -6.35,-20.43 l 0.34,-0.36 c 0.28,-0.28 0.53,-0.55 0.79,-0.81 2.47,6.47 4.69,13.7 6.67,21.22 4.87,18.63 8.21,38.83 10.25,52.49 2.02,13.48 8.29,22.76 15.38,31.75 1.88,2.38 3.8,4.71 5.72,7.11 0.48,0.57 0.95,1.17 1.4,1.76 4.85,6.16 9.52,12.71 12.89,20.78 2.45,5.92 4.65,9.36 6.61,11.5 2.93,3.23 5.25,3.56 7.48,5.11 1.11,0.75 2.12,1.84 2.91,3.62 0.79,1.76 1.43,4.22 1.92,7.84 0.2,1.5 0.3,2.91 0.3,4.25 0,5.98 -1.8,10.59 -3.56,15.24 z"
     id="path889"
     style="fill:#000000;fill-opacity:1;stroke:none;stroke-opacity:1" /><path
     class="st0"
     d="m 274.02,259.04 c -3.39,3.42 -26.86,26.41 -61.73,26.43 -2.79,0 -5.65,-0.15 -8.59,-0.46 -26.19,-2.84 -43.23,-17.63 -49.02,-23.15 l 1.02,-1.07 c 5.69,5.43 22.46,19.97 48.16,22.75 2.88,0.31 5.69,0.46 8.43,0.46 34.19,0.01 57.4,-22.66 60.68,-25.99 z"
     id="path891"
     style="fill:#000000;fill-opacity:1;stroke:none;stroke-opacity:1" /><path
     class="st0"
     d="m 259.7,233.87 c -0.06,0.73 -0.1,1.46 -0.16,2.18 v 0.02 c -1.15,13.78 -4.67,26.84 -10.11,38.76 v 0.02 c -0.34,0.73 -0.67,1.45 -1.01,2.18 -7.24,15.02 -17.6,28.12 -30.17,38.28 -0.5,0.4 -0.99,0.79 -1.48,1.19 -0.61,-0.14 -1.25,-0.3 -1.88,-0.46 0.49,-0.36 0.99,-0.75 1.48,-1.15 12.33,-9.74 22.58,-22.33 29.87,-36.85 v -0.02 c 0.36,-0.69 0.71,-1.41 1.03,-2.12 6.06,-12.67 9.88,-26.72 10.91,-41.57 0.06,-0.73 0.1,-1.48 0.12,-2.22 0.47,0.57 0.94,1.16 1.4,1.76 z"
     id="path893"
     style="fill:#000000;fill-opacity:1;stroke:none;stroke-opacity:1" /><path
     class="st0"
     d="m 284.99,322.03 c -0.48,-0.02 -0.97,-0.04 -1.48,-0.08 -3.78,-0.22 -8.14,-0.55 -10.73,-0.55 -14.55,0 -33.31,-1.29 -54.53,-6.1 -0.61,-0.14 -1.25,-0.28 -1.88,-0.42 -9.9,-2.34 -20.31,-5.42 -31.06,-9.52 -46.41,-17.63 -76.5,-45.23 -91.74,-61.38 0.24,-0.26 0.48,-0.54 0.71,-0.79 3.34,-3.62 6.89,-6.83 10.37,-9.62 0.4,-0.32 0.77,-0.61 1.17,-0.91 0.73,-0.57 1.45,-1.11 2.14,-1.62 0.61,-0.48 1.23,-0.91 1.82,-1.35 3.92,-2.79 7.5,-4.99 10.29,-6.63 1.39,-0.83 2.51,-2.32 3.54,-4.29 1.01,-1.98 1.9,-4.47 2.71,-7.4 1.62,-5.84 2.91,-13.38 4,-21.73 2.22,-16.71 3.7,-36.7 5.62,-52.75 0.2,-1.72 0.42,-3.39 0.63,-5.01 -0.01,-0.01 -0.02,-0.02 -0.04,-0.02 3.77,-20.5 20.79,-35.72 40.52,-36.88 0.81,-0.05 1.63,-0.07 2.44,-0.07 16.62,0 32.3,10 39.79,25.81 l 1.23,-0.58 c -7.71,-16.26 -23.84,-26.58 -41.02,-26.58 -0.84,0 -1.67,0.02 -2.52,0.07 -20.02,1.18 -37.26,16.31 -41.56,36.83 -0.04,-0.07 -0.07,-0.13 -0.11,-0.2 -0.73,5.17 -1.37,10.91 -2,16.96 -1.56,15.22 -2.99,32.28 -5.01,46.32 -1.37,9.34 -2.99,17.36 -5.09,22.52 -1.19,2.95 -2.55,4.95 -3.9,5.72 -6.35,3.76 -17.02,10.53 -26.13,20.41 -0.22,0.24 -1.72,1.83 -1.72,1.83 0.06,0.06 0.98,0.94 1.1,1.08 15.34,16.27 45.6,43.96 92.2,61.66 10.39,3.96 20.49,6.99 30.11,9.28 0.63,0.16 1.27,0.32 1.88,0.46 21.83,5.05 41.13,6.39 56.01,6.39 3.92,0 7.52,-0.08 10.81,-0.24 0.24,-0.02 0.46,-0.02 0.69,-0.04 l 0.81,0.16 c -0.01,-0.25 -0.05,-0.5 -0.07,-0.74 z"
     id="path895"
     style="fill:#000000;fill-opacity:1;stroke:none;stroke-opacity:1" /><path
     class="st0"
     d="m 205.78,181.05 c -0.04,0.82 -0.08,1.6 -0.11,2.39 -0.39,1.14 -0.97,2.65 -1.71,4.38 -0.87,2.01 -2,4.32 -3.38,6.63 -2,3.32 -4.55,6.65 -7.73,9.18 -3.18,2.53 -7.03,4.24 -11.53,4.24 -4.77,0 -10.21,-1.93 -16.33,-6.66 -14.08,-10.9 -17.66,-29.63 -17.67,-46.06 0,-2.87 2.02,-15.34 3.35,-23.24 0.88,-5.23 3.98,-9.87 8.58,-12.51 4.81,-2.77 10.2,-4.23 15.6,-4.23 3.37,0 6.74,0.57 9.98,1.74 7.12,2.57 11.76,7.41 14.64,11.77 2.68,4.05 3.87,7.69 4.19,8.78 0.04,0.08 0.05,0.15 0.07,0.2 l -1.35,0.38 c -0.01,-0.04 -0.03,-0.1 -0.04,-0.18 -0.31,-0.99 -1.45,-4.51 -4.05,-8.41 -2.77,-4.19 -7.16,-8.78 -13.93,-11.23 -3.09,-1.1 -6.29,-1.64 -9.5,-1.64 -4.49,0 -8.98,1.06 -13.09,3.08 -5.1,2.51 -8.59,7.43 -9.54,13.03 -1.33,7.84 -3.4,19.43 -3.4,22.46 -0.01,16.24 3.59,34.47 17.09,44.87 5.95,4.61 11.07,6.36 15.42,6.36 4.11,0 7.61,-1.55 10.6,-3.93 4.49,-3.55 7.78,-8.97 9.91,-13.5 1.07,-2.27 1.85,-4.31 2.37,-5.78 v -0.01 c 0.26,-0.73 0.45,-1.32 0.57,-1.73 0.14,-0.41 0.19,-0.63 0.19,-0.63 z"
     id="path897"
     style="fill:#000000;fill-opacity:1;stroke:none;stroke-opacity:1" /></g><circle
   style="fill:none;stroke:#000000;stroke-width:2.26978;stroke-miterlimit:4;stroke-dasharray:none;stroke-opacity:1"
   id="path849"
   cx="167.20329"
   cy="167.20329"
   r="156.06841" /><g
   aria-label="AIDOS
LAB"
   id="text852"
   style="font-size:133.333px;line-height:0.9;font-family:'Fira Sans';-inkscape-font-specification:'Fira Sans'"><path
     d="m 409.4946,150.50821 h 8.39997 L 387.49465,59.175109 h -9.99997 l -30.53326,91.333101 h 8.13331 l 7.99998,-24.93327 h 38.39991 z M 365.22804,118.77496 382.428,65.708426 399.36129,118.77496 Z"
     style="font-style:normal;font-variant:normal;font-weight:300;font-stretch:normal;font-size:133.333px;font-family:'Fira Sans';-inkscape-font-specification:'Fira Sans Light'"
     id="path870" /><path
     d="m 442.88826,59.175109 h -7.99998 v 91.333101 h 7.99998 z"
     style="font-style:normal;font-variant:normal;font-weight:300;font-stretch:normal;font-size:133.333px;font-family:'Fira Sans';-inkscape-font-specification:'Fira Sans Light'"
     id="path872" /><path
     d="m 490.52148,59.175109 h -18.13329 v 91.333101 h 19.59995 c 18.79995,0 41.06656,-8.53331 41.06656,-46.39988 0,-37.599906 -21.33328,-44.933221 -42.53322,-44.933221 z m 1.06666,6.66665 c 15.99996,0 33.06658,4.799988 33.06658,38.266571 0,32.79991 -16.39996,39.73323 -32.13325,39.73323 h -12.1333 V 65.841759 Z"
     style="font-style:normal;font-variant:normal;font-weight:300;font-stretch:normal;font-size:133.333px;font-family:'Fira Sans';-inkscape-font-specification:'Fira Sans Light'"
     id="path874" /><path
     d="m 587.9629,57.708446 c -21.86662,0 -37.19991,17.199956 -37.19991,47.333214 0,30.39992 15.19996,46.93321 37.19991,46.93321 22.6666,0 37.33323,-17.06662 37.33323,-47.06654 0,-30.799926 -15.06663,-47.199884 -37.33323,-47.199884 z m 0,6.799983 c 17.59995,0 28.93325,12.666634 28.93325,40.399901 0,27.46659 -11.06663,40.26656 -28.93325,40.26656 -16.93329,0 -28.79993,-12.79997 -28.79993,-40.13323 0,-27.733264 11.59997,-40.533231 28.79993,-40.533231 z"
     style="font-style:normal;font-variant:normal;font-weight:300;font-stretch:normal;font-size:133.333px;font-family:'Fira Sans';-inkscape-font-specification:'Fira Sans Light'"
     id="path876" /><path
     d="m 668.96893,57.708446 c -15.99996,0 -26.79993,9.466643 -26.79993,22.399943 0,13.199966 7.86664,19.466617 25.99993,25.066601 16.26662,5.06666 21.73328,9.59998 21.73328,20.66662 0,12.26663 -9.46665,19.33328 -22.26661,19.33328 -10.66664,0 -17.73329,-3.86666 -24.39994,-9.73331 l -4.66665,5.06665 c 7.46664,7.06665 16.66662,11.46664 29.19992,11.46664 18.39995,0 30.26659,-10.79997 30.26659,-26.39993 0,-16.13329 -9.99997,-21.99994 -26.39993,-27.066598 -16.39996,-4.933321 -21.33328,-9.199976 -21.33328,-18.533286 0,-9.599975 7.73331,-15.466627 18.93328,-15.466627 8.39998,0 14.5333,2.533327 21.33328,8.399979 l 4.66666,-5.066654 C 688.03555,61.44177 680.83556,57.708446 668.96893,57.708446 Z"
     style="font-style:normal;font-variant:normal;font-weight:300;font-stretch:normal;font-size:133.333px;font-family:'Fira Sans';-inkscape-font-specification:'Fira Sans Light'"
     id="path878" /><path
     d="m 365.36138,179.5748 h -4.66666 v 90.9331 h 42.26656 l 0.8,-4.39999 h -38.3999 z"
     style="font-style:normal;font-variant:normal;font-weight:200;font-stretch:normal;font-size:133.333px;font-family:'Fira Sans';-inkscape-font-specification:'Fira Sans Ultra-Light'"
     id="path880" /><path
     d="m 472.94652,270.5079 h 4.93332 l -31.19992,-90.9331 h -5.73332 l -31.19992,90.9331 h 4.66665 l 8.79998,-26.2666 h 40.93323 z m -48.26654,-30.53326 19.06661,-56.66652 18.93329,56.66652 z"
     style="font-style:normal;font-variant:normal;font-weight:200;font-stretch:normal;font-size:133.333px;font-family:'Fira Sans';-inkscape-font-specification:'Fira Sans Ultra-Light'"
     id="path882" /><path
     d="m 530.8922,222.24136 c 9.99998,-1.73333 16.39996,-8.13332 16.39996,-20.13329 0,-15.19996 -11.46663,-22.53327 -31.06658,-22.53327 h -19.33329 v 90.9331 h 24.53327 c 19.19995,0 30.39992,-8.79998 30.39992,-24.79994 0,-15.86662 -9.59997,-22.79994 -20.93328,-23.4666 z m -14.13329,-38.39991 c 16.53329,0 25.73326,5.59999 25.73326,18.39996 0,11.3333 -7.73331,18.26662 -19.33328,18.26662 h -21.59994 v -36.66658 z m 4.79999,82.39979 h -19.99995 v -41.73322 h 22.26661 c 13.46663,0 23.19994,6.66665 23.19994,21.19994 0,13.86663 -9.59998,20.53328 -25.4666,20.53328 z"
     style="font-style:normal;font-variant:normal;font-weight:200;font-stretch:normal;font-size:133.333px;font-family:'Fira Sans';-inkscape-font-specification:'Fira Sans Ultra-Light'"
     id="path884" /></g></svg>
