<svg width="702" height="313" viewBox="0 0 702 313" fill="none" xmlns="http://www.w3.org/2000/svg">
<path d="M643.236 155.098C643.182 157.696 642.965 160.509 642.743 163.098C642.437 166.661 641.735 169.2 641.055 172.709C640.566 175.23 639.966 177.731 639.188 180.176C638.306 182.947 637.198 185.64 635.974 188.274C634.893 190.601 633.721 192.885 632.448 195.11C631.231 197.239 629.921 199.314 628.508 201.315C626.529 204.12 624.348 206.778 622.004 209.277C619.765 211.664 617.375 213.907 614.858 215.991C612.888 217.622 610.84 219.154 608.765 220.645C606.141 222.53 603.466 224.353 600.641 225.91C598.251 227.226 595.759 228.35 593.194 229.267C589.781 230.642 586.317 231.89 582.813 233.005C579.062 234.2 575.257 235.245 571.379 235.905C567.676 236.535 563.922 236.81 560.171 236.973C556.412 237.136 552.649 237.187 548.888 237.125C545.749 237.297 542.593 237.144 539.485 236.668C537.593 236.378 535.721 235.969 533.843 235.6C529.024 234.651 524.15 233.955 519.4 232.7C516.237 231.865 513.143 230.784 510.072 229.648C507.141 228.564 504.228 227.428 501.347 226.215C498.609 225.063 495.9 223.842 493.223 222.553L484.497 217.899L476.222 213.168C473.742 211.628 471.284 210.051 468.85 208.438C466.329 206.767 463.832 205.056 461.403 203.249C459.037 201.49 456.738 199.64 454.407 197.832C452.165 196.092 449.892 194.389 447.713 192.568C445.888 191.044 444.131 189.439 442.372 187.837C440.111 185.778 437.847 183.723 435.526 181.733C433.379 179.892 431.184 178.107 429.057 176.24C426.79 174.249 424.602 172.165 422.513 169.984C420.497 167.878 418.299 165.876 416.475 163.598L408.925 155.61C407.237 157.133 405.578 158.688 403.947 160.274C402.566 161.618 401.205 162.985 399.857 164.363C396.641 167.653 393.495 171.012 390.379 174.399C387.786 177.216 385.214 180.052 382.662 182.907L386.546 186.534C389.093 188.642 391.645 190.745 394.202 192.841C397.706 195.713 401.22 198.574 404.777 201.379C409.285 204.932 413.864 208.394 418.567 211.676C422.799 214.628 427.131 217.434 431.553 220.085C436.57 223.329 441.692 226.406 446.908 229.309C451.727 231.991 456.627 234.525 461.618 236.86C473.897 242.606 486.704 247.14 499.703 250.92C505.375 252.57 511.101 254.08 516.94 254.937C522.989 255.824 529.115 256.004 535.225 256.118C541.207 256.229 547.2 256.279 553.161 255.763C558.024 255.343 562.855 254.547 567.603 253.401C572.707 252.168 577.71 250.533 582.627 248.676C587.273 246.921 591.851 244.965 596.253 242.651C600.533 240.401 604.644 237.812 608.482 234.855C612.01 232.136 615.304 229.11 618.382 225.877C621.422 222.684 624.252 219.291 627 215.836C629.445 212.763 631.832 209.631 633.872 206.267C635.985 202.783 637.713 199.069 639.216 195.272C641.171 190.333 642.752 185.239 643.888 180.043C644.89 175.457 645.399 170.785 645.7 166.098C645.7 163.697 645.801 161.504 645.7 159.098C645.546 155.41 645.7 156.098 645.207 152.098C645.084 151.098 643.729 145.098 643.729 143.598L643.236 155.098ZM323.575 126.315L329.547 120.422L334.671 115.49L340.545 109.068L347.562 102.183L351.825 97.5632L342.722 89.0323L337.335 83.7384C335.11 81.7837 332.893 79.8197 330.684 77.8468C328.148 75.5818 325.623 73.3048 323.108 71.016C319.187 67.6082 315.201 64.2773 311.154 61.0259C308.94 59.248 306.708 57.4935 304.419 55.8174C302.197 54.1905 299.923 52.6385 297.684 51.0358C295.07 49.1642 292.503 47.2234 289.855 45.4004C287.517 43.7904 285.118 42.2736 282.7 40.7896C280.16 39.2304 277.598 37.7069 275.039 36.1788C272.427 34.6184 269.817 33.053 267.21 31.4826C264.77 30.143 262.329 28.8053 259.886 27.4694C257.058 25.9224 254.226 24.3765 251.3 23.0294C248.803 21.8802 246.244 20.8782 243.723 19.7848C241.274 18.7222 238.861 17.5734 236.399 16.5401C233.593 15.3624 230.726 14.3359 227.813 13.4663C224.037 12.2313 220.248 11.0358 216.448 9.88008C211.85 8.48179 207.233 7.141 202.558 6.03774C197.995 4.96099 193.382 4.11171 188.752 3.39079C185.394 2.86798 182.026 2.41247 178.65 2.02463C175.453 1.78807 172.254 1.58882 169.053 1.42694C165.127 1.2284 161.198 1.08606 157.268 1C153.362 1.12117 149.46 1.34897 145.566 1.68308C141.768 2.00903 137.978 2.43616 134.201 2.96387L121.827 5.09849C118.37 5.77369 114.943 6.6001 111.556 7.57467C107.097 8.85793 102.711 10.3982 98.4238 12.1855L85.7122 17.7355L74.2633 23.7979C71.1723 25.7232 68.1398 27.7453 65.1716 29.8602C61.5657 32.4296 58.0548 35.1359 54.6487 37.9718C51.6441 40.6677 48.6968 43.4294 45.8095 46.2542C43.0237 48.9799 40.292 51.7663 37.728 54.7074C33.7948 59.219 30.2663 64.0838 27.0368 69.1375C23.9517 73.9652 21.1367 78.968 18.5343 84.0799C15.8885 89.2772 13.4601 94.592 11.3788 100.047C9.81401 104.148 8.44592 108.327 7.31058 112.571C5.97807 117.552 4.96763 122.616 4.05769 127.694C2.9586 133.827 2.00403 139.992 1.451 146.201C0.981209 151.475 0.802319 156.792 1.28808 162.064C1.67793 166.296 2.49336 170.475 3.40602 174.623C4.41887 179.226 5.55321 183.802 6.8273 188.338C8.44169 194.086 10.2806 199.769 12.3665 205.359C14.1752 210.205 16.1724 214.987 18.5574 219.57C21.2812 224.804 24.4993 229.757 27.8437 234.607C31.1037 239.335 34.5012 243.988 38.4333 248.157C41.8363 251.765 45.6146 254.983 49.3488 258.237C52.9532 261.377 56.5326 264.564 60.4272 267.325C63.9632 269.832 67.7364 271.972 71.5056 274.1C76.3244 276.822 81.1545 279.536 86.1682 281.867C90.5621 283.91 95.0886 285.655 99.6904 287.155C105.663 289.102 111.765 290.638 117.937 291.782C121.55 292.451 125.19 292.987 128.853 293.269C133.187 293.603 137.539 293.58 141.886 293.599C147.318 293.622 152.753 293.711 158.178 293.434C163.699 293.152 169.201 292.492 174.632 291.451C181.69 290.099 188.612 288.11 195.486 285.998C201.769 284.068 208.032 282.029 214.059 279.388C218.853 277.287 223.48 274.812 228.069 272.283C231.787 270.234 235.484 268.148 239.148 266.003C243.901 263.222 248.6 260.342 253.159 257.245C259.471 252.958 265.511 248.257 271.243 243.2C276.433 238.62 281.367 233.752 286.394 228.989C291.055 224.572 295.798 220.244 300.405 215.769C306.786 209.571 312.901 203.094 318.815 196.435C324.819 189.674 330.615 182.726 336.41 175.78C345.644 164.711 354.881 153.643 364.106 142.566C374.412 130.189 384.712 117.792 395.712 106.046C405.316 95.7906 415.442 86.0456 425.851 76.6328C433.466 69.7476 441.251 63.025 449.637 57.1339C458.965 50.5816 468.979 45.098 479.126 39.9484C488.597 35.1414 498.233 30.6013 508.288 27.2246C519.022 23.6196 530.16 21.3667 541.36 19.7886C546.654 19.0427 551.982 18.4449 557.326 18.4666C564.827 18.4972 572.267 19.7464 579.646 21.1105C590.52 23.1207 601.403 25.404 611.741 29.3728C620.502 32.7366 628.79 37.2831 636.667 42.4271C645.65 48.2937 654.154 54.9742 661.593 62.7523C667.473 68.8998 672.665 75.709 677.233 82.9121C681.576 89.7582 685.36 96.9633 688.638 104.394C691.664 111.256 694.262 118.317 696.295 125.545C699.019 135.233 700.263 146.447 700.912 156.5V144.5L700.677 136.072L699.511 128.276L696.86 115.91C696.098 112.941 695.231 110 694.263 107.093C692.977 103.232 691.512 99.4346 689.916 95.6948C688.654 92.7363 687.311 89.8136 685.888 86.9313C684.895 84.6939 683.798 82.5042 682.601 80.372C680.877 77.2991 678.948 74.3499 677.036 71.3934C675.334 68.762 673.642 66.1205 671.788 63.5975C670.42 61.7371 668.966 59.944 667.494 58.1673C664.562 54.6278 661.558 51.15 658.483 47.737C656.18 45.5172 653.829 43.348 651.433 41.2315C648.296 38.4606 645.08 35.7789 641.733 33.2744C638.624 30.9484 635.403 28.7765 632.085 26.7689L622.703 21.0162C620.358 19.8058 617.989 18.6406 615.6 17.5214C613.323 16.4547 611.027 15.4298 608.709 14.4569C606.12 13.3698 603.504 12.3479 600.864 11.3923C598.485 10.5843 596.1 9.79572 593.708 9.02668C590.286 7.92619 586.85 6.8653 583.372 5.96211C579.648 4.99497 575.878 4.2094 572.081 3.59649C568.654 3.04322 565.205 2.63058 561.745 2.35991L549.924 1.44591C546.855 1.22587 543.777 1.13615 540.701 1.17708C537.923 1.21412 535.146 1.35755 532.379 1.60719C528.645 1.90388 524.917 2.26237 521.194 2.68248C517.955 3.04807 514.722 3.46032 511.494 3.91906C508.352 4.594 505.206 5.25709 502.059 5.90834C498.013 6.74538 493.961 7.56362 489.973 8.65032C487.414 9.34769 484.885 10.1551 482.393 11.0697L473.064 14.188L465.484 17.2526C461.994 18.7916 458.514 20.3508 455.042 21.9301C450.519 23.9871 446.009 26.0798 441.631 28.4356C438.741 29.9903 435.911 31.6587 433.15 33.4357L425.039 38.382C423.187 39.4175 421.366 40.5114 419.58 41.6617C417.776 42.8236 416.008 44.0431 414.279 45.3176C412.195 46.745 410.128 48.1968 408.077 49.6725C403.595 52.8979 399.194 56.2373 394.825 59.6189C393.154 60.913 391.487 62.2134 389.843 63.5437C386.842 65.9725 383.92 68.4998 380.991 71.017C378.312 73.319 375.626 75.613 372.933 77.8988C370.016 80.7149 367.047 83.4755 364.028 86.1785C361.683 88.2785 359.306 90.3444 357.031 92.5227C355.32 94.161 353.669 95.8612 352.014 97.5579C347.123 102.574 342.205 107.562 337.26 112.523C334.67 115.429 331.963 118.228 329.149 120.91C327.656 122.334 326.131 123.726 324.697 125.211C322.968 127.002 321.376 128.922 319.716 130.778C316.151 134.763 312.277 138.447 308.477 142.201C303.661 146.959 298.959 151.835 294.377 156.825L287.698 163.33C285.961 165.063 284.211 166.784 282.45 168.492C278.935 171.901 275.372 175.261 271.743 178.546C267.235 182.625 262.626 186.588 257.961 190.481C255.817 192.27 253.661 194.045 251.494 195.804L240.575 204.03L228.913 211.718C225.479 214.094 221.921 216.284 218.258 218.278C215.167 219.96 212.002 221.501 208.823 223.009C204.802 224.916 200.755 226.77 196.632 228.439C194.912 229.135 193.18 229.798 191.437 230.428C186.513 232.22 181.483 233.711 176.383 234.891C170.623 236.223 164.775 237.158 158.89 237.686L145.692 238.17C141.464 237.925 137.25 237.44 133.076 236.719C129.617 236.121 126.187 235.362 122.793 234.461C117.756 233.124 112.782 231.468 108.11 229.138C104.945 227.56 101.934 225.681 98.9924 223.708C95.601 221.433 92.2938 219.029 89.08 216.503L81.924 209.621C79.6708 207.397 77.5784 205.005 75.6692 202.471C72.9965 198.924 70.6834 195.098 68.7783 191.073C66.9546 187.702 65.3763 184.195 64.0606 180.589C62.9133 177.444 61.9658 174.226 61.1982 170.965C60.2114 166.772 59.522 162.51 59.0779 158.223C58.6198 153.8 58.4226 149.349 58.4875 144.902C59.3518 139.858 60.497 134.863 61.9157 129.95C63.4704 124.566 65.3566 119.272 67.7381 114.208C70.3458 108.663 73.5437 103.406 77.2384 98.5381C82.0262 92.2301 87.6495 86.5772 93.8984 81.7605C102.911 74.8134 113.179 69.6375 123.884 65.9036C135.029 62.0163 146.708 59.6615 158.483 59.145C172.96 58.5098 187.45 60.6475 201.539 64.084C219.588 68.486 237.145 75.0391 253.553 83.8447C264.668 89.8098 275.226 96.7874 285.545 104.077C291.162 108.044 296.715 112.109 302.089 116.409C307.989 121.13 313.669 126.133 319.105 131.396L323.575 126.315Z" fill="#F5F5F5" stroke="black" stroke-width="1.00157"/>
<path d="M356.283 209.855L352.465 214.505L356.325 209.812L361.65 203.944L371.377 194.418C372.993 192.656 374.642 190.926 376.325 189.229C378.338 187.199 380.399 185.216 382.504 183.283C384.155 184.563 385.781 185.878 387.38 187.225C390.022 189.452 392.59 191.769 395.258 193.964C397.764 196.027 400.356 197.979 402.946 199.933C406.175 202.369 409.402 204.808 412.627 207.249C417.038 210.213 421.436 213.198 425.82 216.203C429.703 218.864 433.577 221.543 437.589 224C442.475 226.993 447.552 229.648 452.585 232.376C457.554 235.068 462.494 237.838 467.677 240.077C471.316 241.649 475.06 242.953 478.782 244.313C483.573 246.065 488.335 247.914 493.208 249.415C496.836 250.533 500.52 251.457 504.218 252.303C509.061 253.412 513.933 254.391 518.835 255.191C524.269 256.079 529.751 256.749 535.255 256.828C539.372 256.887 543.485 256.614 547.594 256.347C551.27 256.107 554.951 255.87 558.604 255.384C562.156 254.911 565.678 254.203 569.139 253.266C572.823 252.34 576.466 251.248 580.054 249.993C583.438 248.809 586.774 247.48 590.02 245.95C593.578 244.272 597.023 242.353 600.365 240.27C603.141 238.54 605.848 236.696 608.433 234.686C611.106 232.608 613.644 230.357 616.121 228.044C618.805 225.537 621.424 222.95 623.809 220.149C626.292 217.234 628.512 214.097 630.643 210.908C632.376 208.314 634.053 205.682 635.673 203.014C636.846 200.43 637.985 197.83 639.09 195.216C640.33 192.283 641.529 189.325 642.412 186.263C643.364 182.962 643.943 179.562 644.405 176.155C644.839 172.959 645.172 169.748 645.354 166.528C645.536 163.323 645.567 160.109 645.449 156.901C645.327 151.986 644.615 147.087 643.332 142.346C642.328 138.635 640.979 135.029 639.535 131.471C638.402 128.679 637.206 125.906 635.713 123.294C634.368 120.943 632.791 118.738 631.334 116.456C630.188 114.662 629.114 112.817 627.859 111.099C625.632 108.05 622.871 105.45 620.145 102.851C617.792 100.609 615.453 98.3533 613.125 96.0841C610.468 93.9729 607.706 91.9959 604.855 90.1627C600.57 87.4082 596.083 84.979 591.442 82.9021C587.444 81.3477 583.358 80.0289 579.21 78.9545C574.933 77.8467 570.59 76.9988 566.213 76.4168L542.236 75.8528L525.209 79.166C520.005 80.3245 514.873 81.8086 509.849 83.607C504.862 85.3926 499.985 87.4865 495.185 89.7398C490.502 91.9382 485.889 94.2896 481.355 96.789C477.342 99.3292 473.357 101.914 469.401 104.543C465.95 106.836 462.521 109.162 459.115 111.522C455.578 114.117 452.102 116.796 448.69 119.558C445.205 122.379 441.788 125.284 438.404 128.229C435.688 130.592 432.993 132.98 430.342 135.419C426.737 138.735 423.214 142.144 419.778 145.64C417.595 147.677 415.44 149.745 413.315 151.843C410.075 155.042 406.902 158.31 403.724 161.571C398.875 166.546 394.01 171.504 389.129 176.445C384.536 180.902 380.018 185.438 375.576 190.05C372.326 193.426 369.116 196.844 365.777 200.131C362.767 203.094 359.653 205.95 356.742 209.013C353.627 212.29 350.752 215.795 347.696 219.13C344.376 222.752 340.843 226.173 337.121 229.368L319.992 244.482C316.653 247.232 313.288 249.951 309.898 252.637C307.32 254.68 304.727 256.704 302.12 258.709C297.469 262.299 292.687 265.715 287.787 268.947C283.425 271.825 278.97 274.557 274.46 277.191C270.387 279.57 266.268 281.869 262.094 284.06C257.412 286.518 252.661 288.838 247.848 291.019C245.089 292.283 242.306 293.495 239.502 294.653C235.438 296.332 231.328 297.899 227.18 299.351L215.731 303.517C210.543 305.019 205.311 306.364 200.044 307.551C195.004 308.686 189.933 309.677 184.838 310.52L171.117 312.116L155.779 312.204L145.685 311.805C141.812 311.557 137.948 311.158 134.105 310.609C129.821 309.996 125.563 309.197 121.346 308.215C118.047 307.535 114.791 306.647 111.602 305.556C108.722 304.571 105.901 303.423 103.081 302.276C99.6288 300.872 96.1767 299.469 92.7244 298.066L80.8826 292.26C76.3033 289.888 71.8647 287.237 67.5987 284.326C64.736 282.373 61.9509 280.302 59.2526 278.121L51.0813 271.384C48.8115 269.394 46.5964 267.339 44.4393 265.224C41.973 262.805 39.5827 260.306 37.273 257.733L30.1504 249.224C28.5871 246.957 27.0575 244.667 25.5623 242.354C24.195 240.239 22.8563 238.104 21.5858 235.927C20.1079 233.395 18.7229 230.808 17.4346 228.171L14.638 221.612L10.9238 213.457L8.73896 206.543L5.2869 193.601L3.67011 184.338C3.12487 180.97 2.68759 177.585 2.3592 174.188C2.10402 171.549 1.91461 168.903 1.79115 166.255L4.76254 179.773L7.73394 192.138C8.36235 194.284 9.04727 196.412 9.78769 198.52C10.9961 201.961 12.3524 205.349 13.8515 208.67C15.0099 211.757 16.3081 214.79 17.7405 217.756C19.7653 221.949 22.0585 226.008 24.6009 229.9L30.0631 237.567L36.865 246.211C40.6963 250.353 44.6998 254.33 48.8613 258.13C52.1187 261.104 55.4747 263.971 58.9825 266.636C62.0577 268.972 65.2476 271.152 68.5253 273.186C72.0593 275.379 75.6958 277.402 79.4176 279.248C83.3762 281.211 87.4313 282.974 91.563 284.527C95.7061 286.151 99.9208 287.587 104.19 288.829C108.604 290.113 113.077 291.19 117.589 292.056L131.759 293.522L153.158 294.304C159.456 294.063 165.739 293.41 171.954 292.349C181.726 290.682 191.315 288.011 200.679 284.723C205.033 283.194 209.341 281.531 213.595 279.737C219.675 277.062 225.628 274.091 231.428 270.84C235.841 268.365 240.165 265.729 244.441 263.018C249.43 259.856 254.36 256.59 259.093 253.046C264.476 249.015 269.594 244.631 274.612 240.14C278.705 236.476 282.734 232.738 286.757 228.995C291.079 224.973 295.395 220.944 299.577 216.773C303.466 212.895 307.238 208.897 310.951 204.846C314.05 201.466 317.108 198.049 320.109 194.58C324.301 189.733 328.38 184.787 332.543 179.914C334.721 177.366 336.922 174.838 339.098 172.289C342.738 168.023 346.308 163.695 349.894 159.383C353.231 155.37 356.582 151.37 359.919 147.357C363.637 142.885 367.336 138.396 371.1 133.963C374.487 129.974 377.925 126.03 381.414 122.133C385.042 118.122 388.673 114.113 392.306 110.107C397.262 104.645 402.226 99.185 407.44 93.9755C412.057 89.3626 416.865 84.9511 421.706 80.5812C426.028 76.6799 430.378 72.8101 434.815 69.0444C438.292 66.0942 441.823 63.2062 445.515 60.5385C449.508 57.653 453.679 55.0313 457.853 52.4237C463.005 49.2052 468.171 46.0034 473.469 43.0378C478.616 40.1565 483.887 37.4994 489.277 35.1186C495.068 32.5605 500.996 30.3222 507.013 28.3725C512.19 26.695 517.434 25.2307 522.725 23.9729C528.174 22.6774 533.675 21.6008 539.208 20.7465C543.481 19.9843 547.795 19.4618 552.125 19.1822C555.205 18.9832 558.297 18.9071 561.378 19.0844C566.045 19.3527 570.658 20.1994 575.259 21.0397C580.587 22.0131 585.919 22.9805 591.199 24.1952C597.207 25.5772 603.146 27.2798 608.939 29.4065C613.433 31.0566 617.836 32.9613 622.121 35.1087C626.507 36.9434 630.755 39.1145 634.819 41.5975C638.754 44.002 642.516 46.6989 646.063 49.6594C650.125 53.028 654.101 56.5034 657.985 60.0808C661.456 63.2768 664.862 66.5633 667.872 70.2073C670.639 73.5554 673.054 77.1841 675.433 80.8253C677.831 84.495 680.2 88.1888 682.315 92.0333C684.35 95.7335 686.145 99.565 687.84 103.438C689.871 108.078 691.761 112.786 693.365 117.595C694.604 121.311 695.672 125.085 696.564 128.902L699.181 142.174L700.912 154.5C701.066 159.7 701.173 165.07 700.745 170.254C700.528 172.879 700.236 175.498 699.868 178.105C699.271 182.341 698.474 186.546 697.546 190.72C696.804 194.056 695.978 197.373 695.069 200.666C694.081 204.311 692.927 207.911 691.611 211.448C690.359 214.814 688.961 218.123 687.482 221.394C685.828 225.054 684.072 228.668 682.219 232.229C680.69 235.025 679.037 237.75 677.264 240.394C675.09 243.639 672.739 246.757 670.452 249.921C668.825 252.173 667.228 254.45 665.498 256.621C663.262 259.427 660.81 262.048 658.273 264.577C655.295 267.547 652.198 270.393 649.036 273.162C644.878 276.801 640.603 280.31 636.082 283.473C630.241 287.561 624.014 291.054 617.659 294.256C613.383 296.411 609.041 298.438 604.602 300.223C597.763 302.974 590.704 305.144 583.547 306.871C579.483 307.851 575.386 308.69 571.265 309.383L551.964 311.215L529.36 310.901C521.072 310.148 512.82 308.995 504.641 307.447C495.805 305.774 487.05 303.639 478.476 300.904C473.258 299.239 468.108 297.352 463.046 295.251C457.704 292.818 452.42 290.252 447.203 287.556C441.797 284.763 436.462 281.831 431.205 278.762C426.779 275.75 422.358 272.732 417.942 269.707C414.102 267.077 410.266 264.443 406.433 261.803C400.382 257.045 394.428 252.158 388.578 247.147C383.514 242.809 378.528 238.38 373.54 233.952C370.552 231.299 367.562 228.647 364.505 226.077C362.216 224.153 359.888 222.275 357.666 220.273C355.771 218.566 353.954 216.771 352.223 214.894M311.893 125.406L319.034 131.571L311.834 125.346C306.844 121.29 301.788 117.319 296.667 113.434C291.036 109.162 285.328 104.994 279.553 100.924C271.617 95.3308 263.534 89.9105 254.944 85.4206C250.116 82.8974 245.143 80.6755 240.19 78.4172C235.086 76.0903 229.998 73.7218 224.787 71.6532C220.226 69.8426 215.576 68.2637 210.859 66.9244C206.625 65.59 202.331 64.4511 197.994 63.5125C192.501 62.3235 186.94 61.4563 181.352 60.8788C174.865 60.2084 168.338 59.9284 161.818 60.0408C155.113 60.2306 148.421 60.9114 141.812 62.0759C136.393 63.0308 131.03 64.3108 125.76 65.9069C121.565 67.5029 117.43 69.2604 113.367 71.1744C109.292 73.0934 105.283 75.174 101.505 77.639C98.6146 79.5247 95.8691 81.6295 93.1836 83.8044C90.3036 86.1368 87.489 88.5524 84.7445 91.0472L76.0103 101.223C73.0569 104.34 70.562 107.903 68.6334 111.758C67.8605 113.303 67.1787 114.893 66.5089 116.487C65.582 118.692 64.677 120.907 63.7942 123.131L61.4336 130.853L59.7811 137.916C59.0441 140.688 59.0801 140.5 58.5872 145C58.2605 147.982 58.6453 155.01 59.0801 157.5C59.2958 155.043 59.3566 149.93 59.7811 147.5C60.1305 145.501 60.5631 142.469 61.052 140.5C61.476 138.223 62.2698 135.688 63.0238 133.5C63.7272 131.459 65.5985 127.471 66.4745 125.5C67.3566 123.515 67.2931 124.015 68.2432 122.063C69.4046 120.084 70.6323 118.145 71.9235 116.251C73.4374 114.03 75.0385 111.869 76.7218 109.777C78.7816 107.431 80.9265 105.16 83.1507 102.973C85.141 101.016 87.1957 99.1242 89.3466 97.3503C91.478 95.5925 93.7029 93.9512 96.0083 92.4362C98.4091 90.9273 100.865 89.5085 103.369 88.1836C105.975 86.8048 108.633 85.5278 111.335 84.3562C115.022 82.6896 118.823 81.2833 122.702 80.1508C126.34 79.0887 130.046 78.2674 133.789 77.6938C140.26 76.6884 146.81 76.2138 153.356 76.2762C157.339 76.3142 161.321 76.5509 165.281 76.985L175.111 78.3553L182.798 80.1036C187.032 81.1745 191.216 82.4522 195.329 83.931C199.217 85.3286 203.043 86.9059 206.789 88.6561L215.268 92.7197C219.395 95.0856 223.48 97.5275 227.52 100.044C230.721 102.037 233.895 104.078 237.024 106.186C241.902 109.474 246.673 112.925 251.326 116.534L265.534 128.489L276.808 138.884L294.749 156.858C296.73 154.775 298.711 152.69 300.691 150.605C302.838 148.342 304.985 146.078 307.13 143.813L313.628 136.881L317.655 133.245L319.128 131.602" fill="#C41E3A"/>
<path d="M356.283 209.855L352.465 214.505L356.325 209.812L361.65 203.944L371.377 194.418C372.993 192.656 374.642 190.926 376.325 189.229C378.338 187.199 380.399 185.216 382.504 183.283C384.155 184.563 385.781 185.878 387.38 187.225C390.022 189.452 392.59 191.769 395.258 193.964C397.764 196.027 400.356 197.979 402.946 199.933C406.175 202.369 409.402 204.808 412.627 207.249C417.038 210.213 421.436 213.198 425.82 216.203C429.703 218.864 433.577 221.543 437.589 224C442.475 226.993 447.552 229.648 452.585 232.376C457.554 235.068 462.494 237.838 467.677 240.077C471.316 241.649 475.06 242.953 478.782 244.313C483.573 246.065 488.335 247.914 493.208 249.415C496.836 250.533 500.52 251.457 504.218 252.303C509.061 253.412 513.933 254.391 518.835 255.191C524.269 256.079 529.751 256.749 535.255 256.828C539.372 256.887 543.485 256.614 547.594 256.347C551.27 256.107 554.951 255.87 558.604 255.384C562.156 254.911 565.678 254.203 569.139 253.266C572.823 252.34 576.466 251.248 580.054 249.993C583.438 248.809 586.774 247.48 590.02 245.95C593.578 244.272 597.023 242.353 600.365 240.27C603.141 238.54 605.848 236.696 608.433 234.686C611.106 232.608 613.644 230.357 616.121 228.044C618.805 225.537 621.424 222.95 623.809 220.149C626.292 217.234 628.512 214.097 630.643 210.908C632.376 208.314 634.053 205.682 635.673 203.014C636.846 200.43 637.985 197.83 639.09 195.216C640.33 192.283 641.529 189.325 642.412 186.263C643.364 182.962 643.943 179.562 644.405 176.155C644.839 172.959 645.172 169.748 645.354 166.528C645.536 163.323 645.567 160.109 645.449 156.901C645.327 151.986 644.615 147.087 643.332 142.346C642.328 138.635 640.979 135.029 639.535 131.471C638.402 128.679 637.206 125.906 635.713 123.294C634.368 120.943 632.791 118.738 631.334 116.456C630.188 114.662 629.114 112.817 627.859 111.099C625.632 108.05 622.871 105.45 620.145 102.851C617.792 100.609 615.453 98.3533 613.125 96.0841C610.468 93.9729 607.706 91.9959 604.855 90.1627C600.57 87.4082 596.083 84.979 591.442 82.9021C587.444 81.3477 583.358 80.0289 579.21 78.9545C574.933 77.8467 570.59 76.9988 566.213 76.4168L542.236 75.8528L525.209 79.166C520.005 80.3245 514.873 81.8086 509.849 83.607C504.862 85.3926 499.985 87.4865 495.185 89.7398C490.502 91.9382 485.889 94.2896 481.355 96.789C477.342 99.3292 473.357 101.914 469.401 104.543C465.95 106.836 462.521 109.162 459.115 111.522C455.578 114.117 452.102 116.796 448.69 119.558C445.205 122.379 441.788 125.284 438.404 128.229C435.688 130.592 432.993 132.98 430.342 135.419C426.737 138.735 423.214 142.144 419.778 145.64C417.595 147.677 415.44 149.745 413.315 151.843C410.075 155.042 406.902 158.31 403.724 161.571C398.875 166.546 394.01 171.504 389.129 176.445C384.536 180.902 380.018 185.438 375.576 190.05C372.326 193.426 369.116 196.844 365.777 200.131C362.767 203.094 359.653 205.95 356.742 209.013C353.627 212.29 350.752 215.795 347.696 219.13C344.376 222.752 340.843 226.173 337.121 229.368L319.992 244.482C316.653 247.232 313.288 249.951 309.898 252.637C307.32 254.68 304.727 256.704 302.12 258.709C297.469 262.299 292.687 265.715 287.787 268.947C283.425 271.825 278.97 274.557 274.46 277.191C270.387 279.57 266.268 281.869 262.094 284.06C257.412 286.518 252.661 288.838 247.848 291.019C245.089 292.283 242.306 293.495 239.502 294.653C235.438 296.332 231.328 297.899 227.18 299.351L215.731 303.517C210.543 305.019 205.311 306.364 200.044 307.551C195.004 308.686 189.933 309.677 184.838 310.52L171.117 312.116L155.779 312.204L145.685 311.805C141.812 311.557 137.948 311.158 134.105 310.609C129.821 309.996 125.563 309.197 121.346 308.215C118.047 307.535 114.791 306.647 111.602 305.556C108.722 304.571 105.901 303.423 103.081 302.276C99.6288 300.872 96.1767 299.469 92.7244 298.066L80.8826 292.26C76.3033 289.888 71.8647 287.237 67.5987 284.326C64.736 282.373 61.9509 280.302 59.2526 278.121L51.0813 271.384C48.8115 269.394 46.5964 267.339 44.4393 265.224C41.973 262.805 39.5827 260.306 37.273 257.733L30.1504 249.224C28.5871 246.957 27.0575 244.667 25.5623 242.354C24.195 240.239 22.8563 238.104 21.5858 235.927C20.1079 233.395 18.7229 230.808 17.4346 228.171L14.638 221.612L10.9238 213.457L8.73896 206.543L5.2869 193.601L3.67011 184.338C3.12487 180.97 2.68759 177.585 2.3592 174.188C2.10402 171.549 1.91461 168.903 1.79115 166.255L4.76254 179.773L7.73394 192.138C8.36235 194.284 9.04727 196.412 9.78769 198.52C10.9961 201.961 12.3524 205.349 13.8515 208.67C15.0099 211.757 16.3081 214.79 17.7405 217.756C19.7653 221.949 22.0585 226.008 24.6009 229.9L30.0631 237.567L36.865 246.211C40.6963 250.353 44.6998 254.33 48.8613 258.13C52.1187 261.104 55.4747 263.971 58.9825 266.636C62.0577 268.972 65.2476 271.152 68.5253 273.186C72.0593 275.379 75.6958 277.402 79.4176 279.248C83.3762 281.211 87.4313 282.974 91.563 284.527C95.7061 286.151 99.9208 287.587 104.19 288.829C108.604 290.113 113.077 291.19 117.589 292.056L131.759 293.522L153.158 294.304C159.456 294.063 165.739 293.41 171.954 292.349C181.726 290.682 191.315 288.011 200.679 284.723C205.033 283.194 209.341 281.531 213.595 279.737C219.675 277.062 225.628 274.091 231.428 270.84C235.841 268.365 240.165 265.729 244.441 263.018C249.43 259.856 254.36 256.59 259.093 253.046C264.476 249.015 269.594 244.631 274.612 240.14C278.705 236.476 282.734 232.738 286.757 228.995C291.079 224.973 295.395 220.944 299.577 216.773C303.466 212.895 307.238 208.897 310.951 204.846C314.05 201.466 317.108 198.049 320.109 194.58C324.301 189.733 328.38 184.787 332.543 179.914C334.721 177.366 336.922 174.838 339.098 172.289C342.738 168.023 346.308 163.695 349.894 159.383C353.231 155.37 356.582 151.37 359.919 147.357C363.637 142.885 367.336 138.396 371.1 133.963C374.487 129.974 377.925 126.03 381.414 122.133C385.042 118.122 388.673 114.113 392.306 110.107C397.262 104.645 402.226 99.185 407.44 93.9755C412.057 89.3626 416.865 84.9511 421.706 80.5812C426.028 76.6799 430.378 72.8101 434.815 69.0444C438.292 66.0942 441.823 63.2062 445.515 60.5385C449.508 57.653 453.679 55.0313 457.853 52.4237C463.005 49.2052 468.171 46.0034 473.469 43.0378C478.616 40.1565 483.887 37.4994 489.277 35.1186C495.068 32.5605 500.996 30.3222 507.013 28.3725C512.19 26.695 517.434 25.2307 522.725 23.9729C528.174 22.6774 533.675 21.6008 539.208 20.7465C543.481 19.9843 547.795 19.4618 552.125 19.1822C555.205 18.9832 558.297 18.9071 561.378 19.0844C566.045 19.3527 570.658 20.1994 575.259 21.0397C580.587 22.0131 585.919 22.9805 591.199 24.1952C597.207 25.5772 603.146 27.2798 608.939 29.4065C613.433 31.0566 617.836 32.9613 622.121 35.1087C626.507 36.9434 630.755 39.1145 634.819 41.5975C638.754 44.002 642.516 46.6989 646.063 49.6594C650.125 53.028 654.101 56.5034 657.985 60.0808C661.456 63.2768 664.862 66.5633 667.872 70.2073C670.639 73.5554 673.054 77.1841 675.433 80.8253C677.831 84.495 680.2 88.1888 682.315 92.0333C684.35 95.7335 686.145 99.565 687.84 103.438C689.871 108.078 691.761 112.786 693.365 117.595C694.604 121.311 695.672 125.085 696.564 128.902L699.181 142.174L700.912 154.5C701.066 159.7 701.173 165.07 700.745 170.254C700.528 172.879 700.236 175.498 699.868 178.105C699.271 182.341 698.474 186.546 697.546 190.72C696.804 194.056 695.978 197.373 695.069 200.666C694.081 204.311 692.927 207.911 691.611 211.448C690.359 214.814 688.961 218.123 687.482 221.394C685.828 225.054 684.072 228.668 682.219 232.229C680.69 235.025 679.037 237.75 677.264 240.394C675.09 243.639 672.739 246.757 670.452 249.921C668.825 252.173 667.228 254.45 665.498 256.621C663.262 259.427 660.81 262.048 658.273 264.577C655.295 267.547 652.198 270.393 649.036 273.162C644.878 276.801 640.603 280.31 636.082 283.473C630.241 287.561 624.014 291.054 617.659 294.256C613.383 296.411 609.041 298.438 604.602 300.223C597.763 302.974 590.704 305.144 583.547 306.871C579.483 307.851 575.386 308.69 571.265 309.383L551.964 311.215L529.36 310.901C521.072 310.148 512.82 308.995 504.641 307.447C495.805 305.774 487.05 303.639 478.476 300.904C473.258 299.239 468.108 297.352 463.046 295.251C457.704 292.818 452.42 290.252 447.203 287.556C441.797 284.763 436.462 281.831 431.205 278.762C426.779 275.75 422.358 272.732 417.942 269.707C414.102 267.077 410.266 264.443 406.433 261.803C400.382 257.045 394.428 252.158 388.578 247.147C383.514 242.809 378.528 238.38 373.54 233.952C370.552 231.299 367.562 228.647 364.505 226.077C362.216 224.153 359.888 222.275 357.666 220.273C355.771 218.566 353.954 216.771 352.223 214.894M311.893 125.406L319.034 131.571L311.834 125.346C306.844 121.29 301.788 117.319 296.667 113.434C291.036 109.162 285.328 104.994 279.553 100.924C271.617 95.3308 263.534 89.9105 254.944 85.4206C250.116 82.8974 245.143 80.6755 240.19 78.4172C235.086 76.0903 229.998 73.7218 224.787 71.6532C220.226 69.8426 215.576 68.2637 210.859 66.9244C206.625 65.59 202.331 64.4511 197.994 63.5125C192.501 62.3235 186.94 61.4563 181.352 60.8788C174.865 60.2084 168.338 59.9284 161.818 60.0408C155.113 60.2306 148.421 60.9114 141.812 62.0759C136.393 63.0308 131.03 64.3108 125.76 65.9069C121.565 67.5029 117.43 69.2604 113.367 71.1744C109.292 73.0934 105.283 75.174 101.505 77.639C98.6146 79.5247 95.8691 81.6295 93.1836 83.8044C90.3036 86.1368 87.489 88.5524 84.7445 91.0472L76.0103 101.223C73.0569 104.34 70.562 107.903 68.6334 111.758C67.8605 113.303 67.1787 114.893 66.5089 116.487C65.582 118.692 64.677 120.907 63.7942 123.131L61.4336 130.853L59.7811 137.916C59.0441 140.688 59.0801 140.5 58.5872 145C58.2605 147.982 58.6453 155.01 59.0801 157.5C59.2958 155.043 59.3566 149.93 59.7811 147.5C60.1305 145.501 60.5631 142.469 61.052 140.5C61.476 138.223 62.2698 135.688 63.0238 133.5C63.7272 131.459 65.5985 127.471 66.4745 125.5C67.3566 123.515 67.2931 124.015 68.2432 122.063C69.4046 120.084 70.6323 118.145 71.9235 116.251C73.4374 114.03 75.0385 111.869 76.7218 109.777C78.7816 107.431 80.9265 105.16 83.1507 102.973C85.141 101.016 87.1957 99.1242 89.3466 97.3503C91.478 95.5925 93.7029 93.9512 96.0083 92.4362C98.4091 90.9273 100.865 89.5085 103.369 88.1836C105.975 86.8048 108.633 85.5278 111.335 84.3562C115.022 82.6896 118.823 81.2833 122.702 80.1508C126.34 79.0887 130.046 78.2674 133.789 77.6938C140.26 76.6884 146.81 76.2138 153.356 76.2762C157.339 76.3142 161.321 76.5509 165.281 76.985L175.111 78.3553L182.798 80.1036C187.032 81.1745 191.216 82.4522 195.329 83.931C199.217 85.3286 203.043 86.9059 206.789 88.6561L215.268 92.7197C219.395 95.0856 223.48 97.5275 227.52 100.044C230.721 102.037 233.895 104.078 237.024 106.186C241.902 109.474 246.673 112.925 251.326 116.534L265.534 128.489L276.808 138.884L294.749 156.858C296.73 154.775 298.711 152.69 300.691 150.605C302.838 148.342 304.985 146.078 307.13 143.813L313.628 136.881L317.655 133.245L319.128 131.602" stroke="black" stroke-width="1.00157"/>
<path d="M257.797 53.5095C258.013 53.077 258.158 52.6554 258.231 52.2446C258.312 51.8327 258.312 51.4367 258.231 51.0565C258.153 50.6725 257.99 50.3069 257.742 49.9597C257.5 49.6113 257.164 49.2864 256.734 48.9849C256.028 48.4907 255.217 48.195 254.303 48.0979C253.392 48.0035 252.448 48.1428 251.47 48.5158C250.496 48.8916 249.562 49.5355 248.669 50.4477C247.776 51.3599 247.184 52.2429 246.892 53.0966C246.605 53.953 246.587 54.7414 246.84 55.4618C247.097 56.1849 247.594 56.8044 248.331 57.3204C249.013 57.7984 249.751 58.0983 250.544 58.2202C251.34 58.3383 252.125 58.2695 252.9 58.014C253.677 57.7546 254.379 57.3011 255.006 56.6534L255.359 57.0398L251.775 54.5304L252.904 53.4134L257.442 56.5909L256.313 57.7078C255.468 58.5844 254.524 59.1979 253.481 59.5484C252.438 59.8989 251.379 59.9922 250.303 59.8284C249.227 59.6646 248.216 59.2513 247.269 58.5887C246.214 57.85 245.504 56.9825 245.138 55.9864C244.772 54.9902 244.764 53.9326 245.114 52.8136C245.464 51.6946 246.183 50.58 247.273 49.47C248.084 48.6335 248.941 47.9707 249.844 47.4817C250.754 46.9915 251.67 46.6736 252.593 46.5278C253.52 46.3848 254.423 46.4108 255.304 46.6056C256.189 46.8032 257.012 47.1681 257.772 47.7004C258.4 48.1403 258.904 48.6346 259.283 49.1831C259.668 49.7305 259.926 50.3071 260.057 50.913C260.19 51.5151 260.193 52.1266 260.064 52.7476C259.938 53.3647 259.679 53.9663 259.286 54.5524L257.797 53.5095ZM258.148 66.2409C257.291 65.6407 256.716 64.9551 256.424 64.1839C256.134 63.4088 256.119 62.6007 256.379 61.7594C256.641 60.9142 257.168 60.0869 257.961 59.2774C258.753 58.468 259.618 57.8718 260.557 57.4886C261.499 57.1017 262.442 56.9472 263.387 57.0253C264.335 57.0995 265.211 57.4177 266.014 57.9799C266.479 58.3058 266.873 58.697 267.194 59.1536C267.516 59.6102 267.712 60.1231 267.782 60.6921C267.854 61.2573 267.753 61.8684 267.478 62.5254C267.203 63.1825 266.704 63.8791 265.98 64.6152L265.48 65.1318L258.591 60.3086L259.608 59.2521L265.1 63.0976C265.543 62.6559 265.834 62.1897 265.976 61.699C266.121 61.2111 266.109 60.7373 265.939 60.2776C265.774 59.8206 265.441 59.417 264.94 59.0666C264.425 58.7054 263.846 58.5083 263.204 58.4752C262.565 58.4383 261.949 58.5266 261.354 58.7403C260.762 58.9501 260.277 59.2463 259.899 59.6291L259.019 60.539C258.384 61.1984 257.989 61.8001 257.833 62.3443C257.682 62.8912 257.73 63.3961 257.978 63.8589C258.229 64.3178 258.643 64.7496 259.221 65.1542C259.59 65.4122 259.964 65.5994 260.345 65.7158C260.729 65.8284 261.115 65.8674 261.503 65.833C261.894 65.7946 262.282 65.6787 262.666 65.4852L263.662 66.7374C263.133 67.038 262.556 67.2231 261.929 67.2929C261.309 67.3614 260.674 67.3101 260.025 67.139C259.383 66.9667 258.757 66.6673 258.148 66.2409ZM267.681 72.9157C266.858 72.3399 266.307 71.662 266.027 70.8819C265.747 70.1018 265.739 69.2787 266.004 68.4126C266.274 67.5492 266.813 66.7011 267.621 65.8684C268.41 65.0563 269.26 64.4643 270.174 64.0924C271.094 63.7194 272.012 63.5762 272.928 63.6628C273.851 63.7483 274.708 64.068 275.5 64.6221C276.322 65.1978 276.87 65.8763 277.144 66.6576C277.424 67.4377 277.43 68.2627 277.162 69.1327C276.896 69.9988 276.357 70.8521 275.543 71.6926C274.76 72.497 273.908 73.0824 272.986 73.4488C272.072 73.8141 271.155 73.9553 270.236 73.8726C269.324 73.7887 268.472 73.4697 267.681 72.9157ZM268.568 71.6986C269.196 72.1386 269.854 72.3592 270.541 72.3604C271.231 72.3644 271.905 72.2031 272.561 71.8766C273.222 71.5528 273.817 71.1198 274.347 70.5776C274.847 70.061 275.222 69.5172 275.472 68.9463C275.724 68.3715 275.792 67.8154 275.677 67.2782C275.565 66.7371 275.21 66.2574 274.613 65.8391C273.984 65.3992 273.321 65.1778 272.624 65.175C271.93 65.1749 271.254 65.34 270.595 65.6704C269.936 66.0008 269.343 66.4385 268.817 66.9834C268.317 67.5 267.94 68.0424 267.687 68.6107C267.44 69.1777 267.374 69.7299 267.489 70.2671C267.611 70.8032 267.97 71.2804 268.568 71.6986ZM273.898 76.9916L281.645 69.0983L282.971 70.0271L281.761 71.2604L281.877 71.3419C282.479 71.0522 283.101 70.9357 283.743 70.9925C284.392 71.048 285.007 71.2795 285.589 71.6869C286.171 72.0942 286.545 72.5553 286.71 73.0701C286.878 73.5809 286.865 74.1238 286.671 74.6986L286.764 74.7638C287.392 74.5102 288.054 74.4242 288.748 74.5057C289.446 74.59 290.115 74.8562 290.755 75.3043C291.547 75.8583 291.98 76.5349 292.057 77.3339C292.137 78.1357 291.723 78.9991 290.815 79.9241L285.627 85.2042L284.254 84.2428L289.442 78.9627C290.011 78.3728 290.237 77.8283 290.118 77.329C290.006 76.8286 289.706 76.4073 289.217 76.0651C288.589 75.6252 287.939 75.4507 287.268 75.5418C286.598 75.6329 286.012 75.9367 285.512 76.4533L280.461 81.5868L279.064 80.6091L284.374 75.2057C284.814 74.7507 285.005 74.2717 284.946 73.7686C284.888 73.2655 284.597 72.8306 284.074 72.464C283.717 72.2141 283.3 72.0667 282.823 72.0216C282.349 71.9727 281.871 72.0314 281.39 72.1977C280.913 72.3602 280.487 72.6342 280.113 73.0197L275.271 77.953L273.898 76.9916ZM291.73 89.7553C290.873 89.1551 290.298 88.4695 290.006 87.6983C289.716 86.9232 289.701 86.1151 289.961 85.2737C290.223 84.4286 290.75 83.6013 291.543 82.7918C292.335 81.9824 293.2 81.3861 294.139 81.003C295.081 80.616 296.024 80.4616 296.969 80.5397C297.917 80.6139 298.793 80.9321 299.596 81.4943C300.061 81.8202 300.455 82.2114 300.777 82.668C301.098 83.1246 301.294 83.6374 301.364 84.2065C301.436 84.7717 301.335 85.3828 301.06 86.0398C300.785 86.6969 300.286 87.3935 299.562 88.1296L299.062 88.6462L292.173 83.8229L293.19 82.7665L298.683 86.612C299.125 86.1703 299.417 85.7041 299.558 85.2134C299.703 84.7255 299.691 84.2516 299.521 83.792C299.356 83.335 299.023 82.9314 298.522 82.581C298.007 82.2198 297.428 82.0227 296.786 81.9896C296.147 81.9527 295.531 82.041 294.936 82.2547C294.344 82.4645 293.859 82.7607 293.481 83.1435L292.601 84.0534C291.966 84.7127 291.571 85.3145 291.415 85.8587C291.264 86.4056 291.312 86.9105 291.56 87.3733C291.811 87.8322 292.225 88.2639 292.803 88.6686C293.172 88.9266 293.546 89.1138 293.927 89.2302C294.311 89.3428 294.697 89.3818 295.085 89.3473C295.476 89.309 295.864 89.1931 296.248 88.9996L297.244 90.2518C296.715 90.5524 296.138 90.7375 295.511 90.8072C294.891 90.8758 294.256 90.8245 293.607 90.6534C292.965 90.4811 292.339 90.1817 291.73 89.7553ZM309.338 88.4891L308.337 89.5223L303.706 86.2796L304.706 85.2464L309.338 88.4891ZM307.904 84.295L309.277 85.2564L301.894 92.7797C301.56 93.1241 301.366 93.4218 301.312 93.6727C301.264 93.9225 301.303 94.1402 301.427 94.3256C301.558 94.5099 301.725 94.6726 301.926 94.8138C302.078 94.9197 302.207 94.9989 302.315 95.0513C302.425 95.0998 302.514 95.1386 302.58 95.1677L301.81 96.4662C301.681 96.4278 301.515 96.3636 301.312 96.2736C301.11 96.1902 300.881 96.0588 300.625 95.8796C300.237 95.608 299.931 95.2693 299.707 94.8636C299.482 94.4578 299.398 94.0204 299.455 93.5515C299.512 93.0825 299.764 92.618 300.214 92.1581L307.904 84.295ZM303.656 97.8286L311.403 89.9352L312.729 90.864L311.551 92.0508L311.645 92.116C312.187 91.8368 312.793 91.7265 313.463 91.7852C314.133 91.8439 314.735 92.0606 315.271 92.4354C315.375 92.5087 315.5 92.5989 315.645 92.706C315.792 92.8092 315.902 92.8951 315.976 92.9638L314.765 94.1971C314.727 94.1529 314.634 94.0621 314.488 93.9248C314.344 93.7836 314.179 93.6478 313.993 93.5174C313.558 93.2132 313.093 93.0233 312.597 92.9476C312.104 92.868 311.621 92.9003 311.15 93.0446C310.682 93.1849 310.272 93.4323 309.92 93.7868L305.029 98.79L303.656 97.8286ZM308.047 105.897C307.814 105.734 307.622 105.571 307.471 105.407C307.321 105.25 307.225 105.131 307.184 105.05L308.589 104.231C308.848 104.539 309.113 104.762 309.386 104.901C309.66 105.047 309.984 105.091 310.358 105.036C310.734 104.986 311.203 104.824 311.766 104.548L312.639 104.118L317.104 93.9275L318.536 94.9296L314.813 102.97L314.906 103.035L323.562 98.4493L325.11 99.5329L312.468 105.923C311.878 106.221 311.324 106.414 310.805 106.502C310.287 106.59 309.799 106.581 309.342 106.474C308.882 106.372 308.45 106.179 308.047 105.897Z" fill="black"/>
<path d="M385.13 208.2L386.235 207.067L395.172 213.324L394.066 214.457L390.319 211.834L381.104 221.23L379.661 220.22L388.876 210.823L385.13 208.2ZM389.154 227.144C388.331 226.568 387.78 225.89 387.5 225.11C387.219 224.33 387.212 223.507 387.477 222.641C387.747 221.777 388.285 220.929 389.094 220.097C389.882 219.285 390.733 218.693 391.647 218.321C392.567 217.948 393.485 217.805 394.401 217.891C395.324 217.977 396.181 218.296 396.972 218.85C397.795 219.426 398.343 220.105 398.616 220.886C398.897 221.666 398.903 222.491 398.635 223.361C398.369 224.227 397.829 225.08 397.016 225.921C396.233 226.725 395.381 227.311 394.459 227.677C393.545 228.042 392.628 228.184 391.709 228.101C390.796 228.017 389.945 227.698 389.154 227.144ZM390.04 225.927C390.669 226.367 391.326 226.587 392.013 226.589C392.704 226.593 393.378 226.431 394.034 226.105C394.694 225.781 395.289 225.348 395.819 224.806C396.32 224.289 396.695 223.746 396.944 223.175C397.197 222.6 397.265 222.044 397.15 221.506C397.038 220.965 396.683 220.486 396.085 220.067C395.457 219.627 394.794 219.406 394.097 219.403C393.403 219.403 392.727 219.568 392.068 219.899C391.409 220.229 390.816 220.667 390.29 221.212C389.79 221.728 389.413 222.271 389.159 222.839C388.913 223.406 388.847 223.958 388.962 224.495C389.084 225.032 389.443 225.509 390.04 225.927ZM392.466 234.18L403.129 223.335L404.455 224.264L403.229 225.52L403.392 225.634C403.624 225.566 403.934 225.488 404.319 225.399C404.711 225.31 405.16 225.3 405.666 225.371C406.178 225.44 406.724 225.679 407.306 226.086C408.059 226.613 408.557 227.243 408.802 227.975C409.047 228.707 409.032 229.491 408.758 230.328C408.484 231.165 407.941 231.999 407.128 232.829C406.311 233.666 405.439 234.279 404.515 234.666C403.593 235.05 402.683 235.21 401.785 235.148C400.889 235.081 400.069 234.787 399.325 234.266C398.751 233.864 398.373 233.458 398.192 233.048C398.013 232.634 397.938 232.255 397.966 231.91C397.996 231.561 398.029 231.278 398.066 231.061L397.95 230.979L393.85 235.149L392.466 234.18ZM400.605 228.227C400.024 228.825 399.607 229.421 399.355 230.013C399.109 230.603 399.051 231.161 399.181 231.685C399.317 232.209 399.661 232.663 400.211 233.049C400.785 233.451 401.394 233.651 402.036 233.65C402.685 233.648 403.33 233.487 403.97 233.166C404.617 232.845 405.218 232.404 405.772 231.844C406.312 231.286 406.705 230.717 406.95 230.137C407.197 229.553 407.257 228.997 407.13 228.468C407.005 227.936 406.652 227.466 406.07 227.059C405.512 226.668 404.918 226.463 404.289 226.445C403.667 226.425 403.04 226.57 402.408 226.879C401.782 227.186 401.181 227.635 400.605 228.227ZM408.928 240.99C408.106 240.415 407.555 239.737 407.274 238.957C406.994 238.177 406.987 237.354 407.252 236.487C407.521 235.624 408.06 234.776 408.869 233.943C409.657 233.131 410.508 232.539 411.422 232.167C412.342 231.794 413.26 231.651 414.176 231.738C415.099 231.823 415.956 232.143 416.747 232.697C417.569 233.273 418.117 233.951 418.391 234.732C418.671 235.512 418.678 236.338 418.409 237.208C418.144 238.074 417.604 238.927 416.79 239.767C416.007 240.572 415.155 241.157 414.234 241.524C413.319 241.889 412.403 242.03 411.484 241.947C410.571 241.863 409.72 241.545 408.928 240.99ZM409.815 239.773C410.444 240.213 411.101 240.434 411.788 240.435C412.479 240.439 413.153 240.278 413.809 239.951C414.469 239.628 415.064 239.195 415.594 238.652C416.095 238.136 416.47 237.592 416.719 237.021C416.971 236.446 417.04 235.89 416.925 235.353C416.812 234.812 416.458 234.332 415.86 233.914C415.232 233.474 414.569 233.253 413.872 233.25C413.178 233.25 412.502 233.415 411.843 233.745C411.184 234.076 410.591 234.513 410.065 235.058C409.564 235.575 409.188 236.117 408.934 236.685C408.687 237.253 408.622 237.805 408.737 238.342C408.858 238.878 409.218 239.355 409.815 239.773ZM426.84 235.498L416.519 246.028L415.146 245.066L425.467 234.537L426.84 235.498ZM422.592 250.558C421.769 249.982 421.218 249.304 420.938 248.524C420.657 247.744 420.65 246.921 420.915 246.054C421.185 245.191 421.724 244.343 422.532 243.51C423.32 242.698 424.171 242.106 425.085 241.734C426.005 241.361 426.923 241.218 427.839 241.305C428.762 241.39 429.619 241.71 430.41 242.264C431.233 242.84 431.781 243.518 432.054 244.299C432.335 245.08 432.341 245.905 432.073 246.775C431.807 247.641 431.267 248.494 430.454 249.334C429.671 250.139 428.819 250.724 427.897 251.091C426.983 251.456 426.066 251.597 425.147 251.514C424.235 251.431 423.383 251.112 422.592 250.558ZM423.478 249.34C424.107 249.78 424.764 250.001 425.451 250.002C426.142 250.006 426.816 249.845 427.472 249.518C428.132 249.195 428.727 248.762 429.257 248.219C429.758 247.703 430.133 247.159 430.382 246.588C430.635 246.013 430.703 245.457 430.588 244.92C430.476 244.379 430.121 243.899 429.523 243.481C428.895 243.041 428.232 242.82 427.535 242.817C426.841 242.817 426.165 242.982 425.506 243.312C424.847 243.643 424.254 244.08 423.728 244.625C423.228 245.142 422.851 245.684 422.597 246.253C422.351 246.82 422.285 247.372 422.4 247.909C422.522 248.445 422.881 248.922 423.478 249.34ZM429.381 260.305C428.713 259.838 428.215 259.362 427.884 258.876C427.551 258.394 427.345 257.921 427.267 257.455C427.185 256.994 427.183 256.559 427.261 256.151L429.032 256.246C429.011 256.474 429.001 256.745 429.002 257.057C429 257.374 429.094 257.714 429.284 258.079C429.475 258.45 429.844 258.826 430.391 259.209C431.108 259.712 431.859 259.977 432.642 260.006C433.426 260.034 434.142 259.721 434.792 259.066L436.342 257.446L436.226 257.365C435.988 257.441 435.674 257.521 435.284 257.607C434.898 257.689 434.453 257.692 433.95 257.618C433.45 257.539 432.909 257.297 432.327 256.889C431.602 256.381 431.101 255.776 430.824 255.074C430.547 254.371 430.525 253.615 430.756 252.806C430.991 252 431.512 251.186 432.319 250.363C433.111 249.554 433.96 248.96 434.866 248.583C435.778 248.205 436.683 248.052 437.58 248.125C438.479 248.194 439.305 248.492 440.058 249.019C440.64 249.427 441.018 249.836 441.192 250.247C441.373 250.657 441.45 251.034 441.422 251.379C441.398 251.72 441.368 251.994 441.333 252.201L441.472 252.299L442.699 251.042L444.025 251.971L436.076 260.104C435.411 260.782 434.696 261.212 433.933 261.395C433.167 261.581 432.395 261.569 431.616 261.359C430.836 261.154 430.09 260.802 429.381 260.305ZM433.54 255.9C434.087 256.283 434.662 256.498 435.265 256.545C435.872 256.594 436.483 256.481 437.098 256.206C437.712 255.931 438.304 255.502 438.875 254.919C439.434 254.351 439.824 253.777 440.045 253.198C440.266 252.618 440.301 252.068 440.152 251.547C440.006 251.029 439.656 250.576 439.101 250.187C438.515 249.777 437.906 249.57 437.273 249.566C436.644 249.565 436.024 249.72 435.412 250.032C434.801 250.344 434.233 250.767 433.708 251.301C433.173 251.851 432.793 252.403 432.567 252.956C432.344 253.505 432.305 254.032 432.448 254.537C432.598 255.041 432.962 255.496 433.54 255.9ZM436.783 265.211C436.551 265.048 436.359 264.885 436.207 264.721C436.057 264.564 435.961 264.445 435.92 264.364L437.326 263.545C437.584 263.853 437.85 264.076 438.122 264.215C438.396 264.361 438.72 264.406 439.094 264.35C439.47 264.301 439.939 264.138 440.503 263.862L441.375 263.433L445.841 253.242L447.272 254.244L443.549 262.284L443.642 262.35L452.298 257.764L453.846 258.847L441.204 265.238C440.614 265.535 440.06 265.728 439.542 265.816C439.023 265.904 438.536 265.895 438.078 265.789C437.618 265.686 437.187 265.494 436.783 265.211Z" fill="white"/>
<path d="M319.695 155.868L321.095 154.3L332.068 160.139L332.182 160.011L327.794 146.799L329.194 145.231L338.435 156.721L337.337 157.95L330.324 149.211L330.23 149.317L334.215 161.446L333.155 162.632L323.115 157.284L323.02 157.39L330.033 166.129L328.935 167.358L319.695 155.868ZM342.946 152.053C342.485 152.569 341.984 152.934 341.443 153.149C340.898 153.361 340.357 153.395 339.819 153.251C339.278 153.104 338.78 152.751 338.326 152.193C337.932 151.696 337.695 151.201 337.613 150.71C337.528 150.215 337.551 149.727 337.682 149.247C337.812 148.76 338.008 148.288 338.27 147.83C338.533 147.366 338.813 146.921 339.111 146.495C339.495 145.937 339.81 145.485 340.055 145.139C340.3 144.793 340.453 144.505 340.514 144.273C340.575 144.042 340.522 143.82 340.356 143.608L340.313 143.57C339.87 143.022 339.404 142.73 338.916 142.693C338.424 142.654 337.923 142.921 337.412 143.493C336.882 144.086 336.569 144.699 336.474 145.331C336.379 145.964 336.395 146.508 336.521 146.963L335.114 147.687C334.878 146.956 334.802 146.266 334.886 145.617C334.967 144.966 335.149 144.37 335.434 143.831C335.715 143.288 336.039 142.812 336.405 142.403C336.638 142.141 336.933 141.875 337.29 141.603C337.643 141.328 338.043 141.133 338.489 141.017C338.938 140.898 339.42 140.938 339.935 141.137C340.452 141.332 340.986 141.772 341.538 142.455L346.104 148.132L344.988 149.382L344.056 148.208L344 148.271C344.075 148.542 344.11 148.884 344.103 149.297C344.099 149.706 344.01 150.15 343.836 150.63C343.665 151.105 343.368 151.58 342.946 152.053ZM342.144 150.69C342.586 150.196 342.875 149.676 343.012 149.132C343.152 148.584 343.169 148.06 343.064 147.56C342.962 147.056 342.766 146.624 342.478 146.265L341.504 145.052C341.511 145.173 341.457 145.35 341.343 145.584C341.225 145.816 341.08 146.067 340.907 146.338C340.735 146.603 340.563 146.859 340.393 147.107C340.222 147.348 340.085 147.543 339.983 147.693C339.729 148.063 339.516 148.441 339.343 148.826C339.17 149.205 339.085 149.58 339.09 149.952C339.093 150.317 339.232 150.667 339.506 151C339.874 151.462 340.296 151.651 340.77 151.567C341.242 151.48 341.7 151.188 342.144 150.69ZM351.245 142.717C350.56 143.484 349.819 143.952 349.02 144.121C348.225 144.286 347.426 144.182 346.623 143.809C345.821 143.435 345.073 142.818 344.381 141.958C343.674 141.086 343.188 140.163 342.922 139.189C342.652 138.211 342.611 137.258 342.8 136.329C342.986 135.396 343.406 134.562 344.062 133.828C344.573 133.256 345.124 132.852 345.714 132.618C346.305 132.383 346.893 132.321 347.48 132.432C348.066 132.543 348.607 132.833 349.103 133.301L347.987 134.552C347.584 134.256 347.114 134.121 346.575 134.148C346.037 134.169 345.523 134.453 345.034 135C344.599 135.487 344.325 136.05 344.214 136.686C344.099 137.32 344.146 137.981 344.356 138.67C344.563 139.356 344.929 140.023 345.455 140.67C345.989 141.338 346.544 141.818 347.121 142.11C347.697 142.403 348.26 142.502 348.808 142.407C349.356 142.313 349.85 142.018 350.292 141.524C350.582 141.199 350.797 140.845 350.936 140.461C351.075 140.078 351.137 139.682 351.121 139.274C351.104 138.866 351.004 138.466 350.821 138.073L351.938 136.823C352.279 137.408 352.49 138.043 352.569 138.729C352.644 139.412 352.577 140.099 352.368 140.788C352.155 141.474 351.781 142.117 351.245 142.717ZM352.524 131.091L356.7 136.268L355.584 137.518L346.343 126.028L347.46 124.778L350.857 128.992L350.951 128.886C350.754 128.254 350.722 127.615 350.853 126.97C350.987 126.322 351.343 125.675 351.92 125.029C352.412 124.478 352.938 124.113 353.498 123.934C354.058 123.748 354.635 123.781 355.229 124.032C355.823 124.277 356.419 124.768 357.018 125.505L361.412 130.991L360.295 132.242L355.967 126.852C355.415 126.169 354.838 125.81 354.236 125.773C353.633 125.73 353.072 126 352.551 126.583C352.185 126.992 351.931 127.451 351.789 127.959C351.65 128.463 351.637 128.985 351.752 129.525C351.869 130.062 352.127 130.584 352.524 131.091ZM363.454 128.704L356.529 120.082L357.645 118.831L364.571 127.454L363.454 128.704ZM356.05 117.845C355.833 118.089 355.562 118.225 355.238 118.253C354.918 118.278 354.641 118.186 354.408 117.978C354.175 117.77 354.053 117.505 354.041 117.184C354.033 116.859 354.137 116.575 354.355 116.331C354.573 116.088 354.842 115.953 355.162 115.929C355.486 115.9 355.764 115.99 355.997 116.198C356.231 116.406 356.351 116.673 356.36 116.998C356.371 117.319 356.268 117.601 356.05 117.845ZM363.557 118.738L367.732 123.914L366.616 125.164L359.69 116.542L360.769 115.334L361.851 116.681L361.945 116.575C361.759 115.952 361.735 115.311 361.872 114.653C362.006 113.991 362.347 113.353 362.896 112.739C363.381 112.195 363.904 111.837 364.465 111.664C365.025 111.485 365.602 111.521 366.196 111.773C366.79 112.018 367.383 112.505 367.974 113.237L372.368 118.723L371.252 119.973L366.923 114.584C366.382 113.91 365.81 113.548 365.207 113.499C364.607 113.445 364.047 113.71 363.527 114.293C363.167 114.695 362.921 115.145 362.788 115.642C362.658 116.136 362.654 116.649 362.774 117.182C362.898 117.712 363.159 118.23 363.557 118.738ZM377.606 113.199C376.909 113.98 376.16 114.47 375.36 114.669C374.556 114.865 373.752 114.785 372.947 114.428C372.138 114.068 371.379 113.447 370.669 112.565C369.958 111.683 369.468 110.753 369.198 109.776C368.925 108.795 368.883 107.84 369.072 106.911C369.257 105.978 369.676 105.146 370.329 104.415C370.707 103.992 371.142 103.647 371.634 103.381C372.125 103.115 372.657 102.981 373.231 102.979C373.8 102.973 374.395 103.146 375.015 103.497C375.635 103.847 376.268 104.425 376.914 105.23L377.368 105.788L371.767 112.06L370.838 110.926L375.303 105.925C374.917 105.434 374.488 105.089 374.018 104.891C373.55 104.689 373.078 104.646 372.602 104.76C372.129 104.87 371.688 105.153 371.282 105.609C370.862 106.079 370.598 106.63 370.49 107.263C370.378 107.893 370.393 108.516 370.535 109.132C370.674 109.745 370.911 110.261 371.246 110.681L372.046 111.662C372.626 112.371 373.177 112.834 373.699 113.053C374.224 113.268 374.731 113.279 375.22 113.088C375.705 112.892 376.183 112.532 376.653 112.006C376.953 111.67 377.183 111.32 377.343 110.956C377.5 110.588 377.584 110.209 377.596 109.82C377.604 109.427 377.534 109.028 377.387 108.624L378.748 107.783C378.985 108.343 379.1 108.938 379.096 109.569C379.091 110.193 378.965 110.817 378.719 111.441C378.472 112.059 378.101 112.645 377.606 113.199Z" fill="black"/>
<path d="M351.739 189.435L342.499 177.946L343.672 176.632L351.917 186.89L356.421 181.847L357.416 183.079L351.739 189.435ZM362.279 177.975C361.582 178.755 360.833 179.245 360.033 179.445C359.229 179.641 358.425 179.561 357.62 179.204C356.811 178.844 356.052 178.223 355.341 177.341C354.631 176.459 354.141 175.529 353.871 174.552C353.598 173.571 353.555 172.616 353.744 171.687C353.93 170.754 354.349 169.922 355.002 169.191C355.38 168.767 355.815 168.422 356.306 168.157C356.798 167.891 357.33 167.757 357.903 167.755C358.473 167.749 359.068 167.922 359.688 168.272C360.308 168.623 360.941 169.201 361.587 170.006L362.041 170.564L356.44 176.836L355.51 175.701L359.976 170.701C359.59 170.21 359.161 169.865 358.691 169.667C358.223 169.465 357.751 169.421 357.275 169.536C356.801 169.646 356.361 169.929 355.954 170.385C355.535 170.854 355.271 171.406 355.163 172.039C355.051 172.669 355.066 173.292 355.208 173.908C355.346 174.52 355.584 175.037 355.919 175.457L356.719 176.438C357.299 177.146 357.85 177.61 358.372 177.828C358.897 178.044 359.404 178.055 359.893 177.863C360.378 177.668 360.856 177.308 361.326 176.781C361.625 176.446 361.856 176.096 362.016 175.731C362.173 175.364 362.257 174.985 362.269 174.595C362.277 174.202 362.207 173.804 362.06 173.4L363.421 172.558C363.657 173.118 363.773 173.714 363.769 174.345C363.764 174.969 363.638 175.593 363.391 176.217C363.145 176.834 362.774 177.42 362.279 177.975ZM369.171 170.299C368.711 170.815 368.21 171.18 367.669 171.395C367.124 171.607 366.583 171.641 366.045 171.497C365.503 171.35 365.006 170.998 364.551 170.44C364.158 169.942 363.92 169.448 363.839 168.956C363.754 168.461 363.777 167.974 363.907 167.493C364.037 167.006 364.234 166.534 364.496 166.077C364.758 165.613 365.038 165.168 365.336 164.742C365.72 164.183 366.035 163.731 366.281 163.385C366.526 163.04 366.679 162.751 366.74 162.519C366.8 162.288 366.748 162.066 366.581 161.854L366.539 161.817C366.096 161.268 365.63 160.976 365.141 160.94C364.65 160.901 364.148 161.167 363.637 161.739C363.108 162.332 362.795 162.945 362.7 163.578C362.605 164.21 362.621 164.754 362.747 165.21L361.339 165.933C361.103 165.202 361.027 164.512 361.112 163.864C361.192 163.212 361.375 162.616 361.66 162.077C361.941 161.535 362.264 161.059 362.63 160.649C362.864 160.388 363.159 160.121 363.516 159.85C363.869 159.575 364.269 159.379 364.715 159.264C365.164 159.144 365.646 159.184 366.16 159.383C366.678 159.579 367.212 160.018 367.764 160.701L372.33 166.379L371.213 167.629L370.282 166.454L370.225 166.518C370.301 166.788 370.335 167.13 370.328 167.543C370.325 167.952 370.236 168.397 370.062 168.876C369.891 169.352 369.594 169.826 369.171 170.299ZM368.37 168.936C368.811 168.442 369.101 167.923 369.238 167.378C369.378 166.83 369.395 166.306 369.29 165.806C369.187 165.302 368.992 164.87 368.703 164.511L367.729 163.299C367.736 163.419 367.683 163.596 367.568 163.831C367.451 164.062 367.306 164.313 367.133 164.585C366.96 164.849 366.789 165.106 366.618 165.353C366.447 165.594 366.311 165.79 366.209 165.94C365.955 166.31 365.741 166.687 365.568 167.072C365.395 167.451 365.311 167.826 365.315 168.198C365.319 168.564 365.458 168.913 365.731 169.246C366.1 169.708 366.521 169.898 366.996 169.814C367.467 169.727 367.925 169.434 368.37 168.936ZM374.368 164.097L367.442 155.474L368.521 154.266L369.56 155.576L369.636 155.491C369.423 154.92 369.385 154.305 369.522 153.646C369.659 152.988 369.945 152.415 370.38 151.928C370.466 151.833 370.57 151.719 370.693 151.588C370.813 151.454 370.911 151.355 370.988 151.29L372.07 152.637C372.022 152.67 371.921 152.751 371.767 152.881C371.61 153.007 371.456 153.155 371.304 153.324C370.951 153.72 370.708 154.16 370.574 154.643C370.437 155.124 370.412 155.606 370.5 156.091C370.584 156.573 370.782 157.009 371.092 157.401L375.484 162.847L374.368 164.097ZM376.291 152.091L380.467 157.267L379.35 158.517L372.425 149.895L373.503 148.687L374.585 150.034L374.68 149.928C374.494 149.305 374.469 148.664 374.607 148.006C374.74 147.344 375.082 146.706 375.63 146.092C376.116 145.548 376.639 145.19 377.199 145.017C377.759 144.838 378.336 144.874 378.931 145.126C379.525 145.371 380.117 145.859 380.709 146.59L385.103 152.076L383.987 153.326L379.658 147.937C379.117 147.263 378.545 146.901 377.942 146.852C377.342 146.798 376.782 147.063 376.261 147.646C375.902 148.048 375.656 148.498 375.523 148.995C375.393 149.489 375.388 150.002 375.509 150.535C375.633 151.065 375.894 151.583 376.291 152.091ZM387.143 149.791L380.217 141.169L381.334 139.918L388.26 148.541L387.143 149.791ZM379.739 138.932C379.521 139.176 379.251 139.312 378.927 139.34C378.607 139.365 378.33 139.273 378.097 139.065C377.864 138.857 377.741 138.592 377.73 138.271C377.722 137.946 377.826 137.662 378.044 137.418C378.261 137.175 378.531 137.04 378.851 137.016C379.175 136.987 379.453 137.077 379.686 137.285C379.919 137.493 380.04 137.76 380.048 138.085C380.06 138.406 379.957 138.688 379.739 138.932ZM387.245 139.825L391.421 145.001L390.304 146.251L383.379 137.629L384.457 136.421L385.54 137.768L385.634 137.662C385.448 137.039 385.424 136.398 385.561 135.74C385.694 135.078 386.036 134.44 386.584 133.826C387.07 133.282 387.593 132.924 388.153 132.751C388.713 132.572 389.291 132.608 389.885 132.86C390.479 133.105 391.071 133.593 391.663 134.324L396.057 139.81L394.941 141.06L390.612 135.671C390.071 134.997 389.499 134.635 388.896 134.586C388.296 134.532 387.736 134.797 387.215 135.38C386.856 135.782 386.61 136.232 386.477 136.729C386.347 137.223 386.343 137.736 386.463 138.269C386.587 138.799 386.848 139.317 387.245 139.825ZM403.797 137.626C403.255 138.233 402.723 138.672 402.201 138.943C401.684 139.217 401.189 139.366 400.718 139.389C400.25 139.416 399.818 139.366 399.422 139.241L399.725 137.494C399.949 137.541 400.217 137.583 400.527 137.619C400.841 137.659 401.19 137.605 401.574 137.46C401.965 137.313 402.383 136.991 402.828 136.493C403.411 135.84 403.763 135.126 403.884 134.351C404.004 133.577 403.777 132.828 403.203 132.106L401.778 130.376L401.683 130.482C401.731 130.727 401.774 131.048 401.813 131.445C401.849 131.839 401.8 132.281 401.667 132.771C401.53 133.259 401.225 133.767 400.752 134.297C400.162 134.957 399.502 135.383 398.772 135.576C398.042 135.768 397.288 135.701 396.512 135.376C395.739 135.048 394.992 134.434 394.27 133.536C393.56 132.654 393.071 131.741 392.803 130.797C392.534 129.847 392.489 128.93 392.668 128.048C392.842 127.163 393.235 126.378 393.847 125.693C394.32 125.163 394.771 124.836 395.2 124.711C395.629 124.58 396.013 124.548 396.352 124.616C396.687 124.681 396.956 124.743 397.157 124.802L397.271 124.675L396.167 123.309L397.246 122.101L404.386 130.953C404.981 131.694 405.324 132.454 405.415 133.234C405.509 134.016 405.407 134.782 405.107 135.53C404.811 136.281 404.374 136.979 403.797 137.626ZM399.913 132.976C400.357 132.478 400.638 131.932 400.756 131.339C400.876 130.742 400.836 130.122 400.636 129.48C400.435 128.837 400.079 128.198 399.567 127.563C399.069 126.941 398.545 126.486 397.995 126.198C397.446 125.911 396.904 125.811 396.369 125.898C395.837 125.981 395.346 126.276 394.895 126.781C394.418 127.314 394.141 127.895 394.063 128.523C393.987 129.148 394.068 129.782 394.306 130.426C394.543 131.07 394.897 131.683 395.366 132.267C395.849 132.864 396.352 133.306 396.874 133.595C397.393 133.881 397.912 133.983 398.431 133.9C398.949 133.81 399.443 133.502 399.913 132.976Z" fill="#F5F5F5"/>
</svg>
