<svg width="887" height="1005" viewBox="0 0 887 1005" fill="none" xmlns="http://www.w3.org/2000/svg">
<path d="M736.236 501.098C736.182 503.696 735.965 506.509 735.743 509.098C735.437 512.661 734.735 515.2 734.055 518.709C733.566 521.23 732.966 523.731 732.188 526.176C731.306 528.947 730.198 531.64 728.974 534.274C727.893 536.601 726.721 538.885 725.448 541.11C724.231 543.239 722.921 545.314 721.508 547.315C719.529 550.12 717.348 552.778 715.004 555.277C712.765 557.664 710.375 559.907 707.858 561.991C705.888 563.622 703.84 565.154 701.765 566.645C699.141 568.53 696.466 570.353 693.641 571.91C691.251 573.226 688.759 574.35 686.194 575.267C682.781 576.642 679.317 577.89 675.813 579.005C672.062 580.2 668.257 581.245 664.379 581.905C660.676 582.535 656.922 582.81 653.171 582.973C649.412 583.136 645.649 583.187 641.888 583.125C638.749 583.297 635.593 583.144 632.485 582.668C630.593 582.378 628.721 581.969 626.843 581.6C622.024 580.651 617.15 579.955 612.4 578.7C609.237 577.865 606.143 576.784 603.072 575.648C600.141 574.564 597.228 573.428 594.347 572.215C591.609 571.063 588.9 569.842 586.223 568.553L577.497 563.899L569.222 559.168C566.742 557.628 564.284 556.051 561.85 554.438C559.329 552.767 556.832 551.056 554.403 549.249C552.037 547.49 549.738 545.64 547.407 543.832C545.165 542.092 542.892 540.389 540.713 538.568C538.888 537.044 537.131 535.439 535.372 533.837C533.111 531.778 530.847 529.723 528.526 527.733C526.379 525.892 524.184 524.107 522.057 522.24C519.79 520.249 517.602 518.165 515.513 515.984C513.497 513.878 511.299 511.876 509.475 509.598L501.925 501.61C500.237 503.133 498.578 504.688 496.947 506.274C495.566 507.618 494.205 508.985 492.857 510.363C489.641 513.653 486.495 517.012 483.379 520.399C480.786 523.216 478.214 526.052 475.662 528.907L479.546 532.534C482.093 534.642 484.645 536.745 487.202 538.841C490.706 541.713 494.22 544.574 497.777 547.379C502.285 550.932 506.864 554.394 511.567 557.676C515.799 560.628 520.131 563.434 524.553 566.085C529.57 569.329 534.692 572.406 539.908 575.309C544.727 577.991 549.627 580.525 554.618 582.86C566.897 588.606 579.704 593.14 592.703 596.92C598.375 598.57 604.101 600.08 609.94 600.937C615.989 601.824 622.115 602.004 628.225 602.118C634.207 602.229 640.2 602.279 646.161 601.763C651.024 601.343 655.855 600.547 660.603 599.401C665.707 598.168 670.71 596.533 675.627 594.676C680.273 592.921 684.851 590.965 689.253 588.651C693.533 586.401 697.644 583.812 701.482 580.855C705.01 578.136 708.304 575.11 711.382 571.877C714.422 568.684 717.252 565.291 720 561.836C722.445 558.763 724.832 555.631 726.872 552.267C728.985 548.783 730.713 545.069 732.216 541.272C734.171 536.333 735.752 531.239 736.888 526.043C737.89 521.457 738.399 516.785 738.7 512.098C738.7 509.697 738.801 507.504 738.7 505.098C738.546 501.41 738.7 502.098 738.207 498.098C738.084 497.098 736.729 491.098 736.729 489.598L736.236 501.098ZM416.575 472.315L422.547 466.422L427.671 461.49L433.545 455.068L440.562 448.183L444.825 443.563L435.722 435.032L430.335 429.738C428.11 427.784 425.893 425.82 423.684 423.847C421.148 421.582 418.623 419.305 416.108 417.016C412.187 413.608 408.201 410.277 404.154 407.026C401.94 405.248 399.708 403.494 397.419 401.817C395.197 400.191 392.923 398.638 390.684 397.036C388.07 395.164 385.503 393.223 382.855 391.4C380.517 389.79 378.118 388.274 375.7 386.79C373.16 385.23 370.598 383.707 368.039 382.179C365.427 380.618 362.817 379.053 360.21 377.483C357.77 376.143 355.329 374.805 352.886 373.469C350.058 371.922 347.226 370.376 344.3 369.029C341.803 367.88 339.244 366.878 336.723 365.785C334.274 364.722 331.861 363.573 329.399 362.54C326.593 361.362 323.726 360.336 320.813 359.466C317.037 358.231 313.248 357.036 309.448 355.88C304.85 354.482 300.233 353.141 295.558 352.038C290.995 350.961 286.382 350.112 281.752 349.391C278.394 348.868 275.026 348.412 271.65 348.025C268.453 347.788 265.254 347.589 262.053 347.427C258.127 347.228 254.198 347.086 250.268 347C246.362 347.121 242.46 347.349 238.566 347.683C234.768 348.009 230.978 348.436 227.201 348.964L214.827 351.098C211.37 351.774 207.943 352.6 204.556 353.575C200.097 354.858 195.711 356.398 191.424 358.185L178.712 363.736L167.263 369.798C164.172 371.723 161.14 373.745 158.172 375.86C154.566 378.43 151.055 381.136 147.649 383.972C144.644 386.668 141.697 389.429 138.81 392.254C136.024 394.98 133.292 397.766 130.728 400.707C126.795 405.219 123.266 410.084 120.037 415.137C116.952 419.965 114.137 424.968 111.534 430.08C108.889 435.277 106.46 440.592 104.379 446.047C102.814 450.148 101.446 454.327 100.311 458.571C98.9781 463.552 97.9676 468.616 97.0577 473.694C95.9586 479.827 95.004 485.992 94.451 492.201C93.9812 497.475 93.8023 502.792 94.2881 508.064C94.6779 512.296 95.4934 516.475 96.406 520.623C97.4189 525.226 98.5532 529.802 99.8273 534.338C101.442 540.086 103.281 545.769 105.366 551.359C107.175 556.205 109.172 560.987 111.557 565.57C114.281 570.804 117.499 575.757 120.844 580.607C124.104 585.335 127.501 589.988 131.433 594.157C134.836 597.765 138.615 600.983 142.349 604.237C145.953 607.377 149.533 610.564 153.427 613.325C156.963 615.832 160.736 617.972 164.506 620.1C169.324 622.822 174.155 625.536 179.168 627.867C183.562 629.91 188.089 631.655 192.69 633.155C198.663 635.102 204.765 636.638 210.937 637.782C214.55 638.451 218.19 638.987 221.853 639.269C226.187 639.603 230.539 639.58 234.886 639.599C240.318 639.622 245.753 639.711 251.178 639.434C256.699 639.152 262.201 638.492 267.632 637.451C274.69 636.099 281.612 634.11 288.486 631.998C294.769 630.068 301.032 628.029 307.059 625.388C311.853 623.287 316.48 620.812 321.069 618.283C324.787 616.234 328.484 614.148 332.148 612.003C336.901 609.222 341.6 606.342 346.159 603.245C352.471 598.958 358.511 594.257 364.243 589.2C369.433 584.62 374.367 579.752 379.394 574.989C384.055 570.572 388.798 566.244 393.405 561.769C399.786 555.571 405.901 549.094 411.815 542.435C417.819 535.674 423.615 528.726 429.41 521.78C438.644 510.711 447.881 499.643 457.106 488.566C467.412 476.189 477.712 463.792 488.712 452.046C498.316 441.791 508.442 432.046 518.851 422.633C526.466 415.748 534.251 409.025 542.637 403.134C551.965 396.582 561.979 391.098 572.126 385.948C581.597 381.141 591.233 376.601 601.288 373.225C612.022 369.62 623.16 367.367 634.36 365.789C639.654 365.043 644.982 364.445 650.326 364.467C657.827 364.497 665.267 365.746 672.646 367.111C683.52 369.121 694.403 371.404 704.741 375.373C713.502 378.737 721.79 383.283 729.667 388.427C738.65 394.294 747.154 400.974 754.593 408.752C760.473 414.9 765.665 421.709 770.233 428.912C774.576 435.758 778.36 442.963 781.638 450.394C784.664 457.256 787.262 464.317 789.295 471.545C792.019 481.233 793.263 492.447 793.912 502.5V490.5L793.677 482.072L792.511 474.276L789.86 461.91C789.098 458.941 788.231 456 787.263 453.093C785.977 449.232 784.512 445.435 782.916 441.695C781.654 438.736 780.311 435.814 778.888 432.931C777.895 430.694 776.798 428.504 775.601 426.372C773.877 423.299 771.948 420.35 770.036 417.393C768.334 414.762 766.642 412.121 764.788 409.598C763.42 407.737 761.966 405.944 760.494 404.167C757.562 400.628 754.558 397.15 751.483 393.737C749.18 391.517 746.829 389.348 744.433 387.232C741.296 384.461 738.08 381.779 734.733 379.274C731.624 376.948 728.403 374.776 725.085 372.769L715.703 367.016C713.358 365.806 710.989 364.641 708.6 363.521C706.323 362.455 704.027 361.43 701.709 360.457C699.12 359.37 696.504 358.348 693.864 357.392C691.485 356.584 689.1 355.796 686.708 355.027C683.286 353.926 679.85 352.865 676.372 351.962C672.648 350.995 668.878 350.209 665.081 349.596C661.654 349.043 658.205 348.631 654.745 348.36L642.924 347.446C639.855 347.226 636.777 347.136 633.701 347.177C630.923 347.214 628.146 347.358 625.379 347.607C621.645 347.904 617.917 348.262 614.194 348.682C610.955 349.048 607.722 349.46 604.494 349.919C601.352 350.594 598.206 351.257 595.059 351.908C591.013 352.745 586.961 353.564 582.973 354.65C580.414 355.348 577.885 356.155 575.393 357.07L566.064 360.188L558.484 363.253C554.994 364.792 551.514 366.351 548.042 367.93C543.519 369.987 539.009 372.08 534.631 374.436C531.741 375.99 528.911 377.659 526.15 379.436L518.039 384.382C516.187 385.417 514.366 386.511 512.58 387.662C510.776 388.824 509.008 390.043 507.279 391.318C505.195 392.745 503.128 394.197 501.077 395.673C496.595 398.898 492.194 402.237 487.825 405.619C486.154 406.913 484.487 408.213 482.843 409.544C479.842 411.972 476.92 414.5 473.991 417.017C471.312 419.319 468.626 421.613 465.933 423.899C463.016 426.715 460.047 429.476 457.028 432.179C454.683 434.278 452.306 436.344 450.031 438.523C448.32 440.161 446.669 441.861 445.014 443.558C440.123 448.574 435.205 453.562 430.26 458.523C427.67 461.429 424.963 464.228 422.149 466.91C420.656 468.334 419.131 469.726 417.697 471.211C415.968 473.002 414.376 474.922 412.716 476.778C409.151 480.763 405.277 484.447 401.477 488.201C396.661 492.959 391.959 497.835 387.377 502.825L380.698 509.33C378.961 511.063 377.211 512.784 375.45 514.492C371.935 517.901 368.372 521.261 364.743 524.546C360.235 528.625 355.626 532.588 350.961 536.481C348.817 538.27 346.661 540.045 344.494 541.804L333.575 550.03L321.913 557.718C318.479 560.094 314.921 562.284 311.258 564.278C308.167 565.96 305.002 567.501 301.823 569.009C297.802 570.916 293.755 572.77 289.632 574.439C287.912 575.135 286.18 575.798 284.437 576.428C279.513 578.22 274.483 579.711 269.383 580.891C263.623 582.223 257.775 583.158 251.89 583.686L238.692 584.17C234.464 583.925 230.25 583.44 226.076 582.719C222.617 582.121 219.187 581.362 215.793 580.461C210.756 579.124 205.782 577.468 201.11 575.138C197.945 573.56 194.934 571.681 191.992 569.708C188.601 567.433 185.294 565.029 182.08 562.503L174.924 555.621C172.671 553.397 170.578 551.005 168.669 548.471C165.997 544.924 163.683 541.098 161.778 537.073C159.955 533.702 158.376 530.195 157.061 526.589C155.913 523.444 154.966 520.226 154.198 516.965C153.211 512.772 152.522 508.51 152.078 504.223C151.62 499.8 151.423 495.349 151.488 490.902C152.352 485.858 153.497 480.863 154.916 475.95C156.47 470.566 158.357 465.272 160.738 460.208C163.346 454.663 166.544 449.406 170.238 444.538C175.026 438.23 180.65 432.577 186.898 427.761C195.911 420.813 206.179 415.637 216.884 411.904C228.029 408.016 239.708 405.662 251.483 405.145C265.96 404.51 280.45 406.648 294.539 410.084C312.588 414.486 330.145 421.039 346.553 429.845C357.668 435.81 368.226 442.787 378.545 450.077C384.162 454.044 389.715 458.109 395.089 462.409C400.989 467.13 406.669 472.133 412.105 477.396L416.575 472.315Z" fill="#F5F5F5" stroke="black" stroke-width="1.00157"/>
<path d="M449.283 555.855L445.465 560.505L449.325 555.812L454.65 549.944L464.377 540.418C465.993 538.656 467.642 536.926 469.324 535.229C471.338 533.199 473.399 531.216 475.504 529.283C477.155 530.563 478.781 531.878 480.38 533.225C483.022 535.452 485.59 537.769 488.258 539.964C490.764 542.027 493.356 543.979 495.946 545.933C499.175 548.369 502.402 550.808 505.627 553.249C510.038 556.213 514.436 559.198 518.82 562.203C522.703 564.864 526.577 567.543 530.589 570C535.475 572.993 540.552 575.648 545.585 578.376C550.554 581.068 555.494 583.838 560.677 586.077C564.316 587.649 568.06 588.953 571.781 590.313C576.573 592.065 581.335 593.914 586.208 595.415C589.836 596.533 593.52 597.457 597.218 598.303C602.061 599.412 606.933 600.391 611.835 601.191C617.269 602.079 622.751 602.749 628.255 602.828C632.372 602.887 636.485 602.614 640.594 602.347C644.27 602.107 647.951 601.87 651.604 601.384C655.156 600.911 658.678 600.203 662.139 599.266C665.823 598.34 669.466 597.248 673.054 595.993C676.438 594.809 679.774 593.48 683.02 591.95C686.578 590.272 690.023 588.353 693.365 586.27C696.141 584.54 698.848 582.696 701.433 580.686C704.106 578.608 706.644 576.357 709.121 574.044C711.805 571.537 714.424 568.95 716.809 566.149C719.292 563.234 721.512 560.097 723.643 556.908C725.376 554.314 727.053 551.682 728.673 549.014C729.846 546.43 730.985 543.83 732.09 541.216C733.33 538.283 734.529 535.325 735.412 532.263C736.364 528.962 736.943 525.562 737.405 522.155C737.839 518.959 738.172 515.748 738.354 512.528C738.536 509.323 738.567 506.109 738.449 502.901C738.327 497.986 737.615 493.087 736.332 488.346C735.328 484.635 733.979 481.029 732.535 477.471C731.402 474.679 730.206 471.906 728.713 469.294C727.368 466.943 725.791 464.738 724.334 462.456C723.188 460.662 722.114 458.817 720.859 457.099C718.632 454.05 715.871 451.45 713.145 448.851C710.792 446.609 708.453 444.353 706.125 442.084C703.468 439.973 700.706 437.996 697.855 436.163C693.57 433.408 689.083 430.979 684.442 428.902C680.444 427.348 676.358 426.029 672.21 424.954C667.933 423.847 663.59 422.999 659.213 422.417L635.236 421.853L618.209 425.166C613.005 426.325 607.873 427.809 602.849 429.607C597.862 431.393 592.985 433.486 588.185 435.74C583.502 437.938 578.889 440.29 574.355 442.789C570.342 445.329 566.357 447.914 562.401 450.543C558.95 452.836 555.521 455.162 552.115 457.522C548.578 460.117 545.102 462.796 541.69 465.558C538.205 468.379 534.788 471.284 531.404 474.229C528.688 476.592 525.993 478.98 523.342 481.419C519.737 484.735 516.214 488.144 512.778 491.64C510.595 493.677 508.44 495.745 506.315 497.843C503.075 501.042 499.902 504.31 496.724 507.571C491.875 512.546 487.01 517.504 482.129 522.445C477.536 526.902 473.018 531.438 468.576 536.05C465.326 539.426 462.116 542.844 458.777 546.131C455.767 549.094 452.653 551.95 449.742 555.013C446.626 558.29 443.752 561.795 440.696 565.13C437.376 568.752 433.843 572.173 430.121 575.368L412.992 590.482C409.653 593.232 406.288 595.951 402.898 598.637C400.32 600.68 397.727 602.704 395.12 604.709C390.469 608.299 385.687 611.715 380.787 614.947C376.425 617.825 371.97 620.557 367.46 623.191C363.387 625.57 359.268 627.869 355.094 630.06C350.412 632.518 345.661 634.838 340.848 637.019C338.089 638.283 335.306 639.495 332.502 640.653C328.438 642.332 324.328 643.899 320.18 645.351L308.731 649.517C303.543 651.019 298.311 652.364 293.044 653.551C288.004 654.686 282.933 655.677 277.837 656.52L264.117 658.116L248.779 658.204L238.685 657.805C234.812 657.557 230.948 657.158 227.105 656.609C222.821 655.996 218.563 655.197 214.346 654.215C211.047 653.535 207.791 652.647 204.601 651.556C201.722 650.571 198.901 649.423 196.081 648.276C192.629 646.872 189.177 645.469 185.724 644.066L173.883 638.26C169.303 635.888 164.865 633.237 160.599 630.326C157.736 628.373 154.951 626.302 152.253 624.121L144.081 617.384C141.811 615.394 139.596 613.339 137.439 611.224C134.973 608.805 132.583 606.306 130.273 603.733L123.15 595.224C121.587 592.957 120.057 590.667 118.562 588.354C117.195 586.239 115.856 584.104 114.586 581.927C113.108 579.395 111.723 576.808 110.435 574.171L107.638 567.612L103.924 559.457L101.739 552.543L98.2869 539.601L96.6701 530.338C96.1249 526.97 95.6876 523.585 95.3592 520.188C95.104 517.549 94.9146 514.903 94.7911 512.255L97.7625 525.773L100.734 538.138C101.362 540.284 102.047 542.412 102.788 544.52C103.996 547.961 105.352 551.349 106.851 554.67C108.01 557.757 109.308 560.79 110.741 563.756C112.765 567.949 115.059 572.008 117.601 575.9L123.063 583.567L129.865 592.211C133.696 596.353 137.7 600.33 141.861 604.13C145.119 607.104 148.475 609.971 151.982 612.636C155.058 614.972 158.248 617.152 161.525 619.186C165.059 621.379 168.696 623.402 172.418 625.248C176.376 627.211 180.431 628.974 184.563 630.527C188.706 632.151 192.921 633.587 197.19 634.829C201.604 636.113 206.077 637.19 210.589 638.056L224.758 639.522L246.158 640.304C252.456 640.063 258.739 639.41 264.954 638.349C274.726 636.682 284.315 634.011 293.679 630.723C298.033 629.194 302.341 627.531 306.595 625.737C312.675 623.062 318.628 620.091 324.428 616.84C328.841 614.365 333.165 611.729 337.441 609.018C342.43 605.856 347.36 602.59 352.093 599.046C357.476 595.015 362.594 590.631 367.612 586.14C371.705 582.476 375.734 578.738 379.757 574.995C384.079 570.973 388.395 566.944 392.577 562.773C396.466 558.895 400.238 554.897 403.951 550.846C407.05 547.466 410.108 544.049 413.109 540.58C417.301 535.733 421.38 530.787 425.543 525.914C427.721 523.366 429.922 520.838 432.098 518.289C435.738 514.023 439.308 509.695 442.894 505.383C446.231 501.37 449.582 497.37 452.919 493.357C456.637 488.885 460.336 484.396 464.1 479.963C467.487 475.974 470.925 472.03 474.414 468.133C478.042 464.122 481.673 460.113 485.306 456.107C490.262 450.645 495.226 445.185 500.44 439.976C505.057 435.363 509.865 430.951 514.706 426.581C519.028 422.68 523.378 418.81 527.815 415.044C531.292 412.094 534.823 409.206 538.515 406.538C542.508 403.653 546.679 401.031 550.853 398.424C556.005 395.205 561.171 392.003 566.469 389.038C571.616 386.156 576.887 383.499 582.277 381.119C588.068 378.56 593.996 376.322 600.013 374.372C605.19 372.695 610.434 371.231 615.725 369.973C621.174 368.677 626.675 367.601 632.208 366.746C636.481 365.984 640.795 365.462 645.125 365.182C648.205 364.983 651.297 364.907 654.378 365.084C659.045 365.353 663.658 366.199 668.259 367.04C673.587 368.013 678.919 368.981 684.199 370.195C690.207 371.577 696.146 373.28 701.939 375.406C706.433 377.057 710.836 378.961 715.121 381.109C719.507 382.943 723.755 385.115 727.819 387.598C731.754 390.002 735.516 392.699 739.063 395.659C743.125 399.028 747.101 402.503 750.985 406.081C754.456 409.277 757.862 412.563 760.872 416.207C763.639 419.555 766.054 423.184 768.433 426.825C770.831 430.495 773.2 434.189 775.315 438.033C777.35 441.733 779.145 445.565 780.84 449.438C782.871 454.078 784.761 458.786 786.365 463.595C787.604 467.311 788.672 471.085 789.564 474.902L792.181 488.174L793.912 500.5C794.066 505.7 794.173 511.07 793.745 516.254C793.528 518.879 793.236 521.498 792.868 524.105C792.271 528.341 791.474 532.546 790.546 536.72C789.804 540.056 788.978 543.373 788.069 546.666C787.081 550.311 785.927 553.911 784.611 557.448C783.359 560.814 781.961 564.123 780.482 567.394C778.828 571.054 777.072 574.668 775.219 578.229C773.69 581.025 772.037 583.75 770.264 586.394C768.09 589.639 765.739 592.757 763.452 595.921C761.825 598.173 760.228 600.45 758.498 602.621C756.262 605.427 753.81 608.048 751.273 610.577C748.295 613.547 745.198 616.393 742.036 619.162C737.878 622.801 733.603 626.31 729.082 629.473C723.241 633.561 717.014 637.054 710.659 640.256C706.383 642.411 702.041 644.438 697.602 646.223C690.763 648.974 683.704 651.144 676.547 652.871C672.483 653.851 668.386 654.69 664.265 655.383L644.964 657.215L622.36 656.901C614.072 656.148 605.82 654.995 597.641 653.447C588.805 651.774 580.05 649.639 571.476 646.904C566.258 645.239 561.108 643.352 556.046 641.251C550.704 638.818 545.42 636.252 540.203 633.556C534.797 630.763 529.462 627.831 524.204 624.762C519.779 621.75 515.358 618.732 510.942 615.707C507.102 613.077 503.266 610.443 499.433 607.803C493.382 603.045 487.428 598.158 481.578 593.147C476.514 588.809 471.528 584.38 466.54 579.952C463.552 577.299 460.562 574.647 457.505 572.077C455.216 570.153 452.888 568.275 450.666 566.273C448.771 564.566 446.954 562.771 445.223 560.894M404.893 471.406L412.034 477.571L404.834 471.346C399.844 467.29 394.788 463.319 389.667 459.434C384.036 455.162 378.328 450.994 372.553 446.924C364.617 441.331 356.534 435.911 347.944 431.421C343.116 428.897 338.143 426.675 333.19 424.417C328.086 422.09 322.998 419.722 317.787 417.653C313.226 415.843 308.576 414.264 303.859 412.924C299.625 411.59 295.331 410.451 290.994 409.513C285.501 408.324 279.94 407.456 274.352 406.879C267.865 406.208 261.338 405.928 254.818 406.041C248.113 406.231 241.421 406.911 234.812 408.076C229.393 409.031 224.03 410.311 218.76 411.907C214.565 413.503 210.43 415.26 206.367 417.174C202.292 419.093 198.283 421.174 194.505 423.639C191.615 425.525 188.869 427.63 186.184 429.804C183.304 432.137 180.489 434.552 177.744 437.047L169.01 447.223C166.057 450.34 163.562 453.903 161.633 457.758C160.86 459.303 160.179 460.893 159.509 462.487C158.582 464.692 157.677 466.907 156.794 469.131L154.434 476.853L152.781 483.916C152.044 486.688 152.08 486.5 151.587 491C151.261 493.982 151.645 501.01 152.08 503.5C152.296 501.043 152.357 495.93 152.781 493.5C153.13 491.501 153.563 488.469 154.052 486.5C154.476 484.223 155.27 481.688 156.024 479.5C156.727 477.459 158.598 473.471 159.474 471.5C160.357 469.515 160.293 470.015 161.243 468.063C162.405 466.084 163.632 464.145 164.923 462.251C166.437 460.03 168.039 457.869 169.722 455.777C171.782 453.431 173.927 451.16 176.151 448.973C178.141 447.016 180.196 445.124 182.347 443.35C184.478 441.592 186.703 439.951 189.008 438.436C191.409 436.927 193.865 435.508 196.369 434.184C198.975 432.805 201.633 431.528 204.335 430.356C208.022 428.69 211.823 427.283 215.702 426.151C219.34 425.089 223.046 424.267 226.789 423.694C233.26 422.688 239.81 422.214 246.356 422.276C250.339 422.314 254.321 422.551 258.281 422.985L268.111 424.355L275.798 426.104C280.032 427.174 284.216 428.452 288.329 429.931C292.217 431.329 296.043 432.906 299.789 434.656L308.268 438.72C312.395 441.086 316.48 443.527 320.52 446.044C323.721 448.037 326.895 450.078 330.024 452.186C334.902 455.474 339.673 458.925 344.326 462.534L358.534 474.489L369.808 484.884L387.749 502.858C389.73 500.775 391.711 498.69 393.691 496.605C395.838 494.342 397.985 492.078 400.13 489.813L406.628 482.881L410.655 479.245L412.128 477.602" fill="#C41E3A"/>
<path d="M449.283 555.855L445.465 560.505L449.325 555.812L454.65 549.944L464.377 540.418C465.993 538.656 467.642 536.926 469.324 535.229C471.338 533.199 473.399 531.216 475.504 529.283C477.155 530.563 478.781 531.878 480.38 533.225C483.022 535.452 485.59 537.769 488.258 539.964C490.764 542.027 493.356 543.979 495.946 545.933C499.175 548.369 502.402 550.808 505.627 553.249C510.038 556.213 514.436 559.198 518.82 562.203C522.703 564.864 526.577 567.543 530.589 570C535.475 572.993 540.552 575.648 545.585 578.376C550.554 581.068 555.494 583.838 560.677 586.077C564.316 587.649 568.06 588.953 571.781 590.313C576.573 592.065 581.335 593.914 586.208 595.415C589.836 596.533 593.52 597.457 597.218 598.303C602.061 599.412 606.933 600.391 611.835 601.191C617.269 602.079 622.751 602.749 628.255 602.828C632.372 602.887 636.485 602.614 640.594 602.347C644.27 602.107 647.951 601.87 651.604 601.384C655.156 600.911 658.678 600.203 662.139 599.266C665.823 598.34 669.466 597.248 673.054 595.993C676.438 594.809 679.774 593.48 683.02 591.95C686.578 590.272 690.023 588.353 693.365 586.27C696.141 584.54 698.848 582.696 701.433 580.686C704.106 578.608 706.644 576.357 709.121 574.044C711.805 571.537 714.424 568.95 716.809 566.149C719.292 563.234 721.512 560.097 723.643 556.908C725.376 554.314 727.053 551.682 728.673 549.014C729.846 546.43 730.985 543.83 732.09 541.216C733.33 538.283 734.529 535.325 735.412 532.263C736.364 528.962 736.943 525.562 737.405 522.155C737.839 518.959 738.172 515.748 738.354 512.528C738.536 509.323 738.567 506.109 738.449 502.901C738.327 497.986 737.615 493.087 736.332 488.346C735.328 484.635 733.979 481.029 732.535 477.471C731.402 474.679 730.206 471.906 728.713 469.294C727.368 466.943 725.791 464.738 724.334 462.456C723.188 460.662 722.114 458.817 720.859 457.099C718.632 454.05 715.871 451.45 713.145 448.851C710.792 446.609 708.453 444.353 706.125 442.084C703.468 439.973 700.706 437.996 697.855 436.163C693.57 433.408 689.083 430.979 684.442 428.902C680.444 427.348 676.358 426.029 672.21 424.954C667.933 423.847 663.59 422.999 659.213 422.417L635.236 421.853L618.209 425.166C613.005 426.325 607.873 427.809 602.849 429.607C597.862 431.393 592.985 433.486 588.185 435.74C583.502 437.938 578.889 440.29 574.355 442.789C570.342 445.329 566.357 447.914 562.401 450.543C558.95 452.836 555.521 455.162 552.115 457.522C548.578 460.117 545.102 462.796 541.69 465.558C538.205 468.379 534.788 471.284 531.404 474.229C528.688 476.592 525.993 478.98 523.342 481.419C519.737 484.735 516.214 488.144 512.778 491.64C510.595 493.677 508.44 495.745 506.315 497.843C503.075 501.042 499.902 504.31 496.724 507.571C491.875 512.546 487.01 517.504 482.129 522.445C477.536 526.902 473.018 531.438 468.576 536.05C465.326 539.426 462.116 542.844 458.777 546.131C455.767 549.094 452.653 551.95 449.742 555.013C446.626 558.29 443.752 561.795 440.696 565.13C437.376 568.752 433.843 572.173 430.121 575.368L412.992 590.482C409.653 593.232 406.288 595.951 402.898 598.637C400.32 600.68 397.727 602.704 395.12 604.709C390.469 608.299 385.687 611.715 380.787 614.947C376.425 617.825 371.97 620.557 367.46 623.191C363.387 625.57 359.268 627.869 355.094 630.06C350.412 632.518 345.661 634.838 340.848 637.019C338.089 638.283 335.306 639.495 332.502 640.653C328.438 642.332 324.328 643.899 320.18 645.351L308.731 649.517C303.543 651.019 298.311 652.364 293.044 653.551C288.004 654.686 282.933 655.677 277.837 656.52L264.117 658.116L248.779 658.204L238.685 657.805C234.812 657.557 230.948 657.158 227.105 656.609C222.821 655.996 218.563 655.197 214.346 654.215C211.047 653.535 207.791 652.647 204.601 651.556C201.722 650.571 198.901 649.423 196.081 648.276C192.629 646.872 189.177 645.469 185.724 644.066L173.883 638.26C169.303 635.888 164.865 633.237 160.599 630.326C157.736 628.373 154.951 626.302 152.253 624.121L144.081 617.384C141.811 615.394 139.596 613.339 137.439 611.224C134.973 608.805 132.583 606.306 130.273 603.733L123.15 595.224C121.587 592.957 120.057 590.667 118.562 588.354C117.195 586.239 115.856 584.104 114.586 581.927C113.108 579.395 111.723 576.808 110.435 574.171L107.638 567.612L103.924 559.457L101.739 552.543L98.2869 539.601L96.6701 530.338C96.1249 526.97 95.6876 523.585 95.3592 520.188C95.104 517.549 94.9146 514.903 94.7911 512.255L97.7625 525.773L100.734 538.138C101.362 540.284 102.047 542.412 102.788 544.52C103.996 547.961 105.352 551.349 106.851 554.67C108.01 557.757 109.308 560.79 110.741 563.756C112.765 567.949 115.059 572.008 117.601 575.9L123.063 583.567L129.865 592.211C133.696 596.353 137.7 600.33 141.861 604.13C145.119 607.104 148.475 609.971 151.982 612.636C155.058 614.972 158.248 617.152 161.525 619.186C165.059 621.379 168.696 623.402 172.418 625.248C176.376 627.211 180.431 628.974 184.563 630.527C188.706 632.151 192.921 633.587 197.19 634.829C201.604 636.113 206.077 637.19 210.589 638.056L224.758 639.522L246.158 640.304C252.456 640.063 258.739 639.41 264.954 638.349C274.726 636.682 284.315 634.011 293.679 630.723C298.033 629.194 302.341 627.531 306.595 625.737C312.675 623.062 318.628 620.091 324.428 616.84C328.841 614.365 333.165 611.729 337.441 609.018C342.43 605.856 347.36 602.59 352.093 599.046C357.476 595.015 362.594 590.631 367.612 586.14C371.705 582.476 375.734 578.738 379.757 574.995C384.079 570.973 388.395 566.944 392.577 562.773C396.466 558.895 400.238 554.897 403.951 550.846C407.05 547.466 410.108 544.049 413.109 540.58C417.301 535.733 421.38 530.787 425.543 525.914C427.721 523.366 429.922 520.838 432.098 518.289C435.738 514.023 439.308 509.695 442.894 505.383C446.231 501.37 449.582 497.37 452.919 493.357C456.637 488.885 460.336 484.396 464.1 479.963C467.487 475.974 470.925 472.03 474.414 468.133C478.042 464.122 481.673 460.113 485.306 456.107C490.262 450.645 495.226 445.185 500.44 439.976C505.057 435.363 509.865 430.951 514.706 426.581C519.028 422.68 523.378 418.81 527.815 415.044C531.292 412.094 534.823 409.206 538.515 406.538C542.508 403.653 546.679 401.031 550.853 398.424C556.005 395.205 561.171 392.003 566.469 389.038C571.616 386.156 576.887 383.499 582.277 381.119C588.068 378.56 593.996 376.322 600.013 374.372C605.19 372.695 610.434 371.231 615.725 369.973C621.174 368.677 626.675 367.601 632.208 366.746C636.481 365.984 640.795 365.462 645.125 365.182C648.205 364.983 651.297 364.907 654.378 365.084C659.045 365.353 663.658 366.199 668.259 367.04C673.587 368.013 678.919 368.981 684.199 370.195C690.207 371.577 696.146 373.28 701.939 375.406C706.433 377.057 710.836 378.961 715.121 381.109C719.507 382.943 723.755 385.115 727.819 387.598C731.754 390.002 735.516 392.699 739.063 395.659C743.125 399.028 747.101 402.503 750.985 406.081C754.456 409.277 757.862 412.563 760.872 416.207C763.639 419.555 766.054 423.184 768.433 426.825C770.831 430.495 773.2 434.189 775.315 438.033C777.35 441.733 779.145 445.565 780.84 449.438C782.871 454.078 784.761 458.786 786.365 463.595C787.604 467.311 788.672 471.085 789.564 474.902L792.181 488.174L793.912 500.5C794.066 505.7 794.173 511.07 793.745 516.254C793.528 518.879 793.236 521.498 792.868 524.105C792.271 528.341 791.474 532.546 790.546 536.72C789.804 540.056 788.978 543.373 788.069 546.666C787.081 550.311 785.927 553.911 784.611 557.448C783.359 560.814 781.961 564.123 780.482 567.394C778.828 571.054 777.072 574.668 775.219 578.229C773.69 581.025 772.037 583.75 770.264 586.394C768.09 589.639 765.739 592.757 763.452 595.921C761.825 598.173 760.228 600.45 758.498 602.621C756.262 605.427 753.81 608.048 751.273 610.577C748.295 613.547 745.198 616.393 742.036 619.162C737.878 622.801 733.603 626.31 729.082 629.473C723.241 633.561 717.014 637.054 710.659 640.256C706.383 642.411 702.041 644.438 697.602 646.223C690.763 648.974 683.704 651.144 676.547 652.871C672.483 653.851 668.386 654.69 664.265 655.383L644.964 657.215L622.36 656.901C614.072 656.148 605.82 654.995 597.641 653.447C588.805 651.774 580.05 649.639 571.476 646.904C566.258 645.239 561.108 643.352 556.046 641.251C550.704 638.818 545.42 636.252 540.203 633.556C534.797 630.763 529.462 627.831 524.204 624.762C519.779 621.75 515.358 618.732 510.942 615.707C507.102 613.077 503.266 610.443 499.433 607.803C493.382 603.045 487.428 598.158 481.578 593.147C476.514 588.809 471.528 584.38 466.54 579.952C463.552 577.299 460.562 574.647 457.505 572.077C455.216 570.153 452.888 568.275 450.666 566.273C448.771 564.566 446.954 562.771 445.223 560.894M404.893 471.406L412.034 477.571L404.834 471.346C399.844 467.29 394.788 463.319 389.667 459.434C384.036 455.162 378.328 450.994 372.553 446.924C364.617 441.331 356.534 435.911 347.944 431.421C343.116 428.897 338.143 426.675 333.19 424.417C328.086 422.09 322.998 419.722 317.787 417.653C313.226 415.843 308.576 414.264 303.859 412.924C299.625 411.59 295.331 410.451 290.994 409.513C285.501 408.324 279.94 407.456 274.352 406.879C267.865 406.208 261.338 405.928 254.818 406.041C248.113 406.231 241.421 406.911 234.812 408.076C229.393 409.031 224.03 410.311 218.76 411.907C214.565 413.503 210.43 415.26 206.367 417.174C202.292 419.093 198.283 421.174 194.505 423.639C191.615 425.525 188.869 427.63 186.184 429.804C183.304 432.137 180.489 434.552 177.744 437.047L169.01 447.223C166.057 450.34 163.562 453.903 161.633 457.758C160.86 459.303 160.179 460.893 159.509 462.487C158.582 464.692 157.677 466.907 156.794 469.131L154.434 476.853L152.781 483.916C152.044 486.688 152.08 486.5 151.587 491C151.261 493.982 151.645 501.01 152.08 503.5C152.296 501.043 152.357 495.93 152.781 493.5C153.13 491.501 153.563 488.469 154.052 486.5C154.476 484.223 155.27 481.688 156.024 479.5C156.727 477.459 158.598 473.471 159.474 471.5C160.357 469.515 160.293 470.015 161.243 468.063C162.405 466.084 163.632 464.145 164.923 462.251C166.437 460.03 168.039 457.869 169.722 455.777C171.782 453.431 173.927 451.16 176.151 448.973C178.141 447.016 180.196 445.124 182.347 443.35C184.478 441.592 186.703 439.951 189.008 438.436C191.409 436.927 193.865 435.508 196.369 434.184C198.975 432.805 201.633 431.528 204.335 430.356C208.022 428.69 211.823 427.283 215.702 426.151C219.34 425.089 223.046 424.267 226.789 423.694C233.26 422.688 239.81 422.214 246.356 422.276C250.339 422.314 254.321 422.551 258.281 422.985L268.111 424.355L275.798 426.104C280.032 427.174 284.216 428.452 288.329 429.931C292.217 431.329 296.043 432.906 299.789 434.656L308.268 438.72C312.395 441.086 316.48 443.527 320.52 446.044C323.721 448.037 326.895 450.078 330.024 452.186C334.902 455.474 339.673 458.925 344.326 462.534L358.534 474.489L369.808 484.884L387.749 502.858C389.73 500.775 391.711 498.69 393.691 496.605C395.838 494.342 397.985 492.078 400.13 489.813L406.628 482.881L410.655 479.245L412.128 477.602" stroke="black" stroke-width="1.00157"/>
<path d="M443.666 956.301L44.0886 729.4L44.0886 275.599L443.666 48.6988L843.243 275.599V729.4L443.666 956.301Z" stroke="black" stroke-width="5.00001" stroke-linejoin="round"/>
<path d="M443.666 1002.5L3.40981 752.5L3.40979 252.5L443.666 2.5L883.922 252.5V752.5L443.666 1002.5Z" stroke="black" stroke-width="4.99999" stroke-linejoin="round"/>
</svg>

