<svg width="702" height="445" viewBox="0 0 702 445" fill="none" xmlns="http://www.w3.org/2000/svg">
<path d="M643.236 238.098C643.182 240.696 642.965 243.509 642.743 246.098C642.437 249.661 641.735 252.2 641.055 255.709C640.566 258.23 639.966 260.731 639.188 263.176C638.306 265.947 637.198 268.64 635.974 271.274C634.893 273.601 633.721 275.885 632.448 278.11C631.231 280.239 629.921 282.314 628.508 284.315C626.529 287.12 624.348 289.778 622.004 292.277C619.765 294.664 617.375 296.907 614.858 298.991C612.888 300.622 610.84 302.154 608.765 303.645C606.141 305.53 603.466 307.353 600.641 308.91C598.251 310.226 595.759 311.35 593.194 312.267C589.781 313.642 586.317 314.89 582.813 316.005C579.062 317.2 575.257 318.245 571.379 318.905C567.676 319.535 563.922 319.81 560.171 319.973C556.412 320.136 552.649 320.187 548.888 320.125C545.749 320.297 542.593 320.144 539.485 319.668C537.593 319.378 535.721 318.969 533.843 318.6C529.024 317.651 524.15 316.955 519.4 315.7C516.237 314.865 513.143 313.784 510.072 312.648C507.141 311.564 504.228 310.428 501.347 309.215C498.609 308.063 495.9 306.842 493.223 305.553L484.497 300.899L476.222 296.168C473.742 294.628 471.284 293.051 468.85 291.438C466.329 289.767 463.832 288.056 461.403 286.249C459.037 284.49 456.738 282.64 454.407 280.832C452.165 279.092 449.892 277.389 447.713 275.568C445.888 274.044 444.131 272.439 442.372 270.837C440.111 268.778 437.847 266.723 435.526 264.733C433.379 262.892 431.184 261.107 429.057 259.24C426.79 257.249 424.602 255.165 422.513 252.984C420.497 250.878 418.299 248.876 416.475 246.598L408.925 238.61C407.237 240.133 405.578 241.688 403.947 243.274C402.566 244.618 401.205 245.985 399.857 247.363C396.641 250.653 393.495 254.012 390.379 257.399C387.786 260.216 385.214 263.052 382.662 265.907L386.546 269.534C389.093 271.642 391.645 273.745 394.202 275.841C397.706 278.713 401.22 281.574 404.777 284.379C409.285 287.932 413.864 291.394 418.567 294.676C422.799 297.628 427.131 300.434 431.553 303.085C436.57 306.329 441.692 309.406 446.908 312.309C451.727 314.991 456.627 317.525 461.618 319.86C473.897 325.606 486.704 330.14 499.703 333.92C505.375 335.57 511.101 337.08 516.94 337.937C522.989 338.824 529.115 339.004 535.225 339.118C541.207 339.229 547.2 339.279 553.161 338.763C558.024 338.343 562.855 337.547 567.603 336.401C572.707 335.168 577.71 333.533 582.627 331.676C587.273 329.921 591.851 327.965 596.253 325.651C600.533 323.401 604.644 320.812 608.482 317.855C612.01 315.136 615.304 312.11 618.382 308.877C621.422 305.684 624.252 302.291 627 298.836C629.445 295.763 631.832 292.631 633.872 289.267C635.985 285.783 637.713 282.069 639.216 278.272C641.171 273.333 642.752 268.239 643.888 263.043C644.89 258.457 645.399 253.785 645.7 249.098C645.7 246.697 645.801 244.504 645.7 242.098C645.546 238.41 645.7 239.098 645.207 235.098C645.084 234.098 643.729 228.098 643.729 226.598L643.236 238.098ZM323.575 209.315L329.547 203.422L334.671 198.49L340.545 192.068L347.562 185.183L351.825 180.563L342.722 172.032L337.335 166.738C335.11 164.784 332.893 162.82 330.684 160.847C328.148 158.582 325.623 156.305 323.108 154.016C319.187 150.608 315.201 147.277 311.154 144.026C308.94 142.248 306.708 140.494 304.419 138.817C302.197 137.191 299.923 135.638 297.684 134.036C295.07 132.164 292.503 130.223 289.855 128.4C287.517 126.79 285.118 125.274 282.7 123.79C280.16 122.23 277.598 120.707 275.039 119.179C272.427 117.618 269.817 116.053 267.21 114.483C264.77 113.143 262.329 111.805 259.886 110.469C257.058 108.922 254.226 107.376 251.3 106.029C248.803 104.88 246.244 103.878 243.723 102.785C241.274 101.722 238.861 100.573 236.399 99.5401C233.593 98.3624 230.726 97.3359 227.813 96.4663C224.037 95.2313 220.248 94.0358 216.448 92.8801C211.85 91.4818 207.233 90.141 202.558 89.0377C197.995 87.961 193.382 87.1117 188.752 86.3908C185.394 85.868 182.026 85.4125 178.65 85.0246C175.453 84.7881 172.254 84.5888 169.053 84.4269C165.127 84.2284 161.198 84.0861 157.268 84C153.362 84.1212 149.46 84.349 145.566 84.6831C141.768 85.009 137.978 85.4362 134.201 85.9639L121.827 88.0985C118.37 88.7737 114.943 89.6001 111.556 90.5747C107.097 91.8579 102.711 93.3982 98.4238 95.1855L85.7122 100.736L74.2633 106.798C71.1723 108.723 68.1398 110.745 65.1716 112.86C61.5657 115.43 58.0548 118.136 54.6487 120.972C51.6441 123.668 48.6968 126.429 45.8095 129.254C43.0237 131.98 40.292 134.766 37.728 137.707C33.7948 142.219 30.2663 147.084 27.0368 152.137C23.9517 156.965 21.1367 161.968 18.5343 167.08C15.8885 172.277 13.4601 177.592 11.3788 183.047C9.81401 187.148 8.44592 191.327 7.31058 195.571C5.97807 200.552 4.96763 205.616 4.05769 210.694C2.9586 216.827 2.00403 222.992 1.451 229.201C0.981209 234.475 0.802319 239.792 1.28808 245.064C1.67793 249.296 2.49336 253.475 3.40602 257.623C4.41887 262.226 5.55321 266.802 6.8273 271.338C8.44169 277.086 10.2806 282.769 12.3665 288.359C14.1752 293.205 16.1724 297.987 18.5574 302.57C21.2812 307.804 24.4993 312.757 27.8437 317.607C31.1037 322.335 34.5012 326.988 38.4333 331.157C41.8363 334.765 45.6146 337.983 49.3488 341.237C52.9532 344.377 56.5326 347.564 60.4272 350.325C63.9632 352.832 67.7364 354.972 71.5056 357.1C76.3244 359.822 81.1545 362.536 86.1682 364.867C90.5621 366.91 95.0886 368.655 99.6904 370.155C105.663 372.102 111.765 373.638 117.937 374.782C121.55 375.451 125.19 375.987 128.853 376.269C133.187 376.603 137.539 376.58 141.886 376.599C147.318 376.622 152.753 376.711 158.178 376.434C163.699 376.152 169.201 375.492 174.632 374.451C181.69 373.099 188.612 371.11 195.486 368.998C201.769 367.068 208.032 365.029 214.059 362.388C218.853 360.287 223.48 357.812 228.069 355.283C231.787 353.234 235.484 351.148 239.148 349.003C243.901 346.222 248.6 343.342 253.159 340.245C259.471 335.958 265.511 331.257 271.243 326.2C276.433 321.62 281.367 316.752 286.394 311.989C291.055 307.572 295.798 303.244 300.405 298.769C306.786 292.571 312.901 286.094 318.815 279.435C324.819 272.674 330.615 265.726 336.41 258.78C345.644 247.711 354.881 236.643 364.106 225.566C374.412 213.189 384.712 200.792 395.712 189.046C405.316 178.791 415.442 169.046 425.851 159.633C433.466 152.748 441.251 146.025 449.637 140.134C458.965 133.582 468.979 128.098 479.126 122.948C488.597 118.141 498.233 113.601 508.288 110.225C519.022 106.62 530.16 104.367 541.36 102.789C546.654 102.043 551.982 101.445 557.326 101.467C564.827 101.497 572.267 102.746 579.646 104.111C590.52 106.121 601.403 108.404 611.741 112.373C620.502 115.737 628.79 120.283 636.667 125.427C645.65 131.294 654.154 137.974 661.593 145.752C667.473 151.9 672.665 158.709 677.233 165.912C681.576 172.758 685.36 179.963 688.638 187.394C691.664 194.256 694.262 201.317 696.295 208.545C699.019 218.233 700.263 229.447 700.912 239.5V227.5L700.677 219.072L699.511 211.276L696.86 198.91C696.098 195.941 695.231 193 694.263 190.093C692.977 186.232 691.512 182.435 689.916 178.695C688.654 175.736 687.311 172.814 685.888 169.931C684.895 167.694 683.798 165.504 682.601 163.372C680.877 160.299 678.948 157.35 677.036 154.393C675.334 151.762 673.642 149.121 671.788 146.598C670.42 144.737 668.966 142.944 667.494 141.167C664.562 137.628 661.558 134.15 658.483 130.737C656.18 128.517 653.829 126.348 651.433 124.232C648.296 121.461 645.08 118.779 641.733 116.274C638.624 113.948 635.403 111.776 632.085 109.769L622.703 104.016C620.358 102.806 617.989 101.641 615.6 100.521C613.323 99.4547 611.027 98.4298 608.709 97.4569C606.12 96.3698 603.504 95.3479 600.864 94.3923C598.485 93.5843 596.1 92.7957 593.708 92.0267C590.286 90.9262 586.85 89.8653 583.372 88.9621C579.648 87.995 575.878 87.2094 572.081 86.5965C568.654 86.0432 565.205 85.6306 561.745 85.3599L549.924 84.4459C546.855 84.2259 543.777 84.1361 540.701 84.1771C537.923 84.2141 535.146 84.3576 532.379 84.6072C528.645 84.9039 524.917 85.2624 521.194 85.6825C517.955 86.0481 514.722 86.4603 511.494 86.9191C508.352 87.594 505.206 88.2571 502.059 88.9083C498.013 89.7454 493.961 90.5636 489.973 91.6503C487.414 92.3477 484.885 93.1551 482.393 94.0697L473.064 97.188L465.484 100.253C461.994 101.792 458.514 103.351 455.042 104.93C450.519 106.987 446.009 109.08 441.631 111.436C438.741 112.99 435.911 114.659 433.15 116.436L425.039 121.382C423.187 122.417 421.366 123.511 419.58 124.662C417.776 125.824 416.008 127.043 414.279 128.318C412.195 129.745 410.128 131.197 408.077 132.673C403.595 135.898 399.194 139.237 394.825 142.619C393.154 143.913 391.487 145.213 389.843 146.544C386.842 148.972 383.92 151.5 380.991 154.017C378.312 156.319 375.626 158.613 372.933 160.899C370.016 163.715 367.047 166.476 364.028 169.179C361.683 171.278 359.306 173.344 357.031 175.523C355.32 177.161 353.669 178.861 352.014 180.558C347.123 185.574 342.205 190.562 337.26 195.523C334.67 198.429 331.963 201.228 329.149 203.91C327.656 205.334 326.131 206.726 324.697 208.211C322.968 210.002 321.376 211.922 319.716 213.778C316.151 217.763 312.277 221.447 308.477 225.201C303.661 229.959 298.959 234.835 294.377 239.825L287.698 246.33C285.961 248.063 284.211 249.784 282.45 251.492C278.935 254.901 275.372 258.261 271.743 261.546C267.235 265.625 262.626 269.588 257.961 273.481C255.817 275.27 253.661 277.045 251.494 278.804L240.575 287.03L228.913 294.718C225.479 297.094 221.921 299.284 218.258 301.278C215.167 302.96 212.002 304.501 208.823 306.009C204.802 307.916 200.755 309.77 196.632 311.439C194.912 312.135 193.18 312.798 191.437 313.428C186.513 315.22 181.483 316.711 176.383 317.891C170.623 319.223 164.775 320.158 158.89 320.686L145.692 321.17C141.464 320.925 137.25 320.44 133.076 319.719C129.617 319.121 126.187 318.362 122.793 317.461C117.756 316.124 112.782 314.468 108.11 312.138C104.945 310.56 101.934 308.681 98.9924 306.708C95.601 304.433 92.2938 302.029 89.08 299.503L81.924 292.621C79.6708 290.397 77.5784 288.005 75.6692 285.471C72.9965 281.924 70.6834 278.098 68.7783 274.073C66.9546 270.702 65.3763 267.195 64.0606 263.589C62.9133 260.444 61.9658 257.226 61.1982 253.965C60.2114 249.772 59.522 245.51 59.0779 241.223C58.6198 236.8 58.4226 232.349 58.4875 227.902C59.3518 222.858 60.497 217.863 61.9157 212.95C63.4704 207.566 65.3566 202.272 67.7381 197.208C70.3458 191.663 73.5437 186.406 77.2384 181.538C82.0262 175.23 87.6495 169.577 93.8984 164.761C102.911 157.813 113.179 152.637 123.884 148.904C135.029 145.016 146.708 142.662 158.483 142.145C172.96 141.51 187.45 143.648 201.539 147.084C219.588 151.486 237.145 158.039 253.553 166.845C264.668 172.81 275.226 179.787 285.545 187.077C291.162 191.044 296.715 195.109 302.089 199.409C307.989 204.13 313.669 209.133 319.105 214.396L323.575 209.315Z" fill="url(#paint0_linear_16_92)" stroke="black" stroke-width="1.00157"/>
<path d="M356.283 292.855L352.465 297.505L356.325 292.812L361.65 286.944L371.377 277.418C372.993 275.656 374.642 273.926 376.325 272.229C378.338 270.199 380.399 268.216 382.504 266.283C384.155 267.563 385.781 268.878 387.38 270.225C390.022 272.452 392.59 274.769 395.258 276.964C397.764 279.027 400.356 280.979 402.946 282.933C406.175 285.369 409.402 287.808 412.627 290.249C417.038 293.213 421.436 296.198 425.82 299.203C429.703 301.864 433.577 304.543 437.589 307C442.475 309.993 447.552 312.648 452.585 315.376C457.554 318.068 462.494 320.838 467.677 323.077C471.316 324.649 475.06 325.953 478.782 327.313C483.573 329.065 488.335 330.914 493.208 332.415C496.836 333.533 500.52 334.457 504.218 335.303C509.061 336.412 513.933 337.391 518.835 338.191C524.269 339.079 529.751 339.749 535.255 339.828C539.372 339.887 543.485 339.614 547.594 339.347C551.27 339.107 554.951 338.87 558.604 338.384C562.156 337.911 565.678 337.203 569.139 336.266C572.823 335.34 576.466 334.248 580.054 332.993C583.438 331.809 586.774 330.48 590.02 328.95C593.578 327.272 597.023 325.353 600.365 323.27C603.141 321.54 605.848 319.696 608.433 317.686C611.106 315.608 613.644 313.357 616.121 311.044C618.805 308.537 621.424 305.95 623.809 303.149C626.292 300.234 628.512 297.097 630.643 293.908C632.376 291.314 634.053 288.682 635.673 286.014C636.846 283.43 637.985 280.83 639.09 278.216C640.33 275.283 641.529 272.325 642.412 269.263C643.364 265.962 643.943 262.562 644.405 259.155C644.839 255.959 645.172 252.748 645.354 249.528C645.536 246.323 645.567 243.109 645.449 239.901C645.327 234.986 644.615 230.087 643.332 225.346C642.328 221.635 640.979 218.029 639.535 214.471C638.402 211.679 637.206 208.906 635.713 206.294C634.368 203.943 632.791 201.738 631.334 199.456C630.188 197.662 629.114 195.817 627.859 194.099C625.632 191.05 622.871 188.45 620.145 185.851C617.792 183.609 615.453 181.353 613.125 179.084C610.468 176.973 607.706 174.996 604.855 173.163C600.57 170.408 596.083 167.979 591.442 165.902C587.444 164.348 583.358 163.029 579.21 161.954C574.933 160.847 570.59 159.999 566.213 159.417L542.236 158.853L525.209 162.166C520.005 163.325 514.873 164.809 509.849 166.607C504.862 168.393 499.985 170.486 495.185 172.74C490.502 174.938 485.889 177.29 481.355 179.789C477.342 182.329 473.357 184.914 469.401 187.543C465.95 189.836 462.521 192.162 459.115 194.522C455.578 197.117 452.102 199.796 448.69 202.558C445.205 205.379 441.788 208.284 438.404 211.229C435.688 213.592 432.993 215.98 430.342 218.419C426.737 221.735 423.214 225.144 419.778 228.64C417.595 230.677 415.44 232.745 413.315 234.843C410.075 238.042 406.902 241.31 403.724 244.571C398.875 249.546 394.01 254.504 389.129 259.445C384.536 263.902 380.018 268.438 375.576 273.05C372.326 276.426 369.116 279.844 365.777 283.131C362.767 286.094 359.653 288.95 356.742 292.013C353.626 295.29 350.752 298.795 347.696 302.13C344.376 305.752 340.843 309.173 337.121 312.368L319.992 327.482C316.653 330.232 313.288 332.951 309.898 335.637C307.32 337.68 304.727 339.704 302.12 341.709C297.469 345.299 292.687 348.715 287.787 351.947C283.425 354.825 278.97 357.557 274.46 360.191C270.387 362.57 266.268 364.869 262.094 367.06C257.412 369.518 252.661 371.838 247.848 374.019C245.089 375.283 242.306 376.495 239.502 377.653C235.438 379.332 231.328 380.899 227.18 382.351L215.731 386.517C210.543 388.019 205.311 389.364 200.044 390.551C195.004 391.686 189.933 392.677 184.838 393.52L171.117 395.116L155.779 395.204L145.685 394.805C141.812 394.557 137.948 394.158 134.105 393.609C129.821 392.996 125.563 392.197 121.346 391.215C118.047 390.535 114.791 389.647 111.602 388.556C108.722 387.571 105.901 386.423 103.081 385.276C99.6288 383.872 96.1767 382.469 92.7244 381.066L80.8826 375.26C76.3033 372.888 71.8647 370.237 67.5987 367.326C64.736 365.373 61.9509 363.302 59.2526 361.121L51.0813 354.384C48.8115 352.394 46.5964 350.339 44.4393 348.224C41.973 345.805 39.5827 343.306 37.273 340.733L30.1504 332.224C28.5871 329.957 27.0575 327.667 25.5623 325.354C24.195 323.239 22.8563 321.104 21.5858 318.927C20.1079 316.395 18.7229 313.808 17.4346 311.171L14.638 304.612L10.9238 296.457L8.73896 289.543L5.2869 276.601L3.67011 267.338C3.12487 263.97 2.68759 260.585 2.3592 257.188C2.10402 254.549 1.91461 251.903 1.79115 249.255L4.76254 262.773L7.73394 275.138C8.36235 277.284 9.04727 279.412 9.78769 281.52C10.9961 284.961 12.3524 288.349 13.8515 291.67C15.0099 294.757 16.3081 297.79 17.7405 300.756C19.7653 304.949 22.0585 309.008 24.6009 312.9L30.0631 320.567L36.865 329.211C40.6963 333.353 44.6998 337.33 48.8613 341.13C52.1187 344.104 55.4747 346.971 58.9825 349.636C62.0577 351.972 65.2476 354.152 68.5253 356.186C72.0593 358.379 75.6958 360.402 79.4176 362.248C83.3762 364.211 87.4313 365.974 91.563 367.527C95.7061 369.151 99.9208 370.587 104.19 371.829C108.604 373.113 113.077 374.19 117.589 375.056L131.759 376.522L153.158 377.304C159.456 377.063 165.739 376.41 171.954 375.349C181.726 373.682 191.315 371.011 200.679 367.723C205.033 366.194 209.341 364.531 213.595 362.737C219.675 360.062 225.628 357.091 231.428 353.84C235.841 351.365 240.165 348.729 244.441 346.018C249.43 342.856 254.36 339.59 259.093 336.046C264.476 332.015 269.594 327.631 274.612 323.14C278.705 319.476 282.734 315.738 286.757 311.995C291.079 307.973 295.395 303.944 299.577 299.773C303.466 295.895 307.238 291.897 310.952 287.846C314.05 284.466 317.108 281.049 320.109 277.58C324.301 272.733 328.38 267.787 332.543 262.914C334.721 260.366 336.922 257.838 339.098 255.289C342.738 251.023 346.308 246.695 349.894 242.383C353.231 238.37 356.582 234.37 359.919 230.357C363.637 225.885 367.336 221.396 371.1 216.963C374.487 212.974 377.925 209.03 381.414 205.133C385.042 201.122 388.673 197.113 392.306 193.107C397.262 187.645 402.226 182.185 407.44 176.976C412.057 172.363 416.865 167.951 421.706 163.581C426.028 159.68 430.378 155.81 434.815 152.044C438.292 149.094 441.823 146.206 445.515 143.538C449.508 140.653 453.679 138.031 457.853 135.424C463.006 132.205 468.171 129.003 473.469 126.038C478.616 123.156 483.887 120.499 489.277 118.119C495.068 115.56 500.996 113.322 507.013 111.372C512.19 109.695 517.434 108.231 522.725 106.973C528.174 105.677 533.675 104.601 539.208 103.746C543.481 102.984 547.795 102.462 552.125 102.182C555.205 101.983 558.297 101.907 561.378 102.084C566.045 102.353 570.658 103.199 575.259 104.04C580.587 105.013 585.919 105.981 591.199 107.195C597.207 108.577 603.146 110.28 608.939 112.406C613.433 114.057 617.836 115.961 622.121 118.109C626.507 119.943 630.756 122.115 634.819 124.598C638.754 127.002 642.516 129.699 646.063 132.659C650.125 136.028 654.101 139.503 657.986 143.081C661.456 146.277 664.862 149.563 667.872 153.207C670.639 156.555 673.054 160.184 675.433 163.825C677.831 167.495 680.2 171.189 682.315 175.033C684.351 178.733 686.145 182.565 687.84 186.438C689.871 191.078 691.761 195.786 693.365 200.595C694.604 204.311 695.672 208.085 696.564 211.902L699.181 225.174L700.912 237.5C701.066 242.7 701.173 248.07 700.745 253.254C700.528 255.879 700.236 258.498 699.868 261.105C699.271 265.341 698.474 269.546 697.546 273.72C696.804 277.056 695.978 280.373 695.069 283.666C694.081 287.311 692.927 290.911 691.611 294.448C690.359 297.814 688.961 301.123 687.482 304.394C685.828 308.054 684.072 311.668 682.219 315.229C680.69 318.025 679.037 320.75 677.264 323.394C675.09 326.639 672.739 329.757 670.452 332.921C668.825 335.173 667.228 337.45 665.498 339.621C663.262 342.427 660.81 345.048 658.273 347.577C655.295 350.547 652.198 353.393 649.036 356.162C644.878 359.801 640.603 363.31 636.082 366.473C630.241 370.561 624.014 374.054 617.659 377.256C613.383 379.411 609.041 381.438 604.602 383.223C597.763 385.974 590.704 388.144 583.547 389.871C579.483 390.851 575.386 391.69 571.265 392.383L551.964 394.215L529.36 393.901C521.072 393.148 512.82 391.995 504.641 390.447C495.805 388.774 487.05 386.639 478.476 383.904C473.258 382.239 468.108 380.352 463.046 378.251C457.704 375.818 452.42 373.252 447.203 370.556C441.797 367.763 436.462 364.831 431.205 361.762C426.779 358.75 422.358 355.732 417.942 352.707C414.102 350.077 410.266 347.443 406.433 344.803C400.382 340.045 394.428 335.158 388.578 330.147C383.514 325.809 378.528 321.38 373.54 316.952C370.552 314.299 367.562 311.647 364.505 309.077C362.216 307.153 359.888 305.275 357.666 303.273C355.771 301.566 353.954 299.771 352.223 297.894M311.893 208.406L319.034 214.571L311.834 208.346C306.844 204.29 301.788 200.319 296.667 196.434C291.036 192.162 285.328 187.994 279.553 183.924C271.617 178.331 263.534 172.911 254.944 168.421C250.116 165.897 245.143 163.675 240.19 161.417C235.086 159.09 229.998 156.722 224.787 154.653C220.226 152.843 215.576 151.264 210.859 149.924C206.625 148.59 202.331 147.451 197.994 146.513C192.501 145.324 186.94 144.456 181.352 143.879C174.865 143.208 168.338 142.928 161.818 143.041C155.113 143.231 148.421 143.911 141.812 145.076C136.393 146.031 131.03 147.311 125.76 148.907C121.565 150.503 117.43 152.26 113.367 154.174C109.292 156.093 105.283 158.174 101.505 160.639C98.6146 162.525 95.8691 164.63 93.1836 166.804C90.3036 169.137 87.489 171.552 84.7445 174.047L76.0103 184.223C73.0569 187.34 70.562 190.903 68.6334 194.758C67.8605 196.303 67.1787 197.893 66.5089 199.487C65.582 201.692 64.677 203.907 63.7942 206.131L61.4336 213.853L59.7811 220.916C59.0441 223.688 59.0801 223.5 58.5872 228C58.2605 230.982 58.6453 238.01 59.0801 240.5C59.2958 238.043 59.3566 232.93 59.7811 230.5C60.1305 228.501 60.5631 225.469 61.052 223.5C61.476 221.223 62.2698 218.688 63.0238 216.5C63.7272 214.459 65.5985 210.471 66.4745 208.5C67.3566 206.515 67.2931 207.015 68.2432 205.063C69.4046 203.084 70.6323 201.145 71.9235 199.251C73.4374 197.03 75.0385 194.869 76.7218 192.777C78.7816 190.431 80.9265 188.16 83.1507 185.973C85.141 184.016 87.1957 182.124 89.3466 180.35C91.478 178.592 93.7029 176.951 96.0083 175.436C98.4091 173.927 100.865 172.508 103.369 171.184C105.975 169.805 108.633 168.528 111.335 167.356C115.022 165.69 118.823 164.283 122.702 163.151C126.34 162.089 130.046 161.267 133.789 160.694C140.26 159.688 146.81 159.214 153.356 159.276C157.339 159.314 161.321 159.551 165.281 159.985L175.111 161.355L182.798 163.104C187.032 164.174 191.216 165.452 195.329 166.931C199.217 168.329 203.043 169.906 206.789 171.656L215.268 175.72C219.395 178.086 223.48 180.527 227.52 183.044C230.721 185.037 233.895 187.078 237.024 189.186C241.902 192.474 246.673 195.925 251.326 199.534L265.534 211.489L276.808 221.884L294.749 239.858C296.73 237.775 298.711 235.69 300.691 233.605C302.838 231.342 304.985 229.078 307.13 226.813L313.628 219.881L317.655 216.245L319.128 214.602" fill="url(#paint1_linear_16_92)"/>
<path d="M356.283 292.855L352.465 297.505L356.325 292.812L361.65 286.944L371.377 277.418C372.993 275.656 374.642 273.926 376.325 272.229C378.338 270.199 380.399 268.216 382.504 266.283C384.155 267.563 385.781 268.878 387.38 270.225C390.022 272.452 392.59 274.769 395.258 276.964C397.764 279.027 400.356 280.979 402.946 282.933C406.175 285.369 409.402 287.808 412.627 290.249C417.038 293.213 421.436 296.198 425.82 299.203C429.703 301.864 433.577 304.543 437.589 307C442.475 309.993 447.552 312.648 452.585 315.376C457.554 318.068 462.494 320.838 467.677 323.077C471.316 324.649 475.06 325.953 478.782 327.313C483.573 329.065 488.335 330.914 493.208 332.415C496.836 333.533 500.52 334.457 504.218 335.303C509.061 336.412 513.933 337.391 518.835 338.191C524.269 339.079 529.751 339.749 535.255 339.828C539.372 339.887 543.485 339.614 547.594 339.347C551.27 339.107 554.951 338.87 558.604 338.384C562.156 337.911 565.678 337.203 569.139 336.266C572.823 335.34 576.466 334.248 580.054 332.993C583.438 331.809 586.774 330.48 590.02 328.95C593.578 327.272 597.023 325.353 600.365 323.27C603.141 321.54 605.848 319.696 608.433 317.686C611.106 315.608 613.644 313.357 616.121 311.044C618.805 308.537 621.424 305.95 623.809 303.149C626.292 300.234 628.512 297.097 630.643 293.908C632.376 291.314 634.053 288.682 635.673 286.014C636.846 283.43 637.985 280.83 639.09 278.216C640.33 275.283 641.529 272.325 642.412 269.263C643.364 265.962 643.943 262.562 644.405 259.155C644.839 255.959 645.172 252.748 645.354 249.528C645.536 246.323 645.567 243.109 645.449 239.901C645.327 234.986 644.615 230.087 643.332 225.346C642.328 221.635 640.979 218.029 639.535 214.471C638.402 211.679 637.206 208.906 635.713 206.294C634.368 203.943 632.791 201.738 631.334 199.456C630.188 197.662 629.114 195.817 627.859 194.099C625.632 191.05 622.871 188.45 620.145 185.851C617.792 183.609 615.453 181.353 613.125 179.084C610.468 176.973 607.706 174.996 604.855 173.163C600.57 170.408 596.083 167.979 591.442 165.902C587.444 164.348 583.358 163.029 579.21 161.954C574.933 160.847 570.59 159.999 566.213 159.417L542.236 158.853L525.209 162.166C520.005 163.325 514.873 164.809 509.849 166.607C504.862 168.393 499.985 170.486 495.185 172.74C490.502 174.938 485.889 177.29 481.355 179.789C477.342 182.329 473.357 184.914 469.401 187.543C465.95 189.836 462.521 192.162 459.115 194.522C455.578 197.117 452.102 199.796 448.69 202.558C445.205 205.379 441.788 208.284 438.404 211.229C435.688 213.592 432.993 215.98 430.342 218.419C426.737 221.735 423.214 225.144 419.778 228.64C417.595 230.677 415.44 232.745 413.315 234.843C410.075 238.042 406.902 241.31 403.724 244.571C398.875 249.546 394.01 254.504 389.129 259.445C384.536 263.902 380.018 268.438 375.576 273.05C372.326 276.426 369.116 279.844 365.777 283.131C362.767 286.094 359.653 288.95 356.742 292.013C353.626 295.29 350.752 298.795 347.696 302.13C344.376 305.752 340.843 309.173 337.121 312.368L319.992 327.482C316.653 330.232 313.288 332.951 309.898 335.637C307.32 337.68 304.727 339.704 302.12 341.709C297.469 345.299 292.687 348.715 287.787 351.947C283.425 354.825 278.97 357.557 274.46 360.191C270.387 362.57 266.268 364.869 262.094 367.06C257.412 369.518 252.661 371.838 247.848 374.019C245.089 375.283 242.306 376.495 239.502 377.653C235.438 379.332 231.328 380.899 227.18 382.351L215.731 386.517C210.543 388.019 205.311 389.364 200.044 390.551C195.004 391.686 189.933 392.677 184.838 393.52L171.117 395.116L155.779 395.204L145.685 394.805C141.812 394.557 137.948 394.158 134.105 393.609C129.821 392.996 125.563 392.197 121.346 391.215C118.047 390.535 114.791 389.647 111.602 388.556C108.722 387.571 105.901 386.423 103.081 385.276C99.6288 383.872 96.1767 382.469 92.7244 381.066L80.8826 375.26C76.3033 372.888 71.8647 370.237 67.5987 367.326C64.736 365.373 61.9509 363.302 59.2526 361.121L51.0813 354.384C48.8115 352.394 46.5964 350.339 44.4393 348.224C41.973 345.805 39.5827 343.306 37.273 340.733L30.1504 332.224C28.5871 329.957 27.0575 327.667 25.5623 325.354C24.195 323.239 22.8563 321.104 21.5858 318.927C20.1079 316.395 18.7229 313.808 17.4346 311.171L14.638 304.612L10.9238 296.457L8.73896 289.543L5.2869 276.601L3.67011 267.338C3.12487 263.97 2.68759 260.585 2.3592 257.188C2.10402 254.549 1.91461 251.903 1.79115 249.255L4.76254 262.773L7.73394 275.138C8.36235 277.284 9.04727 279.412 9.78769 281.52C10.9961 284.961 12.3524 288.349 13.8515 291.67C15.0099 294.757 16.3081 297.79 17.7405 300.756C19.7653 304.949 22.0585 309.008 24.6009 312.9L30.0631 320.567L36.865 329.211C40.6963 333.353 44.6998 337.33 48.8613 341.13C52.1187 344.104 55.4747 346.971 58.9825 349.636C62.0577 351.972 65.2476 354.152 68.5253 356.186C72.0593 358.379 75.6958 360.402 79.4176 362.248C83.3762 364.211 87.4313 365.974 91.563 367.527C95.7061 369.151 99.9208 370.587 104.19 371.829C108.604 373.113 113.077 374.19 117.589 375.056L131.759 376.522L153.158 377.304C159.456 377.063 165.739 376.41 171.954 375.349C181.726 373.682 191.315 371.011 200.679 367.723C205.033 366.194 209.341 364.531 213.595 362.737C219.675 360.062 225.628 357.091 231.428 353.84C235.841 351.365 240.165 348.729 244.441 346.018C249.43 342.856 254.36 339.59 259.093 336.046C264.476 332.015 269.594 327.631 274.612 323.14C278.705 319.476 282.734 315.738 286.757 311.995C291.079 307.973 295.395 303.944 299.577 299.773C303.466 295.895 307.238 291.897 310.952 287.846C314.05 284.466 317.108 281.049 320.109 277.58C324.301 272.733 328.38 267.787 332.543 262.914C334.721 260.366 336.922 257.838 339.098 255.289C342.738 251.023 346.308 246.695 349.894 242.383C353.231 238.37 356.582 234.37 359.919 230.357C363.637 225.885 367.336 221.396 371.1 216.963C374.487 212.974 377.925 209.03 381.414 205.133C385.042 201.122 388.673 197.113 392.306 193.107C397.262 187.645 402.226 182.185 407.44 176.976C412.057 172.363 416.865 167.951 421.706 163.581C426.028 159.68 430.378 155.81 434.815 152.044C438.292 149.094 441.823 146.206 445.515 143.538C449.508 140.653 453.679 138.031 457.853 135.424C463.006 132.205 468.171 129.003 473.469 126.038C478.616 123.156 483.887 120.499 489.277 118.119C495.068 115.56 500.996 113.322 507.013 111.372C512.19 109.695 517.434 108.231 522.725 106.973C528.174 105.677 533.675 104.601 539.208 103.746C543.481 102.984 547.795 102.462 552.125 102.182C555.205 101.983 558.297 101.907 561.378 102.084C566.045 102.353 570.658 103.199 575.259 104.04C580.587 105.013 585.919 105.981 591.199 107.195C597.207 108.577 603.146 110.28 608.939 112.406C613.433 114.057 617.836 115.961 622.121 118.109C626.507 119.943 630.756 122.115 634.819 124.598C638.754 127.002 642.516 129.699 646.063 132.659C650.125 136.028 654.101 139.503 657.986 143.081C661.456 146.277 664.862 149.563 667.872 153.207C670.639 156.555 673.054 160.184 675.433 163.825C677.831 167.495 680.2 171.189 682.315 175.033C684.351 178.733 686.145 182.565 687.84 186.438C689.871 191.078 691.761 195.786 693.365 200.595C694.604 204.311 695.672 208.085 696.564 211.902L699.181 225.174L700.912 237.5C701.066 242.7 701.173 248.07 700.745 253.254C700.528 255.879 700.236 258.498 699.868 261.105C699.271 265.341 698.474 269.546 697.546 273.72C696.804 277.056 695.978 280.373 695.069 283.666C694.081 287.311 692.927 290.911 691.611 294.448C690.359 297.814 688.961 301.123 687.482 304.394C685.828 308.054 684.072 311.668 682.219 315.229C680.69 318.025 679.037 320.75 677.264 323.394C675.09 326.639 672.739 329.757 670.452 332.921C668.825 335.173 667.228 337.45 665.498 339.621C663.262 342.427 660.81 345.048 658.273 347.577C655.295 350.547 652.198 353.393 649.036 356.162C644.878 359.801 640.603 363.31 636.082 366.473C630.241 370.561 624.014 374.054 617.659 377.256C613.383 379.411 609.041 381.438 604.602 383.223C597.763 385.974 590.704 388.144 583.547 389.871C579.483 390.851 575.386 391.69 571.265 392.383L551.964 394.215L529.36 393.901C521.072 393.148 512.82 391.995 504.641 390.447C495.805 388.774 487.05 386.639 478.476 383.904C473.258 382.239 468.108 380.352 463.046 378.251C457.704 375.818 452.42 373.252 447.203 370.556C441.797 367.763 436.462 364.831 431.205 361.762C426.779 358.75 422.358 355.732 417.942 352.707C414.102 350.077 410.266 347.443 406.433 344.803C400.382 340.045 394.428 335.158 388.578 330.147C383.514 325.809 378.528 321.38 373.54 316.952C370.552 314.299 367.562 311.647 364.505 309.077C362.216 307.153 359.888 305.275 357.666 303.273C355.771 301.566 353.954 299.771 352.223 297.894M311.893 208.406L319.034 214.571L311.834 208.346C306.844 204.29 301.788 200.319 296.667 196.434C291.036 192.162 285.328 187.994 279.553 183.924C271.617 178.331 263.534 172.911 254.944 168.421C250.116 165.897 245.143 163.675 240.19 161.417C235.086 159.09 229.998 156.722 224.787 154.653C220.226 152.843 215.576 151.264 210.859 149.924C206.625 148.59 202.331 147.451 197.994 146.513C192.501 145.324 186.94 144.456 181.352 143.879C174.865 143.208 168.338 142.928 161.818 143.041C155.113 143.231 148.421 143.911 141.812 145.076C136.393 146.031 131.03 147.311 125.76 148.907C121.565 150.503 117.43 152.26 113.367 154.174C109.292 156.093 105.283 158.174 101.505 160.639C98.6146 162.525 95.8691 164.63 93.1836 166.804C90.3036 169.137 87.489 171.552 84.7445 174.047L76.0103 184.223C73.0569 187.34 70.562 190.903 68.6334 194.758C67.8605 196.303 67.1787 197.893 66.5089 199.487C65.582 201.692 64.677 203.907 63.7942 206.131L61.4336 213.853L59.7811 220.916C59.0441 223.688 59.0801 223.5 58.5872 228C58.2605 230.982 58.6453 238.01 59.0801 240.5C59.2958 238.043 59.3566 232.93 59.7811 230.5C60.1305 228.501 60.5631 225.469 61.052 223.5C61.476 221.223 62.2698 218.688 63.0238 216.5C63.7272 214.459 65.5985 210.471 66.4745 208.5C67.3566 206.515 67.2931 207.015 68.2432 205.063C69.4046 203.084 70.6323 201.145 71.9235 199.251C73.4374 197.03 75.0385 194.869 76.7218 192.777C78.7816 190.431 80.9265 188.16 83.1507 185.973C85.141 184.016 87.1957 182.124 89.3466 180.35C91.478 178.592 93.7029 176.951 96.0083 175.436C98.4091 173.927 100.865 172.508 103.369 171.184C105.975 169.805 108.633 168.528 111.335 167.356C115.022 165.69 118.823 164.283 122.702 163.151C126.34 162.089 130.046 161.267 133.789 160.694C140.26 159.688 146.81 159.214 153.356 159.276C157.339 159.314 161.321 159.551 165.281 159.985L175.111 161.355L182.798 163.104C187.032 164.174 191.216 165.452 195.329 166.931C199.217 168.329 203.043 169.906 206.789 171.656L215.268 175.72C219.395 178.086 223.48 180.527 227.52 183.044C230.721 185.037 233.895 187.078 237.024 189.186C241.902 192.474 246.673 195.925 251.326 199.534L265.534 211.489L276.808 221.884L294.749 239.858C296.73 237.775 298.711 235.69 300.691 233.605C302.838 231.342 304.985 229.078 307.13 226.813L313.628 219.881L317.655 216.245L319.128 214.602" stroke="black" stroke-width="1.00157"/>
<path d="M40.2171 241.317V247.505H22.7625V241.266C22.7625 239.51 23.112 237.999 23.8108 236.732C24.504 235.465 25.5012 234.49 26.8023 233.809C28.1035 233.121 29.6603 232.777 31.4728 232.777C33.291 232.777 34.8535 233.121 36.1603 233.809C37.4671 234.49 38.4699 235.47 39.1688 236.749C39.8677 238.022 40.2171 239.544 40.2171 241.317ZM37.0552 243.814V241.47C37.0552 240.38 36.862 239.462 36.4756 238.718C36.0836 237.968 35.4785 237.405 34.6603 237.03C33.8364 236.649 32.7739 236.459 31.4728 236.459C30.183 236.459 29.129 236.649 28.3108 237.03C27.4927 237.405 26.8904 237.965 26.504 238.709C26.1177 239.453 25.9245 240.371 25.9245 241.462V243.814H37.0552ZM40.4642 226.379C40.4642 227.214 40.3194 227.958 40.0296 228.612C39.7341 229.265 39.2995 229.782 38.7256 230.163C38.1461 230.538 37.4245 230.725 36.5608 230.725C35.8336 230.725 35.2228 230.592 34.7285 230.325C34.2341 230.058 33.8364 229.694 33.5353 229.234C33.2341 228.774 33.0069 228.251 32.8535 227.666C32.7 227.075 32.5921 226.456 32.5296 225.808C32.45 225.046 32.3762 224.433 32.308 223.967C32.2341 223.501 32.1262 223.163 31.9841 222.953C31.8421 222.742 31.6319 222.637 31.3535 222.637H31.3023C30.7625 222.637 30.3449 222.808 30.0495 223.149C29.754 223.484 29.6063 223.961 29.6063 224.581C29.6063 225.234 29.7512 225.754 30.041 226.14C30.325 226.527 30.683 226.782 31.1148 226.907L30.8421 230.265C30.0466 230.095 29.3591 229.76 28.7796 229.26C28.1944 228.76 27.7455 228.115 27.433 227.325C27.1148 226.529 26.9557 225.609 26.9557 224.564C26.9557 223.836 27.041 223.14 27.2114 222.475C27.3819 221.805 27.6461 221.211 28.004 220.694C28.362 220.171 28.8222 219.76 29.3847 219.458C29.9415 219.157 30.6091 219.007 31.3875 219.007H40.2171V222.45H38.4017V222.552C38.8108 222.762 39.1716 223.044 39.4841 223.396C39.791 223.748 40.0324 224.171 40.2086 224.666C40.379 225.16 40.4642 225.731 40.4642 226.379ZM37.9586 225.339C37.9586 224.805 37.8535 224.333 37.6432 223.924C37.4273 223.515 37.1375 223.194 36.7739 222.961C36.4103 222.728 35.9983 222.612 35.5381 222.612H34.1489C34.2228 222.725 34.291 222.882 34.3535 223.081C34.4103 223.274 34.4642 223.492 34.5154 223.737C34.5608 223.981 34.6035 224.225 34.6432 224.47C34.6773 224.714 34.7086 224.936 34.737 225.135C34.7995 225.561 34.8989 225.933 35.0353 226.251C35.1716 226.569 35.3563 226.816 35.5892 226.992C35.8165 227.169 36.1006 227.257 36.4415 227.257C36.9358 227.257 37.3137 227.078 37.575 226.72C37.8307 226.356 37.9586 225.896 37.9586 225.339ZM27.1262 209.227H29.8535V217.11H27.1262V209.227ZM23.9898 215.321V211.69H36.1944C36.5296 211.69 36.791 211.639 36.9785 211.537C37.1603 211.434 37.2881 211.292 37.362 211.11C37.4358 210.923 37.4728 210.707 37.4728 210.463C37.4728 210.292 37.4586 210.122 37.4302 209.951C37.3961 209.781 37.3705 209.65 37.3535 209.559L40.0552 208.988C40.112 209.17 40.1773 209.426 40.2512 209.755C40.3307 210.085 40.379 210.485 40.3961 210.957C40.4302 211.832 40.3137 212.599 40.0466 213.258C39.7796 213.912 39.3648 214.42 38.8023 214.784C38.2398 215.147 37.5296 215.326 36.6716 215.321H23.9898ZM40.4642 203.129C40.4642 203.964 40.3194 204.708 40.0296 205.362C39.7341 206.015 39.2995 206.532 38.7256 206.913C38.1461 207.288 37.4245 207.475 36.5608 207.475C35.8336 207.475 35.2228 207.342 34.7285 207.075C34.2341 206.808 33.8364 206.444 33.5353 205.984C33.2341 205.524 33.0069 205.001 32.8535 204.416C32.7 203.825 32.5921 203.206 32.5296 202.558C32.45 201.796 32.3762 201.183 32.308 200.717C32.2341 200.251 32.1262 199.913 31.9841 199.703C31.8421 199.492 31.6319 199.387 31.3535 199.387H31.3023C30.7625 199.387 30.3449 199.558 30.0495 199.899C29.754 200.234 29.6063 200.711 29.6063 201.331C29.6063 201.984 29.7512 202.504 30.041 202.89C30.325 203.277 30.683 203.532 31.1148 203.657L30.8421 207.015C30.0466 206.845 29.3591 206.51 28.7796 206.01C28.1944 205.51 27.7455 204.865 27.433 204.075C27.1148 203.279 26.9557 202.359 26.9557 201.314C26.9557 200.586 27.041 199.89 27.2114 199.225C27.3819 198.555 27.6461 197.961 28.004 197.444C28.362 196.921 28.8222 196.51 29.3847 196.208C29.9415 195.907 30.6091 195.757 31.3875 195.757H40.2171V199.2H38.4017V199.302C38.8108 199.512 39.1716 199.794 39.4841 200.146C39.791 200.498 40.0324 200.921 40.2086 201.416C40.379 201.91 40.4642 202.481 40.4642 203.129ZM37.9586 202.089C37.9586 201.555 37.8535 201.083 37.6432 200.674C37.4273 200.265 37.1375 199.944 36.7739 199.711C36.4103 199.478 35.9983 199.362 35.5381 199.362H34.1489C34.2228 199.475 34.291 199.632 34.3535 199.831C34.4103 200.024 34.4642 200.242 34.5154 200.487C34.5608 200.731 34.6035 200.975 34.6432 201.22C34.6773 201.464 34.7086 201.686 34.737 201.885C34.7995 202.311 34.8989 202.683 35.0353 203.001C35.1716 203.319 35.3563 203.566 35.5892 203.742C35.8165 203.919 36.1006 204.007 36.4415 204.007C36.9358 204.007 37.3137 203.828 37.575 203.47C37.8307 203.106 37.9586 202.646 37.9586 202.089Z" fill="black"/>
<path d="M682.455 197.517V202.068L670.727 206.875V207.08L682.455 211.886V216.437H665V212.858H676.361V212.713L665.085 208.196V205.759L676.403 201.241V201.097L665 201.097V197.517H682.455ZM664.744 225.325C664.744 224.001 665.026 222.856 665.588 221.89C666.156 220.93 666.946 220.188 667.957 219.665C668.974 219.143 670.153 218.881 671.494 218.881C672.847 218.881 674.028 219.143 675.04 219.665C676.057 220.188 676.847 220.93 677.409 221.89C677.977 222.856 678.261 224.001 678.261 225.325C678.261 226.648 677.977 227.79 677.409 228.751C676.847 229.717 676.057 230.461 675.04 230.984C674.028 231.506 672.847 231.768 671.494 231.768C670.153 231.768 668.974 231.506 667.957 230.984C666.946 230.461 666.156 229.717 665.588 228.751C665.026 227.79 664.744 226.648 664.744 225.325ZM667.557 225.342C667.557 225.944 667.727 226.447 668.068 226.85C668.415 227.254 668.886 227.558 669.483 227.762C670.08 227.972 670.759 228.077 671.52 228.077C672.281 228.077 672.96 227.972 673.557 227.762C674.153 227.558 674.625 227.254 674.972 226.85C675.318 226.447 675.491 225.944 675.491 225.342C675.491 224.734 675.318 224.222 674.972 223.808C674.625 223.398 674.153 223.089 673.557 222.879C672.96 222.674 672.281 222.572 671.52 222.572C670.759 222.572 670.08 222.674 669.483 222.879C668.886 223.089 668.415 223.398 668.068 223.808C667.727 224.222 667.557 224.734 667.557 225.342ZM664.787 238.952C664.787 237.958 665.043 237.058 665.554 236.251C666.071 235.45 666.83 234.813 667.83 234.342C668.835 233.876 670.068 233.643 671.528 233.643C673.028 233.643 674.276 233.884 675.27 234.367C676.27 234.85 677.017 235.492 677.511 236.293C678.011 237.1 678.261 237.984 678.261 238.944C678.261 239.677 678.136 240.288 677.886 240.776C677.642 241.271 677.335 241.668 676.966 241.969C676.602 242.276 676.244 242.509 675.892 242.668V242.779H682.455V246.401H665V242.822H667.097V242.668C666.733 242.498 666.372 242.256 666.014 241.944C665.662 241.637 665.369 241.237 665.136 240.742C664.903 240.254 664.787 239.657 664.787 238.952ZM667.676 240.103C667.676 240.688 667.835 241.183 668.153 241.586C668.477 241.995 668.929 242.308 669.509 242.523C670.088 242.745 670.767 242.856 671.545 242.856C672.324 242.856 673 242.748 673.574 242.532C674.148 242.316 674.591 242.004 674.903 241.594C675.216 241.185 675.372 240.688 675.372 240.103C675.372 239.506 675.21 239.004 674.886 238.594C674.563 238.185 674.114 237.876 673.54 237.665C672.966 237.455 672.301 237.35 671.545 237.35C670.784 237.35 670.111 237.455 669.526 237.665C668.946 237.881 668.491 238.191 668.162 238.594C667.838 239.004 667.676 239.506 667.676 240.103ZM664.744 255.352C664.744 254.006 665.017 252.847 665.563 251.875C666.114 250.909 666.892 250.165 667.898 249.642C668.909 249.119 670.105 248.858 671.486 248.858C672.832 248.858 674.014 249.119 675.031 249.642C676.048 250.165 676.841 250.901 677.409 251.849C677.977 252.804 678.261 253.923 678.261 255.207C678.261 256.071 678.122 256.875 677.844 257.619C677.571 258.369 677.159 259.023 676.608 259.58C676.057 260.142 675.364 260.58 674.528 260.892C673.699 261.205 672.727 261.361 671.614 261.361H670.616V250.307H672.866V257.943C673.389 257.943 673.852 257.83 674.256 257.602C674.659 257.375 674.974 257.06 675.202 256.656C675.435 256.259 675.551 255.795 675.551 255.267C675.551 254.716 675.423 254.227 675.168 253.801C674.918 253.381 674.58 253.051 674.153 252.812C673.733 252.574 673.264 252.452 672.747 252.446H670.608C669.96 252.446 669.401 252.565 668.929 252.804C668.457 253.048 668.094 253.392 667.838 253.835C667.582 254.278 667.455 254.804 667.455 255.412C667.455 255.815 667.511 256.185 667.625 256.52C667.739 256.855 667.909 257.142 668.136 257.381C668.364 257.619 668.642 257.801 668.972 257.926L668.75 261.284C667.943 261.114 667.239 260.764 666.636 260.236C666.04 259.713 665.574 259.037 665.239 258.207C664.909 257.384 664.744 256.432 664.744 255.352ZM682.455 267.361H665V263.73H682.455V267.361ZM674.358 281.161L674.153 277.837C674.438 277.781 674.693 277.658 674.92 277.471C675.153 277.283 675.338 277.036 675.474 276.729C675.616 276.428 675.688 276.067 675.688 275.647C675.688 275.085 675.568 274.61 675.33 274.224C675.097 273.837 674.784 273.644 674.392 273.644C674.08 273.644 673.815 273.769 673.599 274.019C673.384 274.269 673.21 274.698 673.08 275.306L672.602 277.675C672.341 278.948 671.92 279.897 671.341 280.522C670.761 281.147 670 281.46 669.057 281.46C668.199 281.46 667.446 281.207 666.798 280.701C666.151 280.201 665.645 279.513 665.281 278.638C664.923 277.769 664.744 276.766 664.744 275.63C664.744 273.897 665.105 272.516 665.827 271.488C666.554 270.465 667.543 269.866 668.793 269.69L668.98 273.261C668.452 273.369 668.048 273.63 667.77 274.045C667.497 274.46 667.361 274.991 667.361 275.638C667.361 276.275 667.483 276.786 667.727 277.173C667.977 277.565 668.298 277.763 668.69 277.769C669.02 277.763 669.29 277.624 669.5 277.352C669.716 277.079 669.881 276.658 669.994 276.09L670.446 273.823C670.702 272.545 671.145 271.593 671.776 270.968C672.406 270.349 673.21 270.039 674.188 270.039C675.028 270.039 675.753 270.266 676.361 270.721C676.969 271.181 677.438 271.826 677.767 272.656C678.097 273.491 678.261 274.468 678.261 275.587C678.261 277.241 677.912 278.542 677.213 279.491C676.514 280.445 675.563 281.002 674.358 281.161Z" fill="#F5F5F5"/>
<path d="M257.797 136.509C258.013 136.077 258.158 135.655 258.231 135.245C258.312 134.833 258.312 134.437 258.231 134.057C258.153 133.672 257.99 133.307 257.742 132.96C257.5 132.611 257.164 132.286 256.734 131.985C256.028 131.491 255.217 131.195 254.303 131.098C253.392 131.003 252.448 131.143 251.47 131.516C250.496 131.892 249.562 132.536 248.669 133.448C247.776 134.36 247.184 135.243 246.892 136.097C246.605 136.953 246.587 137.741 246.84 138.462C247.097 139.185 247.594 139.804 248.331 140.32C249.013 140.798 249.751 141.098 250.544 141.22C251.34 141.338 252.125 141.27 252.9 141.014C253.677 140.755 254.379 140.301 255.006 139.653L255.359 140.04L251.775 137.53L252.904 136.413L257.442 139.591L256.313 140.708C255.468 141.584 254.524 142.198 253.481 142.548C252.438 142.899 251.379 142.992 250.303 142.828C249.227 142.665 248.216 142.251 247.269 141.589C246.214 140.85 245.504 139.983 245.138 138.986C244.772 137.99 244.764 136.933 245.114 135.814C245.464 134.695 246.183 133.58 247.273 132.47C248.084 131.633 248.941 130.971 249.844 130.482C250.754 129.991 251.67 129.674 252.593 129.528C253.52 129.385 254.423 129.411 255.304 129.606C256.189 129.803 257.012 130.168 257.772 130.7C258.4 131.14 258.904 131.635 259.283 132.183C259.668 132.73 259.926 133.307 260.057 133.913C260.19 134.515 260.193 135.127 260.064 135.748C259.938 136.365 259.679 136.966 259.286 137.552L257.797 136.509ZM258.148 149.241C257.291 148.641 256.716 147.955 256.424 147.184C256.134 146.409 256.119 145.601 256.379 144.759C256.641 143.914 257.168 143.087 257.961 142.277C258.753 141.468 259.618 140.872 260.557 140.489C261.499 140.102 262.442 139.947 263.387 140.025C264.335 140.1 265.211 140.418 266.014 140.98C266.479 141.306 266.873 141.697 267.194 142.154C267.516 142.61 267.712 143.123 267.782 143.692C267.854 144.257 267.753 144.868 267.478 145.525C267.203 146.182 266.704 146.879 265.98 147.615L265.48 148.132L258.591 143.309L259.608 142.252L265.1 146.098C265.543 145.656 265.834 145.19 265.976 144.699C266.121 144.211 266.109 143.737 265.939 143.278C265.774 142.821 265.441 142.417 264.94 142.067C264.425 141.705 263.846 141.508 263.204 141.475C262.565 141.438 261.949 141.527 261.354 141.74C260.762 141.95 260.277 142.246 259.899 142.629L259.019 143.539C258.384 144.198 257.989 144.8 257.833 145.344C257.682 145.891 257.73 146.396 257.978 146.859C258.229 147.318 258.643 147.75 259.221 148.154C259.59 148.412 259.964 148.599 260.345 148.716C260.729 148.828 261.115 148.867 261.503 148.833C261.894 148.795 262.282 148.679 262.666 148.485L263.662 149.737C263.133 150.038 262.556 150.223 261.929 150.293C261.309 150.361 260.674 150.31 260.025 150.139C259.383 149.967 258.757 149.667 258.148 149.241ZM267.681 155.916C266.858 155.34 266.307 154.662 266.027 153.882C265.747 153.102 265.739 152.279 266.004 151.413C266.274 150.549 266.813 149.701 267.621 148.868C268.41 148.056 269.26 147.464 270.174 147.092C271.094 146.719 272.012 146.576 272.928 146.663C273.851 146.748 274.708 147.068 275.5 147.622C276.322 148.198 276.87 148.876 277.144 149.658C277.424 150.438 277.43 151.263 277.162 152.133C276.896 152.999 276.357 153.852 275.543 154.693C274.76 155.497 273.908 156.082 272.986 156.449C272.072 156.814 271.155 156.955 270.236 156.873C269.324 156.789 268.472 156.47 267.681 155.916ZM268.568 154.699C269.196 155.139 269.854 155.359 270.541 155.36C271.231 155.364 271.905 155.203 272.561 154.877C273.222 154.553 273.817 154.12 274.347 153.578C274.847 153.061 275.222 152.517 275.472 151.946C275.724 151.371 275.792 150.815 275.677 150.278C275.565 149.737 275.21 149.257 274.613 148.839C273.984 148.399 273.321 148.178 272.624 148.175C271.93 148.175 271.254 148.34 270.595 148.67C269.936 149.001 269.343 149.438 268.817 149.983C268.317 150.5 267.94 151.042 267.687 151.611C267.44 152.178 267.374 152.73 267.489 153.267C267.611 153.803 267.97 154.28 268.568 154.699ZM273.898 159.992L281.645 152.098L282.971 153.027L281.761 154.26L281.877 154.342C282.479 154.052 283.101 153.936 283.743 153.992C284.392 154.048 285.007 154.279 285.589 154.687C286.171 155.094 286.545 155.555 286.71 156.07C286.878 156.581 286.865 157.124 286.671 157.699L286.764 157.764C287.392 157.51 288.054 157.424 288.748 157.506C289.446 157.59 290.115 157.856 290.755 158.304C291.547 158.858 291.98 159.535 292.057 160.334C292.137 161.136 291.723 161.999 290.815 162.924L285.627 168.204L284.254 167.243L289.442 161.963C290.011 161.373 290.237 160.828 290.118 160.329C290.006 159.829 289.706 159.407 289.217 159.065C288.589 158.625 287.939 158.451 287.268 158.542C286.598 158.633 286.012 158.937 285.512 159.453L280.461 164.587L279.064 163.609L284.374 158.206C284.814 157.751 285.005 157.272 284.946 156.769C284.888 156.265 284.597 155.831 284.074 155.464C283.717 155.214 283.3 155.067 282.823 155.022C282.349 154.973 281.871 155.031 281.39 155.198C280.913 155.36 280.487 155.634 280.113 156.02L275.271 160.953L273.898 159.992ZM291.73 172.755C290.873 172.155 290.298 171.469 290.006 170.698C289.716 169.923 289.701 169.115 289.961 168.274C290.223 167.429 290.75 166.601 291.543 165.792C292.335 164.982 293.2 164.386 294.139 164.003C295.081 163.616 296.024 163.462 296.969 163.54C297.917 163.614 298.793 163.932 299.596 164.494C300.061 164.82 300.455 165.211 300.777 165.668C301.098 166.125 301.294 166.637 301.364 167.206C301.436 167.772 301.335 168.383 301.06 169.04C300.785 169.697 300.286 170.393 299.562 171.13L299.062 171.646L292.173 166.823L293.19 165.766L298.683 169.612C299.125 169.17 299.417 168.704 299.558 168.213C299.703 167.725 299.691 167.252 299.521 166.792C299.356 166.335 299.023 165.931 298.522 165.581C298.007 165.22 297.428 165.023 296.786 164.99C296.147 164.953 295.531 165.041 294.936 165.255C294.344 165.464 293.859 165.761 293.481 166.144L292.601 167.053C291.966 167.713 291.571 168.315 291.415 168.859C291.264 169.406 291.312 169.91 291.56 170.373C291.811 170.832 292.225 171.264 292.803 171.669C293.172 171.927 293.546 172.114 293.927 172.23C294.311 172.343 294.697 172.382 295.085 172.347C295.476 172.309 295.864 172.193 296.248 172L297.244 173.252C296.715 173.552 296.138 173.738 295.511 173.807C294.891 173.876 294.256 173.825 293.607 173.653C292.965 173.481 292.339 173.182 291.73 172.755ZM309.338 171.489L308.337 172.522L303.706 169.28L304.706 168.246L309.338 171.489ZM307.904 167.295L309.277 168.256L301.894 175.78C301.56 176.124 301.366 176.422 301.312 176.673C301.264 176.923 301.303 177.14 301.427 177.326C301.558 177.51 301.725 177.673 301.926 177.814C302.078 177.92 302.207 177.999 302.315 178.051C302.425 178.1 302.514 178.139 302.58 178.168L301.81 179.466C301.681 179.428 301.515 179.364 301.312 179.274C301.11 179.19 300.881 179.059 300.625 178.88C300.237 178.608 299.931 178.269 299.707 177.864C299.482 177.458 299.398 177.02 299.455 176.551C299.512 176.083 299.764 175.618 300.214 175.158L307.904 167.295ZM303.656 180.829L311.403 172.935L312.729 173.864L311.551 175.051L311.645 175.116C312.187 174.837 312.793 174.727 313.463 174.785C314.133 174.844 314.735 175.061 315.271 175.435C315.375 175.509 315.5 175.599 315.645 175.706C315.792 175.809 315.902 175.895 315.976 175.964L314.765 177.197C314.727 177.153 314.634 177.062 314.488 176.925C314.344 176.784 314.179 176.648 313.993 176.517C313.558 176.213 313.093 176.023 312.597 175.948C312.104 175.868 311.621 175.9 311.15 176.045C310.682 176.185 310.272 176.432 309.92 176.787L305.029 181.79L303.656 180.829ZM308.047 188.897C307.814 188.734 307.622 188.571 307.471 188.407C307.321 188.25 307.225 188.131 307.184 188.05L308.589 187.231C308.848 187.539 309.113 187.762 309.386 187.901C309.66 188.047 309.984 188.091 310.358 188.036C310.734 187.986 311.203 187.824 311.766 187.548L312.639 187.118L317.104 176.927L318.536 177.93L314.813 185.97L314.906 186.035L323.562 181.449L325.11 182.533L312.468 188.923C311.878 189.221 311.324 189.414 310.805 189.502C310.287 189.59 309.799 189.581 309.342 189.474C308.882 189.372 308.45 189.179 308.047 188.897Z" fill="black"/>
<path d="M385.13 291.2L386.235 290.067L395.172 296.324L394.066 297.457L390.319 294.834L381.104 304.23L379.661 303.22L388.876 293.823L385.13 291.2ZM389.154 310.144C388.331 309.568 387.78 308.89 387.5 308.11C387.219 307.33 387.212 306.507 387.477 305.641C387.747 304.777 388.285 303.929 389.094 303.097C389.882 302.285 390.733 301.693 391.647 301.321C392.567 300.948 393.485 300.805 394.401 300.891C395.324 300.977 396.181 301.296 396.972 301.85C397.795 302.426 398.343 303.105 398.616 303.886C398.897 304.666 398.903 305.491 398.635 306.361C398.369 307.227 397.829 308.08 397.016 308.921C396.233 309.725 395.381 310.311 394.459 310.677C393.545 311.042 392.628 311.184 391.709 311.101C390.796 311.017 389.945 310.698 389.154 310.144ZM390.04 308.927C390.669 309.367 391.326 309.587 392.013 309.589C392.704 309.593 393.378 309.431 394.034 309.105C394.694 308.781 395.289 308.348 395.819 307.806C396.32 307.289 396.695 306.746 396.944 306.175C397.197 305.6 397.265 305.044 397.15 304.506C397.038 303.965 396.683 303.486 396.085 303.067C395.457 302.627 394.794 302.406 394.097 302.403C393.403 302.403 392.727 302.568 392.068 302.899C391.409 303.229 390.816 303.667 390.29 304.212C389.79 304.728 389.413 305.271 389.159 305.839C388.913 306.406 388.847 306.958 388.962 307.495C389.084 308.032 389.443 308.509 390.04 308.927ZM392.466 317.18L403.129 306.335L404.455 307.264L403.229 308.52L403.392 308.634C403.624 308.566 403.934 308.488 404.319 308.399C404.711 308.31 405.16 308.3 405.666 308.371C406.178 308.44 406.724 308.679 407.306 309.086C408.059 309.613 408.557 310.243 408.802 310.975C409.047 311.707 409.032 312.491 408.758 313.328C408.484 314.165 407.941 314.999 407.128 315.829C406.311 316.666 405.439 317.279 404.515 317.666C403.593 318.05 402.683 318.21 401.785 318.148C400.889 318.081 400.069 317.787 399.325 317.266C398.751 316.864 398.373 316.458 398.192 316.048C398.013 315.634 397.938 315.255 397.966 314.91C397.996 314.561 398.029 314.278 398.066 314.061L397.95 313.979L393.85 318.149L392.466 317.18ZM400.605 311.227C400.024 311.825 399.607 312.421 399.355 313.013C399.109 313.603 399.051 314.161 399.181 314.685C399.317 315.209 399.661 315.663 400.211 316.049C400.785 316.451 401.394 316.651 402.036 316.65C402.685 316.648 403.33 316.487 403.97 316.166C404.617 315.845 405.218 315.404 405.772 314.844C406.312 314.286 406.705 313.717 406.95 313.137C407.197 312.553 407.257 311.997 407.13 311.468C407.005 310.936 406.652 310.466 406.07 310.059C405.512 309.668 404.918 309.463 404.289 309.445C403.667 309.425 403.04 309.57 402.408 309.879C401.782 310.186 401.181 310.635 400.605 311.227ZM408.928 323.99C408.106 323.415 407.555 322.737 407.274 321.957C406.994 321.177 406.987 320.354 407.252 319.487C407.521 318.624 408.06 317.776 408.869 316.943C409.657 316.131 410.508 315.539 411.422 315.167C412.342 314.794 413.26 314.651 414.176 314.738C415.099 314.823 415.956 315.143 416.747 315.697C417.569 316.273 418.117 316.951 418.391 317.732C418.671 318.512 418.678 319.338 418.409 320.208C418.144 321.074 417.604 321.927 416.79 322.767C416.007 323.572 415.155 324.157 414.234 324.524C413.319 324.889 412.403 325.03 411.484 324.947C410.571 324.863 409.72 324.545 408.928 323.99ZM409.815 322.773C410.444 323.213 411.101 323.434 411.788 323.435C412.479 323.439 413.153 323.278 413.809 322.951C414.469 322.628 415.064 322.195 415.594 321.652C416.095 321.136 416.47 320.592 416.719 320.021C416.971 319.446 417.04 318.89 416.925 318.353C416.812 317.812 416.458 317.332 415.86 316.914C415.232 316.474 414.569 316.253 413.872 316.25C413.178 316.25 412.502 316.415 411.843 316.745C411.184 317.076 410.591 317.513 410.065 318.058C409.564 318.575 409.188 319.117 408.934 319.685C408.687 320.253 408.622 320.805 408.737 321.342C408.858 321.878 409.218 322.355 409.815 322.773ZM426.84 318.498L416.519 329.028L415.146 328.066L425.467 317.537L426.84 318.498ZM422.592 333.558C421.769 332.982 421.218 332.304 420.938 331.524C420.657 330.744 420.65 329.921 420.915 329.054C421.185 328.191 421.724 327.343 422.532 326.51C423.32 325.698 424.171 325.106 425.085 324.734C426.005 324.361 426.923 324.218 427.839 324.305C428.762 324.39 429.619 324.71 430.41 325.264C431.233 325.84 431.781 326.518 432.054 327.299C432.335 328.08 432.341 328.905 432.073 329.775C431.807 330.641 431.267 331.494 430.454 332.334C429.671 333.139 428.819 333.724 427.897 334.091C426.983 334.456 426.066 334.597 425.147 334.514C424.235 334.431 423.383 334.112 422.592 333.558ZM423.478 332.34C424.107 332.78 424.764 333.001 425.451 333.002C426.142 333.006 426.816 332.845 427.472 332.518C428.132 332.195 428.727 331.762 429.257 331.219C429.758 330.703 430.133 330.159 430.382 329.588C430.635 329.013 430.703 328.457 430.588 327.92C430.476 327.379 430.121 326.899 429.523 326.481C428.895 326.041 428.232 325.82 427.535 325.817C426.841 325.817 426.165 325.982 425.506 326.312C424.847 326.643 424.254 327.08 423.728 327.625C423.228 328.142 422.851 328.684 422.597 329.253C422.351 329.82 422.285 330.372 422.4 330.909C422.522 331.445 422.881 331.922 423.478 332.34ZM429.381 343.305C428.713 342.838 428.215 342.362 427.884 341.876C427.551 341.394 427.345 340.921 427.267 340.455C427.185 339.994 427.183 339.559 427.261 339.151L429.032 339.246C429.011 339.474 429.001 339.745 429.002 340.057C429 340.374 429.094 340.714 429.284 341.079C429.475 341.45 429.844 341.826 430.391 342.209C431.108 342.712 431.859 342.977 432.642 343.006C433.426 343.034 434.142 342.721 434.792 342.066L436.342 340.446L436.226 340.365C435.988 340.441 435.674 340.521 435.284 340.607C434.898 340.689 434.453 340.692 433.95 340.618C433.45 340.539 432.909 340.297 432.327 339.889C431.602 339.381 431.101 338.776 430.824 338.074C430.547 337.371 430.525 336.615 430.756 335.806C430.991 335 431.512 334.186 432.319 333.363C433.111 332.554 433.96 331.96 434.866 331.583C435.778 331.205 436.683 331.052 437.58 331.125C438.479 331.194 439.305 331.492 440.058 332.019C440.64 332.427 441.018 332.836 441.192 333.247C441.373 333.657 441.45 334.034 441.422 334.379C441.398 334.72 441.368 334.994 441.333 335.201L441.472 335.299L442.699 334.042L444.025 334.971L436.076 343.104C435.411 343.782 434.696 344.212 433.933 344.395C433.167 344.581 432.395 344.569 431.616 344.359C430.836 344.154 430.09 343.802 429.381 343.305ZM433.54 338.9C434.087 339.283 434.662 339.498 435.265 339.545C435.872 339.594 436.483 339.481 437.098 339.206C437.712 338.931 438.304 338.502 438.875 337.919C439.434 337.351 439.824 336.777 440.045 336.198C440.266 335.618 440.301 335.068 440.152 334.547C440.006 334.029 439.656 333.576 439.101 333.187C438.515 332.777 437.906 332.57 437.273 332.566C436.644 332.565 436.024 332.72 435.412 333.032C434.801 333.344 434.233 333.767 433.708 334.301C433.173 334.851 432.793 335.403 432.567 335.956C432.344 336.505 432.305 337.032 432.448 337.537C432.598 338.041 432.962 338.496 433.54 338.9ZM436.783 348.211C436.551 348.048 436.359 347.885 436.207 347.721C436.057 347.564 435.961 347.445 435.92 347.364L437.326 346.545C437.584 346.853 437.85 347.076 438.122 347.215C438.396 347.361 438.72 347.406 439.094 347.35C439.47 347.301 439.939 347.138 440.503 346.862L441.375 346.433L445.841 336.242L447.272 337.244L443.549 345.284L443.642 345.35L452.298 340.764L453.846 341.847L441.204 348.238C440.614 348.535 440.06 348.728 439.542 348.816C439.023 348.904 438.536 348.895 438.078 348.789C437.618 348.686 437.187 348.494 436.783 348.211Z" fill="white"/>
<path d="M319.695 238.868L321.095 237.3L332.068 243.139L332.182 243.011L327.794 229.799L329.194 228.231L338.435 239.721L337.337 240.95L330.324 232.211L330.23 232.317L334.215 244.446L333.155 245.632L323.115 240.284L323.02 240.39L330.033 249.129L328.935 250.358L319.695 238.868ZM342.946 235.053C342.485 235.569 341.984 235.934 341.443 236.149C340.898 236.361 340.357 236.395 339.819 236.251C339.278 236.104 338.78 235.751 338.326 235.193C337.932 234.696 337.695 234.201 337.613 233.71C337.528 233.215 337.551 232.727 337.682 232.247C337.812 231.76 338.008 231.288 338.27 230.83C338.533 230.366 338.813 229.921 339.111 229.495C339.495 228.937 339.81 228.485 340.055 228.139C340.3 227.793 340.453 227.505 340.514 227.273C340.575 227.042 340.522 226.82 340.356 226.608L340.313 226.57C339.87 226.022 339.404 225.73 338.916 225.693C338.424 225.654 337.923 225.921 337.412 226.493C336.882 227.086 336.569 227.699 336.474 228.331C336.379 228.964 336.395 229.508 336.521 229.963L335.114 230.687C334.878 229.956 334.802 229.266 334.886 228.617C334.967 227.966 335.149 227.37 335.434 226.831C335.715 226.288 336.039 225.812 336.405 225.403C336.638 225.141 336.933 224.875 337.29 224.603C337.643 224.328 338.043 224.133 338.489 224.017C338.938 223.898 339.42 223.938 339.935 224.137C340.452 224.332 340.986 224.772 341.538 225.455L346.104 231.132L344.988 232.382L344.056 231.208L344 231.271C344.075 231.542 344.11 231.884 344.103 232.297C344.099 232.706 344.01 233.15 343.836 233.63C343.665 234.105 343.368 234.58 342.946 235.053ZM342.144 233.69C342.586 233.196 342.875 232.676 343.012 232.132C343.152 231.584 343.169 231.06 343.064 230.56C342.962 230.056 342.766 229.624 342.478 229.265L341.504 228.052C341.511 228.173 341.457 228.35 341.343 228.584C341.225 228.816 341.08 229.067 340.907 229.338C340.735 229.603 340.563 229.859 340.393 230.107C340.222 230.348 340.085 230.543 339.983 230.693C339.729 231.063 339.516 231.441 339.343 231.826C339.17 232.205 339.085 232.58 339.09 232.952C339.093 233.317 339.232 233.667 339.506 234C339.874 234.462 340.296 234.651 340.77 234.567C341.242 234.48 341.7 234.188 342.144 233.69ZM351.245 225.717C350.56 226.484 349.819 226.952 349.02 227.121C348.225 227.286 347.426 227.182 346.623 226.809C345.821 226.435 345.073 225.818 344.381 224.958C343.674 224.086 343.188 223.163 342.922 222.189C342.652 221.211 342.611 220.258 342.8 219.329C342.986 218.396 343.406 217.562 344.062 216.828C344.573 216.256 345.124 215.852 345.714 215.618C346.305 215.383 346.893 215.321 347.48 215.432C348.066 215.543 348.607 215.833 349.103 216.301L347.987 217.552C347.584 217.256 347.114 217.121 346.575 217.148C346.037 217.169 345.523 217.453 345.034 218C344.599 218.487 344.325 219.05 344.214 219.686C344.099 220.32 344.146 220.981 344.356 221.67C344.563 222.356 344.929 223.023 345.455 223.67C345.989 224.338 346.544 224.818 347.121 225.11C347.697 225.403 348.26 225.502 348.808 225.407C349.356 225.313 349.85 225.018 350.292 224.524C350.582 224.199 350.797 223.845 350.936 223.461C351.075 223.078 351.137 222.682 351.121 222.274C351.104 221.866 351.004 221.466 350.821 221.073L351.938 219.823C352.279 220.408 352.49 221.043 352.569 221.729C352.644 222.412 352.577 223.099 352.368 223.788C352.155 224.474 351.781 225.117 351.245 225.717ZM352.524 214.091L356.7 219.268L355.584 220.518L346.343 209.028L347.46 207.778L350.857 211.992L350.951 211.886C350.754 211.254 350.722 210.615 350.853 209.97C350.987 209.322 351.343 208.675 351.92 208.029C352.412 207.478 352.938 207.113 353.498 206.934C354.058 206.748 354.635 206.781 355.229 207.032C355.823 207.277 356.419 207.768 357.018 208.505L361.412 213.991L360.295 215.242L355.967 209.852C355.415 209.169 354.838 208.81 354.236 208.773C353.633 208.73 353.072 209 352.551 209.583C352.185 209.992 351.931 210.451 351.789 210.959C351.65 211.463 351.637 211.985 351.752 212.525C351.869 213.062 352.127 213.584 352.524 214.091ZM363.454 211.704L356.529 203.082L357.645 201.831L364.571 210.454L363.454 211.704ZM356.05 200.845C355.833 201.089 355.562 201.225 355.238 201.253C354.918 201.278 354.641 201.186 354.408 200.978C354.175 200.77 354.053 200.505 354.041 200.184C354.033 199.859 354.137 199.575 354.355 199.331C354.573 199.088 354.842 198.953 355.162 198.929C355.486 198.9 355.764 198.99 355.997 199.198C356.231 199.406 356.351 199.673 356.36 199.998C356.371 200.319 356.268 200.601 356.05 200.845ZM363.557 201.738L367.732 206.914L366.616 208.164L359.69 199.542L360.769 198.334L361.851 199.681L361.945 199.575C361.759 198.952 361.735 198.311 361.872 197.653C362.006 196.991 362.347 196.353 362.896 195.739C363.381 195.195 363.904 194.837 364.465 194.664C365.025 194.485 365.602 194.521 366.196 194.773C366.79 195.018 367.383 195.505 367.974 196.237L372.368 201.723L371.252 202.973L366.923 197.584C366.382 196.91 365.81 196.548 365.207 196.499C364.607 196.445 364.047 196.71 363.527 197.293C363.167 197.695 362.921 198.145 362.788 198.642C362.658 199.136 362.654 199.649 362.774 200.182C362.898 200.712 363.159 201.23 363.557 201.738ZM377.606 196.199C376.909 196.98 376.16 197.47 375.36 197.669C374.556 197.865 373.752 197.785 372.947 197.428C372.138 197.068 371.379 196.447 370.669 195.565C369.958 194.683 369.468 193.753 369.198 192.776C368.925 191.795 368.883 190.84 369.072 189.911C369.257 188.978 369.676 188.146 370.329 187.415C370.707 186.992 371.142 186.647 371.634 186.381C372.125 186.115 372.657 185.981 373.231 185.979C373.8 185.973 374.395 186.146 375.015 186.497C375.635 186.847 376.268 187.425 376.914 188.23L377.368 188.788L371.767 195.06L370.838 193.926L375.303 188.925C374.917 188.434 374.488 188.089 374.018 187.891C373.55 187.689 373.078 187.646 372.602 187.76C372.129 187.87 371.688 188.153 371.282 188.609C370.862 189.079 370.598 189.63 370.49 190.263C370.378 190.893 370.393 191.516 370.535 192.132C370.674 192.745 370.911 193.261 371.246 193.681L372.046 194.662C372.626 195.371 373.177 195.834 373.699 196.053C374.224 196.268 374.731 196.279 375.22 196.088C375.705 195.892 376.183 195.532 376.653 195.006C376.953 194.67 377.183 194.32 377.343 193.956C377.5 193.588 377.584 193.209 377.596 192.82C377.604 192.427 377.534 192.028 377.387 191.624L378.748 190.783C378.985 191.343 379.1 191.938 379.096 192.569C379.091 193.193 378.965 193.817 378.719 194.441C378.472 195.059 378.101 195.645 377.606 196.199Z" fill="black"/>
<path d="M351.739 272.435L342.499 260.946L343.672 259.632L351.917 269.89L356.421 264.847L357.416 266.079L351.739 272.435ZM362.279 260.975C361.582 261.755 360.833 262.245 360.033 262.445C359.229 262.641 358.425 262.561 357.62 262.204C356.811 261.844 356.052 261.223 355.341 260.341C354.631 259.459 354.141 258.529 353.871 257.552C353.598 256.571 353.555 255.616 353.744 254.687C353.93 253.754 354.349 252.922 355.002 252.191C355.38 251.767 355.815 251.422 356.306 251.157C356.798 250.891 357.33 250.757 357.903 250.755C358.473 250.749 359.068 250.922 359.688 251.272C360.308 251.623 360.941 252.201 361.587 253.006L362.041 253.564L356.44 259.836L355.51 258.701L359.976 253.701C359.59 253.21 359.161 252.865 358.691 252.667C358.223 252.465 357.751 252.421 357.275 252.536C356.801 252.646 356.361 252.929 355.954 253.385C355.535 253.854 355.271 254.406 355.163 255.039C355.051 255.669 355.066 256.292 355.208 256.908C355.346 257.52 355.584 258.037 355.919 258.457L356.719 259.438C357.299 260.146 357.85 260.61 358.372 260.828C358.897 261.044 359.404 261.055 359.893 260.863C360.378 260.668 360.856 260.308 361.326 259.781C361.625 259.446 361.856 259.096 362.016 258.731C362.173 258.364 362.257 257.985 362.269 257.595C362.277 257.202 362.207 256.804 362.06 256.4L363.421 255.558C363.657 256.118 363.773 256.714 363.769 257.345C363.764 257.969 363.638 258.593 363.391 259.217C363.145 259.834 362.774 260.42 362.279 260.975ZM369.171 253.299C368.711 253.815 368.21 254.18 367.669 254.395C367.124 254.607 366.583 254.641 366.045 254.497C365.503 254.35 365.006 253.998 364.551 253.44C364.158 252.942 363.92 252.448 363.839 251.956C363.754 251.461 363.777 250.974 363.907 250.493C364.037 250.006 364.234 249.534 364.496 249.077C364.758 248.613 365.038 248.168 365.336 247.742C365.72 247.183 366.035 246.731 366.281 246.385C366.526 246.04 366.679 245.751 366.74 245.519C366.8 245.288 366.748 245.066 366.581 244.854L366.539 244.817C366.096 244.268 365.63 243.976 365.141 243.94C364.65 243.901 364.148 244.167 363.637 244.739C363.108 245.332 362.795 245.945 362.7 246.578C362.605 247.21 362.621 247.754 362.747 248.21L361.339 248.933C361.103 248.202 361.027 247.512 361.112 246.864C361.192 246.212 361.375 245.616 361.66 245.077C361.941 244.535 362.264 244.059 362.63 243.649C362.864 243.388 363.159 243.121 363.516 242.85C363.869 242.575 364.269 242.379 364.715 242.264C365.164 242.144 365.646 242.184 366.16 242.383C366.678 242.579 367.212 243.018 367.764 243.701L372.33 249.379L371.213 250.629L370.282 249.454L370.225 249.518C370.301 249.788 370.335 250.13 370.328 250.543C370.325 250.952 370.236 251.397 370.062 251.876C369.891 252.352 369.594 252.826 369.171 253.299ZM368.37 251.936C368.811 251.442 369.101 250.923 369.238 250.378C369.378 249.83 369.395 249.306 369.29 248.806C369.187 248.302 368.992 247.87 368.703 247.511L367.729 246.299C367.736 246.419 367.683 246.596 367.568 246.831C367.451 247.062 367.306 247.313 367.133 247.585C366.96 247.849 366.789 248.106 366.618 248.353C366.447 248.594 366.311 248.79 366.209 248.94C365.955 249.31 365.741 249.687 365.568 250.072C365.395 250.451 365.311 250.826 365.315 251.198C365.319 251.564 365.458 251.913 365.731 252.246C366.1 252.708 366.521 252.898 366.996 252.814C367.467 252.727 367.925 252.434 368.37 251.936ZM374.368 247.097L367.442 238.474L368.521 237.266L369.56 238.576L369.636 238.491C369.423 237.92 369.385 237.305 369.522 236.646C369.659 235.988 369.945 235.415 370.38 234.928C370.466 234.833 370.57 234.719 370.693 234.588C370.813 234.454 370.911 234.355 370.988 234.29L372.07 235.637C372.022 235.67 371.921 235.751 371.767 235.881C371.61 236.007 371.456 236.155 371.304 236.324C370.951 236.72 370.708 237.16 370.574 237.643C370.437 238.124 370.412 238.606 370.5 239.091C370.584 239.573 370.782 240.009 371.092 240.401L375.484 245.847L374.368 247.097ZM376.291 235.091L380.467 240.267L379.35 241.517L372.425 232.895L373.503 231.687L374.585 233.034L374.68 232.928C374.494 232.305 374.469 231.664 374.607 231.006C374.74 230.344 375.082 229.706 375.63 229.092C376.116 228.548 376.639 228.19 377.199 228.017C377.759 227.838 378.336 227.874 378.931 228.126C379.525 228.371 380.117 228.859 380.709 229.59L385.103 235.076L383.987 236.326L379.658 230.937C379.117 230.263 378.545 229.901 377.942 229.852C377.342 229.798 376.782 230.063 376.261 230.646C375.902 231.048 375.656 231.498 375.523 231.995C375.393 232.489 375.388 233.002 375.509 233.535C375.633 234.065 375.894 234.583 376.291 235.091ZM387.143 232.791L380.217 224.169L381.334 222.918L388.26 231.541L387.143 232.791ZM379.739 221.932C379.521 222.176 379.251 222.312 378.927 222.34C378.607 222.365 378.33 222.273 378.097 222.065C377.864 221.857 377.741 221.592 377.73 221.271C377.722 220.946 377.826 220.662 378.044 220.418C378.261 220.175 378.531 220.04 378.851 220.016C379.175 219.987 379.453 220.077 379.686 220.285C379.919 220.493 380.04 220.76 380.048 221.085C380.06 221.406 379.957 221.688 379.739 221.932ZM387.245 222.825L391.421 228.001L390.304 229.251L383.379 220.629L384.457 219.421L385.54 220.768L385.634 220.662C385.448 220.039 385.424 219.398 385.561 218.74C385.694 218.078 386.036 217.44 386.584 216.826C387.07 216.282 387.593 215.924 388.153 215.751C388.713 215.572 389.291 215.608 389.885 215.86C390.479 216.105 391.071 216.593 391.663 217.324L396.057 222.81L394.941 224.06L390.612 218.671C390.071 217.997 389.499 217.635 388.896 217.586C388.296 217.532 387.736 217.797 387.215 218.38C386.856 218.782 386.61 219.232 386.477 219.729C386.347 220.223 386.343 220.736 386.463 221.269C386.587 221.799 386.848 222.317 387.245 222.825ZM403.797 220.626C403.255 221.233 402.723 221.672 402.201 221.943C401.684 222.217 401.189 222.366 400.718 222.389C400.25 222.416 399.818 222.366 399.422 222.241L399.725 220.494C399.949 220.541 400.217 220.583 400.527 220.619C400.841 220.659 401.19 220.605 401.574 220.46C401.965 220.313 402.383 219.991 402.828 219.493C403.411 218.84 403.763 218.126 403.884 217.351C404.004 216.577 403.777 215.828 403.203 215.106L401.778 213.376L401.683 213.482C401.731 213.727 401.774 214.048 401.813 214.445C401.849 214.839 401.8 215.281 401.667 215.771C401.53 216.259 401.225 216.767 400.752 217.297C400.162 217.957 399.502 218.383 398.772 218.576C398.042 218.768 397.288 218.701 396.512 218.376C395.739 218.048 394.992 217.434 394.27 216.536C393.56 215.654 393.071 214.741 392.803 213.797C392.534 212.847 392.489 211.93 392.668 211.048C392.842 210.163 393.235 209.378 393.847 208.693C394.32 208.163 394.771 207.836 395.2 207.711C395.629 207.58 396.013 207.548 396.352 207.616C396.687 207.681 396.956 207.743 397.157 207.802L397.271 207.675L396.167 206.309L397.246 205.101L404.386 213.953C404.981 214.694 405.324 215.454 405.415 216.234C405.509 217.016 405.407 217.782 405.107 218.53C404.811 219.281 404.374 219.979 403.797 220.626ZM399.913 215.976C400.357 215.478 400.638 214.932 400.756 214.339C400.876 213.742 400.836 213.122 400.636 212.48C400.435 211.837 400.079 211.198 399.567 210.563C399.069 209.941 398.545 209.486 397.995 209.198C397.446 208.911 396.904 208.811 396.369 208.898C395.837 208.981 395.346 209.276 394.895 209.781C394.418 210.314 394.141 210.895 394.063 211.523C393.987 212.148 394.068 212.782 394.306 213.426C394.543 214.07 394.897 214.683 395.366 215.267C395.849 215.864 396.352 216.306 396.874 216.595C397.393 216.881 397.912 216.983 398.431 216.9C398.949 216.81 399.443 216.502 399.913 215.976Z" fill="#F5F5F5"/>
<defs>
<linearGradient id="paint0_linear_16_92" x1="657.444" y1="266.566" x2="-9.01462" y2="269.349" gradientUnits="userSpaceOnUse">
<stop offset="0.49973" stop-color="#F5F5F5"/>
<stop offset="1" stop-color="#8F8F8F" stop-opacity="0.52"/>
</linearGradient>
<linearGradient id="paint1_linear_16_92" x1="352.142" y1="-106.615" x2="350.832" y2="603.804" gradientUnits="userSpaceOnUse">
<stop offset="0.501668" stop-color="#C41E3A"/>
<stop offset="1" stop-opacity="0"/>
</linearGradient>
</defs>
</svg>

