<?xml version="1.0" encoding="UTF-8" standalone="no"?>
<svg
   viewBox="0 0 28 28"
   x="0px"
   y="0px"
   version="1.1"
   id="svg8"
   sodipodi:docname="person.svg"
   width="28"
   height="28"
   inkscape:version="1.2.2 (b0a8486541, 2022-12-01)"
   xmlns:inkscape="http://www.inkscape.org/namespaces/inkscape"
   xmlns:sodipodi="http://sodipodi.sourceforge.net/DTD/sodipodi-0.dtd"
   xmlns="http://www.w3.org/2000/svg"
   xmlns:svg="http://www.w3.org/2000/svg">
  <defs
     id="defs12" />
  <sodipodi:namedview
     id="namedview10"
     pagecolor="#ffffff"
     bordercolor="#666666"
     borderopacity="1.0"
     inkscape:showpageshadow="2"
     inkscape:pageopacity="0.0"
     inkscape:pagecheckerboard="0"
     inkscape:deskcolor="#d1d1d1"
     showgrid="false"
     inkscape:zoom="5.9"
     inkscape:cx="-35.847458"
     inkscape:cy="17.966102"
     inkscape:window-width="1920"
     inkscape:window-height="1115"
     inkscape:window-x="0"
     inkscape:window-y="0"
     inkscape:window-maximized="1"
     inkscape:current-layer="svg8" />
  <path
     d="M 25.115,26.871 C 24.543,27.589 23.689,28 22.772,28 H 5.2279999 c -0.917,0 -1.771,-0.412 -2.3430001,-1.129 -0.577,-0.724 -0.789,-1.657 -0.582,-2.562 C 3.5589999,18.828 8.3689999,15 14,15 c 5.631,0 10.441,3.828 11.697,9.309 0.207,0.905 -0.005,1.838 -0.582,2.562 z M 14,14 c 3.86,0 7,-3.14 7,-7 C 21,3.14 17.86,0 14,0 10.14,0 6.9999999,3.14 6.9999999,7 6.9999999,10.86 10.14,14 14,14 Z"
     id="path2" />
</svg>
