<svg width="756" height="756" xmlns="http://www.w3.org/2000/svg" xmlns:xlink="http://www.w3.org/1999/xlink" overflow="hidden"><defs><clipPath id="clip0"><path d="M631.561 459.763 666.903 474.414 652.252 509.756 616.91 495.105Z" fill-rule="evenodd" clip-rule="evenodd"/></clipPath><clipPath id="clip1"><path d="M631.561 459.763 666.903 474.414 652.252 509.756 616.91 495.105Z" fill-rule="evenodd" clip-rule="evenodd"/></clipPath><clipPath id="clip2"><path d="M631.561 459.763 666.903 474.414 652.252 509.756 616.91 495.105Z" fill-rule="evenodd" clip-rule="evenodd"/></clipPath><clipPath id="clip3"><path d="M631.561 459.763 666.903 474.414 652.252 509.756 616.91 495.105Z" fill-rule="evenodd" clip-rule="evenodd"/></clipPath><clipPath id="clip4"><path d="M631.561 459.763 666.903 474.414 652.252 509.756 616.91 495.105Z" fill-rule="evenodd" clip-rule="evenodd"/></clipPath><clipPath id="clip5"><path d="M631.561 459.763 666.903 474.414 652.252 509.756 616.91 495.105Z" fill-rule="evenodd" clip-rule="evenodd"/></clipPath></defs><g><rect x="0" y="0" width="756" height="756" fill="#FFFFFF" fill-opacity="0"/><path d="M375.5 716.613 81.8201 547.054 81.8201 207.944 375.5 38.3878 669.179 207.944 669.179 547.054Z" stroke="#000000" stroke-width="6" stroke-linejoin="round" fill="#FFFFFF"/><path d="M128.417 425.896C137.868 448.23 153.604 467.168 173.419 480.553 183.329 487.256 194.283 492.567 205.971 496.192 217.666 499.838 230.118 501.785 242.921 501.785 251.662 501.785 260.173 500.8 268.319 498.936 283.619 495.46 297.537 488.995 310.119 480.862 321.145 473.757 331.214 465.356 340.665 456.283 350.094 447.184 358.938 437.385 367.427 427.316 360.3 418.592 353.388 409.772 346.658 401.154L346.12 400.457C342.746 396.143 339.346 391.776 335.911 387.442 335.2 388.319 334.481 389.197 333.767 390.057 326.102 399.376 318.472 408.099 310.864 415.83 305.149 421.639 299.451 426.879 293.784 431.408 285.263 438.226 276.861 443.413 268.557 446.853 264.394 448.569 260.226 449.857 256.005 450.735 251.776 451.612 247.463 452.071 242.925 452.071 232.565 452.071 222.826 449.985 213.919 446.222 200.568 440.586 189.124 431.096 181.08 419.179 177.057 413.229 173.877 406.676 171.708 399.689 169.533 392.694 168.356 385.281 168.356 377.507 168.356 367.138 170.442 357.399 174.194 348.487 179.844 335.146 189.33 323.692 201.248 315.656 207.206 311.634 213.759 308.463 220.746 306.284 227.732 304.101 235.155 302.933 242.921 302.933 247.918 302.933 252.633 303.493 257.272 304.546 263.349 305.935 269.335 308.198 275.371 311.36 277.378 312.418 279.402 313.565 281.431 314.822 287.509 318.575 293.643 323.224 299.804 328.671 302.119 330.709 304.435 332.852 306.75 335.097 313.706 341.84 320.678 349.458 327.663 357.652 333.489 364.497 339.338 371.73 345.234 379.196 348.766 383.659 352.317 388.216 355.91 392.807 365.622 405.231 375.528 417.941 385.975 430.167 393.817 439.327 401.949 448.227 410.602 456.523 417.09 462.75 423.872 468.637 431.057 474.013 432.402 475.018 433.76 476.007 435.136 476.977 444.768 483.774 455.141 489.631 466.409 493.962 476.857 497.984 488.085 500.64 499.848 501.489 502.564 501.681 505.299 501.785 508.073 501.777 525.159 501.777 541.574 498.305 556.458 492.007 578.791 482.548 597.721 466.829 611.113 447.005 617.809 437.095 623.128 426.141 626.753 414.444 630.401 402.77 632.354 390.324 632.354 377.512 632.354 360.426 628.879 344.011 622.576 329.127 613.126 306.794 597.398 287.864 577.575 274.47 567.665 267.775 556.71 262.456 545.023 258.823 533.334 255.189 520.885 253.235 508.072 253.235 499.34 253.235 490.82 254.232 482.678 256.08 467.379 259.564 453.46 266.03 440.87 274.153 429.844 281.258 419.784 289.669 410.333 298.741 400.904 307.83 392.06 317.629 383.571 327.707 390.733 336.47 397.671 345.323 404.435 353.98L404.884 354.557C408.249 358.87 411.659 363.237 415.085 367.571 415.806 366.703 416.515 365.816 417.229 364.948 424.902 355.637 432.528 346.913 440.14 339.174 445.856 333.374 451.553 328.134 457.221 323.587 465.734 316.773 474.143 311.582 482.448 308.151 486.611 306.427 490.77 305.139 495 304.261 499.23 303.392 503.534 302.923 508.072 302.923 518.44 302.923 528.179 305.01 537.082 308.78 550.431 314.416 561.877 323.899 569.912 335.815 573.934 341.773 577.114 348.327 579.292 355.313 581.458 362.299 582.636 369.723 582.636 377.497 582.636 387.866 580.549 397.604 576.796 406.517 571.147 419.866 561.66 431.312 549.744 439.347 543.795 443.378 537.241 446.548 530.254 448.718 523.268 450.893 515.846 452.071 508.071 452.071 503.075 452.071 498.36 451.51 493.73 450.457 485.627 448.609 477.684 445.199 469.57 440.181 463.484 436.419 457.354 431.771 451.197 426.327 441.945 418.178 432.648 408.277 423.328 397.339 414.001 386.401 404.655 374.426 395.098 362.202 385.386 349.777 375.481 337.062 365.032 324.832 357.192 315.664 349.059 306.772 340.407 298.467 338.788 296.91 337.152 295.375 335.485 293.858 330.497 289.338 325.346 285.015 319.956 280.976 309.19 272.914 297.482 265.986 284.604 261.028 283.797 260.721 282.99 260.421 282.178 260.127 269.984 255.734 256.771 253.203 242.922 253.212 225.841 253.212 209.43 256.683 194.545 262.981 172.212 272.432 153.282 288.168 139.889 307.982 133.194 317.893 127.866 328.847 124.241 340.544 120.59 352.258 118.645 364.696 118.645 377.507 118.645 394.603 122.116 411.017 128.414 425.892Z" fill="#FFFFFF"/><path d="M375.498 751.131 51.922 564.312 51.922 190.681 375.498 3.86331 699.074 190.681 699.074 564.312Z" stroke="#000000" stroke-width="6.6108" stroke-linejoin="round" fill="#FFFFFF"/><g><g><g><path d="M342.9 914.4 78.9358 761.998 78.9358 457.2 342.9 304.8 606.864 457.2 606.864 761.998Z" stroke="#000000" stroke-width="5.3929" stroke-linejoin="round" fill="#C41E3A" transform="matrix(1 0 0 1.00146 35.0997 -229.991)"/><path d="M167.218 653.77C175.712 673.844 189.857 690.866 207.667 702.896 216.574 708.921 226.42 713.695 236.925 716.953 247.437 720.23 258.628 721.98 270.136 721.98 277.993 721.98 285.643 721.094 292.964 719.419 306.716 716.295 319.226 710.484 330.535 703.174 340.446 696.788 349.496 689.237 357.991 681.082 366.466 672.904 374.414 664.096 382.044 655.046 375.638 647.205 369.426 639.277 363.377 631.531L362.894 630.904C359.861 627.027 356.805 623.102 353.717 619.206 353.078 619.995 352.432 620.784 351.79 621.557 344.901 629.933 338.043 637.774 331.205 644.723 326.068 649.943 320.947 654.653 315.853 658.724 308.194 664.852 300.642 669.514 293.178 672.606 289.436 674.148 285.69 675.306 281.897 676.095 278.095 676.884 274.218 677.296 270.14 677.296 260.828 677.296 252.075 675.421 244.068 672.039 232.069 666.973 221.782 658.444 214.552 647.732 210.937 642.385 208.079 636.494 206.129 630.215 204.174 623.928 203.116 617.264 203.116 610.276 203.116 600.957 204.99 592.204 208.364 584.193 213.442 572.202 221.968 561.907 232.68 554.684 238.035 551.069 243.925 548.219 250.205 546.26 256.484 544.298 263.156 543.248 270.136 543.248 274.627 543.248 278.865 543.752 283.036 544.698 288.498 545.946 293.877 547.98 299.303 550.822 301.107 551.773 302.926 552.805 304.75 553.934 310.213 557.308 315.726 561.486 321.264 566.382 323.345 568.214 325.426 570.14 327.507 572.158 333.759 578.219 340.026 585.066 346.304 592.43 351.541 598.583 356.797 605.084 362.097 611.795 365.272 615.807 368.463 619.902 371.693 624.028 380.422 635.196 389.326 646.62 398.716 657.608 405.764 665.842 413.073 673.841 420.851 681.298 426.682 686.894 432.778 692.186 439.236 697.018 440.445 697.921 441.666 698.81 442.902 699.682 451.56 705.792 460.884 711.055 471.011 714.948 480.402 718.564 490.494 720.95 501.067 721.714 503.508 721.886 505.966 721.98 508.46 721.973 523.817 721.973 538.571 718.852 551.948 713.192 572.022 704.689 589.036 690.561 601.074 672.743 607.092 663.836 611.873 653.99 615.131 643.476 618.41 632.984 620.166 621.797 620.166 610.281 620.166 594.924 617.042 580.17 611.377 566.792 602.883 546.718 588.746 529.704 570.929 517.666 562.022 511.648 552.175 506.867 541.67 503.601 531.165 500.335 519.975 498.579 508.459 498.579 500.61 498.579 492.952 499.475 485.634 501.136 471.883 504.267 459.372 510.079 448.056 517.38 438.146 523.767 429.103 531.326 420.609 539.48 412.134 547.65 404.185 556.457 396.555 565.515 402.993 573.392 409.228 581.349 415.308 589.13L415.711 589.649C418.736 593.526 421.801 597.45 424.881 601.346 425.528 600.566 426.166 599.769 426.807 598.988 433.704 590.62 440.559 582.778 447.4 575.822 452.538 570.609 457.659 565.9 462.753 561.812 470.404 555.688 477.963 551.023 485.428 547.938 489.169 546.389 492.908 545.231 496.709 544.442 500.511 543.661 504.379 543.239 508.458 543.239 517.778 543.239 526.531 545.115 534.533 548.504 546.532 553.57 556.819 562.093 564.042 572.803 567.657 578.159 570.515 584.05 572.473 590.329 574.42 596.608 575.478 603.28 575.478 610.268 575.478 619.587 573.602 628.34 570.229 636.351 565.152 648.35 556.625 658.637 545.914 665.86 540.567 669.483 534.676 672.332 528.396 674.283 522.117 676.238 515.446 677.296 508.458 677.296 503.967 677.296 499.729 676.792 495.567 675.845 488.285 674.184 481.146 671.12 473.852 666.609 468.382 663.228 462.872 659.05 457.338 654.157 449.022 646.832 440.666 637.933 432.289 628.102 423.906 618.271 415.506 607.508 406.916 596.52 398.187 585.353 389.284 573.924 379.892 562.932 372.845 554.691 365.535 546.699 357.759 539.235 356.304 537.835 354.833 536.455 353.334 535.092 348.851 531.029 344.221 527.144 339.377 523.513 329.7 516.267 319.177 510.04 307.602 505.583 306.876 505.308 306.151 505.038 305.421 504.774 294.461 500.826 282.585 498.55 270.138 498.558 254.784 498.558 240.034 501.678 226.655 507.339 206.582 515.833 189.567 529.978 177.529 547.787 171.512 556.695 166.723 566.541 163.464 577.054 160.183 587.583 158.435 598.762 158.435 610.277 158.435 625.643 161.554 640.396 167.215 653.767Z" fill="#C41E3A" transform="matrix(1 0 0 1.00146 -11.3006 -230.663)"/><path d="M377.807 1007.49 86.9714 839.569 86.9714 503.743 377.807 335.828 668.643 503.743 668.643 839.569Z" stroke="#000000" stroke-width="5.9419" stroke-linejoin="round" fill="#C41E3A" transform="matrix(1 0 0 1.00146 0.191044 -292.141)"/></g></g></g><path d="M121 543C121 533.059 128.835 525 138.5 525 148.165 525 156 533.059 156 543 156 552.941 148.165 561 138.5 561 128.835 561 121 552.941 121 543Z" stroke="#E76379" stroke-width="2.00044" stroke-miterlimit="8" fill="#E76379" fill-rule="evenodd"/><path d="M167 531C167 520.507 175.507 512 186 512 196.493 512 205 520.507 205 531 205 541.493 196.493 550 186 550 175.507 550 167 541.493 167 531Z" stroke="#E76379" stroke-width="2.00044" stroke-miterlimit="8" fill="#E76379" fill-rule="evenodd"/><path d="M242 611C242 600.507 250.507 592 261 592 271.493 592 280 600.507 280 611 280 621.493 271.493 630 261 630 250.507 630 242 621.493 242 611Z" stroke="#E76379" stroke-width="2.00044" stroke-miterlimit="8" fill="#E76379" fill-rule="evenodd"/><path d="M558 302.5C558 293.387 565.163 286 574 286 582.837 286 590 293.387 590 302.5 590 311.613 582.837 319 574 319 565.163 319 558 311.613 558 302.5Z" fill="#E76379" fill-rule="evenodd"/><path d="M511 242.5C511 231.73 519.507 223 530 223 540.493 223 549 231.73 549 242.5 549 253.27 540.493 262 530 262 519.507 262 511 253.27 511 242.5Z" fill="#E76379" fill-rule="evenodd"/><path d="M611 298.5C611 287.178 620.402 278 632 278 643.598 278 653 287.178 653 298.5 653 309.822 643.598 319 632 319 620.402 319 611 309.822 611 298.5Z" fill="#E76379" fill-rule="evenodd"/><path d="M537 186.5C537 175.178 546.178 166 557.5 166 568.822 166 578 175.178 578 186.5 578 197.822 568.822 207 557.5 207 546.178 207 537 197.822 537 186.5Z" fill="#E76379" fill-rule="evenodd"/><path d="M324 94C324 85.1634 331.163 78 340 78 348.837 78 356 85.1634 356 94 356 102.837 348.837 110 340 110 331.163 110 324 102.837 324 94Z" fill="#E76379" fill-rule="evenodd"/><path d="M385 89C385 78.5066 393.507 70 404 70 414.493 70 423 78.5066 423 89 423 99.4934 414.493 108 404 108 393.507 108 385 99.4934 385 89Z" fill="#E76379" fill-rule="evenodd"/><path d="M581.163 442.826C585.209 433.066 596.4 428.434 606.16 432.48 615.919 436.526 620.551 447.717 616.506 457.477 612.46 467.236 601.268 471.868 591.509 467.822 581.749 463.777 577.117 452.585 581.163 442.826Z" stroke="#E76379" stroke-width="2.00044" stroke-miterlimit="8" fill="#E76379" fill-rule="evenodd"/><path d="M585.241 504.095C588.353 496.588 596.962 493.025 604.469 496.137 611.977 499.249 615.54 507.858 612.427 515.365 609.315 522.873 600.707 526.436 593.199 523.324 585.692 520.212 582.129 511.603 585.241 504.095Z" stroke="#E76379" stroke-width="2.00044" stroke-miterlimit="8" fill="#E76379" fill-rule="evenodd"/><g><g><g><path d="M27.5723 73.5262 6.34717 61.2717 6.34717 36.7631 27.5723 24.5087 48.7975 36.7631 48.7975 61.2717Z" fill="#E76379" transform="matrix(1 0 0 1 106.928 433.483)"/><path d="M13.4459 52.5692C14.1289 54.1833 15.2662 55.552 16.6983 56.5194 17.4145 57.0039 18.2063 57.3877 19.051 57.6497 19.8962 57.9132 20.7961 58.0539 21.7214 58.0539 22.3532 58.0539 22.9683 57.9827 23.5571 57.848 24.6628 57.5968 25.6688 57.1295 26.5781 56.5417 27.375 56.0282 28.1027 55.421 28.7858 54.7653 29.4672 54.1077 30.1064 53.3995 30.7199 52.6718 30.2048 52.0413 29.7053 51.4038 29.2189 50.781L29.18 50.7306C28.9362 50.4188 28.6904 50.1032 28.4422 49.7899 28.3907 49.8533 28.3388 49.9168 28.2872 49.9789 27.7332 50.6525 27.1818 51.2829 26.632 51.8417 26.2189 52.2615 25.8071 52.6402 25.3975 52.9675 24.7816 53.4603 24.1744 53.8352 23.5743 54.0838 23.2734 54.2078 22.9721 54.3009 22.6671 54.3643 22.3614 54.4277 22.0497 54.4609 21.7217 54.4609 20.973 54.4609 20.2692 54.3101 19.6254 54.0382 18.6605 53.6309 17.8334 52.945 17.252 52.0837 16.9613 51.6537 16.7314 51.1801 16.5747 50.6751 16.4175 50.1696 16.3324 49.6338 16.3324 49.0719 16.3324 48.3225 16.4831 47.6187 16.7544 46.9745 17.1627 46.0104 17.8483 45.1825 18.7096 44.6018 19.1402 44.311 19.6139 44.0819 20.1188 43.9244 20.6237 43.7666 21.1602 43.6822 21.7214 43.6822 22.0826 43.6822 22.4234 43.7227 22.7587 43.7988 23.1979 43.8992 23.6305 44.0627 24.0668 44.2912 24.2118 44.3677 24.3581 44.4506 24.5047 44.5415 24.944 44.8127 25.3873 45.1487 25.8326 45.5424 25.9999 45.6897 26.1673 45.8445 26.3346 46.0068 26.8373 46.4942 27.3412 47.0447 27.8461 47.6369 28.2671 48.1316 28.6898 48.6544 29.1159 49.194 29.3712 49.5166 29.6278 49.8459 29.8876 50.1777 30.5895 51.0756 31.3054 51.9942 32.0605 52.8778 32.6272 53.5398 33.2149 54.1831 33.8403 54.7827 34.3092 55.2327 34.7994 55.6582 35.3187 56.0467 35.4159 56.1193 35.514 56.1908 35.6134 56.261 36.3096 56.7522 37.0593 57.1755 37.8737 57.4885 38.6288 57.7792 39.4403 57.9711 40.2904 58.0325 40.4867 58.0464 40.6844 58.0539 40.8849 58.0533 42.1197 58.0533 43.3061 57.8024 44.3818 57.3472 45.9959 56.6636 47.364 55.5275 48.3319 54.0948 48.8158 53.3786 49.2003 52.5868 49.4623 51.7415 49.7259 50.8978 49.8671 49.9983 49.8671 49.0723 49.8671 47.8375 49.6159 46.6511 49.1604 45.5753 48.4774 43.9612 47.3407 42.5931 45.908 41.6251 45.1918 41.1412 44.4 40.7568 43.5553 40.4942 42.7106 40.2316 41.8108 40.0904 40.8848 40.0904 40.2537 40.0904 39.6379 40.1624 39.0495 40.296 37.9438 40.5478 36.9378 41.0151 36.0279 41.6022 35.231 42.1157 34.5039 42.7236 33.8209 43.3792 33.1394 44.0361 32.5002 44.7443 31.8867 45.4727 32.4043 46.1061 32.9057 46.7458 33.3946 47.3715L33.4271 47.4133C33.6703 47.725 33.9167 48.0405 34.1643 48.3538 34.2164 48.2911 34.2677 48.227 34.3193 48.1642 34.8738 47.4913 35.425 46.8608 35.9751 46.3014 36.3883 45.8823 36.8 45.5036 37.2096 45.1749 37.8249 44.6825 38.4326 44.3073 39.0329 44.0593 39.3338 43.9347 39.6343 43.8416 39.94 43.7782 40.2457 43.7154 40.5568 43.6815 40.8848 43.6815 41.6341 43.6815 42.338 43.8323 42.9814 44.1048 43.9462 44.5121 44.7734 45.1975 45.3542 46.0587 45.6449 46.4893 45.8747 46.963 46.0321 47.4679 46.1887 47.9728 46.2738 48.5093 46.2738 49.0712 46.2738 49.8206 46.123 50.5244 45.8517 51.1685 45.4434 52.1334 44.7578 52.9606 43.8966 53.5413 43.4666 53.8326 42.9929 54.0618 42.488 54.2186 41.9831 54.3758 41.4466 54.4609 40.8847 54.4609 40.5236 54.4609 40.1828 54.4204 39.8482 54.3442 39.2626 54.2107 38.6886 53.9643 38.1021 53.6016 37.6623 53.3297 37.2192 52.9937 36.7742 52.6003 36.1056 52.0113 35.4336 51.2957 34.7601 50.5052 34.086 49.7147 33.4105 48.8493 32.7198 47.9657 32.0179 47.0678 31.302 46.1488 30.5469 45.265 29.9802 44.6023 29.3924 43.9597 28.7671 43.3595 28.6501 43.2469 28.5318 43.136 28.4114 43.0263 28.0508 42.6996 27.6786 42.3872 27.2891 42.0953 26.511 41.5126 25.6648 41.012 24.7341 40.6536 24.6757 40.6314 24.6174 40.6097 24.5587 40.5885 23.6774 40.271 22.7224 40.0881 21.7216 40.0887 20.487 40.0887 19.301 40.3396 18.2252 40.7947 16.6111 41.4778 15.243 42.6151 14.275 44.0471 13.7912 44.7634 13.4061 45.5551 13.1441 46.4005 12.8802 47.2471 12.7396 48.146 12.7396 49.0719 12.7396 50.3075 12.9905 51.4938 13.4456 52.5689Z" fill="#E76379" transform="matrix(1 0 0 1 103.197 433.429)"/><path d="M30.3792 81.0112 6.99331 67.5091 6.99331 40.5056 30.3792 27.0037 53.7651 40.5056 53.7651 67.5091Z" fill="#E76379" transform="matrix(1 0 0 1 104.121 428.492)"/></g></g></g><g><g><g><path d="M27.5723 73.5262 6.34717 61.2717 6.34717 36.7631 27.5723 24.5087 48.7975 36.7631 48.7975 61.2717Z" fill="#E76379" transform="matrix(1 0 0 1 106.928 433.483)"/><path d="M13.4459 52.5692C14.1289 54.1833 15.2662 55.552 16.6983 56.5194 17.4145 57.0039 18.2063 57.3877 19.051 57.6497 19.8962 57.9132 20.7961 58.0539 21.7214 58.0539 22.3532 58.0539 22.9683 57.9827 23.5571 57.848 24.6628 57.5968 25.6688 57.1295 26.5781 56.5417 27.375 56.0282 28.1027 55.421 28.7858 54.7653 29.4672 54.1077 30.1064 53.3995 30.7199 52.6718 30.2048 52.0413 29.7053 51.4038 29.2189 50.781L29.18 50.7306C28.9362 50.4188 28.6904 50.1032 28.4422 49.7899 28.3907 49.8533 28.3388 49.9168 28.2872 49.9789 27.7332 50.6525 27.1818 51.2829 26.632 51.8417 26.2189 52.2615 25.8071 52.6402 25.3975 52.9675 24.7816 53.4603 24.1744 53.8352 23.5743 54.0838 23.2734 54.2078 22.9721 54.3009 22.6671 54.3643 22.3614 54.4277 22.0497 54.4609 21.7217 54.4609 20.973 54.4609 20.2692 54.3101 19.6254 54.0382 18.6605 53.6309 17.8334 52.945 17.252 52.0837 16.9613 51.6537 16.7314 51.1801 16.5747 50.6751 16.4175 50.1696 16.3324 49.6338 16.3324 49.0719 16.3324 48.3225 16.4831 47.6187 16.7544 46.9745 17.1627 46.0104 17.8483 45.1825 18.7096 44.6018 19.1402 44.311 19.6139 44.0819 20.1188 43.9244 20.6237 43.7666 21.1602 43.6822 21.7214 43.6822 22.0826 43.6822 22.4234 43.7227 22.7587 43.7988 23.1979 43.8992 23.6305 44.0627 24.0668 44.2912 24.2118 44.3677 24.3581 44.4506 24.5047 44.5415 24.944 44.8127 25.3873 45.1487 25.8326 45.5424 25.9999 45.6897 26.1673 45.8445 26.3346 46.0068 26.8373 46.4942 27.3412 47.0447 27.8461 47.6369 28.2671 48.1316 28.6898 48.6544 29.1159 49.194 29.3712 49.5166 29.6278 49.8459 29.8876 50.1777 30.5895 51.0756 31.3054 51.9942 32.0605 52.8778 32.6272 53.5398 33.2149 54.1831 33.8403 54.7827 34.3092 55.2327 34.7994 55.6582 35.3187 56.0467 35.4159 56.1193 35.514 56.1908 35.6134 56.261 36.3096 56.7522 37.0593 57.1755 37.8737 57.4885 38.6288 57.7792 39.4403 57.9711 40.2904 58.0325 40.4867 58.0464 40.6844 58.0539 40.8849 58.0533 42.1197 58.0533 43.3061 57.8024 44.3818 57.3472 45.9959 56.6636 47.364 55.5275 48.3319 54.0948 48.8158 53.3786 49.2003 52.5868 49.4623 51.7415 49.7259 50.8978 49.8671 49.9983 49.8671 49.0723 49.8671 47.8375 49.6159 46.6511 49.1604 45.5753 48.4774 43.9612 47.3407 42.5931 45.908 41.6251 45.1918 41.1412 44.4 40.7568 43.5553 40.4942 42.7106 40.2316 41.8108 40.0904 40.8848 40.0904 40.2537 40.0904 39.6379 40.1624 39.0495 40.296 37.9438 40.5478 36.9378 41.0151 36.0279 41.6022 35.231 42.1157 34.5039 42.7236 33.8209 43.3792 33.1394 44.0361 32.5002 44.7443 31.8867 45.4727 32.4043 46.1061 32.9057 46.7458 33.3946 47.3715L33.4271 47.4133C33.6703 47.725 33.9167 48.0405 34.1643 48.3538 34.2164 48.2911 34.2677 48.227 34.3193 48.1642 34.8738 47.4913 35.425 46.8608 35.9751 46.3014 36.3883 45.8823 36.8 45.5036 37.2096 45.1749 37.8249 44.6825 38.4326 44.3073 39.0329 44.0593 39.3338 43.9347 39.6343 43.8416 39.94 43.7782 40.2457 43.7154 40.5568 43.6815 40.8848 43.6815 41.6341 43.6815 42.338 43.8323 42.9814 44.1048 43.9462 44.5121 44.7734 45.1975 45.3542 46.0587 45.6449 46.4893 45.8747 46.963 46.0321 47.4679 46.1887 47.9728 46.2738 48.5093 46.2738 49.0712 46.2738 49.8206 46.123 50.5244 45.8517 51.1685 45.4434 52.1334 44.7578 52.9606 43.8966 53.5413 43.4666 53.8326 42.9929 54.0618 42.488 54.2186 41.9831 54.3758 41.4466 54.4609 40.8847 54.4609 40.5236 54.4609 40.1828 54.4204 39.8482 54.3442 39.2626 54.2107 38.6886 53.9643 38.1021 53.6016 37.6623 53.3297 37.2192 52.9937 36.7742 52.6003 36.1056 52.0113 35.4336 51.2957 34.7601 50.5052 34.086 49.7147 33.4105 48.8493 32.7198 47.9657 32.0179 47.0678 31.302 46.1488 30.5469 45.265 29.9802 44.6023 29.3924 43.9597 28.7671 43.3595 28.6501 43.2469 28.5318 43.136 28.4114 43.0263 28.0508 42.6996 27.6786 42.3872 27.2891 42.0953 26.511 41.5126 25.6648 41.012 24.7341 40.6536 24.6757 40.6314 24.6174 40.6097 24.5587 40.5885 23.6774 40.271 22.7224 40.0881 21.7216 40.0887 20.487 40.0887 19.301 40.3396 18.2252 40.7947 16.6111 41.4778 15.243 42.6151 14.275 44.0471 13.7912 44.7634 13.4061 45.5551 13.1441 46.4005 12.8802 47.2471 12.7396 48.146 12.7396 49.0719 12.7396 50.3075 12.9905 51.4938 13.4456 52.5689Z" fill="#E76379" transform="matrix(1 0 0 1 103.197 433.429)"/><path d="M30.3792 81.0112 6.99331 67.5091 6.99331 40.5056 30.3792 27.0037 53.7651 40.5056 53.7651 67.5091Z" fill="#E76379" transform="matrix(1 0 0 1 104.121 428.492)"/></g></g></g><g><g><g><path d="M33.5881 89.5684 7.73201 74.6401 7.73201 44.7842 33.5881 29.8561 59.4443 44.7842 59.4443 74.6401Z" fill="#E76379" transform="matrix(1.01493 0 0 1 576.91 176.788)"/><path d="M16.3795 64.0388C17.2116 66.0051 18.5971 67.6725 20.3416 68.8509 21.2141 69.4411 22.1785 69.9087 23.2076 70.2278 24.2372 70.5489 25.3335 70.7202 26.4607 70.7202 27.2303 70.7202 27.9796 70.6335 28.6968 70.4694 30.0438 70.1634 31.2692 69.5941 32.377 68.8782 33.3477 68.2526 34.2342 67.5129 35.0663 66.7141 35.8965 65.9131 36.6751 65.0503 37.4224 64.1638 36.795 63.3958 36.1865 62.6192 35.5939 61.8605L35.5466 61.7991C35.2495 61.4193 34.9501 61.0349 34.6477 60.6532 34.5851 60.7305 34.5218 60.8078 34.4589 60.8834 33.7841 61.7039 33.1124 62.472 32.4426 63.1526 31.9394 63.664 31.4377 64.1253 30.9388 64.5241 30.1886 65.1244 29.4489 65.581 28.7177 65.8839 28.3512 66.035 27.9843 66.1484 27.6127 66.2257 27.2403 66.3029 26.8606 66.3433 26.461 66.3433 25.5489 66.3433 24.6915 66.1597 23.9073 65.8284 22.7319 65.3322 21.7243 64.4966 21.0161 63.4474 20.6619 62.9236 20.382 62.3466 20.191 61.7315 19.9995 61.1157 19.8958 60.463 19.8958 59.7785 19.8958 58.8656 20.0795 58.0082 20.4099 57.2235 20.9073 56.049 21.7425 55.0405 22.7917 54.3331 23.3163 53.9789 23.8932 53.6998 24.5084 53.5079 25.1234 53.3158 25.7769 53.2129 26.4607 53.2129 26.9006 53.2129 27.3157 53.2622 27.7242 53.3549 28.2592 53.4772 28.7862 53.6764 29.3177 53.9548 29.4944 54.048 29.6726 54.1489 29.8512 54.2596 30.3863 54.5901 30.9264 54.9994 31.4688 55.4789 31.6726 55.6584 31.8765 55.847 32.0804 56.0447 32.6927 56.6384 33.3066 57.309 33.9216 58.0304 34.4345 58.6331 34.9494 59.2699 35.4685 59.9272 35.7795 60.3202 36.0921 60.7214 36.4085 61.1256 37.2635 62.2194 38.1357 63.3385 39.0555 64.4148 39.7459 65.2213 40.4618 66.0048 41.2237 66.7353 41.7949 67.2835 42.392 67.8019 43.0246 68.2752 43.143 68.3636 43.2626 68.4507 43.3837 68.5361 44.2317 69.1345 45.145 69.6501 46.137 70.0315 47.0569 70.3856 48.0455 70.6194 49.0811 70.6941 49.3202 70.7111 49.561 70.7202 49.8052 70.7195 51.3095 70.7195 52.7547 70.4139 54.0651 69.8594 56.0314 69.0265 57.698 67.6426 58.8771 65.8973 59.4666 65.0248 59.9349 64.0604 60.2541 63.0305 60.5752 62.0028 60.7472 60.907 60.7472 59.779 60.7472 58.2747 60.4412 56.8295 59.8863 55.5191 59.0543 53.5528 57.6696 51.8862 55.9243 50.707 55.0518 50.1175 54.0873 49.6492 53.0583 49.3293 52.0293 49.0094 50.9332 48.8374 49.8052 48.8374 49.0364 48.8374 48.2862 48.9251 47.5694 49.0878 46.2224 49.3946 44.997 49.9639 43.8885 50.6791 42.9178 51.3046 42.032 52.0451 41.2 52.8438 40.3698 53.6441 39.5912 54.5067 38.8438 55.394 39.4744 56.1656 40.0852 56.945 40.6808 57.7071L40.7203 57.758C41.0165 58.1377 41.3167 58.5221 41.6184 58.9038 41.6818 58.8273 41.7443 58.7492 41.8071 58.6728 42.4827 57.8531 43.1541 57.085 43.8243 56.4036 44.3275 55.893 44.8291 55.4317 45.3281 55.0313 46.0776 54.4314 46.818 53.9744 47.5492 53.6723 47.9157 53.5205 48.2819 53.4071 48.6542 53.3299 49.0266 53.2533 49.4056 53.212 49.8051 53.212 50.718 53.212 51.5754 53.3957 52.3592 53.7277 53.5345 54.2239 54.5422 55.0588 55.2497 56.1079 55.6038 56.6325 55.8838 57.2095 56.0755 57.8246 56.2662 58.4396 56.3699 59.0932 56.3699 59.7777 56.3699 60.6905 56.1862 61.5479 55.8558 62.3326 55.3584 63.5079 54.5232 64.5156 53.474 65.2231 52.9502 65.5779 52.3732 65.8571 51.7581 66.0481 51.143 66.2396 50.4896 66.3433 49.805 66.3433 49.3652 66.3433 48.95 66.2939 48.5424 66.2012 47.829 66.0385 47.1298 65.7383 46.4153 65.2965 45.8795 64.9653 45.3398 64.556 44.7977 64.0768 43.9832 63.3593 43.1646 62.4876 42.3441 61.5246 41.5229 60.5616 40.7001 59.5073 39.8587 58.431 39.0036 57.3372 38.1316 56.2177 37.2116 55.141 36.5213 54.3337 35.8053 53.5509 35.0436 52.8197 34.9011 52.6826 34.757 52.5475 34.6102 52.4139 34.171 52.016 33.7176 51.6354 33.2431 51.2798 32.2952 50.57 31.2644 49.96 30.1306 49.5235 30.0595 49.4965 29.9885 49.47 29.917 49.4442 28.8433 49.0574 27.6801 48.8346 26.4608 48.8354 24.9569 48.8354 23.5121 49.1409 22.2016 49.6954 20.2353 50.5275 18.5687 51.913 17.3895 53.6575 16.8001 54.53 16.3311 55.4945 16.0119 56.5243 15.6904 57.5556 15.5192 58.6506 15.5192 59.7786 15.5192 61.2837 15.8248 62.7288 16.3792 64.0385Z" fill="#E76379" transform="matrix(1.01493 0 0 1 572.298 176.722)"/><path d="M37.0074 98.6864 8.51913 82.2384 8.51913 49.3432 37.0074 32.8955 65.4957 49.3432 65.4957 82.2384Z" fill="#E76379" transform="matrix(1.01493 0 0 1 573.44 170.709)"/></g></g></g><g><g><g><path d="M33.5881 89.5684 7.73201 74.6401 7.73201 44.7842 33.5881 29.8561 59.4443 44.7842 59.4443 74.6401Z" fill="#E76379" transform="matrix(1.01493 0 0 1 576.91 176.788)"/><path d="M16.3795 64.0388C17.2116 66.0051 18.5971 67.6725 20.3416 68.8509 21.2141 69.4411 22.1785 69.9087 23.2076 70.2278 24.2372 70.5489 25.3335 70.7202 26.4607 70.7202 27.2303 70.7202 27.9796 70.6335 28.6968 70.4694 30.0438 70.1634 31.2692 69.5941 32.377 68.8782 33.3477 68.2526 34.2342 67.5129 35.0663 66.7141 35.8965 65.9131 36.6751 65.0503 37.4224 64.1638 36.795 63.3958 36.1865 62.6192 35.5939 61.8605L35.5466 61.7991C35.2495 61.4193 34.9501 61.0349 34.6477 60.6532 34.5851 60.7305 34.5218 60.8078 34.4589 60.8834 33.7841 61.7039 33.1124 62.472 32.4426 63.1526 31.9394 63.664 31.4377 64.1253 30.9388 64.5241 30.1886 65.1244 29.4489 65.581 28.7177 65.8839 28.3512 66.035 27.9843 66.1484 27.6127 66.2257 27.2403 66.3029 26.8606 66.3433 26.461 66.3433 25.5489 66.3433 24.6915 66.1597 23.9073 65.8284 22.7319 65.3322 21.7243 64.4966 21.0161 63.4474 20.6619 62.9236 20.382 62.3466 20.191 61.7315 19.9995 61.1157 19.8958 60.463 19.8958 59.7785 19.8958 58.8656 20.0795 58.0082 20.4099 57.2235 20.9073 56.049 21.7425 55.0405 22.7917 54.3331 23.3163 53.9789 23.8932 53.6998 24.5084 53.5079 25.1234 53.3158 25.7769 53.2129 26.4607 53.2129 26.9006 53.2129 27.3157 53.2622 27.7242 53.3549 28.2592 53.4772 28.7862 53.6764 29.3177 53.9548 29.4944 54.048 29.6726 54.1489 29.8512 54.2596 30.3863 54.5901 30.9264 54.9994 31.4688 55.4789 31.6726 55.6584 31.8765 55.847 32.0804 56.0447 32.6927 56.6384 33.3066 57.309 33.9216 58.0304 34.4345 58.6331 34.9494 59.2699 35.4685 59.9272 35.7795 60.3202 36.0921 60.7214 36.4085 61.1256 37.2635 62.2194 38.1357 63.3385 39.0555 64.4148 39.7459 65.2213 40.4618 66.0048 41.2237 66.7353 41.7949 67.2835 42.392 67.8019 43.0246 68.2752 43.143 68.3636 43.2626 68.4507 43.3837 68.5361 44.2317 69.1345 45.145 69.6501 46.137 70.0315 47.0569 70.3856 48.0455 70.6194 49.0811 70.6941 49.3202 70.7111 49.561 70.7202 49.8052 70.7195 51.3095 70.7195 52.7547 70.4139 54.0651 69.8594 56.0314 69.0265 57.698 67.6426 58.8771 65.8973 59.4666 65.0248 59.9349 64.0604 60.2541 63.0305 60.5752 62.0028 60.7472 60.907 60.7472 59.779 60.7472 58.2747 60.4412 56.8295 59.8863 55.5191 59.0543 53.5528 57.6696 51.8862 55.9243 50.707 55.0518 50.1175 54.0873 49.6492 53.0583 49.3293 52.0293 49.0094 50.9332 48.8374 49.8052 48.8374 49.0364 48.8374 48.2862 48.9251 47.5694 49.0878 46.2224 49.3946 44.997 49.9639 43.8885 50.6791 42.9178 51.3046 42.032 52.0451 41.2 52.8438 40.3698 53.6441 39.5912 54.5067 38.8438 55.394 39.4744 56.1656 40.0852 56.945 40.6808 57.7071L40.7203 57.758C41.0165 58.1377 41.3167 58.5221 41.6184 58.9038 41.6818 58.8273 41.7443 58.7492 41.8071 58.6728 42.4827 57.8531 43.1541 57.085 43.8243 56.4036 44.3275 55.893 44.8291 55.4317 45.3281 55.0313 46.0776 54.4314 46.818 53.9744 47.5492 53.6723 47.9157 53.5205 48.2819 53.4071 48.6542 53.3299 49.0266 53.2533 49.4056 53.212 49.8051 53.212 50.718 53.212 51.5754 53.3957 52.3592 53.7277 53.5345 54.2239 54.5422 55.0588 55.2497 56.1079 55.6038 56.6325 55.8838 57.2095 56.0755 57.8246 56.2662 58.4396 56.3699 59.0932 56.3699 59.7777 56.3699 60.6905 56.1862 61.5479 55.8558 62.3326 55.3584 63.5079 54.5232 64.5156 53.474 65.2231 52.9502 65.5779 52.3732 65.8571 51.7581 66.0481 51.143 66.2396 50.4896 66.3433 49.805 66.3433 49.3652 66.3433 48.95 66.2939 48.5424 66.2012 47.829 66.0385 47.1298 65.7383 46.4153 65.2965 45.8795 64.9653 45.3398 64.556 44.7977 64.0768 43.9832 63.3593 43.1646 62.4876 42.3441 61.5246 41.5229 60.5616 40.7001 59.5073 39.8587 58.431 39.0036 57.3372 38.1316 56.2177 37.2116 55.141 36.5213 54.3337 35.8053 53.5509 35.0436 52.8197 34.9011 52.6826 34.757 52.5475 34.6102 52.4139 34.171 52.016 33.7176 51.6354 33.2431 51.2798 32.2952 50.57 31.2644 49.96 30.1306 49.5235 30.0595 49.4965 29.9885 49.47 29.917 49.4442 28.8433 49.0574 27.6801 48.8346 26.4608 48.8354 24.9569 48.8354 23.5121 49.1409 22.2016 49.6954 20.2353 50.5275 18.5687 51.913 17.3895 53.6575 16.8001 54.53 16.3311 55.4945 16.0119 56.5243 15.6904 57.5556 15.5192 58.6506 15.5192 59.7786 15.5192 61.2837 15.8248 62.7288 16.3792 64.0385Z" fill="#E76379" transform="matrix(1.01493 0 0 1 572.298 176.722)"/><path d="M37.0074 98.6864 8.51913 82.2384 8.51913 49.3432 37.0074 32.8955 65.4957 49.3432 65.4957 82.2384Z" fill="#E76379" transform="matrix(1.01493 0 0 1 573.44 170.709)"/></g></g></g><g clip-path="url(#clip0)"><g clip-path="url(#clip1)"><g clip-path="url(#clip2)"><path d="M635.378 500.509 625.003 486.98 631.532 471.231 648.435 469.01 658.81 482.539 652.281 498.288Z" fill="#E76379"/><path d="M629.5 482.25C629.509 483.469 629.875 484.652 630.537 485.655 630.869 486.157 631.275 486.615 631.748 487.008 632.221 487.403 632.762 487.733 633.357 487.979 633.762 488.147 634.177 488.266 634.591 488.336 635.368 488.469 636.139 488.437 636.88 488.301 637.529 488.183 638.158 487.987 638.772 487.748 639.385 487.507 639.984 487.222 640.573 486.918 640.41 486.375 640.258 485.833 640.112 485.303L640.1 485.26C640.026 484.995 639.953 484.727 639.877 484.459 639.827 484.486 639.776 484.513 639.727 484.539 639.191 484.824 638.669 485.083 638.167 485.295 637.79 485.455 637.424 485.589 637.074 485.69 636.547 485.842 636.057 485.922 635.605 485.922 635.378 485.921 635.16 485.901 634.947 485.86 634.734 485.819 634.525 485.758 634.314 485.67 633.833 485.471 633.421 485.187 633.079 484.84 632.568 484.322 632.219 483.66 632.075 482.952 632.003 482.598 631.981 482.233 632.015 481.867 632.048 481.5 632.137 481.133 632.286 480.772 632.486 480.29 632.77 479.878 633.116 479.536 633.635 479.026 634.296 478.676 635.005 478.533 635.359 478.46 635.724 478.439 636.091 478.473 636.457 478.506 636.824 478.594 637.185 478.744 637.417 478.84 637.625 478.957 637.82 479.095 638.076 479.277 638.31 479.497 638.53 479.76 638.603 479.848 638.674 479.94 638.745 480.038 638.955 480.329 639.15 480.663 639.331 481.034 639.399 481.174 639.466 481.318 639.53 481.467 639.723 481.914 639.9 482.402 640.067 482.917 640.206 483.347 640.338 483.795 640.468 484.256 640.546 484.531 640.624 484.811 640.702 485.093 640.914 485.857 641.129 486.638 641.379 487.407 641.567 487.984 641.773 488.553 642.015 489.105 642.197 489.519 642.398 489.923 642.629 490.311 642.672 490.384 642.716 490.456 642.761 490.528 643.078 491.029 643.447 491.5 643.886 491.918 644.294 492.306 644.765 492.646 645.294 492.912 645.417 492.973 645.542 493.031 645.671 493.084 646.464 493.413 647.294 493.567 648.106 493.561 649.326 493.552 650.507 493.186 651.511 492.524 652.013 492.192 652.471 491.786 652.864 491.312 653.258 490.841 653.589 490.3 653.835 489.705 654.164 488.912 654.319 488.082 654.313 487.27 654.304 486.051 653.938 484.869 653.275 483.865 652.944 483.363 652.537 482.905 652.064 482.512 651.592 482.118 651.051 481.787 650.456 481.541 650.05 481.373 649.636 481.255 649.222 481.184 648.444 481.051 647.673 481.083 646.932 481.218 646.283 481.336 645.654 481.533 645.041 481.772 644.428 482.013 643.828 482.298 643.24 482.602 643.404 483.147 643.556 483.692 643.703 484.224L643.713 484.26C643.786 484.525 643.86 484.793 643.936 485.061 643.986 485.034 644.036 485.007 644.086 484.98 644.622 484.695 645.144 484.437 645.646 484.224 646.024 484.065 646.389 483.931 646.74 483.829 647.266 483.676 647.757 483.597 648.209 483.598 648.435 483.598 648.653 483.618 648.866 483.659 649.08 483.7 649.289 483.761 649.499 483.848 649.981 484.048 650.393 484.332 650.734 484.679 651.245 485.198 651.594 485.858 651.738 486.566 651.81 486.921 651.832 487.286 651.798 487.653 651.764 488.019 651.676 488.386 651.527 488.747 651.327 489.229 651.042 489.641 650.697 489.983 650.177 490.494 649.516 490.843 648.808 490.986 648.454 491.059 648.089 491.08 647.723 491.046 647.356 491.013 646.989 490.925 646.628 490.775 646.396 490.679 646.188 490.562 645.993 490.424 645.652 490.182 645.349 489.871 645.069 489.482 644.858 489.19 644.663 488.856 644.482 488.485 644.209 487.928 643.968 487.289 643.746 486.602 643.523 485.914 643.32 485.178 643.111 484.426 642.899 483.662 642.684 482.881 642.434 482.112 642.247 481.535 642.04 480.966 641.798 480.413 641.753 480.31 641.707 480.207 641.659 480.105 641.514 479.799 641.358 479.499 641.185 479.207 640.841 478.626 640.43 478.079 639.928 477.6 639.896 477.571 639.864 477.541 639.832 477.512 639.35 477.073 638.786 476.701 638.142 476.435 637.349 476.106 636.52 475.951 635.707 475.957 634.488 475.966 633.306 476.333 632.303 476.995 631.801 477.326 631.343 477.732 630.949 478.206 630.554 478.68 630.224 479.22 629.977 479.815 629.648 480.609 629.494 481.438 629.5 482.25Z" fill="#E76379"/><path d="M634.713 502.112 623.282 487.206 630.476 469.854 649.1 467.407 660.531 482.313 653.338 499.665Z" fill="#E76379"/></g></g></g><g clip-path="url(#clip3)"><g clip-path="url(#clip4)"><g clip-path="url(#clip5)"><path d="M635.378 500.509 625.003 486.98 631.532 471.231 648.435 469.01 658.81 482.539 652.281 498.288Z" fill="#E76379"/><path d="M629.5 482.25C629.509 483.469 629.875 484.652 630.537 485.655 630.869 486.157 631.275 486.615 631.748 487.008 632.221 487.403 632.762 487.733 633.357 487.979 633.762 488.147 634.177 488.266 634.591 488.336 635.368 488.469 636.139 488.437 636.88 488.301 637.529 488.183 638.158 487.987 638.772 487.748 639.385 487.507 639.984 487.222 640.573 486.918 640.41 486.375 640.258 485.833 640.112 485.303L640.1 485.26C640.026 484.995 639.953 484.727 639.877 484.459 639.827 484.486 639.776 484.513 639.727 484.539 639.191 484.824 638.669 485.083 638.167 485.295 637.79 485.455 637.424 485.589 637.074 485.69 636.547 485.842 636.057 485.922 635.605 485.922 635.378 485.921 635.16 485.901 634.947 485.86 634.734 485.819 634.525 485.758 634.314 485.67 633.833 485.471 633.421 485.187 633.079 484.84 632.568 484.322 632.219 483.66 632.075 482.952 632.003 482.598 631.981 482.233 632.015 481.867 632.048 481.5 632.137 481.133 632.286 480.772 632.486 480.29 632.77 479.878 633.116 479.536 633.635 479.026 634.296 478.676 635.005 478.533 635.359 478.46 635.724 478.439 636.091 478.473 636.457 478.506 636.824 478.594 637.185 478.744 637.417 478.84 637.625 478.957 637.82 479.095 638.076 479.277 638.31 479.497 638.53 479.76 638.603 479.848 638.674 479.94 638.745 480.038 638.955 480.329 639.15 480.663 639.331 481.034 639.399 481.174 639.466 481.318 639.53 481.467 639.723 481.914 639.9 482.402 640.067 482.917 640.206 483.347 640.338 483.795 640.468 484.256 640.546 484.531 640.624 484.811 640.702 485.093 640.914 485.857 641.129 486.638 641.379 487.407 641.567 487.984 641.773 488.553 642.015 489.105 642.197 489.519 642.398 489.923 642.629 490.311 642.672 490.384 642.716 490.456 642.761 490.528 643.078 491.029 643.447 491.5 643.886 491.918 644.294 492.306 644.765 492.646 645.294 492.912 645.417 492.973 645.542 493.031 645.671 493.084 646.464 493.413 647.294 493.567 648.106 493.561 649.326 493.552 650.507 493.186 651.511 492.524 652.013 492.192 652.471 491.786 652.864 491.312 653.258 490.841 653.589 490.3 653.835 489.705 654.164 488.912 654.319 488.082 654.313 487.27 654.304 486.051 653.938 484.869 653.275 483.865 652.944 483.363 652.537 482.905 652.064 482.512 651.592 482.118 651.051 481.787 650.456 481.541 650.05 481.373 649.636 481.255 649.222 481.184 648.444 481.051 647.673 481.083 646.932 481.218 646.283 481.336 645.654 481.533 645.041 481.772 644.428 482.013 643.828 482.298 643.24 482.602 643.404 483.147 643.556 483.692 643.703 484.224L643.713 484.26C643.786 484.525 643.86 484.793 643.936 485.061 643.986 485.034 644.036 485.007 644.086 484.98 644.622 484.695 645.144 484.437 645.646 484.224 646.024 484.065 646.389 483.931 646.74 483.829 647.266 483.676 647.757 483.597 648.209 483.598 648.435 483.598 648.653 483.618 648.866 483.659 649.08 483.7 649.289 483.761 649.499 483.848 649.981 484.048 650.393 484.332 650.734 484.679 651.245 485.198 651.594 485.858 651.738 486.566 651.81 486.921 651.832 487.286 651.798 487.653 651.764 488.019 651.676 488.386 651.527 488.747 651.327 489.229 651.042 489.641 650.697 489.983 650.177 490.494 649.516 490.843 648.808 490.986 648.454 491.059 648.089 491.08 647.723 491.046 647.356 491.013 646.989 490.925 646.628 490.775 646.396 490.679 646.188 490.562 645.993 490.424 645.652 490.182 645.349 489.871 645.069 489.482 644.858 489.19 644.663 488.856 644.482 488.485 644.209 487.928 643.968 487.289 643.746 486.602 643.523 485.914 643.32 485.178 643.111 484.426 642.899 483.662 642.684 482.881 642.434 482.112 642.247 481.535 642.04 480.966 641.798 480.413 641.753 480.31 641.707 480.207 641.659 480.105 641.514 479.799 641.358 479.499 641.185 479.207 640.841 478.626 640.43 478.079 639.928 477.6 639.896 477.571 639.864 477.541 639.832 477.512 639.35 477.073 638.786 476.701 638.142 476.435 637.349 476.106 636.52 475.951 635.707 475.957 634.488 475.966 633.306 476.333 632.303 476.995 631.801 477.326 631.343 477.732 630.949 478.206 630.554 478.68 630.224 479.22 629.977 479.815 629.648 480.609 629.494 481.438 629.5 482.25Z" fill="#E76379"/><path d="M634.713 502.112 623.282 487.206 630.476 469.854 649.1 467.407 660.531 482.313 653.338 499.665Z" fill="#E76379"/></g></g></g><path d="M95.0001 237.5C95.0001 228.94 101.94 222 110.5 222 119.06 222 126 228.94 126 237.5 126 246.06 119.06 253 110.5 253 101.94 253 95.0001 246.06 95.0001 237.5Z" stroke="#E76379" stroke-width="2.00044" stroke-miterlimit="8" fill="#E76379" fill-rule="evenodd"/><path d="M95.0001 293.5C95.0001 286.044 101.044 280 108.5 280 115.956 280 122 286.044 122 293.5 122 300.956 115.956 307 108.5 307 101.044 307 95.0001 300.956 95.0001 293.5Z" stroke="#E76379" stroke-width="2.00044" stroke-miterlimit="8" fill="#E76379" fill-rule="evenodd"/><path d="M137 273C137 263.059 145.059 255 155 255 164.941 255 173 263.059 173 273 173 282.941 164.941 291 155 291 145.059 291 137 282.941 137 273Z" stroke="#E76379" stroke-width="2.00044" stroke-miterlimit="8" fill="#E76379" fill-rule="evenodd"/><path d="M125 334C125 327.373 130.373 322 137 322 143.627 322 149 327.373 149 334 149 340.627 143.627 346 137 346 130.373 346 125 340.627 125 334Z" stroke="#E76379" stroke-width="2.00044" stroke-miterlimit="8" fill="#E76379" fill-rule="evenodd"/><g><g><g><path d="M167.5 229.879 152.449 221.189 152.449 203.811 167.5 195.121 182.551 203.811 182.551 221.189Z" fill="#E76379"/><path d="M154.837 214.98C155.322 216.125 156.128 217.095 157.144 217.781 157.652 218.125 158.213 218.397 158.812 218.583 159.411 218.77 160.049 218.869 160.706 218.869 161.153 218.869 161.59 218.819 162.007 218.723 162.791 218.545 163.505 218.214 164.149 217.797 164.714 217.433 165.23 217.002 165.715 216.538 166.198 216.071 166.651 215.569 167.086 215.053 166.721 214.606 166.367 214.154 166.022 213.712L165.994 213.677C165.821 213.455 165.647 213.232 165.471 213.01 165.435 213.054 165.398 213.099 165.361 213.144 164.968 213.621 164.577 214.068 164.188 214.464 163.895 214.762 163.603 215.031 163.312 215.263 162.875 215.612 162.445 215.878 162.019 216.054 161.806 216.142 161.592 216.208 161.376 216.253 161.159 216.298 160.938 216.322 160.706 216.322 160.175 216.322 159.676 216.215 159.219 216.022 158.535 215.733 157.949 215.247 157.536 214.636 157.33 214.331 157.167 213.995 157.056 213.637 156.945 213.279 156.884 212.899 156.884 212.5 156.884 211.969 156.991 211.47 157.183 211.013 157.473 210.329 157.959 209.742 158.57 209.331 158.875 209.124 159.211 208.962 159.569 208.85 159.927 208.738 160.308 208.679 160.706 208.679 160.962 208.679 161.203 208.707 161.441 208.761 161.752 208.832 162.059 208.948 162.369 209.11 162.471 209.165 162.575 209.223 162.679 209.288 162.991 209.48 163.305 209.718 163.621 209.998 163.739 210.102 163.858 210.212 163.977 210.327 164.333 210.673 164.69 211.063 165.048 211.483 165.347 211.834 165.647 212.204 165.949 212.587 166.13 212.816 166.312 213.049 166.496 213.284 166.994 213.921 167.501 214.573 168.037 215.199 168.439 215.669 168.855 216.125 169.299 216.55 169.631 216.869 169.979 217.171 170.347 217.446 170.416 217.498 170.486 217.548 170.556 217.598 171.05 217.946 171.581 218.247 172.159 218.469 172.694 218.675 173.27 218.811 173.873 218.854 174.012 218.864 174.152 218.869 174.294 218.869 175.17 218.869 176.011 218.691 176.774 218.368 177.918 217.884 178.888 217.078 179.575 216.062 179.918 215.554 180.191 214.993 180.376 214.393 180.563 213.795 180.663 213.157 180.663 212.501 180.663 211.625 180.485 210.784 180.162 210.021 179.678 208.876 178.872 207.906 177.856 207.22 177.348 206.877 176.787 206.604 176.188 206.418 175.589 206.232 174.951 206.132 174.294 206.132 173.847 206.132 173.41 206.183 172.993 206.277 172.209 206.456 171.495 206.787 170.85 207.204 170.285 207.568 169.769 207.999 169.285 208.464 168.802 208.93 168.349 209.432 167.914 209.948 168.281 210.397 168.636 210.851 168.983 211.295L169.006 211.324C169.178 211.545 169.353 211.769 169.529 211.991 169.566 211.947 169.602 211.901 169.639 211.857 170.032 211.38 170.423 210.932 170.813 210.536 171.106 210.239 171.398 209.97 171.688 209.737 172.124 209.388 172.555 209.122 172.981 208.946 173.194 208.858 173.407 208.792 173.624 208.747 173.841 208.702 174.061 208.678 174.294 208.678 174.825 208.678 175.325 208.785 175.781 208.978 176.465 209.267 177.051 209.753 177.463 210.364 177.669 210.669 177.832 211.005 177.944 211.363 178.055 211.721 178.115 212.101 178.115 212.5 178.115 213.031 178.008 213.53 177.816 213.987 177.527 214.671 177.04 215.258 176.43 215.67 176.125 215.876 175.789 216.039 175.431 216.15 175.073 216.261 174.692 216.322 174.294 216.322 174.038 216.322 173.796 216.293 173.559 216.239 173.144 216.144 172.737 215.969 172.321 215.712 172.009 215.52 171.695 215.281 171.379 215.002 170.905 214.585 170.429 214.077 169.951 213.517 169.473 212.956 168.994 212.342 168.504 211.716 168.007 211.079 167.499 210.428 166.964 209.801 166.562 209.331 166.145 208.875 165.702 208.45 165.619 208.37 165.535 208.291 165.449 208.214 165.194 207.982 164.93 207.76 164.653 207.553 164.102 207.14 163.502 206.785 162.842 206.531 162.8 206.515 162.759 206.5 162.717 206.485 162.092 206.26 161.415 206.13 160.706 206.13 159.83 206.13 158.989 206.308 158.226 206.631 157.082 207.115 156.112 207.922 155.425 208.937 155.082 209.445 154.809 210.007 154.623 210.606 154.436 211.206 154.337 211.844 154.337 212.5 154.337 213.376 154.514 214.218 154.837 214.98Z" fill="#E76379"/><path d="M167.5 231.648 150.917 222.074 150.917 202.926 167.5 193.352 184.083 202.926 184.083 222.074Z" fill="#E76379"/></g></g></g><g><g><g><path d="M167.5 229.879 152.449 221.189 152.449 203.811 167.5 195.121 182.551 203.811 182.551 221.189Z" fill="#E76379"/><path d="M154.837 214.98C155.322 216.125 156.128 217.095 157.144 217.781 157.652 218.125 158.213 218.397 158.812 218.583 159.411 218.77 160.049 218.869 160.706 218.869 161.153 218.869 161.59 218.819 162.007 218.723 162.791 218.545 163.505 218.214 164.149 217.797 164.714 217.433 165.23 217.002 165.715 216.538 166.198 216.071 166.651 215.569 167.086 215.053 166.721 214.606 166.367 214.154 166.022 213.712L165.994 213.677C165.821 213.455 165.647 213.232 165.471 213.01 165.435 213.054 165.398 213.099 165.361 213.144 164.968 213.621 164.577 214.068 164.188 214.464 163.895 214.762 163.603 215.031 163.312 215.263 162.875 215.612 162.445 215.878 162.019 216.054 161.806 216.142 161.592 216.208 161.376 216.253 161.159 216.298 160.938 216.322 160.706 216.322 160.175 216.322 159.676 216.215 159.219 216.022 158.535 215.733 157.949 215.247 157.536 214.636 157.33 214.331 157.167 213.995 157.056 213.637 156.945 213.279 156.884 212.899 156.884 212.5 156.884 211.969 156.991 211.47 157.183 211.013 157.473 210.329 157.959 209.742 158.57 209.331 158.875 209.124 159.211 208.962 159.569 208.85 159.927 208.738 160.308 208.679 160.706 208.679 160.962 208.679 161.203 208.707 161.441 208.761 161.752 208.832 162.059 208.948 162.369 209.11 162.471 209.165 162.575 209.223 162.679 209.288 162.991 209.48 163.305 209.718 163.621 209.998 163.739 210.102 163.858 210.212 163.977 210.327 164.333 210.673 164.69 211.063 165.048 211.483 165.347 211.834 165.647 212.204 165.949 212.587 166.13 212.816 166.312 213.049 166.496 213.284 166.994 213.921 167.501 214.573 168.037 215.199 168.439 215.669 168.855 216.125 169.299 216.55 169.631 216.869 169.979 217.171 170.347 217.446 170.416 217.498 170.486 217.548 170.556 217.598 171.05 217.946 171.581 218.247 172.159 218.469 172.694 218.675 173.27 218.811 173.873 218.854 174.012 218.864 174.152 218.869 174.294 218.869 175.17 218.869 176.011 218.691 176.774 218.368 177.918 217.884 178.888 217.078 179.575 216.062 179.918 215.554 180.191 214.993 180.376 214.393 180.563 213.795 180.663 213.157 180.663 212.501 180.663 211.625 180.485 210.784 180.162 210.021 179.678 208.876 178.872 207.906 177.856 207.22 177.348 206.877 176.787 206.604 176.188 206.418 175.589 206.232 174.951 206.132 174.294 206.132 173.847 206.132 173.41 206.183 172.993 206.277 172.209 206.456 171.495 206.787 170.85 207.204 170.285 207.568 169.769 207.999 169.285 208.464 168.802 208.93 168.349 209.432 167.914 209.948 168.281 210.397 168.636 210.851 168.983 211.295L169.006 211.324C169.178 211.545 169.353 211.769 169.529 211.991 169.566 211.947 169.602 211.901 169.639 211.857 170.032 211.38 170.423 210.932 170.813 210.536 171.106 210.239 171.398 209.97 171.688 209.737 172.124 209.388 172.555 209.122 172.981 208.946 173.194 208.858 173.407 208.792 173.624 208.747 173.841 208.702 174.061 208.678 174.294 208.678 174.825 208.678 175.325 208.785 175.781 208.978 176.465 209.267 177.051 209.753 177.463 210.364 177.669 210.669 177.832 211.005 177.944 211.363 178.055 211.721 178.115 212.101 178.115 212.5 178.115 213.031 178.008 213.53 177.816 213.987 177.527 214.671 177.04 215.258 176.43 215.67 176.125 215.876 175.789 216.039 175.431 216.15 175.073 216.261 174.692 216.322 174.294 216.322 174.038 216.322 173.796 216.293 173.559 216.239 173.144 216.144 172.737 215.969 172.321 215.712 172.009 215.52 171.695 215.281 171.379 215.002 170.905 214.585 170.429 214.077 169.951 213.517 169.473 212.956 168.994 212.342 168.504 211.716 168.007 211.079 167.499 210.428 166.964 209.801 166.562 209.331 166.145 208.875 165.702 208.45 165.619 208.37 165.535 208.291 165.449 208.214 165.194 207.982 164.93 207.76 164.653 207.553 164.102 207.14 163.502 206.785 162.842 206.531 162.8 206.515 162.759 206.5 162.717 206.485 162.092 206.26 161.415 206.13 160.706 206.13 159.83 206.13 158.989 206.308 158.226 206.631 157.082 207.115 156.112 207.922 155.425 208.937 155.082 209.445 154.809 210.007 154.623 210.606 154.436 211.206 154.337 211.844 154.337 212.5 154.337 213.376 154.514 214.218 154.837 214.98Z" fill="#E76379"/><path d="M167.5 231.648 150.917 222.074 150.917 202.926 167.5 193.352 184.083 202.926 184.083 222.074Z" fill="#E76379"/></g></g></g><path d="M311 140.5C311 133.044 316.82 127 324 127 331.18 127 337 133.044 337 140.5 337 147.956 331.18 154 324 154 316.82 154 311 147.956 311 140.5Z" stroke="#E76379" stroke-width="2.00044" stroke-miterlimit="8" fill="#E76379" fill-rule="evenodd"/><path d="M355 132.5C355 121.73 363.507 113 374 113 384.493 113 393 121.73 393 132.5 393 143.27 384.493 152 374 152 363.507 152 355 143.27 355 132.5Z" stroke="#E76379" stroke-width="2.00044" stroke-miterlimit="8" fill="#E76379" fill-rule="evenodd"/><g><g><g><path d="M426.5 154.423 415.309 147.961 415.309 135.039 426.5 128.577 437.691 135.039 437.691 147.961Z" fill="#E76379"/><path d="M417.084 143.344C417.444 144.195 418.044 144.917 418.799 145.427 419.177 145.683 419.594 145.885 420.04 146.023 420.485 146.162 420.96 146.236 421.448 146.236 421.781 146.236 422.105 146.199 422.416 146.128 422.999 145.995 423.529 145.749 424.009 145.439 424.429 145.168 424.812 144.848 425.173 144.502 425.532 144.155 425.869 143.782 426.192 143.398 425.921 143.066 425.657 142.73 425.401 142.401L425.38 142.375C425.252 142.21 425.122 142.044 424.991 141.879 424.964 141.912 424.937 141.946 424.91 141.978 424.618 142.334 424.327 142.666 424.037 142.961 423.819 143.182 423.602 143.382 423.386 143.554 423.061 143.814 422.741 144.012 422.425 144.143 422.266 144.208 422.107 144.257 421.946 144.291 421.785 144.324 421.621 144.342 421.448 144.342 421.053 144.342 420.682 144.262 420.343 144.119 419.834 143.904 419.398 143.542 419.091 143.088 418.938 142.862 418.817 142.612 418.734 142.346 418.651 142.079 418.606 141.796 418.606 141.5 418.606 141.105 418.686 140.734 418.829 140.394 419.044 139.886 419.406 139.449 419.86 139.143 420.087 138.99 420.336 138.869 420.603 138.786 420.869 138.703 421.152 138.658 421.448 138.658 421.638 138.658 421.818 138.68 421.995 138.72 422.226 138.773 422.454 138.859 422.684 138.979 422.761 139.02 422.838 139.064 422.915 139.111 423.147 139.254 423.381 139.432 423.615 139.639 423.704 139.717 423.792 139.799 423.88 139.884 424.145 140.141 424.411 140.431 424.677 140.744 424.899 141.004 425.122 141.28 425.347 141.565 425.481 141.735 425.617 141.908 425.754 142.083 426.124 142.557 426.501 143.041 426.899 143.507 427.198 143.856 427.508 144.195 427.838 144.511 428.085 144.749 428.343 144.973 428.617 145.178 428.668 145.216 428.72 145.254 428.773 145.291 429.14 145.55 429.535 145.773 429.964 145.938 430.363 146.091 430.79 146.193 431.239 146.225 431.342 146.232 431.446 146.236 431.552 146.236 432.203 146.236 432.829 146.104 433.396 145.864 434.247 145.503 434.968 144.904 435.479 144.149 435.734 143.771 435.937 143.354 436.075 142.908 436.214 142.463 436.288 141.989 436.288 141.5 436.288 140.849 436.156 140.224 435.916 139.657 435.555 138.805 434.956 138.084 434.201 137.574 433.823 137.319 433.406 137.116 432.96 136.977 432.515 136.839 432.04 136.765 431.552 136.765 431.219 136.765 430.895 136.802 430.584 136.873 430.001 137.006 429.471 137.252 428.991 137.562 428.571 137.832 428.188 138.153 427.827 138.499 427.468 138.845 427.131 139.218 426.808 139.602 427.081 139.936 427.345 140.274 427.603 140.604L427.62 140.626C427.748 140.79 427.878 140.956 428.009 141.122 428.036 141.089 428.063 141.055 428.09 141.022 428.383 140.667 428.673 140.334 428.963 140.039 429.181 139.818 429.398 139.619 429.614 139.445 429.939 139.186 430.259 138.988 430.576 138.857 430.734 138.792 430.893 138.742 431.054 138.709 431.215 138.676 431.379 138.658 431.552 138.658 431.947 138.658 432.318 138.738 432.658 138.881 433.166 139.096 433.602 139.457 433.909 139.911 434.062 140.138 434.183 140.388 434.266 140.654 434.349 140.921 434.393 141.204 434.393 141.5 434.393 141.895 434.314 142.266 434.171 142.606 433.956 143.114 433.594 143.551 433.14 143.857 432.913 144.01 432.664 144.131 432.397 144.214 432.131 144.297 431.848 144.342 431.552 144.342 431.362 144.342 431.182 144.32 431.005 144.28 430.697 144.21 430.394 144.08 430.085 143.889 429.853 143.745 429.619 143.568 429.385 143.361 429.032 143.05 428.678 142.673 428.323 142.256 427.967 141.839 427.611 141.383 427.247 140.917 426.877 140.444 426.499 139.959 426.101 139.493 425.802 139.144 425.492 138.805 425.163 138.488 425.101 138.429 425.039 138.37 424.975 138.313 424.785 138.14 424.589 137.976 424.383 137.822 423.973 137.514 423.527 137.25 423.036 137.061 423.005 137.05 422.975 137.038 422.944 137.027 422.479 136.86 421.976 136.763 421.448 136.764 420.797 136.764 420.171 136.896 419.604 137.136 418.753 137.496 418.032 138.096 417.521 138.851 417.266 139.228 417.063 139.646 416.925 140.092 416.786 140.538 416.712 141.012 416.712 141.5 416.712 142.152 416.844 142.777 417.084 143.344Z" fill="#E76379"/><path d="M426.5 155.738 414.169 148.619 414.169 134.381 426.5 127.262 438.831 134.381 438.831 148.619Z" fill="#E76379"/></g></g></g><g><g><g><path d="M426.5 154.423 415.309 147.961 415.309 135.039 426.5 128.577 437.691 135.039 437.691 147.961Z" fill="#E76379"/><path d="M417.084 143.344C417.444 144.195 418.044 144.917 418.799 145.427 419.177 145.683 419.594 145.885 420.04 146.023 420.485 146.162 420.96 146.236 421.448 146.236 421.781 146.236 422.105 146.199 422.416 146.128 422.999 145.995 423.529 145.749 424.009 145.439 424.429 145.168 424.812 144.848 425.173 144.502 425.532 144.155 425.869 143.782 426.192 143.398 425.921 143.066 425.657 142.73 425.401 142.401L425.38 142.375C425.252 142.21 425.122 142.044 424.991 141.879 424.964 141.912 424.937 141.946 424.91 141.978 424.618 142.334 424.327 142.666 424.037 142.961 423.819 143.182 423.602 143.382 423.386 143.554 423.061 143.814 422.741 144.012 422.425 144.143 422.266 144.208 422.107 144.257 421.946 144.291 421.785 144.324 421.621 144.342 421.448 144.342 421.053 144.342 420.682 144.262 420.343 144.119 419.834 143.904 419.398 143.542 419.091 143.088 418.938 142.862 418.817 142.612 418.734 142.346 418.651 142.079 418.606 141.796 418.606 141.5 418.606 141.105 418.686 140.734 418.829 140.394 419.044 139.886 419.406 139.449 419.86 139.143 420.087 138.99 420.336 138.869 420.603 138.786 420.869 138.703 421.152 138.658 421.448 138.658 421.638 138.658 421.818 138.68 421.995 138.72 422.226 138.773 422.454 138.859 422.684 138.979 422.761 139.02 422.838 139.064 422.915 139.111 423.147 139.254 423.381 139.432 423.615 139.639 423.704 139.717 423.792 139.799 423.88 139.884 424.145 140.141 424.411 140.431 424.677 140.744 424.899 141.004 425.122 141.28 425.347 141.565 425.481 141.735 425.617 141.908 425.754 142.083 426.124 142.557 426.501 143.041 426.899 143.507 427.198 143.856 427.508 144.195 427.838 144.511 428.085 144.749 428.343 144.973 428.617 145.178 428.668 145.216 428.72 145.254 428.773 145.291 429.14 145.55 429.535 145.773 429.964 145.938 430.363 146.091 430.79 146.193 431.239 146.225 431.342 146.232 431.446 146.236 431.552 146.236 432.203 146.236 432.829 146.104 433.396 145.864 434.247 145.503 434.968 144.904 435.479 144.149 435.734 143.771 435.937 143.354 436.075 142.908 436.214 142.463 436.288 141.989 436.288 141.5 436.288 140.849 436.156 140.224 435.916 139.657 435.555 138.805 434.956 138.084 434.201 137.574 433.823 137.319 433.406 137.116 432.96 136.977 432.515 136.839 432.04 136.765 431.552 136.765 431.219 136.765 430.895 136.802 430.584 136.873 430.001 137.006 429.471 137.252 428.991 137.562 428.571 137.832 428.188 138.153 427.827 138.499 427.468 138.845 427.131 139.218 426.808 139.602 427.081 139.936 427.345 140.274 427.603 140.604L427.62 140.626C427.748 140.79 427.878 140.956 428.009 141.122 428.036 141.089 428.063 141.055 428.09 141.022 428.383 140.667 428.673 140.334 428.963 140.039 429.181 139.818 429.398 139.619 429.614 139.445 429.939 139.186 430.259 138.988 430.576 138.857 430.734 138.792 430.893 138.742 431.054 138.709 431.215 138.676 431.379 138.658 431.552 138.658 431.947 138.658 432.318 138.738 432.658 138.881 433.166 139.096 433.602 139.457 433.909 139.911 434.062 140.138 434.183 140.388 434.266 140.654 434.349 140.921 434.393 141.204 434.393 141.5 434.393 141.895 434.314 142.266 434.171 142.606 433.956 143.114 433.594 143.551 433.14 143.857 432.913 144.01 432.664 144.131 432.397 144.214 432.131 144.297 431.848 144.342 431.552 144.342 431.362 144.342 431.182 144.32 431.005 144.28 430.697 144.21 430.394 144.08 430.085 143.889 429.853 143.745 429.619 143.568 429.385 143.361 429.032 143.05 428.678 142.673 428.323 142.256 427.967 141.839 427.611 141.383 427.247 140.917 426.877 140.444 426.499 139.959 426.101 139.493 425.802 139.144 425.492 138.805 425.163 138.488 425.101 138.429 425.039 138.37 424.975 138.313 424.785 138.14 424.589 137.976 424.383 137.822 423.973 137.514 423.527 137.25 423.036 137.061 423.005 137.05 422.975 137.038 422.944 137.027 422.479 136.86 421.976 136.763 421.448 136.764 420.797 136.764 420.171 136.896 419.604 137.136 418.753 137.496 418.032 138.096 417.521 138.851 417.266 139.228 417.063 139.646 416.925 140.092 416.786 140.538 416.712 141.012 416.712 141.5 416.712 142.152 416.844 142.777 417.084 143.344Z" fill="#E76379"/><path d="M426.5 155.738 414.169 148.619 414.169 134.381 426.5 127.262 438.831 134.381 438.831 148.619Z" fill="#E76379"/></g></g></g><g><g><g><path d="M17.546 46.7894 4.0391 38.991 4.0391 23.3947 17.546 15.5965 31.0529 23.3947 31.0529 38.991Z" fill="#E76379" transform="matrix(1.02857 0 0 1 348.953 597.307)"/><path d="M8.55646 33.4531C8.99112 34.4803 9.71488 35.3513 10.6262 35.9669 11.082 36.2752 11.5858 36.5194 12.1234 36.6861 12.6612 36.8538 13.2339 36.9434 13.8227 36.9434 14.2248 36.9434 14.6162 36.898 14.9908 36.8123 15.6945 36.6525 16.3347 36.3551 16.9133 35.9811 17.4204 35.6543 17.8835 35.2679 18.3182 34.8506 18.7519 34.4322 19.1586 33.9815 19.549 33.5184 19.2212 33.1172 18.9034 32.7115 18.5938 32.3152L18.5691 32.2831C18.4139 32.0847 18.2575 31.8838 18.0995 31.6845 18.0668 31.7248 18.0338 31.7652 18.0009 31.8047 17.6484 32.2334 17.2975 32.6346 16.9476 32.9901 16.6847 33.2573 16.4227 33.4983 16.162 33.7066 15.7701 34.0202 15.3837 34.2587 15.0018 34.4169 14.8103 34.4958 14.6186 34.5551 14.4245 34.5955 14.23 34.6358 14.0316 34.6569 13.8229 34.6569 13.3464 34.6569 12.8985 34.561 12.4889 34.3879 11.8749 34.1287 11.3485 33.6922 10.9785 33.1441 10.7935 32.8705 10.6473 32.5691 10.5475 32.2478 10.4475 31.9261 10.3933 31.5851 10.3933 31.2275 10.3933 30.7507 10.4893 30.3028 10.6619 29.8929 10.9217 29.2793 11.358 28.7525 11.9061 28.3829 12.1801 28.1979 12.4815 28.0521 12.8029 27.9519 13.1242 27.8515 13.4655 27.7977 13.8227 27.7977 14.0526 27.7977 14.2694 27.8235 14.4828 27.8719 14.7623 27.9358 15.0376 28.0399 15.3152 28.1853 15.4075 28.234 15.5006 28.2867 15.5939 28.3445 15.8734 28.5172 16.1556 28.731 16.4389 28.9815 16.5454 29.0752 16.6519 29.1738 16.7584 29.2771 17.0783 29.5872 17.399 29.9375 17.7202 30.3144 17.9882 30.6292 18.2572 30.9619 18.5283 31.3052 18.6908 31.5105 18.8541 31.7201 19.0193 31.9312 19.466 32.5026 19.9216 33.0872 20.4021 33.6495 20.7627 34.0708 21.1368 34.4801 21.5347 34.8617 21.8331 35.1481 22.1451 35.4188 22.4755 35.6661 22.5373 35.7123 22.5998 35.7578 22.6631 35.8024 23.1061 36.115 23.5832 36.3844 24.1014 36.5836 24.5819 36.7685 25.0984 36.8907 25.6393 36.9297 25.7643 36.9386 25.8901 36.9434 26.0176 36.943 26.8034 36.943 27.5584 36.7833 28.2429 36.4937 29.2701 36.0586 30.1407 35.3357 30.7567 34.4239 31.0646 33.9681 31.3093 33.4643 31.476 32.9264 31.6437 32.3895 31.7336 31.8171 31.7336 31.2278 31.7336 30.442 31.5737 29.687 31.2839 29.0025 30.8492 27.9753 30.1259 27.1047 29.2142 26.4887 28.7584 26.1808 28.2545 25.9361 27.717 25.769 27.1794 25.6019 26.6069 25.5121 26.0176 25.5121 25.616 25.5121 25.2241 25.5579 24.8497 25.6429 24.146 25.8031 23.5059 26.1005 22.9268 26.4741 22.4197 26.8009 21.957 27.1877 21.5224 27.6049 21.0887 28.023 20.6819 28.4736 20.2915 28.9371 20.6209 29.3402 20.94 29.7473 21.2511 30.1455L21.2718 30.1721C21.4265 30.3704 21.5833 30.5712 21.7409 30.7706 21.7741 30.7307 21.8067 30.6899 21.8395 30.6499 22.1924 30.2217 22.5432 29.8205 22.8932 29.4645 23.1561 29.1978 23.4182 28.9568 23.6788 28.7477 24.0703 28.4343 24.4571 28.1956 24.8391 28.0377 25.0306 27.9584 25.2218 27.8992 25.4164 27.8589 25.6109 27.8189 25.8088 27.7973 26.0176 27.7973 26.4944 27.7973 26.9423 27.8933 27.3518 28.0667 27.9658 28.3259 28.4922 28.762 28.8617 29.3101 29.0467 29.5841 29.193 29.8855 29.2931 30.2068 29.3928 30.5281 29.4469 30.8695 29.4469 31.2271 29.4469 31.704 29.351 32.1519 29.1784 32.5618 28.9185 33.1757 28.4822 33.7021 27.9342 34.0717 27.6605 34.2571 27.3591 34.4029 27.0378 34.5027 26.7165 34.6028 26.3751 34.6569 26.0175 34.6569 25.7877 34.6569 25.5709 34.6311 25.3579 34.5827 24.9853 34.4977 24.62 34.3409 24.2468 34.1101 23.9669 33.9371 23.6849 33.7233 23.4018 33.4729 22.9762 33.0981 22.5487 32.6427 22.12 32.1397 21.6911 31.6366 21.2612 31.0859 20.8217 30.5236 20.375 29.9522 19.9195 29.3674 19.4389 28.805 19.0783 28.3833 18.7043 27.9743 18.3063 27.5924 18.2319 27.5208 18.1566 27.4502 18.0799 27.3804 17.8505 27.1725 17.6136 26.9737 17.3658 26.7879 16.8706 26.4171 16.3321 26.0985 15.7398 25.8705 15.7027 25.8563 15.6656 25.8425 15.6283 25.829 15.0674 25.627 14.4597 25.5106 13.8228 25.511 13.0372 25.511 12.2824 25.6706 11.5978 25.9603 10.5707 26.3949 9.70007 27.1187 9.08407 28.03 8.77618 28.4858 8.53115 28.9896 8.3644 29.5276 8.19647 30.0663 8.10702 30.6384 8.10702 31.2276 8.10702 32.0138 8.26666 32.7688 8.55631 33.4529Z" fill="#E76379" transform="matrix(1.02857 0 0 1 346.51 597.273)"/><path d="M19.3322 51.5526 4.45028 42.9603 4.45028 25.7763 19.3322 17.1842 34.2141 25.7763 34.2141 42.9603Z" fill="#E76379" transform="matrix(1.02857 0 0 1 347.115 594.131)"/></g></g></g><g><g><g><path d="M17.546 46.7894 4.0391 38.991 4.0391 23.3947 17.546 15.5965 31.0529 23.3947 31.0529 38.991Z" fill="#E76379" transform="matrix(1.02857 0 0 1 348.953 597.307)"/><path d="M8.55646 33.4531C8.99112 34.4803 9.71488 35.3513 10.6262 35.9669 11.082 36.2752 11.5858 36.5194 12.1234 36.6861 12.6612 36.8538 13.2339 36.9434 13.8227 36.9434 14.2248 36.9434 14.6162 36.898 14.9908 36.8123 15.6945 36.6525 16.3347 36.3551 16.9133 35.9811 17.4204 35.6543 17.8835 35.2679 18.3182 34.8506 18.7519 34.4322 19.1586 33.9815 19.549 33.5184 19.2212 33.1172 18.9034 32.7115 18.5938 32.3152L18.5691 32.2831C18.4139 32.0847 18.2575 31.8838 18.0995 31.6845 18.0668 31.7248 18.0338 31.7652 18.0009 31.8047 17.6484 32.2334 17.2975 32.6346 16.9476 32.9901 16.6847 33.2573 16.4227 33.4983 16.162 33.7066 15.7701 34.0202 15.3837 34.2587 15.0018 34.4169 14.8103 34.4958 14.6186 34.5551 14.4245 34.5955 14.23 34.6358 14.0316 34.6569 13.8229 34.6569 13.3464 34.6569 12.8985 34.561 12.4889 34.3879 11.8749 34.1287 11.3485 33.6922 10.9785 33.1441 10.7935 32.8705 10.6473 32.5691 10.5475 32.2478 10.4475 31.9261 10.3933 31.5851 10.3933 31.2275 10.3933 30.7507 10.4893 30.3028 10.6619 29.8929 10.9217 29.2793 11.358 28.7525 11.9061 28.3829 12.1801 28.1979 12.4815 28.0521 12.8029 27.9519 13.1242 27.8515 13.4655 27.7977 13.8227 27.7977 14.0526 27.7977 14.2694 27.8235 14.4828 27.8719 14.7623 27.9358 15.0376 28.0399 15.3152 28.1853 15.4075 28.234 15.5006 28.2867 15.5939 28.3445 15.8734 28.5172 16.1556 28.731 16.4389 28.9815 16.5454 29.0752 16.6519 29.1738 16.7584 29.2771 17.0783 29.5872 17.399 29.9375 17.7202 30.3144 17.9882 30.6292 18.2572 30.9619 18.5283 31.3052 18.6908 31.5105 18.8541 31.7201 19.0193 31.9312 19.466 32.5026 19.9216 33.0872 20.4021 33.6495 20.7627 34.0708 21.1368 34.4801 21.5347 34.8617 21.8331 35.1481 22.1451 35.4188 22.4755 35.6661 22.5373 35.7123 22.5998 35.7578 22.6631 35.8024 23.1061 36.115 23.5832 36.3844 24.1014 36.5836 24.5819 36.7685 25.0984 36.8907 25.6393 36.9297 25.7643 36.9386 25.8901 36.9434 26.0176 36.943 26.8034 36.943 27.5584 36.7833 28.2429 36.4937 29.2701 36.0586 30.1407 35.3357 30.7567 34.4239 31.0646 33.9681 31.3093 33.4643 31.476 32.9264 31.6437 32.3895 31.7336 31.8171 31.7336 31.2278 31.7336 30.442 31.5737 29.687 31.2839 29.0025 30.8492 27.9753 30.1259 27.1047 29.2142 26.4887 28.7584 26.1808 28.2545 25.9361 27.717 25.769 27.1794 25.6019 26.6069 25.5121 26.0176 25.5121 25.616 25.5121 25.2241 25.5579 24.8497 25.6429 24.146 25.8031 23.5059 26.1005 22.9268 26.4741 22.4197 26.8009 21.957 27.1877 21.5224 27.6049 21.0887 28.023 20.6819 28.4736 20.2915 28.9371 20.6209 29.3402 20.94 29.7473 21.2511 30.1455L21.2718 30.1721C21.4265 30.3704 21.5833 30.5712 21.7409 30.7706 21.7741 30.7307 21.8067 30.6899 21.8395 30.6499 22.1924 30.2217 22.5432 29.8205 22.8932 29.4645 23.1561 29.1978 23.4182 28.9568 23.6788 28.7477 24.0703 28.4343 24.4571 28.1956 24.8391 28.0377 25.0306 27.9584 25.2218 27.8992 25.4164 27.8589 25.6109 27.8189 25.8088 27.7973 26.0176 27.7973 26.4944 27.7973 26.9423 27.8933 27.3518 28.0667 27.9658 28.3259 28.4922 28.762 28.8617 29.3101 29.0467 29.5841 29.193 29.8855 29.2931 30.2068 29.3928 30.5281 29.4469 30.8695 29.4469 31.2271 29.4469 31.704 29.351 32.1519 29.1784 32.5618 28.9185 33.1757 28.4822 33.7021 27.9342 34.0717 27.6605 34.2571 27.3591 34.4029 27.0378 34.5027 26.7165 34.6028 26.3751 34.6569 26.0175 34.6569 25.7877 34.6569 25.5709 34.6311 25.3579 34.5827 24.9853 34.4977 24.62 34.3409 24.2468 34.1101 23.9669 33.9371 23.6849 33.7233 23.4018 33.4729 22.9762 33.0981 22.5487 32.6427 22.12 32.1397 21.6911 31.6366 21.2612 31.0859 20.8217 30.5236 20.375 29.9522 19.9195 29.3674 19.4389 28.805 19.0783 28.3833 18.7043 27.9743 18.3063 27.5924 18.2319 27.5208 18.1566 27.4502 18.0799 27.3804 17.8505 27.1725 17.6136 26.9737 17.3658 26.7879 16.8706 26.4171 16.3321 26.0985 15.7398 25.8705 15.7027 25.8563 15.6656 25.8425 15.6283 25.829 15.0674 25.627 14.4597 25.5106 13.8228 25.511 13.0372 25.511 12.2824 25.6706 11.5978 25.9603 10.5707 26.3949 9.70007 27.1187 9.08407 28.03 8.77618 28.4858 8.53115 28.9896 8.3644 29.5276 8.19647 30.0663 8.10702 30.6384 8.10702 31.2276 8.10702 32.0138 8.26666 32.7688 8.55631 33.4529Z" fill="#E76379" transform="matrix(1.02857 0 0 1 346.51 597.273)"/><path d="M19.3322 51.5526 4.45028 42.9603 4.45028 25.7763 19.3322 17.1842 34.2141 25.7763 34.2141 42.9603Z" fill="#E76379" transform="matrix(1.02857 0 0 1 347.115 594.131)"/></g></g></g><path d="M356 682.5C356 676.149 361.373 671 368 671 374.627 671 380 676.149 380 682.5 380 688.851 374.627 694 368 694 361.373 694 356 688.851 356 682.5Z" stroke="#E76379" stroke-width="2.00044" stroke-miterlimit="8" fill="#E76379" fill-rule="evenodd"/><path d="M401 655C401 646.163 408.387 639 417.5 639 426.613 639 434 646.163 434 655 434 663.837 426.613 671 417.5 671 408.387 671 401 663.837 401 655Z" stroke="#E76379" stroke-width="2.00044" stroke-miterlimit="8" fill="#E76379" fill-rule="evenodd"/><g><g><g><path d="M697.719 638.625 610.479 551.385C598.615 539.521 582.562 535.333 567.208 538.125L536.5 507.417C563.719 472.521 579.771 427.854 579.771 380.396 579.771 265.24 485.552 171.021 370.396 171.021 255.24 171.021 161.021 265.24 161.021 380.396 161.021 495.552 255.24 589.771 370.396 589.771 417.854 589.771 461.823 573.719 497.417 546.5L528.125 577.208C525.333 592.562 529.521 608.615 541.385 620.479L628.625 707.719C638.396 717.49 650.958 722.375 663.521 722.375 676.083 722.375 688.646 717.49 698.417 707.719 716.562 688.177 716.562 657.469 697.719 638.625ZM369.698 547.198C277.573 547.198 202.198 471.823 202.198 379.698 202.198 287.573 277.573 212.198 369.698 212.198 461.823 212.198 537.198 287.573 537.198 379.698 537.198 471.823 461.823 547.198 369.698 547.198Z" stroke="#000000" stroke-width="6.00897" fill="#FFFFFF"/></g></g></g><text fill="#C41E3A" font-family="Aptos,Aptos_MSFontService,sans-serif" font-weight="700" font-size="48" transform="matrix(0.707949 0.706263 -0.706263 0.707949 541.956 571)">magnipy</text><path d="M236 375.5C236 300.665 296.441 240 371 240 445.558 240 506 300.665 506 375.5 506 450.335 445.558 511 371 511 296.441 511 236 450.335 236 375.5Z" stroke="#E76379" stroke-width="2.00044" stroke-miterlimit="8" fill="#E76379" fill-rule="evenodd"/><g><g><g><path d="M219.583 96.6167C215.192 86.025 203.05 81.1167 192.458 85.5083 183.675 89.125 178.508 98.425 179.8 107.467L146.475 121.417C142.858 115.217 136.4 110.567 129.167 109.275L129.167 73.3667C137.95 71.0417 144.667 63.0333 144.667 53.475 144.667 42.1083 135.367 32.8083 124 32.8083L124 32.8083C112.633 32.8083 103.333 42.1083 103.333 53.475 103.333 63.0333 110.05 71.0417 118.833 73.3667L118.833 109.017C111.342 110.308 105.142 114.958 101.525 121.158L68.2 107.208C69.4917 98.1667 64.5833 88.8667 55.5417 85.25 44.95 80.8583 32.8083 85.7667 28.4167 96.3583 24.025 106.95 28.9333 119.092 39.525 123.483 48.3083 127.1 58.3833 124.258 63.8083 116.767L97.9083 130.717C97.65 131.75 97.65 133.042 97.65 134.075 97.65 139.758 99.4583 145.183 102.817 149.575L75.95 176.7C67.9417 172.05 57.6083 173.083 50.8917 179.8 42.8833 187.808 42.8833 200.983 50.8917 208.992 58.9 217 72.075 217 80.0833 208.992 86.8 202.275 87.8333 191.942 83.1833 183.933L110.567 156.55C114.442 158.875 118.833 160.167 123.483 160.167 123.742 160.167 123.742 160.167 124 160.167 124.258 160.167 124.258 160.167 124.517 160.167 129.167 160.167 133.558 158.875 137.433 156.55L164.817 183.933C160.167 191.942 161.2 202.275 167.917 209.25 175.925 217.258 189.1 217.258 197.108 209.25 205.117 201.242 205.117 188.067 197.108 180.058 190.392 173.342 180.058 172.308 172.05 176.958L145.183 149.833C148.542 145.442 150.35 140.275 150.35 134.333 150.35 133.3 150.35 132.008 150.092 130.975L184.192 117.025C189.617 124.258 199.692 127.358 208.475 123.742 218.808 119.092 223.975 107.208 219.583 96.6167Z" stroke="#C41E3A" stroke-width="6" fill="#C41E3A" transform="matrix(1 0 0 1.00403 250 245)"/></g></g></g><path d="M203 380.5C203 287.992 278.216 213 371 213 463.784 213 539 287.992 539 380.5 539 473.008 463.784 548 371 548 278.216 548 203 473.008 203 380.5Z" fill="#FFFFFF" fill-rule="evenodd" fill-opacity="0.258824"/></g></svg>