<svg width="457" height="261" viewBox="0 0 457 261" fill="none" xmlns="http://www.w3.org/2000/svg">
<ellipse cx="119.174" cy="34.3717" rx="46.5" ry="33.5" transform="rotate(170.986 119.174 34.3717)" fill="black"/>
<line x1="77.9992" y1="38.9084" x2="81.9937" y2="256.872" stroke="black" stroke-width="10"/>
<path d="M85 256.994C85 259.994 78.5 258.5 75.5 258.5C69.5 258 69.9896 257.815 67.5747 257.86C62.5163 257.952 55.2294 256.961 50.5 254.946C39.5 250.261 45.7373 250.922 43.5 249.5C40.7291 247.738 40.8914 248.005 38.2423 245.985C34.6352 243.233 31.0879 240.014 27.8227 236.866C24.4769 233.641 24.4 229.493 23.107 225.24C21.5505 220.12 20.6702 215.116 20.5717 209.74C20.4876 205.155 19.9156 200.4 21.0181 195.92C22.2269 191.008 21.7659 185.69 23.4655 180.892C24.186 178.858 24.0677 176.643 24.4597 174.546C24.8144 172.647 25.3914 170.9 25.987 169.072C27.0442 165.826 28.7668 162.621 28.9693 159.16C29.1691 155.746 28.8253 152.555 28.5125 149.175C28.2971 146.847 27.3117 143.379 25.6822 141.651C25.0134 140.942 24.4141 140.306 23.7283 139.618C23.1929 139.081 22.6506 138.941 22.0637 138.432C21.8353 138.234 20.9724 137.952 21.1728 137.961C21.6909 137.986 22.7902 138.673 23.2587 138.897C25.5498 139.99 26.7399 141.971 28.1891 143.978C30.0707 146.584 30.6793 148.713 30.7372 151.872C30.8111 155.904 31.7171 159.869 31.4907 163.936C31.3491 166.48 30.8077 169.124 30.2775 171.61C29.6039 174.767 29.5778 178.25 29.6367 181.463C29.8611 193.708 30.6054 205.807 32.8895 217.85C33.3801 220.437 34.6272 222.683 35.3664 225.182C35.8923 226.961 36.9235 229.11 38.2166 230.469C41.4063 233.824 44.5944 237.004 48.0966 240.024C53.6875 244.845 59.2747 248.898 66.0074 252.017C68.3785 253.115 71.2958 254.347 73.8189 254.946C75.0722 255.244 83.5555 254.084 84.5 254.994C84.6273 255.117 76.6166 256.182 76.3074 256.27C75.7532 256.427 75.0528 256.739 74.5557 256.971C73.7885 257.329 72.4932 257.476 71.645 257.511C69.6691 257.592 67.7597 257.856 65.7804 257.893C63.9809 257.926 61.8549 257.433 60.1774 256.778C59.06 256.342 57.6955 256.692 56.6062 256.144C53.9192 254.792 50.7413 254.478 48.0631 253.137C44.336 251.271 49.1762 254.54 45.5 252.569C41.4855 250.417 29.7211 242.52 26.1725 239.787C22.8972 237.263 20.9765 233.168 19.7744 229.317C18.8177 226.252 18.4821 222.655 18.0726 219.46C17.7698 217.098 17.6479 214.546 17.6043 212.168C17.5 206.476 16.54 199.974 17.8262 194.396C18.5323 191.335 18.7971 188.2 19.7564 185.173C20.6934 182.217 21.6513 179.318 22.4845 176.331C23.341 173.261 24.3326 170.336 25.6378 167.451C26.3317 165.917 26.5728 163.686 26.5417 161.988C26.4617 157.625 26.4897 152.986 25.1436 148.78C24.4281 146.545 23.476 144.902 22.2972 142.869C21.7203 141.874 20.6561 141.164 20.0573 140.172C19.5629 139.353 18.4411 138.653 17.6475 138.163C16.8381 137.663 15.9654 137.316 15.1283 136.825C14.6463 136.542 12.9075 136.106 12.6451 135.79C11.67 134.616 8.21325 135.137 6.90741 134.8C6.16768 134.609 5.40053 134.691 4.63915 134.705C4.23563 134.712 1.17127 134.495 2.21632 134.476C3.85564 134.445 5.78269 134.43 7.36499 134.868C8.95349 135.307 11.1028 134.52 12.6336 135.167C13.8311 135.673 15.0292 135.968 16.217 136.47C18.0723 137.254 20.0138 138.499 21.4817 139.872C22.9548 141.251 25.7935 142.484 26.2102 144.729C26.4683 146.12 27.3575 147.569 27.6866 148.931C28.265 151.326 29.1256 153.577 29.1721 156.114C29.2009 157.685 28.6311 154.587 28.6053 154.238C28.4374 151.968 28.1432 149.487 27.4896 147.307C27.0586 145.87 26.461 142.953 25.2169 141.994C23.825 140.922 22.4326 139.659 20.8102 138.926C20.1928 138.648 19.7996 138.122 19.1197 137.984C18.7391 137.907 17.561 137.628 17.3283 137.347C17.1514 137.134 16.0773 136.781 15.7954 136.706C15.5604 136.644 17.9115 138.53 18.469 139C22.8994 142.735 26.8257 148.085 28.4277 153.679C29.3038 156.738 30.5991 159.278 30.6586 162.521C30.684 163.908 30.4843 165.593 30.192 166.941C29.6931 169.242 29.1685 171.529 28.6142 173.815C27.9121 176.712 27.8825 179.721 27.6816 182.686C27.371 187.268 26.6846 191.723 26.5627 196.336C26.4043 202.328 26.1764 208.428 27.3184 214.332C28.5985 220.949 28.3925 227.717 29.662 234.307C29.8546 235.307 30.0394 236.665 30.6492 237.545C31.4377 238.682 29.747 234.927 29.224 233.646C27.738 230.007 25.9497 226.502 24.6743 222.777C23.0585 218.059 21.8595 213.242 20.5629 208.432C19.6828 205.167 18.9944 201.828 18.0248 198.591C17.4514 196.677 17.6534 198.33 17.807 199.158C19.0108 205.645 21.3198 211.916 22.3739 218.439C22.7941 221.038 23.6785 223.672 24.4478 226.189C24.522 226.432 22.9185 223.146 22.6365 223.636C22.0369 224.678 22.6437 226.866 22.8221 227.953C23.0565 229.38 23.1474 230.763 23.1738 232.205C23.2185 234.642 22.3412 231.518 22.0646 230.613C21.8034 229.759 19.8955 224.709 20.837 224.217" stroke="black" stroke-width="4" stroke-linecap="round"/>
<path d="M24.8063 196.73C24.8748 200.464 25.2671 204.174 25.3355 207.903C25.374 210.006 25.5606 212.097 25.613 214.196C25.6418 215.35 26.0568 218.784 25.8295 217.653C25.0169 213.606 24.4807 209.674 24.1931 205.554C23.9715 202.38 23.5157 199.056 24.1786 195.913C24.633 193.758 25.5437 191.797 26.0466 189.67C26.4898 187.795 26.5588 185.886 26.8257 183.997C26.9076 183.417 26.7247 182.703 27.0994 182.216C27.2382 182.036 27.3098 181.511 27.4426 181.273C27.9236 180.413 28.2076 179.543 28.493 178.605C28.7405 177.791 28.6615 176.983 28.6461 176.142C28.6363 175.607 28.9519 175.124 28.9422 174.596C28.9319 174.038 29.3784 173.29 29.5204 172.711C29.8184 171.495 29.9114 170.223 30.2274 169.003C30.4018 168.33 30.5854 167.951 30.4404 167.35C30.3242 166.869 30.3802 166.231 30.2307 165.741C29.9873 164.945 29.0399 166.633 28.9542 166.891C28.6569 167.785 28.1905 168.792 28.078 169.727C27.9471 170.816 28.0847 171.866 27.8669 172.957C27.0397 177.101 25.9113 181.186 24.7581 185.251C24.1419 187.423 23.3807 189.534 23.0214 191.771C22.9218 192.39 22.792 193.02 22.8035 193.649C22.8128 194.156 22.7734 194.45 22.6335 193.715C22.1107 190.969 22.1092 188.3 22.0057 185.518C21.9756 184.71 21.8306 184.813 21.8437 185.53C21.8584 186.331 21.8003 187.107 21.689 187.902C21.6243 188.365 21.5079 188.972 21.3472 189.413C21.261 189.65 21.3815 190.077 21.2458 190.271C21.0408 190.564 20.9946 190.937 20.8948 191.278C20.6844 191.997 20.2055 192.583 20.0765 193.339C19.7377 195.323 19.233 197.296 19.5105 199.332C19.9368 202.461 19.9419 205.664 20.0001 208.839C20.043 211.18 20.2259 213.267 20.6186 215.54C20.8571 216.922 20.7045 218.348 20.9299 219.743C21.0221 220.313 21.0272 220.87 21.2398 221.413C21.4366 221.916 21.8687 222.281 22.0314 222.813C22.3129 223.734 22.5868 224.701 22.9385 225.599C23.3783 226.723 24.2431 227.724 24.6744 228.865C25.3695 230.704 25.8459 232.395 26.8773 234.015C27.4724 234.95 27.9949 235.943 28.6233 236.849C29.0023 237.395 29.6967 238.29 30.2774 238.603C30.4392 238.69 29.8337 238.065 29.707 237.964C29.1111 237.492 28.7002 236.856 28.1808 236.307C27.4118 235.495 26.6843 234.537 25.8907 233.772C24.7553 232.678 23.7654 230.938 23.3334 229.449C23.1423 228.79 23.038 228.137 23.2614 227.486C23.4107 227.05 23.3154 226.328 23.7211 226.017C23.8726 225.901 26.2278 228.743 26.4793 229.013C27.9082 230.543 29.2963 232.111 30.7182 233.648C30.7333 233.664 31.1703 234.223 31.1684 234.117C31.1582 233.56 31.0644 233.024 30.9402 232.481C29.7816 227.419 28.1089 222.541 26.4688 217.623C26.0228 216.286 25.6937 214.911 25.2233 213.582C24.9162 212.714 25.8655 215.312 26.0824 216.206C26.5992 218.339 27.0338 220.481 27.3988 222.643C27.5535 223.56 27.9767 226.31 27.9265 225.382C27.5828 219.024 27.5311 212.656 27.4144 206.288C27.3434 202.414 27.1102 198.536 27.0393 194.671C27.012 193.179 27.1474 191.717 27.1199 190.218C27.1161 190.007 27.1465 188.211 27.2536 189.152C27.3972 190.415 27.661 191.664 27.7823 192.927C28.227 197.56 27.6632 202.163 27.7485 206.813C27.7893 209.041 28.0188 211.152 28.3457 213.344C28.752 216.069 29.6211 218.722 30.0441 221.45C30.3127 223.182 30.6108 224.948 31.5505 226.451C31.5987 226.528 31.6392 224.409 31.6319 224.007C31.5998 222.255 31.4181 220.509 31.0138 218.801C30.2532 215.587 29.6198 212.399 29.4211 209.09C29.0516 202.935 29.1871 196.809 29.0742 190.651" stroke="black" stroke-width="4" stroke-linecap="round"/>
<path d="M31.0149 216.891C31.0279 217.604 31.3462 218.426 31.5779 219.097C32.2218 220.963 32.7153 222.883 33.4382 224.722C34.2669 226.83 34.9047 229.102 36.1039 231.035C36.2301 231.238 36.8423 232.284 36.4365 231.479C35.5673 229.756 34.5044 228.16 33.6944 226.411C32.3652 223.542 31.2626 220.524 30.3053 217.508C29.6353 215.396 29.493 213.502 29.4526 211.297C29.4222 209.639 30.2832 211.598 30.6141 212.231C31.4701 213.867 32.387 215.798 32.7763 217.615C33.2861 219.996 30.2119 208.277 30.4239 210.702C30.6172 212.914 30.8195 215.083 30.8603 217.308C30.8911 218.986 30.9525 220.595 31.2842 222.247C31.6367 224.003 31.7335 225.781 32.1019 227.531C32.5429 229.625 33.152 231.65 33.7917 233.69C34.1958 234.979 34.3924 236.436 34.9638 237.661C35.5359 238.887 34.6448 237.023 34.4414 236.688C33.6081 235.318 32.7127 234.012 31.9337 232.607C31.5661 231.944 31.1502 230.631 30.6083 230.108C30.2019 229.717 31.0036 231.167 31.2319 231.683C31.7115 232.767 32.1489 233.848 32.5803 234.947C33.1012 236.274 33.987 237.44 34.6939 238.666C35.0221 239.235 35.2634 239.797 35.6614 240.324C35.7361 240.423 36.3079 241.182 36.3077 241.168C36.2933 240.387 35.3212 239.405 34.9389 238.761C34.4954 238.012 34.0903 237.239 33.6538 236.486C33.1655 235.644 32.5637 235.206 33.3882 236.257C34.5949 237.795 35.4647 239.497 36.8879 240.869C37.977 241.919 39.2569 242.787 40.5507 243.569C42.3614 244.663 43.9903 246.167 45.6336 247.539C48.1254 249.62 51.3118 251.305 54.373 252.389C55.5504 252.806 56.8345 252.673 57.9558 253.18C59.0687 253.682 60.2947 254.025 61.3858 254.486C62.8488 255.105 64.9077 255.359 66.5105 255.33C67.1957 255.317 67.8476 255.305 68.6183 255.291C69.3073 255.278 70.0021 255.428 70.6481 255.416C71.0626 255.408 72.519 255.517 71.2966 255.404C70.4891 255.329 69.724 254.835 68.9217 254.637C67.6578 254.324 66.451 253.72 65.167 253.318C62.2054 252.391 58.9552 251.588 56.2923 249.93C53.4041 248.133 50.1392 247.018 47.4232 244.884C44.1295 242.297 40.2969 240.38 36.9934 237.777C35.6427 236.712 34.3533 235.388 33.2846 234.042C32.4194 232.953 31.606 231.618 30.6539 230.63C29.9633 229.913 29.7451 229.049 29.2757 228.195C29.191 228.041 28.8783 227.036 29.2954 227.303C31.1589 228.497 33.0481 230.143 34.3896 231.895C35.4017 233.217 36.3545 234.745 37.5538 235.901C38.0544 236.384 38.7209 236.641 39.2427 237.096C39.43 237.259 39.6274 237.505 39.8908 237.552C40.3177 237.63 39.5256 236.761 39.284 236.401C38.4084 235.095 37.432 233.856 36.4219 232.651C35.5329 231.591 32.4525 228.863 33.6441 229.566C35.0789 230.413 36.4484 231.653 37.5438 232.901C38.0885 233.521 38.7127 234.03 39.3404 234.562C39.4186 234.628 40.1026 235.32 39.7073 234.916C38.6307 233.815 37.9871 232.27 37.2021 230.97C36.6157 229.998 38.021 231.582 38.1806 231.754C38.8889 232.517 39.3563 233.425 40.0898 234.152C41.0457 235.099 41.802 236.707 42.9787 237.397C44.0743 238.039 45.399 239.268 46.2742 240.211C47.1413 241.145 47.7706 242.123 48.8365 242.84C49.8887 243.548 50.9993 244.617 52.202 245.049C53.2317 245.419 53.9017 246.307 54.7942 246.858C55.4404 247.257 56.0264 247.755 56.6566 248.175C56.9258 248.355 57.2157 248.52 57.4949 248.683C57.7525 248.833 58.1391 248.737 58.3551 248.91C59.0058 249.433 60.1388 249.595 60.8981 249.999C61.7456 250.45 62.7297 250.456 63.487 251.132C63.7887 251.401 64.5958 251.872 63.8375 251.576C62.6818 251.125 61.329 251.045 60.0977 251.068C58.7035 251.093 57.0985 250.639 55.7067 250.428C54.3693 250.224 53.1115 249.765 51.8076 249.589C51.1522 249.5 50.5785 249.045 50.0082 248.757C49.0709 248.282 48.1965 247.802 47.2859 247.23C45.676 246.218 44.3839 245.087 42.9435 243.831C41.7462 242.787 40.7862 241.375 39.6963 240.214C38.8485 239.311 38.0745 238.332 37.3368 237.338C37.157 237.096 36.5335 236.749 36.8008 236.609C37.1171 236.443 38.4883 237.553 38.768 237.744C39.7901 238.445 40.8828 239.103 41.9667 239.704C42.9792 240.266 43.9946 240.842 44.9814 241.451C45.9688 242.06 43.4141 239.737 42.5744 238.936C41.7031 238.105 38.8473 235.962 39.9429 236.461C41.8968 237.352 43.9124 238.422 45.722 239.581C46.2114 239.895 46.7129 240.245 47.2695 240.436C48.2715 240.78 49.4056 241.975 50.416 242C51.5812 242.029 48.3717 240.879 47.3311 240.354C45.7756 239.569 44.2275 238.838 42.7711 237.869C40.4824 236.346 38.0184 235.094 35.7707 233.501C34.3267 232.477 33.4717 230.319 33.347 228.598C33.2868 227.767 33.4703 226.965 33.4557 226.172C33.4496 225.839 33.5861 226.191 33.7203 226.348C34.4069 227.149 35.0711 227.998 35.65 228.881C36.1448 229.635 36.9897 230.929 35.9458 229.29C35.5709 228.701 35.2682 228.11 34.9576 227.488C34.8131 227.198 36.0939 228.589 36.2795 228.815C38.3637 231.351 39.393 234.59 41.4406 237.055C42.2765 238.062 43.7374 238.639 44.4098 239.767C44.9331 240.645 45.7792 241.359 46.2393 242.239C46.9761 243.647 45.9238 242.329 45.4256 242.092" stroke="black" stroke-width="4" stroke-linecap="round"/>
<path d="M21.2595 188.593C21.5272 188.281 21.6344 187.744 21.8085 187.358C22.4005 186.047 23.0021 184.707 23.6691 183.432C25.6042 179.733 26.9043 175.769 28.7037 171.999C29.3171 170.713 30.2225 169.49 30.647 168.134C30.9772 167.08 30.9009 166.064 30.9612 164.98C31.0498 163.388 31.3828 161.384 32.1307 159.978C32.2641 159.727 32.3113 158.943 32.3168 159.239C32.328 159.853 32.1301 158.582 32.1371 158.344C32.1842 156.735 32.8966 155.232 32.8666 153.595C32.8139 150.721 31.784 147.798 30.5085 145.228C29.6446 143.487 28.956 141.725 27.8823 140.05C26.8442 138.43 25.5138 137.437 24.1447 136.117C23.1392 135.148 21.6689 134.554 20.3872 134.063C19.1036 133.57 17.744 133.563 16.4072 133.238C13.6357 132.562 10.5085 132.611 7.65939 132.663C6.46932 132.685 2.76037 132.247 2.12357 133.581" stroke="black" stroke-width="4" stroke-linecap="round"/>
<path d="M28.8651 193.68C28.7734 188.677 29.5855 183.765 30.3813 178.881C30.5487 177.854 30.9267 176.872 31.2326 175.826C31.6884 174.268 31.9346 172.741 32.2083 171.145C32.9254 166.965 33.1976 162.747 33.1203 158.526C33.0949 157.144 33.0494 155.705 32.8815 154.411C32.762 153.489 32.2633 152.599 31.8541 151.817" stroke="black" stroke-width="4" stroke-linecap="round"/>
<path d="M182.54 110.88C184.94 110.88 186.98 111.72 188.66 113.4C190.34 114.96 191.18 116.88 191.18 119.16C191.18 121.08 190.52 122.7 189.2 124.02C187.88 125.34 186.26 126 184.34 126C183.14 126 182.12 125.76 181.28 125.28C180.56 124.68 179.78 123.84 178.94 122.76C178.1 121.8 177.32 121.08 176.6 120.6C176 120.12 175.22 119.88 174.26 119.88C172.34 119.88 170.36 121.02 168.32 123.3C166.4 125.58 165.02 128.22 164.18 131.22V186.12L178.58 187.56V189H141.5V187.56L152.48 186.12V123.12L141.86 119.16V117.9L162.2 110.88H163.64V126.72C170.36 116.16 176.66 110.88 182.54 110.88ZM259.888 168.48L260.608 168.84L259.888 170.82C257.488 177.18 253.888 182.1 249.088 185.58C244.408 189.06 238.768 190.8 232.168 190.8C225.688 190.8 219.928 189.12 214.888 185.76C209.848 182.4 205.888 177.72 203.008 171.72C200.248 165.72 198.868 158.82 198.868 151.02C198.868 143.22 200.368 136.26 203.368 130.14C206.368 124.02 210.628 119.28 216.148 115.92C221.668 112.56 227.968 110.88 235.048 110.88C243.448 110.88 249.868 113.4 254.308 118.44C258.868 123.36 261.208 130.56 261.328 140.04L260.248 140.94H211.648C211.408 144.06 211.288 146.52 211.288 148.32C211.288 159.24 213.508 167.58 217.948 173.34C222.388 178.98 228.568 181.8 236.488 181.8C240.568 181.8 244.468 180.9 248.188 179.1C252.028 177.18 255.388 174.36 258.268 170.64L259.888 168.48ZM233.068 112.86C227.428 112.86 222.748 115.2 219.028 119.88C215.308 124.56 212.908 130.92 211.828 138.96L246.748 137.7C247.108 136.26 247.288 133.86 247.288 130.5C247.288 124.02 246.028 119.46 243.508 116.82C241.108 114.18 237.628 112.86 233.068 112.86ZM283.261 116.46C287.941 112.74 294.481 110.88 302.881 110.88C305.761 110.88 308.701 111.12 311.701 111.6C314.701 112.08 317.161 112.68 319.081 113.4V133.38H317.101C315.421 126.18 313.261 120.96 310.621 117.72C308.101 114.48 304.681 112.86 300.361 112.86C296.401 112.86 293.221 114.12 290.821 116.64C288.421 119.04 287.221 122.28 287.221 126.36C287.221 130.92 288.541 134.4 291.181 136.8C293.821 139.08 297.841 141.48 303.241 144C307.441 145.92 310.741 147.72 313.141 149.4C315.661 150.96 317.761 153.18 319.441 156.06C321.241 158.94 322.141 162.6 322.141 167.04C322.141 174.36 319.801 180.18 315.121 184.5C310.441 188.7 304.141 190.8 296.221 190.8C293.341 190.8 290.101 190.5 286.501 189.9C282.901 189.3 279.841 188.52 277.321 187.56L276.421 164.16H278.581C279.781 172.56 281.881 178.8 284.881 182.88C288.001 186.84 292.021 188.82 296.941 188.82C301.381 188.82 304.921 187.44 307.561 184.68C310.201 181.8 311.521 178.08 311.521 173.52C311.521 168.6 310.141 164.88 307.381 162.36C304.621 159.84 300.481 157.26 294.961 154.62C290.881 152.58 287.581 150.78 285.061 149.22C282.661 147.54 280.621 145.32 278.941 142.56C277.261 139.8 276.421 136.32 276.421 132.12C276.421 125.4 278.701 120.18 283.261 116.46ZM333.976 114.48L353.776 95.4L354.496 95.58V112.68H375.016L373.936 115.56H354.496V170.64C354.496 174.84 355.156 177.96 356.476 180C357.916 182.88 360.616 184.32 364.576 184.32C366.496 184.32 368.356 183.84 370.156 182.88C371.956 181.92 373.936 180.36 376.096 178.2L376.816 178.74C375.016 182.46 372.436 185.4 369.076 187.56C365.836 189.72 362.356 190.8 358.636 190.8C354.796 190.8 351.376 189.72 348.376 187.56C346.336 186.12 344.896 184.26 344.056 181.98C343.216 179.7 342.796 176.7 342.796 172.98V115.38H334.336L333.976 114.48ZM420.66 110.88C427.62 110.88 433.8 112.56 439.2 115.92C444.6 119.28 448.8 124.02 451.8 130.14C454.8 136.14 456.3 143.04 456.3 150.84C456.3 158.64 454.8 165.6 451.8 171.72C448.8 177.72 444.6 182.4 439.2 185.76C433.8 189.12 427.62 190.8 420.66 190.8C413.7 190.8 407.52 189.12 402.12 185.76C396.72 182.4 392.52 177.72 389.52 171.72C386.52 165.6 385.02 158.64 385.02 150.84C385.02 143.04 386.52 136.14 389.52 130.14C392.52 124.02 396.72 119.28 402.12 115.92C407.52 112.56 413.7 110.88 420.66 110.88ZM398.34 150.84C398.34 162.84 400.32 172.2 404.28 178.92C408.24 185.64 413.7 189 420.66 189C427.62 189 433.08 185.64 437.04 178.92C441 172.2 442.98 162.84 442.98 150.84C442.98 138.84 441 129.48 437.04 122.76C433.08 116.04 427.62 112.68 420.66 112.68C413.7 112.68 408.24 116.04 404.28 122.76C400.32 129.48 398.34 138.84 398.34 150.84Z" fill="black"/>
<path d="M2.90489 132.979C2.53771 132.979 2.10518 133.391 2.10518 133.745C2.10518 134.044 3.45182 133.965 3.7046 133.979C5.3498 134.065 7.00787 134.245 8.66946 134.245C9.65821 134.245 10.5244 134.412 11.4499 134.697C12.0679 134.887 12.7401 135.006 13.3381 135.278C13.7294 135.456 14.2094 135.56 14.6191 135.696C15.1157 135.862 15.6288 135.947 16.1445 136.059C16.8557 136.214 17.5554 136.437 18.2475 136.659C18.5786 136.766 18.8445 137.004 19.1656 137.111" stroke="black" stroke-width="3" stroke-linecap="round"/>
</svg>

